<svg width="30" height="28" viewBox="0 0 30 28" fill="none" xmlns="http://www.w3.org/2000/svg">
<g id="Frame">
<path id="Vector" d="M5.49479 4.6665H20.6615L28.8281 13.9998L20.6615 23.3332H5.49479C4.87596 23.3332 4.28246 23.0873 3.84488 22.6497C3.4073 22.2122 3.16146 21.6187 3.16146 20.9998V6.99984C3.16146 6.381 3.4073 5.78751 3.84488 5.34992C4.28246 4.91234 4.87596 4.6665 5.49479 4.6665Z" stroke="currentColor" stroke-linecap="round" stroke-linejoin="round"/>
<path id="Union" fill-rule="evenodd" clip-rule="evenodd" d="M9.63863 10.8536C9.44337 10.6583 9.44337 10.3417 9.63863 10.1464C9.8339 9.95118 10.1505 9.95118 10.3457 10.1464L13.4922 13.2929L16.6386 10.1464C16.8339 9.95118 17.1505 9.95118 17.3457 10.1464C17.541 10.3417 17.541 10.6583 17.3457 10.8536L14.1993 14L17.3457 17.1464C17.541 17.3417 17.541 17.6583 17.3457 17.8536C17.1505 18.0488 16.8339 18.0488 16.6386 17.8536L13.4922 14.7071L10.3457 17.8536C10.1505 18.0488 9.8339 18.0488 9.63863 17.8536C9.44337 17.6583 9.44337 17.3417 9.63863 17.1464L12.7851 14L9.63863 10.8536Z" fill="currentColor"/>
</g>
</svg>
