<svg xmlns="http://www.w3.org/2000/svg" viewBox="0 0 30 30">
    <path d="M8.33333 5L5 9.2V23.9C5 24.457 5.23413 24.9911 5.65087 25.3849C6.06762 25.7787 6.63285 26 7.22222 26H22.7778C23.3671 26 23.9324 25.7787 24.3491 25.3849C24.7659 24.9911 25 24.457 25 23.9V9.2L21.6667 5H8.33333Z" stroke="currentColor" stroke-linecap="round" stroke-linejoin="round" fill="none"></path>
    <path d="M5 9H25" stroke="currentColor" stroke-linecap="round" stroke-linejoin="round" fill="none"></path>
    <path d="M19 14C19 15.0609 18.5786 16.0783 17.8284 16.8284C17.0783 17.5786 16.0609 18 15 18C13.9391 18 12.9217 17.5786 12.1716 16.8284C11.4214 16.0783 11 15.0609 11 14" stroke="currentColor" stroke-linecap="round" stroke-linejoin="round" fill="none"></path>
</svg>