<svg width="31" height="30" viewBox="0 0 31 30" xmlns="http://www.w3.org/2000/svg">
<path fill-rule="evenodd" clip-rule="evenodd" d="M4.5 4.5C4.22386 4.5 4 4.72386 4 5C4 5.27614 4.22386 5.5 4.5 5.5H5.58208C6.6894 5.5 7.66479 6.22843 7.97919 7.29018L10.7437 16.6261C11.0013 17.4959 10.7675 18.437 10.1328 19.0851L10.1116 19.1068C10.0033 19.2173 9.85505 19.3747 9.74944 19.5794C9.60636 19.8567 9.53119 20.1632 9.53363 20.4765C9.53429 21.0304 9.77876 21.5497 10.1936 21.9243C10.5006 22.2014 10.8833 22.3842 11.2912 22.4601C11.1065 22.7631 11 23.1191 11 23.5C11 24.6046 11.8954 25.5 13 25.5C14.1046 25.5 15 24.6046 15 23.5C15 23.1357 14.9026 22.7942 14.7324 22.5H19.2676C19.0974 22.7942 19 23.1357 19 23.5C19 24.6046 19.8954 25.5 21 25.5C22.1046 25.5 23 24.6046 23 23.5C23 23.1357 22.9026 22.7942 22.7324 22.5H24.5C24.7761 22.5 25 22.2761 25 22C25 21.7239 24.7761 21.5 24.5 21.5H21H13H11.7238C11.3926 21.5 11.0839 21.3808 10.8637 21.182C10.6452 20.9847 10.5336 20.7288 10.5336 20.4742L10.5336 20.4698C10.5323 20.3223 10.5674 20.175 10.6381 20.038C10.6698 19.9765 10.7248 19.9098 10.8261 19.8064L10.8473 19.7847C11.2726 19.3504 11.5694 18.8221 11.7236 18.2557H21.7613C22.4199 18.2557 23.0015 17.8261 23.195 17.1966L25.58 9.4409C25.8766 8.47637 25.1554 7.5 24.1463 7.5H9.08424L8.93803 7.00625C8.49787 5.5198 7.13232 4.5 5.58208 4.5H4.5ZM13 22.5C12.4477 22.5 12 22.9477 12 23.5C12 24.0523 12.4477 24.5 13 24.5C13.5523 24.5 14 24.0523 14 23.5C14 22.9477 13.5523 22.5 13 22.5ZM20 23.5C20 22.9477 20.4477 22.5 21 22.5C21.5523 22.5 22 22.9477 22 23.5C22 24.0523 21.5523 24.5 21 24.5C20.4477 24.5 20 24.0523 20 23.5ZM9.38036 8.5L11.7026 16.3422C11.7917 16.6432 11.8388 16.9502 11.8458 17.2557H21.7613C21.9808 17.2557 22.1747 17.1125 22.2392 16.9026L24.6242 9.14697C24.7231 8.82546 24.4826 8.5 24.1463 8.5H9.38036Z" fill="currentColor"/>
</svg>
