<svg width="19" height="20" viewBox="0 0 19 20" xmlns="http://www.w3.org/2000/svg">
<path d="M18.1917 12.0575L17.502 11.3333L18.1917 12.0575ZM10.1917 19.6765L9.50201 18.9524L10.1917 19.6765ZM0.812357 12.0575L0.122702 12.7816L0.812357 12.0575ZM5.00222 1.04761H14.0022V-0.952393H5.00222V1.04761ZM5.00222 9.33332V1.04761H3.00222V9.33332H5.00222ZM1.50201 11.3333H3.00222V9.33332H1.50201V11.3333ZM9.50201 18.9524L1.50201 11.3333L0.122702 12.7816L8.1227 20.4006L9.50201 18.9524ZM17.502 11.3333L9.50201 18.9524L10.8813 20.4006L18.8813 12.7816L17.502 11.3333ZM16.0022 11.3333H17.502V9.33332H16.0022V11.3333ZM14.0022 1.04761V9.33332H16.0022V1.04761H14.0022ZM16.0022 9.33332V9.33332H14.0022C14.0022 10.4379 14.8976 11.3333 16.0022 11.3333V9.33332ZM18.8813 12.7816C20.1887 11.5365 19.3074 9.33332 17.502 9.33332V11.3333L18.8813 12.7816ZM8.1227 20.4006C8.89512 21.1363 10.1089 21.1363 10.8813 20.4006L9.50201 18.9524L8.1227 20.4006ZM1.50201 9.33332C-0.303407 9.33332 -1.18467 11.5365 0.122702 12.7816L1.50201 11.3333H1.50201V9.33332ZM3.00222 9.33332H3.00222V11.3333C4.10678 11.3333 5.00222 10.4379 5.00222 9.33332H3.00222ZM14.0022 1.04761H16.0022C16.0022 -0.0569617 15.1068 -0.952393 14.0022 -0.952393V1.04761ZM5.00222 -0.952393C3.89765 -0.952393 3.00222 -0.0569596 3.00222 1.04761H5.00222V1.04761V-0.952393Z" fill="currentColor"/>
<path d="M12 7.14294L8 11.1429" stroke="currentColor" stroke-linecap="round" stroke-linejoin="round" fill="none"/>
<path d="M9 9.14294C9.55228 9.14294 10 8.69523 10 8.14294C10 7.59066 9.55228 7.14294 9 7.14294C8.44772 7.14294 8 7.59066 8 8.14294C8 8.69523 8.44772 9.14294 9 9.14294Z" stroke="currentColor" stroke-linecap="round" stroke-linejoin="round" fill="none"/>
<path d="M12 12.1429C12.5523 12.1429 13 11.6952 13 11.1429C13 10.5907 12.5523 10.1429 12 10.1429C11.4477 10.1429 11 10.5907 11 11.1429C11 11.6952 11.4477 12.1429 12 12.1429Z" stroke="currentColor" stroke-linecap="round" stroke-linejoin="round" fill="none"/>
</svg>
