<svg width="41" height="30" viewBox="0 0 41 30" xmlns="http://www.w3.org/2000/svg">
<rect x="-0.5" y="0.5" width="9" height="5" rx="0.5" transform="matrix(-1 0 0 1 37.5 15)" stroke="currentColor" fill="none"/>
<path d="M33.4157 8.67991C33.3207 8.56591 33.18 8.5 33.0316 8.5H29.5C29.2239 8.5 29 8.72386 29 9V15C29 15.2761 29.2239 15.5 29.5 15.5H38V14.3621C38 14.2451 37.959 14.1318 37.8841 14.042L38.2682 13.7219L37.8841 14.042L33.4157 8.67991L33.7955 8.36343L33.4157 8.67991Z" stroke="currentColor" fill="none"/>
<circle cx="16" cy="22.5" r="2" stroke="currentColor" fill="none"/>
<path d="M10.5 5.5C10.5 5.22386 10.7239 5 11 5H27.5C28.0523 5 28.5 5.44772 28.5 6V20H11.5C10.9477 20 10.5 19.5523 10.5 19V17.5C10.5 17.2239 10.2761 17 10 17C9.72386 17 9.5 17.2239 9.5 17.5V20C9.5 20.5523 9.94772 21 10.5 21H29.5V5C29.5 4.44772 29.0523 4 28.5 4H10.5C9.94772 4 9.5 4.44772 9.5 5V5.5C9.5 5.77614 9.72386 6 10 6C10.2761 6 10.5 5.77614 10.5 5.5Z" fill="currentColor"/>
<circle cx="33" cy="22.5" r="2" stroke="currentColor" fill="none"/>
<line x1="3" y1="7.5" x2="12" y2="7.5" stroke="currentColor" stroke-linecap="round" fill="none"/>
<line x1="5" y1="11.5" x2="12" y2="11.5" stroke="currentColor" stroke-linecap="round" fill="none"/>
<line x1="7" y1="15.5" x2="12" y2="15.5" stroke="currentColor" stroke-linecap="round" fill="none"/>
</svg>
