<svg width="20" height="21" viewBox="0 0 20 21" xmlns="http://www.w3.org/2000/svg">
<path d="M17 9.03407L10.3811 15.7224C9.57026 16.5418 8.47049 17.0021 7.32376 17.0021C6.17703 17.0021 5.07726 16.5418 4.2664 15.7224C3.45554 14.903 3 13.7917 3 12.633C3 11.4742 3.45554 10.3629 4.2664 9.54352L10.8853 2.8552C11.4259 2.30895 12.159 2.00208 12.9235 2.00208C13.688 2.00208 14.4212 2.30895 14.9618 2.8552C15.5023 3.40145 15.806 4.14231 15.806 4.91482C15.806 5.68733 15.5023 6.4282 14.9618 6.97445L8.33568 13.6628C8.06539 13.9359 7.6988 14.0893 7.31656 14.0893C6.93431 14.0893 6.56773 13.9359 6.29744 13.6628C6.02715 13.3896 5.8753 13.0192 5.8753 12.633C5.8753 12.2467 6.02715 11.8763 6.29744 11.6031L12.4122 5.43155" stroke="currentColor" stroke-linecap="round" stroke-linejoin="round" fill="none"/>
</svg>
