<svg width="24" height="32" viewBox="0 0 24 32" fill="none" xmlns="http://www.w3.org/2000/svg">
<g id="Group">
<g id="Group_2">
<path id="Vector" d="M24 12C24 13.6569 22.6569 15 21 15C19.3431 15 18 13.6569 18 12C18 10.3431 19.3431 9 21 9C22.6569 9 24 10.3431 24 12Z" fill="currentColor"/>
<path id="Subtract" fill-rule="evenodd" clip-rule="evenodd" d="M22.5 2C22.5 1.17157 21.8284 0.5 21 0.5C20.1716 0.5 19.5 1.17157 19.5 2V8.29076C19.9632 8.10325 20.4695 8 21 8C21.5305 8 22.0368 8.10325 22.5 8.29076L22.5 2ZM22.5 15.7092C22.0368 15.8967 21.5305 16 21 16C20.4695 16 19.9632 15.8967 19.5 15.7092V30C19.5 30.8284 20.1716 31.5 21 31.5C21.8284 31.5 22.5 30.8284 22.5 30L22.5 15.7092Z" fill="currentColor"/>
</g>
<g id="Group_3">
<path id="Vector_2" d="M15 25C15 26.6569 13.6569 28 12 28C10.3431 28 9 26.6569 9 25C9 23.3431 10.3431 22 12 22C13.6569 22 15 23.3431 15 25Z" fill="currentColor"/>
<path id="Subtract_2" fill-rule="evenodd" clip-rule="evenodd" d="M13.5 2C13.5 1.17157 12.8284 0.5 12 0.5C11.1716 0.5 10.5 1.17157 10.5 2V21.2908C10.9632 21.1033 11.4695 21 12 21C12.5304 21 13.0368 21.1033 13.5 21.2908L13.5 2ZM13.5 28.7092C13.0368 28.8967 12.5304 29 12 29C11.4695 29 10.9632 28.8967 10.5 28.7092V30C10.5 30.8284 11.1716 31.5 12 31.5C12.8284 31.5 13.5 30.8284 13.5 30V28.7092Z" fill="currentColor"/>
</g>
<g id="Group_4">
<path id="Vector_3" d="M6 7C6 8.65685 4.65685 10 3 10C1.34315 10 0 8.65685 0 7C0 5.34315 1.34315 4 3 4C4.65685 4 6 5.34315 6 7Z" fill="currentColor"/>
<path id="Subtract_3" fill-rule="evenodd" clip-rule="evenodd" d="M4.5 2C4.5 1.17157 3.82843 0.5 3 0.5C2.17157 0.5 1.5 1.17157 1.5 2V3.29076C1.96322 3.10325 2.46955 3 3 3C3.53045 3 4.03678 3.10325 4.5 3.29076V2ZM4.5 10.7092C4.03678 10.8967 3.53045 11 3 11C2.46955 11 1.96322 10.8967 1.5 10.7092V30C1.5 30.8284 2.17157 31.5 3 31.5C3.82843 31.5 4.5 30.8284 4.5 30L4.5 10.7092Z" fill="currentColor"/>
</g>
</g>
</svg>
