<svg width="30" height="30" viewBox="0 0 30 30" xmlns="http://www.w3.org/2000/svg">
<path d="M10.7986 19.6307L14.3341 23.2636C14.7267 23.667 15.3747 23.667 15.7673 23.2636L22.4921 16.3536C22.5062 16.3391 22.5062 16.316 22.4921 16.3015V16.3015C22.478 16.287 22.478 16.2639 22.4921 16.2494L23.4536 15.2615C25.5155 13.1428 25.5155 9.7077 23.4536 7.58901C21.3917 5.47033 18.0487 5.47033 15.9868 7.58901L15.7166 7.86664C15.324 8.27006 14.676 8.27006 14.2834 7.86664L14.0132 7.58901C11.9513 5.47033 8.6083 5.47033 6.54641 7.58901C4.48453 9.7077 4.48453 13.1428 6.54642 15.2615L8.67249 17.4461" stroke="currentColor" stroke-linecap="round" fill="none"/>
</svg>
