<svg width="30" height="31" viewBox="0 0 30 31" xmlns="http://www.w3.org/2000/svg">
<path d="M23 12.881C23 18.1667 15 26.5 15 26.5C15 26.5 7 18.1667 7 12.881C7 10.6582 7.84285 8.52646 9.34315 6.95472C10.8434 5.38299 12.8783 4.5 15 4.5C17.1217 4.5 19.1566 5.38299 20.6569 6.95472C22.1571 8.52646 23 10.6582 23 12.881Z" stroke="currentColor" stroke-miterlimit="10" fill="none"/>
<path d="M16.8303 16.611C15.8515 17.0468 14.7493 17.119 13.7219 16.8147C12.6946 16.5104 11.8095 15.8495 11.226 14.9509C10.6424 14.0523 10.3986 12.9749 10.5385 11.9126C10.6784 10.8503 11.1927 9.8728 11.9889 9.15585C12.7852 8.4389 13.8111 8.02959 14.8822 8.00154C15.9533 7.97349 16.9993 8.32855 17.8319 9.00284C18.6646 9.67714 19.2294 10.6264 19.4246 11.6799C19.6199 12.7335 19.4328 13.8221 18.8971 14.75" stroke="currentColor" stroke-linecap="round" stroke-linejoin="round" fill="none"/>
<path d="M23 12.881C23 18.1667 15 26.5 15 26.5C15 26.5 7 18.1667 7 12.881C7 10.6582 7.84285 8.52646 9.34315 6.95472C10.8434 5.38299 12.8783 4.5 15 4.5C17.1217 4.5 19.1566 5.38299 20.6569 6.95472C22.1571 8.52646 23 10.6582 23 12.881Z" stroke="currentColor" stroke-miterlimit="10" fill="none"/>
<path d="M16.8303 16.611C15.8515 17.0468 14.7493 17.119 13.7219 16.8147C12.6946 16.5104 11.8095 15.8495 11.226 14.9509C10.6424 14.0523 10.3986 12.9749 10.5385 11.9126C10.6784 10.8503 11.1927 9.8728 11.9889 9.15585C12.7852 8.4389 13.8111 8.02959 14.8822 8.00154C15.9533 7.97349 16.9993 8.32855 17.8319 9.00284C18.6646 9.67714 19.2294 10.6264 19.4246 11.6799C19.6199 12.7335 19.4328 13.8221 18.8971 14.75" stroke="currentColor" stroke-linecap="round" stroke-linejoin="round" fill="none"/>
</svg>
