<svg width="39" height="37" viewBox="0 0 39 37" xmlns="http://www.w3.org/2000/svg">
<path d="M0.972809 19.6107C3.0225 19.4798 5.10612 19.378 7.15217 19.6059C7.91156 19.6907 8.71035 18.595 7.67762 18.4804C5.50248 18.238 3.2831 18.3362 1.10372 18.4756C0.235237 18.5314 -0.0696105 19.6774 0.972809 19.6107Z" fill="currentColor"/>
<path d="M19.6144 20.039C21.6035 19.9293 23.5871 19.8493 25.5732 20.0463C26.1968 20.1081 27.1853 19.2244 26.152 19.122C24.0386 18.9123 21.9223 19.0123 19.8059 19.1293C19.0229 19.1717 18.5599 20.0972 19.6144 20.039Z" fill="currentColor"/>
<path d="M27.0359 10.998C30.4535 10.8999 33.8782 10.8982 37.3008 10.8982C38.3575 10.8982 39.9626 10 38.2448 10C34.6078 10 30.9678 10.0039 27.3328 10.1082C26.0004 10.1476 25.2899 11.0481 27.0359 10.998Z" fill="currentColor"/>
<path d="M33 1.27356C33.0085 4.46083 33.1073 7.64629 33.223 10.8311C33.2358 11.1881 33.8933 11.1014 33.8824 10.7905C33.7667 7.60568 33.6679 4.42023 33.6594 1.23356C33.6582 0.875986 32.9994 0.961441 33 1.27356Z" fill="currentColor"/>
<path d="M35.2813 12.1431C35.2891 14.4183 35.3861 16.6922 35.394 18.9674C35.3952 19.2607 36.0455 19.1304 36.0449 18.8952C36.0364 16.6201 35.94 14.3461 35.9322 12.071C35.9309 11.7777 35.2806 11.908 35.2813 12.1431Z" fill="currentColor"/>
<path d="M34.1467 35.9484C34.1613 32.689 34.3564 29.4338 34.371 26.175C34.3728 25.8502 33.7176 25.9605 33.7164 26.232C33.7019 29.4914 33.5067 32.7466 33.4922 36.0053C33.4904 36.3302 34.1455 36.2199 34.1467 35.9484Z" fill="currentColor"/>
<path d="M18.0533 1.07123C17.7515 4.72274 18.0309 8.3779 18.0533 12.0349C18.0551 12.313 18.7036 12.1749 18.7024 11.9561C18.6794 8.30032 18.4 4.64335 18.7024 0.992442C18.7248 0.721533 18.0721 0.846381 18.0533 1.07123Z" fill="currentColor"/>
<path d="M23 23.2387C23.06 27.7854 23.8079 32.3132 23.2249 36.8526C23.2 37.0496 23.8449 36.9242 23.8679 36.7496C24.4533 32.1872 23.7085 27.6357 23.6485 23.0648C23.6461 22.9223 22.9964 23.0302 23 23.2387Z" fill="currentColor"/>
<path d="M11.4321 36.5206C11.4478 31.6333 11.6182 26.7479 11.32 21.8643C11.3097 21.6927 10.6582 21.8182 10.6721 22.0382C10.9697 26.9212 10.7994 31.8061 10.7842 36.6946C10.7836 36.8564 11.4315 36.7461 11.4321 36.5206Z" fill="currentColor"/>
<path d="M14.6578 36.6498C14.4352 24.7668 15 12.9409 15 1.06851C15 0.903593 14.3944 1.05202 14.3944 1.34694C14.3944 13.2184 13.8289 25.0452 14.0522 36.9283C14.055 37.1029 14.6635 36.9389 14.6578 36.6498Z" fill="currentColor"/>
<path d="M4.24777 0.192405C3.58171 3.53847 4.49747 7.00089 4.24777 10.3748C4.24232 10.4451 4.88231 10.3815 4.89565 10.2009C5.14595 6.82756 4.22959 3.36513 4.89565 0.0184659C4.90534 -0.0263825 4.28535 0.00270833 4.24777 0.192405Z" fill="currentColor"/>
<path d="M8.00026 1.21673C8.0107 12.8684 8.14639 24.5263 8.00026 36.1748C7.982 37.6185 8.91789 36.9603 8.93267 35.7868C9.0788 24.1382 8.94311 12.4834 8.93267 0.828652C8.9318 -0.633627 7.99939 0.0587045 8.00026 1.21673Z" fill="currentColor"/>
<path d="M33.0003 1.21673C33.0107 12.8684 33.1464 24.5263 33.0003 36.1748C32.982 37.6185 33.9179 36.9603 33.9327 35.7868C34.0788 24.1382 33.9431 12.4834 33.9327 0.828652C33.9318 -0.633627 32.9994 0.0587045 33.0003 1.21673Z" fill="currentColor"/>
<path d="M3.06295 19.5778C3.50113 24.2687 3.7084 28.9626 3.62234 33.6742C3.61931 33.8311 4.26658 33.7251 4.27022 33.5002C4.35628 28.7893 4.14901 24.0948 3.71083 19.4039C3.69446 19.2299 3.04295 19.3626 3.06295 19.5778Z" fill="currentColor"/>
<path d="M38.0247 1.15419C38.1291 0.807259 38.9321 1.15419 38.9321 1.15419C38.8839 1.61069 39.1409 35.3729 38.8839 36.0668C38.627 36.7606 38.2736 37.345 38.2255 36.7606C38.1773 36.1763 37.9203 1.50113 38.0247 1.15419Z" fill="currentColor"/>
<path d="M26.0247 1.15419C26.1291 0.807259 26.9321 1.15419 26.9321 1.15419C26.8839 1.61069 27.1409 35.3729 26.8839 36.0668C26.627 36.7606 26.2736 37.345 26.2255 36.7606C26.1773 36.1763 25.9203 1.50113 26.0247 1.15419Z" fill="currentColor"/>
<path d="M18.0247 1.15419C18.1291 0.807259 18.9321 1.15419 18.9321 1.15419C18.8839 1.61069 19.1409 35.3729 18.8839 36.0668C18.627 36.7606 18.2736 37.345 18.2255 36.7606C18.1773 36.1763 17.9203 1.50113 18.0247 1.15419Z" fill="currentColor"/>
<path d="M0.0247233 1.15419C0.129112 0.807259 0.9321 1.15419 0.9321 1.15419C0.883921 1.61069 1.14088 35.3729 0.883921 36.0668C0.626965 36.7606 0.273648 37.345 0.225469 36.7606C0.17729 36.1763 -0.0796653 1.50113 0.0247233 1.15419Z" fill="currentColor"/>
<path d="M0.167042 36.9753C-0.208803 36.8709 0.167043 36.0679 0.167043 36.0679C0.661577 36.1161 37.2373 35.8591 37.989 36.1161C38.7407 36.373 39.3737 36.7264 38.7407 36.7745C38.1077 36.8227 0.542888 37.0797 0.167042 36.9753Z" fill="currentColor"/>
<path d="M38.833 0.975272C39.2088 0.870883 38.833 0.0678992 38.833 0.0678992C38.3384 0.116078 1.76268 -0.140872 1.01099 0.116083C0.259304 0.373039 -0.373703 0.726353 0.2593 0.774532C0.892304 0.822711 38.4571 1.07966 38.833 0.975272Z" fill="currentColor"/>
</svg>
