<svg width="30" height="30" viewBox="0 0 30 30" fill="none" xmlns="http://www.w3.org/2000/svg">
<path d="M13.9701 22.7429C13.9681 23.0184 13.966 23.2535 13.9637 23.4423C13.9636 23.448 13.9635 23.4538 13.9635 23.4594C13.0612 22.4574 11.654 21.4127 10.289 20.7387C8.83394 20.0202 7.45188 19.6211 5.88273 19.4668C5.57335 19.4367 5.31685 19.4085 5.31275 19.4045C5.30875 19.4045 5.31675 16.1593 5.33275 12.202L5.35731 5.50927L5.59525 5.5327C5.59534 5.53271 5.59544 5.53272 5.59554 5.53273C5.68221 5.54137 5.76944 5.55127 5.85711 5.56241M13.9701 22.7429C14.1486 22.9197 14.3146 23.0972 14.4656 23.2735C14.4772 22.1515 14.4852 19.8256 14.4852 17.1541V10.3196M13.9701 22.7429C13.0327 21.8138 11.753 20.9039 10.5104 20.2904C9.00292 19.546 7.56259 19.1296 5.93167 18.9692L5.93121 18.9692C5.89027 18.9652 5.85031 18.9612 5.81181 18.9574M13.9701 22.7429C13.9718 22.5145 13.9734 22.2583 13.9748 21.9778C13.9812 20.7404 13.9852 19.0329 13.9852 17.1541V10.4791M14.4852 10.3196L14.2737 10.0219M14.4852 10.3196L14.0776 10.6092L13.9852 10.4791M14.4852 10.3196H13.9852V10.4791M14.2737 10.0219C13.4332 8.83858 12.1149 7.60366 10.8382 6.80396C9.41687 5.91345 7.55683 5.26435 5.85896 5.05881L5.85711 5.56241M14.2737 10.0219L13.8661 10.3114L13.9852 10.4791M14.2737 10.0219L13.8661 10.3114C13.0651 9.18379 11.7958 7.9938 10.5728 7.22769L10.5728 7.22767C9.23066 6.38682 7.46719 5.76689 5.85711 5.56241M5.85711 5.56241L5.83274 12.2038L5.83274 12.204C5.82474 14.1825 5.81875 15.9829 5.81525 17.2886C5.8135 17.9415 5.81237 18.4705 5.81193 18.8362C5.81188 18.8789 5.81184 18.9193 5.81181 18.9574M5.81181 18.9574C5.70837 18.947 5.61547 18.9373 5.54225 18.9293L5.51693 18.9045H5.31275C5.43284 18.9355 5.54559 19.0074 5.63153 19.0793C5.71877 19.1523 5.77839 19.2253 5.79002 19.2555C5.79677 19.2792 5.80476 19.3156 5.80685 19.3281C5.80991 19.3479 5.81103 19.3635 5.81124 19.3663C5.81198 19.3761 5.81222 19.3835 5.81225 19.3842C5.81237 19.3877 5.81238 19.3894 5.81234 19.387L5.81213 19.3639L5.8118 19.2567C5.8117 19.1832 5.8117 19.0827 5.81181 18.9574ZM14.1093 23.6263C14.1086 23.6254 14.1078 23.6245 14.1071 23.6237L14.1093 23.6263ZM18.5357 7.84898C20.2477 6.56165 22.0925 5.81501 24.2031 5.55656V12.205V18.9555C21.0367 19.2757 18.2646 20.5699 16.0624 22.7602V17.1368V10.4396L16.3719 10.0242C16.8651 9.36217 17.8804 8.34155 18.5356 7.84902L18.5357 7.84898ZM24.3163 18.9445L24.3162 18.9445L24.3602 19.4101L24.3163 18.9445ZM22.4627 22.3258C21.3802 22.3558 20.4395 22.4603 19.4981 22.6659C20.3745 22.1144 21.3377 21.678 22.3015 21.4055C23.1442 21.1674 24.24 21.003 24.944 21.003C25.3973 21.003 25.8507 20.9047 26.1138 20.4706L26.1141 20.4703C26.1333 20.4385 26.1668 20.3817 26.1933 20.2988C26.2167 20.226 26.2291 20.1511 26.2375 20.0757C26.2538 19.9293 26.2627 19.7009 26.2686 19.3209C26.2807 18.5501 26.281 17.0683 26.2811 14.152L26.2812 8.88801C26.3252 8.90139 26.3699 8.91529 26.4139 8.92938L26.4141 8.92944L26.5 8.9569V15.9598C26.5 17.9854 26.496 19.8265 26.4895 21.1609C26.4864 21.8117 26.4826 22.3411 26.4785 22.7124C26.4627 22.7088 26.4468 22.7052 26.4308 22.7016L26.43 22.7014C25.0643 22.3923 23.9331 22.2859 22.4631 22.3257L22.4627 22.3258ZM5.30763 21.0068C7.198 21.1151 8.99886 21.6883 10.5324 22.6587L6.76023 22.8236C5.53107 22.8497 4.78759 22.9361 3.77334 23.1673L3.66279 22.6797C3.66259 22.6798 3.66239 22.6798 3.66218 22.6799C3.60858 22.692 3.55543 22.7041 3.504 22.7158C3.50267 22.7161 3.50134 22.7164 3.50002 22.7167L3.50022 15.9525L3.50045 8.93961L3.69117 8.88393L3.69118 8.88393C3.69411 8.88307 3.69704 8.88221 3.69997 8.88136C3.70262 9.02435 3.70496 9.19639 3.707 9.40151C3.7158 10.2862 3.7188 11.7629 3.7188 14.1202C3.7188 14.4389 3.71877 14.7411 3.71873 15.0276C3.71843 17.6287 3.71827 18.9431 3.74643 19.6201C3.76102 19.9709 3.78354 20.2342 3.85851 20.4207C3.90875 20.5456 3.98339 20.6445 4.08184 20.7211C4.12106 20.7515 4.158 20.7735 4.17475 20.7834L4.17502 20.7836C4.18118 20.7873 4.18574 20.79 4.1892 20.792C4.19817 20.7973 4.19977 20.7983 4.20285 20.8003L4.20461 20.8014C4.34944 20.8962 4.51629 20.93 4.65959 20.9507C4.81447 20.9731 5.024 20.9897 5.30605 21.0067L5.30763 21.0068ZM3.68584 8.36446C3.93129 8.29227 4.13286 8.23165 4.1602 8.22313C4.16455 8.22125 4.1686 8.23003 4.17236 8.25133C4.17341 8.25723 4.17443 8.26409 4.17543 8.27196C4.18403 8.33954 4.19105 8.48105 4.19674 8.72161C4.12287 8.72691 4.04613 8.71589 3.97234 8.68558C3.86038 8.63957 3.79542 8.56572 3.76609 8.52705C3.71288 8.45689 3.69331 8.39043 3.68977 8.3784C3.68965 8.378 3.68955 8.37767 3.68947 8.37739C3.68811 8.37284 3.6869 8.36851 3.68584 8.36446ZM3.55104 8.40397C3.59565 8.39094 3.63964 8.37805 3.68232 8.3655L3.00022 15.9525L3.00046 8.56471L3.55104 8.40397Z" stroke="currentColor"/>
</svg>
