<svg width="41" height="39" viewBox="0 0 41 39" xmlns="http://www.w3.org/2000/svg">
<path d="M18.5379 6.53318C18.7637 5.30511 18.2773 4.45256 17.5651 3.73196C16.3319 2.48359 14.8641 1.77314 13.2921 1.35702C11.694 0.940893 10.0786 0.940893 8.46312 1.09313C7.49038 1.18448 6.51765 1.31642 5.56228 1.51941C4.77193 1.69195 4.0337 2.08777 3.41705 2.71703C2.78304 3.36659 2.49643 4.15823 2.67881 5.26451C2.72224 5.10212 2.75698 5.03108 2.76567 4.96003C2.81778 3.97555 3.27809 3.29554 3.98159 2.80837C4.71982 2.30091 5.52754 2.06747 6.36131 1.97613C8.85395 1.72239 11.3292 1.83403 13.7611 2.56479C14.6556 2.82867 15.5241 3.19405 16.2971 3.79286C16.8182 4.19883 17.2525 4.69615 17.513 5.3863C17.6867 5.84302 17.6607 6.28959 17.3654 6.61437C17.044 6.97975 16.6793 7.32483 16.2884 7.55826C15.3157 8.13677 14.2474 8.38036 13.1792 8.59349C10.9036 9.04006 8.63682 8.90812 6.38737 8.38036C5.0238 8.05558 3.92947 7.20303 3.1565 5.84302C3.04359 5.64004 2.90463 5.4472 2.72224 5.17317C2.65276 5.3863 2.60065 5.4878 2.59197 5.59944C2.48774 6.9899 2.3922 8.38036 2.29667 9.77082C2.14902 12.0037 2.01006 14.2365 1.86241 16.4694C1.67134 19.3619 1.48027 22.2444 1.29788 25.1369C1.18497 27.0145 1.0547 28.9023 1.00259 30.7799C0.94179 33.1853 1.95795 34.8904 3.71235 36.0474C5.19751 37.0218 6.81295 37.5293 8.48918 37.7931C9.8788 38.0164 11.2771 38.0773 12.6754 37.8845C13.874 37.7221 15.0204 37.3161 16.0018 36.4839C16.5143 36.0576 16.9225 35.4689 17.3741 34.9615C18.0949 36.22 19.2674 36.6463 20.5615 36.8289C21.5951 36.971 35.6476 36.8797 36.6464 36.5245C37.9058 36.0779 38.7395 35.1442 39.113 33.6623C39.4865 32.1602 39.6515 30.6175 39.7557 29.0647C40.1031 24.0712 39.9989 19.0676 39.9294 14.0741C39.8947 11.9428 39.6688 9.81141 39.5038 7.68005C39.417 6.62452 39.0522 6.27944 38.1489 6.35049C36.8722 6.46213 22.5765 6.67527 21.2998 6.75646C20.5355 6.80721 19.7625 6.70572 18.9982 6.65497C18.8506 6.67527 18.7116 6.59407 18.5379 6.53318ZM18.0689 7.46692C18.0776 7.57856 18.0863 7.6293 18.0863 7.68005C18.0515 10.1768 18.0515 12.6735 17.982 15.1601C17.8691 19.1792 17.7215 23.2085 17.5565 27.2277C17.487 28.8719 17.4001 30.5161 17.2264 32.1501C17.0354 33.9364 16.3058 35.3674 14.8293 36.1083C14.2301 36.4128 13.5787 36.6361 12.936 36.7579C10.9644 37.1131 9.01897 36.8695 7.09087 36.3316C5.79679 35.9663 4.56349 35.4283 3.48654 34.4844C2.79172 33.8755 2.33141 33.1041 2.26193 32.0791C2.18376 31.0134 2.07086 29.9274 2.12297 28.8617C2.31404 25.1065 2.56591 21.3614 2.80041 17.6163C3.01754 14.2467 3.16518 10.8669 2.9828 7.48722C2.97411 7.33498 2.9828 7.17259 2.9828 6.93915C3.96421 8.46155 5.26699 9.2126 6.74346 9.56783C9.11451 10.1362 11.5029 10.2275 13.8913 9.69977C15.4112 9.35469 16.879 8.84723 18.0689 7.46692ZM18.3989 6.72601C18.7724 6.85796 19.0503 6.9899 19.3282 7.06094C20.3531 7.32482 34.423 7.31467 35.4652 7.24363C36.3685 7.18273 37.2631 7.11169 38.1663 7.07109C38.7135 7.04064 38.8177 7.16243 38.8524 7.80184C38.948 9.85201 39.1043 11.892 39.1043 13.9422C39.0956 18.0527 39.0088 22.1733 38.9132 26.2838C38.8611 28.405 38.6874 30.5262 38.3487 32.617C38.0795 34.2916 37.3152 35.3167 35.8734 35.6719C34.7791 35.9358 20.6744 35.9561 19.5888 35.6618C18.8766 35.4689 18.2426 35.1036 17.7736 34.4236C17.6607 34.2612 17.652 34.1292 17.6954 33.9161C17.8691 33.0838 18.0863 32.2516 18.1384 31.399C18.26 29.3895 18.3121 27.3799 18.3642 25.3703C18.5292 19.4127 18.6074 13.4449 18.2947 7.48721C18.2773 7.23348 18.3642 6.97975 18.3989 6.72601Z" fill="currentColor" stroke="currentColor" stroke-width="0.4"/>
<path d="M9.79815 7.07391C10.6375 7.084 11.4684 6.96296 12.2307 6.52924C12.5562 6.34768 12.8902 6.08543 13.1215 5.76267C13.6011 5.10704 13.4555 4.29004 12.8302 3.82606C12.2649 3.41251 11.6225 3.26121 10.9716 3.18052C10.2178 3.07965 9.47267 3.10991 8.74463 3.37216C8.02515 3.63441 7.39132 4.00761 7.18575 5.01626C7.13436 5.24825 6.89453 5.47016 7.04014 5.73241C7.21145 6.035 7.43414 6.30734 7.66541 6.5595C7.76819 6.67045 7.92236 6.74106 8.06797 6.7814C8.4791 6.89236 8.8988 6.98313 9.3185 7.06383C9.47267 7.09409 9.63541 7.07391 9.79815 7.07391ZM7.2971 5.07678C7.60545 4.56237 8.01658 4.25978 8.5048 4.11856C9.6868 3.7958 10.8345 3.96727 11.9566 4.49177C12.1365 4.57246 12.2821 4.78427 12.4362 4.92549C12.2821 5.08687 12.145 5.29869 11.9652 5.38946C10.9116 5.92405 9.80672 6.07535 8.6761 5.90388C8.15362 5.82319 7.67397 5.5912 7.2971 5.07678Z" fill="currentColor"/>
</svg>
