<svg width="45" height="45" viewBox="0 0 45 45" xmlns="http://www.w3.org/2000/svg">
<path d="M3.04079 40.6644C3.66563 34.9104 3.26018 29.048 3.73533 23.2595C3.98624 20.2007 4.5432 17.1625 4.63775 14.0947C4.7232 11.3316 4.31737 7.64923 4.45312 4.88257C4.47616 4.41954 5.99857 4.72317 5.97069 5.28863C5.8513 7.7262 6.13835 11.0619 6.15047 13.4947C6.16562 16.5147 5.65108 19.4801 5.35775 22.4801C4.75411 28.6722 5.22684 34.9098 4.55836 41.0704C4.50624 41.551 2.98079 41.2189 3.04079 40.6644Z" fill="currentColor"/>
<path d="M4.95312 5.38232C7.61735 5.38778 9.45144 5.66055 12.0054 4.84722C11.7187 4.78904 11.432 4.73146 11.1454 4.67328C11.8557 7.47449 11.5557 10.3272 11.4048 13.1793C11.2605 15.9054 11.3836 18.6642 11.4339 21.3909C11.5532 27.8303 10.9278 34.3624 11.4036 40.7787C11.7551 40.5684 12.1066 40.3581 12.4581 40.1472C9.63689 40.0781 6.846 40.4945 4.02601 40.4266C3.89268 40.709 3.75935 40.9909 3.62602 41.2727C3.66359 41.2666 3.70117 41.2606 3.73874 41.2545C4.03874 40.9896 4.33874 40.7254 4.63813 40.4599C4.43389 40.4484 4.23025 40.4381 4.02601 40.4266C3.45208 40.3951 2.40845 41.226 3.4345 41.283C3.63874 41.2945 3.84298 41.3054 4.04662 41.3169C4.31328 41.3315 5.59085 40.8502 4.94601 40.5224C4.61692 40.3551 4.18904 40.4084 3.83389 40.4363C3.30723 40.4769 2.48723 41.2599 3.4345 41.283C6.25509 41.3509 9.04599 40.9339 11.866 41.003C12.2072 41.0115 12.9545 40.8315 12.9205 40.3715C12.4738 34.3502 13.1405 28.2321 12.9781 22.1848C12.8878 18.8121 12.7926 15.4157 12.9708 12.0454C13.1102 9.4151 13.3163 6.8454 12.6623 4.2654C12.5835 3.9557 12.0096 4.0254 11.8023 4.09146C9.66598 4.77328 7.8319 4.5302 5.54464 4.52535C4.97979 4.52414 3.92768 5.3799 4.95312 5.38232Z" fill="currentColor"/>
<path d="M11.8435 5.14215C13.4278 4.54336 15.3496 4.80821 16.9853 4.95548C18.7514 5.11488 18.3714 7.51185 18.4138 8.86458C18.5265 12.4537 18.3599 16.0822 18.3374 19.6737C18.315 23.2203 18.3423 26.7634 18.3647 30.31C18.3859 33.7015 17.7393 37.4628 18.575 40.7749C18.9853 40.5803 19.3956 40.3846 19.8065 40.1894C16.9035 39.7524 14.1023 39.6773 11.1987 40.1464C11.3605 40.3046 11.5229 40.4621 11.6847 40.6209C11.772 40.5409 11.8587 40.4615 11.9453 40.3821C12.5775 39.8034 11.0726 39.8912 10.7447 40.1918C10.6575 40.2718 10.5708 40.3512 10.4841 40.4306C10.066 40.8137 10.6308 40.9603 10.9702 40.9052C13.655 40.4725 16.1793 40.5512 18.8617 40.9543C19.132 40.9949 20.2114 40.8385 20.0932 40.3688C19.3744 37.5209 19.7441 34.0494 19.852 31.1428C19.9538 28.3767 19.8241 25.5979 19.832 22.83C19.8489 16.8306 20.5423 10.4379 19.5738 4.50033C19.555 4.38579 19.3792 4.33003 19.2877 4.32094C16.6241 4.07003 13.8332 3.62882 11.2672 4.59852C10.2666 4.9767 11.1908 5.38942 11.8435 5.14215Z" fill="currentColor"/>
<path d="M19.1962 40.8012C20.6865 40.7291 22.1719 40.8879 23.6634 40.8103C24.5659 40.7631 25.4689 40.6449 26.3725 40.6309C27.2458 40.6182 27.5319 39.4825 26.5016 39.4982C25.5986 39.5109 24.6937 39.6206 23.7925 39.677C22.3016 39.7703 20.8156 39.5964 19.3253 39.6685C18.4574 39.7109 18.1629 40.8515 19.1962 40.8012Z" fill="currentColor"/>
<path d="M18.5396 5.40863C20.5081 5.46378 22.5959 5.01045 24.5281 5.48681C25.1608 5.64318 26.3262 4.71287 25.4099 4.48681C23.3165 3.97045 21.1947 4.39227 19.0723 4.33287C18.3584 4.31227 17.5123 5.37954 18.5396 5.40863Z" fill="currentColor"/>
<path d="M25.0408 5.22895C25.6656 10.9829 25.2602 16.8453 25.7353 22.6338C25.9862 25.6926 26.5432 28.7308 26.6377 31.7986C26.7232 34.5617 26.3874 37.3089 26.5232 40.0756C26.5462 40.5386 28.0687 40.235 28.0408 39.6696C27.9214 37.232 28.1383 34.8314 28.1505 32.3986C28.1656 29.3786 27.6511 26.4132 27.3577 23.4132C26.7541 17.2211 27.2268 10.9835 26.5584 4.82289C26.5062 4.34229 24.9808 4.67441 25.0408 5.22895Z" fill="currentColor"/>
<path d="M25.5267 5.44668C28.5279 5.55395 31.5273 5.33577 34.5291 5.44365C35.2006 5.46789 36.1085 4.47213 35.0794 4.43516C32.0782 4.32789 29.0788 4.54547 26.077 4.43819C25.4055 4.41395 24.4976 5.40971 25.5267 5.44668Z" fill="currentColor"/>
<path d="M26.489 40.1597C27.4054 40.8349 28.8169 40.8052 29.8999 40.8052C31.1084 40.8058 32.5053 40.7046 33.5684 40.0742C34.4496 39.5518 33.1029 39.3943 32.6393 39.6694C31.9817 40.0591 30.9599 39.99 30.2259 39.99C29.5393 39.9894 28.4884 40.0112 27.9017 39.5791C27.486 39.2736 26.1035 39.8761 26.489 40.1597Z" fill="currentColor"/>
<path d="M33.789 5.56103C33.3181 14.7628 34.5314 24.0628 34.3575 33.2725C34.3502 33.6653 35.8642 33.4095 35.8751 32.8665C36.0472 23.7222 34.8321 14.4822 35.2999 5.34588C35.3278 4.78709 33.8121 5.11315 33.789 5.56103Z" fill="currentColor"/>
<path d="M34.8183 5.68644C36.9195 5.70219 39.0201 5.72219 41.1189 5.8125C41.8789 5.84522 42.6589 4.71371 41.6341 4.66947C39.4038 4.5731 37.1735 4.54825 34.942 4.53128C34.0571 4.52401 33.7923 5.67856 34.8183 5.68644Z" fill="currentColor"/>
<path d="M41.0456 4.92179C40.7353 7.16421 41.1104 9.51936 41.0783 11.7897C41.0438 14.1466 41.0492 16.503 41.0886 18.86C41.1589 23.1018 41.2274 27.3436 41.2977 31.5854C41.3098 32.3036 42.8341 32.0109 42.825 31.4303C42.7547 27.1885 42.6862 22.9466 42.6159 18.7048C42.5771 16.3478 42.5777 13.9921 42.605 11.6345C42.631 9.4327 42.2735 6.93209 42.5729 4.76603C42.6674 4.07936 41.128 4.32724 41.0456 4.92179Z" fill="currentColor"/>
<path d="M32.4606 40.2538C35.2315 38.4678 35.3933 34.9326 34.8102 31.9702C34.7751 31.7926 34.4866 31.7702 34.3539 31.7702C34.3357 31.7702 34.3169 31.7702 34.2987 31.7702C34.0721 31.7702 32.9412 32.0387 33.2897 32.4617C35.7327 35.4229 41.2308 33.9593 42.8011 30.7932C42.2963 30.8956 41.7908 30.9981 41.286 31.0999C41.3593 33.2174 40.9945 35.212 39.7739 36.9756C38.1557 39.3126 35.3605 39.6453 32.7436 39.6532C32.2133 39.655 31.1151 40.4623 32.1387 40.4593C35.0757 40.4496 37.8648 40.0459 40.169 38.0835C42.306 36.2635 42.8957 33.3671 42.8035 30.6938C42.7848 30.1508 41.4332 30.7084 41.2884 31.0005C40.0702 33.4562 36.469 34.0253 34.703 31.8853C34.3666 32.1156 34.0303 32.3459 33.6939 32.5768C33.3024 32.5768 33.5272 35.7847 33.4897 36.1581C33.3484 37.5871 32.7842 39.0526 31.5333 39.8587C30.6721 40.4138 32.0066 40.5459 32.4606 40.2538Z" fill="currentColor"/>
<path d="M36.5726 33.676C35.7023 34.4881 34.8271 35.3051 34.0744 36.2299C33.489 36.9499 34.9483 37.0002 35.3114 36.5542C36.0635 35.6293 36.9398 34.8124 37.8095 34.0003C38.055 33.7706 37.9598 33.4712 37.6453 33.3887C37.2817 33.293 36.8441 33.4227 36.5726 33.676Z" fill="currentColor"/>
<path d="M37.5552 33.7333C36.1715 35.1236 34.8406 36.5618 33.5691 38.0558C33.3304 38.3364 33.771 38.4618 33.9697 38.4618C34.3249 38.463 34.7382 38.3358 34.974 38.0582C36.1831 36.637 37.4443 35.2642 38.76 33.9418C39.3752 33.3236 37.8818 33.4049 37.5552 33.7333Z" fill="currentColor"/>
<path d="M39.6304 33.1604C37.6886 34.9386 35.768 36.8925 34.3534 39.1277C34.2147 39.3453 35.6086 39.261 35.8534 38.8744C37.2292 36.7022 39.1237 34.8016 41.0122 33.0732C41.3643 32.7501 39.9116 32.9029 39.6304 33.1604Z" fill="currentColor"/>
<path d="M41.2221 32.8063C39.8858 34.5893 38.4427 36.3215 36.8761 37.9087C36.2373 38.5554 37.7252 38.5918 38.1058 38.2057C39.7409 36.5493 41.2488 34.7342 42.6433 32.8724C43.0785 32.293 41.5391 32.3833 41.2221 32.8063Z" fill="currentColor"/>
<path d="M40.5877 34.92C39.6204 36.2546 38.4162 37.3685 37.2011 38.4721C36.9386 38.7103 37.0768 39.0552 37.3829 39.1503C37.7641 39.2691 38.1726 39.12 38.4562 38.8624C39.6714 37.7594 40.8756 36.6449 41.8429 35.3103C42.4004 34.5406 40.9641 34.4006 40.5877 34.92Z" fill="currentColor"/>
<path d="M33.0958 39.3612C34.977 39.9078 36.8982 39.3612 38.5988 38.5078C38.7315 38.4418 39.1182 38.1763 38.7782 38.0866C38.4449 37.9987 38.0128 38.1248 37.7158 38.2739C36.6079 38.8297 35.5594 39.109 34.3376 38.7533C34.0085 38.6581 33.5685 38.7963 33.2752 38.9406C33.1346 39.0084 32.7625 39.2642 33.0958 39.3612Z" fill="currentColor"/>
</svg>
