<svg width="30" height="30" viewBox="0 0 30 30" fill="none" xmlns="http://www.w3.org/2000/svg">
<path d="M14.1033 4.94676C14.4701 4.20352 15.5299 4.20352 15.8967 4.94676L18.0232 9.25551C18.3146 9.8458 18.8777 10.2549 19.5291 10.3496L24.2841 11.0405C25.1043 11.1597 25.4318 12.1677 24.8383 12.7462L21.3976 16.1001C20.9262 16.5596 20.7111 17.2216 20.8224 17.8704L21.6346 22.6061C21.7747 23.4231 20.9173 24.046 20.1837 23.6603L15.9307 21.4244C15.348 21.1181 14.652 21.1181 14.0693 21.4244L9.81633 23.6603C9.0827 24.046 8.22527 23.4231 8.36538 22.6062L9.17763 17.8704C9.2889 17.2216 9.07381 16.5596 8.60244 16.1001L5.1617 12.7462C4.56818 12.1677 4.89569 11.1597 5.71591 11.0405L10.4709 10.3496C11.1223 10.2549 11.6854 9.8458 11.9768 9.25551L14.1033 4.94676Z" stroke="currentColor" stroke-linejoin="round"/>
</svg>
