<svg width="30" height="30" viewBox="0 0 30 30" fill="none" xmlns="http://www.w3.org/2000/svg">
<path fill-rule="evenodd" clip-rule="evenodd" d="M5.5 16.4999C5.5 10.4248 10.4248 5.5 16.4999 5.5C19.2047 5.5 22.1869 7.01284 24.5 9.11036V8C24.5 7.72386 24.7239 7.5 25 7.5C25.2761 7.5 25.5 7.72386 25.5 8V10.0986C25.7538 10.3723 25.9955 10.6525 26.2236 10.9376C26.3961 11.1532 26.3612 11.4679 26.1455 11.6404C25.9299 11.8129 25.6153 11.7779 25.4427 11.5623C25.3979 11.5063 25.3526 11.4505 25.3067 11.3949C25.222 11.4608 25.1156 11.5 25 11.5H22C21.7239 11.5 21.5 11.2761 21.5 11C21.5 10.7239 21.7239 10.5 22 10.5H24.5V10.4976C22.2405 8.18233 19.1431 6.5 16.4999 6.5C10.9771 6.5 6.5 10.9771 6.5 16.4999C6.5 16.7761 6.27614 16.9999 6 16.9999C5.72386 16.9999 5.5 16.7761 5.5 16.4999ZM26.9998 15.9999C27.276 15.9999 27.4998 16.2238 27.4998 16.4999C27.4998 22.575 22.575 27.4998 16.4999 27.4998C14.7004 27.4998 12.7126 26.7211 10.979 25.6783C9.24013 24.6323 7.6887 23.2793 6.76666 22.0499C6.64286 21.8848 6.63656 21.6681 6.73343 21.5H6.5V24C6.5 24.2761 6.27614 24.5 6 24.5C5.72386 24.5 5.5 24.2761 5.5 24V21C5.5 20.7239 5.72386 20.5 6 20.5H9C9.27614 20.5 9.5 20.7239 9.5 21C9.5 21.2761 9.27614 21.5 9 21.5H7.60458C8.43828 22.5922 9.86444 23.8408 11.4945 24.8214C13.1549 25.8202 14.9588 26.4998 16.4999 26.4998C22.0227 26.4998 26.4998 22.0227 26.4998 16.4999C26.4998 16.2238 26.7237 15.9999 26.9998 15.9999Z" fill="currentColor"/>
</svg>
