<svg width="39" height="37" viewBox="0 0 39 37" xmlns="http://www.w3.org/2000/svg">
<path d="M0.420211 18.9985C1.7246 18.8963 3.05059 18.8168 4.35267 18.9947C4.83593 19.061 5.00988 18.201 4.35267 18.1115C2.96844 17.9222 1.89045 18.0034 0.503519 18.1122C-0.0491694 18.1557 -0.243169 19.0505 0.420211 18.9985Z" fill="currentColor"/>
<path d="M9.48498 20.9901C11.0551 20.8856 12.6208 20.8093 14.1885 20.9971C14.6808 21.056 15.461 20.2139 14.6454 20.1163C12.9772 19.9164 11.3067 20.0117 9.63615 20.1232C9.01807 20.1636 8.65258 21.0456 9.48498 20.9901Z" fill="currentColor"/>
<path d="M19.3984 16.998C20.7129 16.8999 22.0301 16.8982 23.3465 16.8982C23.7529 16.8982 24.3702 16 23.7095 16C22.3107 16 20.9107 16.0039 19.5126 16.1082C19.0002 16.1476 18.7269 17.0481 19.3984 16.998Z" fill="currentColor"/>
<path d="M24.3984 27.998C25.7129 27.8999 27.0301 27.8982 28.3465 27.8982C28.7529 27.8982 29.3702 27 28.7095 27C27.3107 27 25.9107 27.0039 24.5126 27.1082C24.0002 27.1476 23.7269 28.0481 24.3984 27.998Z" fill="currentColor"/>
<path d="M24.3984 9.99798C25.7129 9.89993 27.0301 9.89824 28.3465 9.89824C28.7529 9.89824 29.3702 9 28.7095 9C27.3107 9 25.9107 9.00395 24.5126 9.1082C24.0002 9.14764 23.7269 10.0481 24.3984 9.99798Z" fill="currentColor"/>
<path d="M29.3984 18.998C30.7129 18.8999 32.0301 18.8982 33.3465 18.8982C33.7529 18.8982 34.3702 18 33.7095 18C32.3107 18 30.9107 18.0039 29.5126 18.1082C29.0002 18.1476 28.7269 19.0481 29.3984 18.998Z" fill="currentColor"/>
<path d="M38.0247 1.15419C38.1291 0.807259 38.9321 1.15419 38.9321 1.15419C38.8839 1.61069 39.1409 35.3729 38.8839 36.0668C38.627 36.7606 38.2736 37.345 38.2255 36.7606C38.1773 36.1763 37.9203 1.50113 38.0247 1.15419Z" fill="currentColor"/>
<path d="M4.26353 0.684333C3.55511 12.5854 4.52911 24.9003 4.26353 36.9004C4.25773 37.1505 4.93844 36.9242 4.95262 36.2818C5.21884 24.2838 4.24419 11.9689 4.95262 0.0656783C4.96293 -0.0938355 4.3035 0.00963277 4.26353 0.684333Z" fill="currentColor"/>
<path d="M9.00026 1.21673C9.0107 12.8684 9.14639 24.5263 9.00026 36.1748C8.982 37.6185 9.91789 36.9603 9.93267 35.7868C10.0788 24.1382 9.94311 12.4834 9.93267 0.828652C9.9318 -0.633627 8.99939 0.0587045 9.00026 1.21673Z" fill="currentColor"/>
<path d="M14.7602 35.787C14.776 24.1221 14.9463 12.4616 14.6481 0.805377C14.6378 0.396008 13.9863 0.695439 14.0002 1.22053C14.2978 12.8753 14.1275 24.5344 14.1123 36.2021C14.1117 36.5883 14.7596 36.3251 14.7602 35.787Z" fill="currentColor"/>
<path d="M19.4781 36.1498C19.2555 24.2668 19.8203 12.4409 19.8203 0.568515C19.8203 0.403593 19.2147 0.552023 19.2147 0.846941C19.2147 12.7184 18.6493 24.5452 18.8725 36.4283C18.8753 36.6029 19.4838 36.4389 19.4781 36.1498Z" fill="currentColor"/>
<path d="M23.845 0.654193C23.9494 0.307259 24.7524 0.654193 24.7524 0.654193C24.7042 1.11069 24.9612 34.8729 24.7042 35.5668C24.4473 36.2606 24.094 36.845 24.0458 36.2606C23.9976 35.6763 23.7406 1.00113 23.845 0.654193Z" fill="currentColor"/>
<path d="M28.845 0.654193C28.9494 0.307259 29.7524 0.654193 29.7524 0.654193C29.7042 1.11069 29.9612 34.8729 29.7042 35.5668C29.4473 36.2606 29.094 36.845 29.0458 36.2606C28.9976 35.6763 28.7406 1.00113 28.845 0.654193Z" fill="currentColor"/>
<path d="M33.8206 1.21673C33.831 12.8684 33.9667 24.5263 33.8206 36.1748C33.8023 37.6185 34.7382 36.9603 34.753 35.7868C34.8991 24.1382 34.7634 12.4834 34.753 0.828652C34.7521 -0.633627 33.8197 0.0587045 33.8206 1.21673Z" fill="currentColor"/>
<path d="M0.0247233 1.15419C0.129112 0.807259 0.9321 1.15419 0.9321 1.15419C0.883921 1.61069 1.14088 35.3729 0.883921 36.0668C0.626965 36.7606 0.273648 37.345 0.225469 36.7606C0.17729 36.1763 -0.0796653 1.50113 0.0247233 1.15419Z" fill="currentColor"/>
<path d="M0.167042 36.9753C-0.208803 36.8709 0.167043 36.0679 0.167043 36.0679C0.661577 36.1161 37.2373 35.8591 37.989 36.1161C38.7407 36.373 39.3737 36.7264 38.7407 36.7745C38.1077 36.8227 0.542888 37.0797 0.167042 36.9753Z" fill="currentColor"/>
<path d="M38.833 0.975272C39.2088 0.870883 38.833 0.0678992 38.833 0.0678992C38.3384 0.116078 1.76268 -0.140872 1.01099 0.116083C0.259304 0.373039 -0.373703 0.726353 0.2593 0.774532C0.892304 0.822711 38.4571 1.07966 38.833 0.975272Z" fill="currentColor"/>
<path d="M4.06768 10.8975C3.94552 10.6344 3.9891 10.3652 4.19539 10.1086V10.1384C5.9306 9.96459 7.76636 9.95432 9.51658 10.1086C9.772 10.2946 10.3041 10.8975 9.772 10.8975C9.23988 10.8975 4.3231 11.1282 4.06768 10.8975Z" fill="currentColor"/>
<path d="M34.0451 10.8974C33.9637 10.6343 33.9927 10.3651 34.1303 10.1085V10.1383C35.2871 9.96454 37.1629 9.95432 38.3297 10.1086C38.5 10.2946 38.8547 10.8975 38.5 10.8975C38.1453 10.8975 34.2154 11.1281 34.0451 10.8974Z" fill="currentColor"/>
<path d="M4.06768 27.8975C3.94552 27.6344 3.9891 27.3652 4.19539 27.1086V27.1384C5.9306 26.9646 7.76636 26.9543 9.51658 27.1086C9.772 27.2946 10.3041 27.8975 9.772 27.8975C9.23988 27.8975 4.3231 28.1282 4.06768 27.8975Z" fill="currentColor"/>
<path d="M34.0451 27.8974C33.9637 27.6343 33.9927 27.3651 34.1303 27.1085V27.1383C35.2871 26.9645 37.1629 26.9543 38.3297 27.1086C38.5 27.2946 38.8547 27.8975 38.5 27.8975C38.1453 27.8975 34.2154 28.1281 34.0451 27.8974Z" fill="currentColor"/>
<path d="M14.0677 6.89746C13.9455 6.63439 13.9891 6.36516 14.1954 6.10858V6.13835C15.9306 5.96459 17.7664 5.95432 19.5166 6.10858C19.772 6.29464 20.3041 6.89746 19.772 6.89746C19.2399 6.89746 14.3231 7.12817 14.0677 6.89746Z" fill="currentColor"/>
<path d="M14.0677 31.8975C13.9455 31.6344 13.9891 31.3652 14.1954 31.1086V31.1384C15.9306 30.9646 17.7664 30.9543 19.5166 31.1086C19.772 31.2946 20.3041 31.8975 19.772 31.8975C19.2399 31.8975 14.3231 32.1282 14.0677 31.8975Z" fill="currentColor"/>
</svg>
