<svg width="43" height="43" viewBox="0 0 43 43" xmlns="http://www.w3.org/2000/svg">
<path d="M4.73151 15.8893C9.145 19.6024 13.1722 23.7484 17.1357 27.9322C18.931 29.8278 20.6956 31.7519 22.4605 33.6764C23.0443 34.3133 23.625 34.9527 24.215 35.5842C24.6932 36.0955 25.1329 37.1278 25.4451 36.4986C25.1017 37.1912 25.7906 37.6135 26.1401 36.9077C26.5382 36.1046 25.8491 35.5572 25.3102 34.9498C23.3368 32.7271 21.2872 30.5642 19.262 28.3891C14.8454 23.6472 10.3235 18.9513 5.36063 14.7765C4.96105 14.4398 4.29698 15.5239 4.73151 15.8893Z" fill="currentColor"/>
<path d="M3.27057 20.3547C7.68407 24.0678 11.7112 28.2137 15.6747 32.3976C17.4701 34.2931 19.2347 36.2172 20.9996 38.1417C21.5834 38.7787 22.164 39.418 22.7541 40.0495C23.2323 40.5609 23.6719 41.5931 23.9841 40.9639C23.6407 41.6566 24.3297 42.0789 24.6792 41.373C25.0772 40.5699 24.3882 40.0225 23.8492 39.4151C21.8759 37.1924 19.8263 35.0296 17.801 32.8545C13.3845 28.1126 8.86258 23.4166 3.89969 19.2418C3.50011 18.9051 2.83604 19.9892 3.27057 20.3547Z" fill="currentColor"/>
<path d="M25.0904 41.8017C27.4285 38.7208 30.2165 36.0588 33.0498 33.4592C34.3334 32.2818 35.6479 31.1365 36.9626 29.9911C37.3978 29.6122 37.8357 29.2366 38.2649 28.8513C38.6124 28.539 39.4174 28.3625 38.8125 27.969C39.4783 28.4019 39.7075 27.89 39.029 27.4492C38.2571 26.9474 37.9199 27.4347 37.5015 27.7806C35.9703 29.0474 34.5057 30.3918 33.0258 31.7128C29.7998 34.5938 26.6342 37.5748 24.0055 41.0393C23.7933 41.3181 24.8603 42.105 25.0904 41.8017Z" fill="currentColor"/>
<path d="M4.63342 15.6462C6.17041 14.1193 8.07204 12.4438 9.05538 10.493C8.87866 10.6361 8.70195 10.7792 8.52489 10.9226C10.4021 12.0614 11.8169 13.6821 13.2662 15.3089C15.0322 17.2918 16.9873 19.1163 18.9008 20.9559C22.7178 24.6265 26.1548 28.7894 30.1502 32.2509C30.2783 31.9038 30.4068 31.5578 30.5349 31.2107C28.8748 32.79 27.52 34.64 25.8598 36.2185C25.846 36.51 25.8315 36.8015 25.8173 37.0926C25.8505 37.0422 25.8826 36.9914 25.9158 36.9411C26.021 36.5897 26.1262 36.2384 26.2318 35.8874C26.1079 35.9976 25.9837 36.1083 25.8598 36.2185C25.6335 36.4205 25.2389 37.6144 25.7198 37.1857C25.8437 37.0755 25.9675 36.9645 26.0918 36.8539C26.19 36.7663 26.7573 35.6925 26.4077 35.8001C26.1358 35.8839 25.9421 36.1005 25.7627 36.3114C25.6143 36.4855 25.248 37.6346 25.7198 37.1857C27.3799 35.6065 28.7351 33.7561 30.3953 32.1775C30.5653 32.0161 31.0702 31.3889 30.78 31.1374C26.7811 27.673 23.3643 23.502 19.5306 19.8424C17.8003 18.1902 16.065 16.528 14.4277 14.7843C12.7513 12.9988 11.2746 11.0945 9.15506 9.80941C8.96001 9.69104 8.68399 10.1209 8.62457 10.239C7.80453 11.864 5.88855 13.5632 4.57849 14.8647C4.31116 15.1306 4.04834 16.2278 4.63342 15.6462Z" fill="currentColor"/>
<path d="M9.15701 10.7748C9.70086 9.53044 10.9833 8.5722 12.012 7.71948C13.1246 6.79724 14.363 8.46394 15.1933 9.24585C17.3928 11.3168 19.4556 13.5703 21.5795 15.7197C23.6761 17.842 25.7994 19.9341 27.9216 22.0308C29.9462 24.0305 31.8193 26.6461 34.2668 28.1342C34.3981 27.7897 34.5298 27.4447 34.6611 27.1002C33.565 27.8979 30.2433 30.0404 30.1991 31.5758C30.2106 31.1729 29.4611 32.0977 29.4516 32.417C29.4488 32.5143 29.4463 32.6113 29.4434 32.7086C29.4328 33.082 29.8732 32.6279 29.9278 32.5505C31.1965 30.7587 32.735 29.3411 34.5012 28.0558C34.6494 27.9484 35.1837 27.1966 34.8956 27.0217C33.0151 25.8782 31.3782 23.9202 29.8735 22.3222C28.0722 20.4097 26.1666 18.6023 24.3135 16.7395C20.7551 13.161 17.3501 8.96098 13.2624 5.98465C13.1901 5.93171 13.073 6.02594 13.0276 6.06345C11.3478 7.44414 9.49624 8.79053 8.59974 10.8419C8.2488 11.6465 8.9469 11.2554 9.15701 10.7748Z" fill="currentColor"/>
<path d="M34.5878 27.7572C35.3455 26.9187 36.236 26.2178 36.9947 25.3789C37.5056 24.8137 37.9656 24.1927 38.4972 23.6475C38.8655 23.2699 38.808 22.1431 38.2274 22.7395C37.7427 23.237 37.3067 23.7811 36.8524 24.3055C35.9965 25.2938 34.9741 26.1066 34.0988 27.0741C33.6562 27.5639 34.0201 28.385 34.5878 27.7572Z" fill="currentColor"/>
<path d="M24.7863 40.9957C25.1775 39.9278 25.6183 39.311 26.0104 38.2425C26.2742 37.5226 25.7508 37.3448 26.041 36.6364C26.242 36.1456 25.7799 35.1015 25.4633 35.8761C25.199 36.5224 25.5535 36.7041 25.3268 37.3648C24.8998 38.6099 24.0253 39.7403 23.573 40.9728C23.3444 41.5966 24.4929 41.7954 24.7863 40.9957Z" fill="currentColor"/>
<path d="M3.9365 14.7575C3.71389 15.8783 3.37415 16.5584 3.15082 17.68C3.00066 18.4355 2.94108 18.6617 2.76331 19.4099C2.64008 19.9282 3.85355 20.7673 4.04725 19.9493C4.20908 19.2668 3.83308 19.1399 3.95573 18.4488C4.18666 17.1464 4.87474 15.89 5.13243 14.5963C5.26248 13.9416 4.10354 13.9181 3.9365 14.7575Z" fill="currentColor"/>
<path d="M39.2407 27.3198C39.1633 26.1688 39.3121 25.4174 39.2352 24.2655C39.1831 23.4895 39.1815 23.2535 39.1577 22.4776C39.1413 21.9401 37.7635 21.4358 37.7901 22.2839C37.8121 22.9916 38.2046 23.018 38.2663 23.724C38.3827 25.0543 38.0501 26.458 38.1387 27.7868C38.1839 28.4591 39.2983 28.1819 39.2407 27.3198Z" fill="currentColor"/>
<path d="M12.9559 7.11402C14.1351 6.00212 15.0635 4.54628 16.4767 3.70914C16.7389 3.55351 17.161 2.43878 16.8289 2.6357C15.3385 3.51927 14.3729 5.00081 13.1339 6.16964C12.9351 6.35697 12.5051 7.53975 12.9559 7.11402Z" fill="currentColor"/>
<path d="M16.8347 3.27511C20.7441 6.44124 24.1153 10.2857 27.9691 13.5517C29.9258 15.2093 32.0439 16.6747 33.8669 18.4832C35.3865 19.9896 36.7356 21.6316 38.3254 23.0722C38.8183 23.5195 39.5499 22.4946 39.1359 22.1193C37.549 20.6809 36.1566 19.0744 34.6777 17.5299C33.055 15.8346 31.0956 14.5017 29.2899 13.0172C25.1447 9.60832 21.6181 5.52638 17.4645 2.16158C17.0131 1.79653 16.3601 2.89031 16.8347 3.27511Z" fill="currentColor"/>
<path d="M15.9745 25.486C17.0652 24.2407 18.1924 22.9933 19.4928 21.9619C19.9756 21.5793 19.7839 20.4772 19.1278 20.9981C17.7452 22.0944 16.5385 23.4171 15.3789 24.7412C14.917 25.269 15.4198 26.1193 15.9745 25.486Z" fill="currentColor"/>
<path d="M24.5025 17.2182C25.5712 16.02 26.6543 14.8424 27.9023 13.827C28.2942 13.5081 28.3358 12.4232 27.6865 12.9516C26.3585 14.032 25.2115 15.297 24.0746 16.572C23.6535 17.0433 23.936 17.8535 24.5025 17.2182Z" fill="currentColor"/>
<path d="M14.7559 4.80652C16.7395 7.13412 19.0565 9.13269 21.2281 11.2788C21.3934 11.4419 21.6813 10.9908 21.5515 10.8624C19.3802 8.71736 17.0622 6.71773 15.0792 4.39013C14.9321 4.21743 14.6338 4.66307 14.7559 4.80652Z" fill="currentColor"/>
<path d="M31.2862 20.2558C33.0489 21.9558 35.1636 23.2893 36.5877 25.3224C36.6497 25.4104 36.9387 25.0258 36.8843 24.9473C35.4527 22.9042 33.3306 21.5601 31.5587 19.8509C31.5032 19.7979 31.2049 20.1783 31.2862 20.2558Z" fill="currentColor"/>
<path d="M31.9139 29.5083C29.0377 26.6142 26.2507 23.6331 23.1978 20.92C23.0907 20.8246 22.7935 21.27 22.9313 21.3919C25.9835 24.105 28.7702 27.0857 31.6474 29.9802C31.7426 30.0761 32.0467 29.6418 31.9139 29.5083Z" fill="currentColor"/>
<path d="M24.947 20.496C20.4288 16.2492 16.4118 11.5436 12.0333 7.16509C11.9725 7.10427 11.658 7.52819 11.7668 7.63695C16.1449 12.0151 20.162 16.7215 24.6805 20.9678C24.7466 21.0305 25.057 20.5991 24.947 20.496Z" fill="currentColor"/>
<path d="M6.32508 13.8321C7.92085 16.187 10.4867 17.7091 12.3361 19.8432C12.3745 19.8878 12.7017 19.4855 12.6026 19.3713C10.7539 17.2373 8.1877 15.7155 6.59158 13.3603C6.57063 13.3283 6.23451 13.6987 6.32508 13.8321Z" fill="currentColor"/>
<path d="M14.0309 18.7416C15.3778 20.0802 16.7752 21.3697 18.0595 22.7702C18.2187 22.9438 18.5144 22.4963 18.385 22.3552C17.1007 20.9548 15.7037 19.6656 14.3564 18.3266C14.1876 18.1584 13.8971 18.6084 14.0309 18.7416Z" fill="currentColor"/>
<path d="M17.1424 24.2741C20.1613 26.7936 23.0504 29.4465 25.7828 32.277C25.8737 32.3713 26.1799 31.9399 26.0493 31.8051C23.3173 28.975 20.4278 26.3218 17.4089 23.8023C17.2969 23.7089 17.004 24.1585 17.1424 24.2741Z" fill="currentColor"/>
</svg>
