<svg width="30" height="30" viewBox="0 0 30 30" fill="none" xmlns="http://www.w3.org/2000/svg">
<path d="M16.5 23.0972L14.0781 21.85C11.6619 20.3146 9.61345 18.2661 8.07812 15.85C6.38809 13.2412 5.33636 10.271 5.00812 7.17997C4.98313 6.90344 5.01599 6.62473 5.10462 6.3616C5.19324 6.09846 5.33569 5.85666 5.52288 5.65159C5.71008 5.44652 5.93792 5.28268 6.19191 5.17049C6.44589 5.05831 6.72046 5.00023 6.99812 4.99997H9.99812C10.4834 4.99519 10.9539 5.16705 11.3219 5.4835C11.6898 5.79996 11.9302 6.23942 11.9981 6.71997C12.1247 7.68004 12.3596 8.6227 12.6981 9.52997C12.8327 9.88789 12.7779 10.2232 12.6981 10.5972C12.6184 10.9711 12.267 11.228 11.9981 11.4999L10.5 12.4999C11.9236 15.0034 15.4965 18.1736 18 19.5972L18.3421 18.913C18.7773 18.0426 19.4472 16.8476 20.3581 17.19V17.19C21.2654 17.5285 22.2081 17.7633 23.1681 17.89C23.6539 17.9585 24.0975 18.2032 24.4146 18.5775C24.7318 18.9518 24.9003 19.4295 24.8881 19.92V22.92C24.8892 23.1985 24.8322 23.4741 24.7206 23.7293C24.6091 23.9845 24.4454 24.2136 24.2402 24.4018C24.035 24.5901 23.7927 24.7335 23.5289 24.8227C23.265 24.9119 22.9855 24.945 22.7081 24.92L20 24.4018" stroke="currentColor" stroke-linecap="round" stroke-linejoin="round"/>
<path d="M17 9.09717C17.9767 9.28773 18.8744 9.76543 19.5781 10.4691C20.2817 11.1728 20.7594 12.0704 20.95 13.0472M17 5.09717C19.0293 5.3226 20.9216 6.23134 22.3662 7.67418C23.8109 9.11701 24.722 11.0082 24.95 13.0372" stroke="currentColor" stroke-linecap="round" stroke-linejoin="round"/>
</svg>
