<svg width="42" height="42" viewBox="0 0 42 42" xmlns="http://www.w3.org/2000/svg">
<path fill-rule="evenodd" clip-rule="evenodd" d="M25.8766 9.89262C25.8936 9.95576 25.8922 10.0224 25.8726 10.0848L25.8546 10.1425C25.823 10.2431 25.7676 10.3346 25.693 10.4092L25.2173 10.8849L24.7959 11.3062C24.6999 11.4023 24.6899 11.5547 24.7726 11.6625L24.9172 11.8509L25.3223 12.4093L25.6818 12.9048C25.7032 12.9343 25.748 12.9319 25.766 12.9002C25.7917 12.8553 25.8216 12.813 25.8555 12.7738L26.099 12.4926L26.2537 12.3139C26.3462 12.2072 26.456 12.1169 26.5785 12.0467C26.7001 11.9772 26.8368 11.9382 26.9768 11.9333L27.0555 11.9305L27.1276 11.9279C27.272 11.9228 27.4157 11.952 27.5467 12.0132C27.6789 12.0749 27.8016 12.155 27.9113 12.2513L28.3246 12.614L28.9033 13.1217L29.3106 13.5212L29.5652 13.7709C29.666 13.8698 29.7458 13.9879 29.8001 14.1182C29.8544 14.2487 29.8839 14.3882 29.8871 14.5296L29.8883 14.5785L29.8892 14.6176C29.8925 14.7658 29.8731 14.9136 29.8314 15.0559C29.7902 15.1966 29.7137 15.3245 29.6091 15.4273L28.9817 16.0445L28.1949 16.8185L27.3059 17.5944L26.4168 18.3702L26.1112 18.6196L25.9837 18.7235C25.866 18.8196 25.7312 18.8926 25.5865 18.9388L25.5345 18.9555C25.4248 18.9905 25.3082 18.9986 25.1947 18.9789L25.1728 18.9751C25.0726 18.9577 24.975 18.9282 24.882 18.887C24.7897 18.8462 24.7069 18.7865 24.6389 18.7119L23.89 17.8897L23.1632 17.0918C23.08 17.0004 23.0058 16.901 22.9419 16.7952C22.8792 16.6915 22.8486 16.5715 22.8541 16.4504L22.8577 16.3712L22.8659 16.1918C22.8684 16.1367 22.8915 16.0846 22.9305 16.0456C22.9458 16.0304 22.9712 16.046 22.9645 16.0666L22.9317 16.1671C22.8928 16.2864 22.8855 16.4137 22.9105 16.5366L22.9126 16.5469C22.9389 16.6759 23.0026 16.7944 23.0957 16.8875L23.2886 17.0803L23.6241 17.4158L24.2419 17.9565L24.7451 18.3967C24.8208 18.4629 24.9091 18.5131 25.0047 18.5443L25.0099 18.546C25.1014 18.5758 25.1991 18.5814 25.2934 18.5622C25.3872 18.5432 25.4729 18.496 25.5391 18.427L25.5832 18.3811L25.7291 18.2292L26.4001 17.4475L27.0711 16.6659L27.9903 15.6839L28.8243 14.7931C28.8789 14.7347 28.9086 14.6573 28.9068 14.5773C28.9051 14.4969 28.8744 14.4198 28.8204 14.3603L28.062 13.524L27.3094 12.6941C27.2508 12.6294 27.1759 12.5818 27.0925 12.5562C27.0099 12.5308 26.9212 12.5332 26.8401 12.5632L26.8324 12.5661C26.7445 12.5985 26.6631 12.6461 26.5917 12.7068L26.08 13.1415L25.9516 13.2506C25.6252 13.5279 25.3313 13.8412 25.0753 14.1845L24.6902 14.7013L24.358 15.1078L24.1122 15.4085C24.0556 15.4778 23.9814 15.5308 23.8974 15.5618C23.815 15.5923 23.7241 15.5903 23.6431 15.5564L23.6301 15.551C23.5442 15.515 23.4456 15.528 23.3719 15.5851L23.3679 15.5882C23.3547 15.5985 23.3381 15.5806 23.3494 15.5682L23.3539 15.5633C23.414 15.4969 23.4085 15.3943 23.3416 15.3348L23.1198 15.1378L22.7765 14.8327L22.3788 14.4769C22.1556 14.2773 21.8154 14.2868 21.6037 14.4985L21.4623 14.6399L21.058 15.0442C20.9829 15.1193 20.8908 15.1751 20.7894 15.2069L20.7381 15.223C20.6711 15.244 20.5992 15.2442 20.5321 15.2235C20.4643 15.2027 20.4027 15.1656 20.3526 15.1155L19.8691 14.6321L19.6308 14.3937C19.4502 14.2131 19.1602 14.2043 18.9689 14.3735L18.6284 14.6747L17.9501 15.3145L17.2718 15.9542L16.9636 16.2182L16.7941 16.3634C16.7192 16.4275 16.7148 16.5418 16.7845 16.6115C16.8694 16.6964 16.9323 16.8007 16.9678 16.9154L16.9752 16.9394L17.0077 17.0444C17.0269 17.1066 17.0397 17.1707 17.0459 17.2355C17.0521 17.3003 17.0511 17.3657 17.0431 17.4303L17.0331 17.5109C17.0186 17.6282 16.9809 17.7415 16.9221 17.8441L16.9197 17.8483C16.8589 17.9544 16.7865 18.0534 16.7038 18.1434L15.2169 19.761L13.6055 21.5141L12.7553 22.4329L11.9051 23.3517L10.661 24.6092L9.62953 25.6517C9.48948 25.7932 9.32 25.9022 9.1331 25.9709L9.11851 25.9763C8.94056 26.0416 8.75198 26.0732 8.56245 26.0694C8.37326 26.0656 8.18531 26.0221 8.01337 25.9431C7.8399 25.8634 7.68213 25.7532 7.54757 25.6177L7.11479 25.1822L6.47853 24.5419L5.68421 23.689L5.01536 22.9709C4.93221 22.8816 4.86322 22.7801 4.8108 22.6699C4.75827 22.5596 4.71983 22.443 4.69638 22.323L4.68285 22.2538C4.65068 22.0894 4.65653 21.9199 4.69993 21.7581L4.70932 21.7231L4.73878 21.6132C4.76908 21.5001 4.81954 21.3935 4.88775 21.2984C4.95629 21.2028 5.03456 21.1146 5.1213 21.0351L7.145 19.1812L9.29916 17.2078L10.8207 15.7277L12.3227 14.2666C12.3301 14.2594 12.3425 14.2646 12.3425 14.2749C12.3426 14.2924 12.3359 14.3093 12.3238 14.3219L10.8024 15.9099L9.2621 17.5176L7.36461 19.5852L5.58221 21.5274C5.50642 21.61 5.44975 21.7083 5.41623 21.8152C5.38309 21.9209 5.38375 22.0348 5.41777 22.1401C5.45221 22.2468 5.51281 22.3432 5.59405 22.4204L6.90802 23.6697L8.24458 24.9405C8.31078 25.0034 8.3931 25.0468 8.48243 25.0659L8.52294 25.0745C8.58602 25.088 8.65147 25.0854 8.71328 25.0669C8.77519 25.0485 8.83177 25.0154 8.87825 24.9706L10.2187 23.6762L11.63 22.3135L14.1004 20.0381L16.4596 17.8652C16.5332 17.7973 16.5954 17.718 16.6438 17.6303L16.6496 17.6196C16.6941 17.5389 16.726 17.4519 16.7444 17.3616C16.7627 17.2717 16.7622 17.1791 16.7431 17.0894L16.7417 17.083C16.7217 16.9889 16.685 16.8991 16.6334 16.8178L16.6124 16.7847L16.6034 16.7706C16.5479 16.6832 16.4489 16.6332 16.3457 16.6405C16.2404 16.6479 16.1379 16.6043 16.0702 16.5233L15.7501 16.1402L15.3221 15.6282L14.8937 15.0626L14.4653 14.4969L14.1794 14.1997L14.027 14.0413C13.9387 13.9495 13.8353 13.8735 13.7213 13.8166C13.6083 13.7602 13.4828 13.7337 13.3567 13.7394L13.2872 13.7426L13.0635 13.7528C13.05 13.7534 13.0428 13.737 13.0523 13.7274C13.0697 13.7101 13.093 13.6998 13.1176 13.6989L13.2874 13.6921L13.3087 13.6912C13.4322 13.6862 13.5556 13.7031 13.6733 13.7411C13.7907 13.779 13.8994 13.8398 13.9933 13.9198L14.0893 14.0016L14.3007 14.182C14.3158 14.1948 14.3382 14.1939 14.3522 14.1799L14.377 14.1551L14.9691 13.3908L15.5611 12.6265L16.1055 11.9951L16.13 11.9667C16.4259 11.6234 16.4164 11.1126 16.1079 10.7806L15.7422 10.3871C15.6293 10.2656 15.5686 10.1045 15.5734 9.93872C15.5782 9.77104 15.6389 9.60976 15.7459 9.48053L15.7997 9.41556C15.9443 9.24081 16.0559 9.03957 16.1281 8.82452C16.2007 8.60811 16.2385 8.38153 16.2401 8.15326L16.2402 8.12989L16.2409 8.03896C16.2421 7.8555 16.2133 7.67307 16.1555 7.49895C16.0974 7.32405 16.0233 7.15489 15.9341 6.99365L15.9207 6.96953C15.8232 6.79317 15.6961 6.63488 15.5449 6.50157L15.4734 6.43852L15.4193 6.39074C15.2565 6.24719 15.0717 6.13076 14.872 6.04589C14.6715 5.96069 14.4628 5.89653 14.249 5.85445L14.1974 5.8443C13.9493 5.79542 13.6971 5.77028 13.4442 5.7692L13.2984 5.76859L13.2791 5.7685C12.9421 5.76705 12.6058 5.79919 12.2752 5.86446L12.1708 5.88506C11.9094 5.93665 11.6525 6.00916 11.4026 6.10187L11.0273 6.24116L10.712 6.39848L10.4282 6.53997C10.4136 6.54725 10.3965 6.53668 10.3964 6.52037C10.3963 6.49729 10.4029 6.47468 10.4155 6.45536L10.5691 6.22038L10.742 5.95582L11.0309 5.61829C11.2232 5.3937 11.4359 5.18748 11.6663 5.00229L11.7346 4.94733L11.779 4.91167C12.0257 4.71345 12.2861 4.53306 12.5584 4.37186L12.9673 4.12978L13.4198 3.93716L13.8723 3.74454L14.3068 3.62413L14.7413 3.50369L15.1951 3.43715C15.4971 3.39286 15.8021 3.37229 16.1074 3.37565L16.3502 3.37832L16.5142 3.38012C16.8718 3.38403 17.2282 3.42037 17.5791 3.48869L18.1067 3.59138L18.6305 3.76845L19.1544 3.94553L19.503 4.11127L19.8518 4.27698L20.3666 4.61456C20.7091 4.83919 21.0311 5.09365 21.3289 5.37495L21.9806 5.99074L23.0799 7.02935L24.4653 8.41265L25.7798 9.72521C25.8262 9.77155 25.8596 9.82929 25.8766 9.89262ZM19.6304 5.08166L19.2415 4.83971L18.9124 4.67818L18.5832 4.51666L18.0574 4.34156L17.5316 4.16646L17.0774 4.08235L16.6233 3.99824L16.1247 3.96968C15.7928 3.95065 15.46 3.9582 15.1293 3.99226L15.1088 3.99437L14.5915 4.04758L14.0858 4.17142L13.58 4.29525L13.1623 4.46183C12.884 4.57274 12.6144 4.70391 12.3554 4.85429L12.2397 4.92146C11.9044 5.11614 11.5936 5.35019 11.3139 5.61862L11.0978 5.82601L10.8284 6.08449C10.773 6.13761 10.8386 6.22619 10.9056 6.18876L11.3505 5.94004L11.7299 5.78814C11.9822 5.68711 12.2433 5.60922 12.5097 5.55545L12.6485 5.52744C13.0071 5.45511 13.3721 5.41999 13.7379 5.42261L13.7483 5.42268L13.9649 5.42422C14.1936 5.42585 14.4215 5.45048 14.6452 5.49776L14.6581 5.50048C14.8733 5.546 15.0836 5.61213 15.2861 5.69796C15.4878 5.78341 15.6741 5.9013 15.8377 6.04695L15.9139 6.11474L16.0003 6.19167C16.1575 6.33168 16.297 6.49051 16.4154 6.66458C16.5338 6.8386 16.6295 7.02706 16.7001 7.22536L16.7478 7.35946C16.8498 7.6459 16.9027 7.9475 16.9043 8.25154L16.9043 8.25975L16.9047 8.33206C16.9061 8.59383 16.8651 8.85411 16.7834 9.10283L16.7478 9.21123C16.6895 9.38861 16.6097 9.55815 16.51 9.71604C16.4233 9.85338 16.4482 10.0332 16.5688 10.1419L16.7499 10.305L17.1398 10.6563L17.7757 11.2506L18.4115 11.8449L19.522 12.9563C20.1353 13.5701 21.13 13.5703 21.7435 12.9568L22.6581 12.0423L24.2892 10.4112C24.5089 10.1914 24.5144 9.83675 24.3015 9.61032L23.9193 9.20394L21.9693 7.26378L20.3439 5.64666C20.1282 5.43199 19.8888 5.24245 19.6304 5.08166ZM24.8726 12.4562L24.2264 11.981L24.1996 11.9551C24.1848 11.9408 24.1612 11.941 24.1466 11.9556L23.4271 12.6751L23.0757 13.0265C22.8579 13.2443 22.8577 13.5974 23.0753 13.8154L23.4693 14.2099L23.629 14.4126L23.6545 14.4451C23.7289 14.5396 23.8654 14.557 23.9611 14.4841L24.1337 14.3529L24.6692 13.9518L24.9387 13.75C25.1154 13.6176 25.2766 13.4656 25.419 13.2969L25.5818 13.1041C25.6109 13.0697 25.6084 13.0187 25.5761 12.9872L25.5189 12.9315L24.8726 12.4562ZM17.0042 12.1313L16.8033 12.2946L15.5908 13.2673L14.4004 14.2221C14.3864 14.2334 14.3779 14.2503 14.3773 14.2683C14.3767 14.2862 14.3847 14.3033 14.3988 14.3143L15.2317 14.9656L16.087 15.6344L16.1878 15.7363C16.2416 15.7906 16.3307 15.7861 16.3788 15.7266L16.4824 15.5984L16.6762 15.3586L17.5071 14.4899L18.338 13.6212L18.432 13.4934C18.487 13.4186 18.4833 13.3157 18.4229 13.2451L18.3737 13.1875L18.2214 13.0093L17.7132 12.4886L17.3859 12.1533C17.2835 12.0483 17.118 12.0388 17.0042 12.1313Z" fill="currentColor"/>
<path fill-rule="evenodd" clip-rule="evenodd" d="M25.8766 9.89262C25.8936 9.95576 25.8922 10.0224 25.8726 10.0848L25.8546 10.1425C25.823 10.2431 25.7676 10.3346 25.693 10.4092L25.2173 10.8849L24.7959 11.3062C24.6999 11.4023 24.6899 11.5547 24.7726 11.6625L24.9172 11.8509L25.3223 12.4093L25.6818 12.9048C25.7032 12.9343 25.748 12.9319 25.766 12.9002C25.7917 12.8553 25.8216 12.813 25.8555 12.7738L26.099 12.4926L26.2537 12.3139C26.3462 12.2072 26.456 12.1169 26.5785 12.0467C26.7001 11.9772 26.8368 11.9382 26.9768 11.9333L27.0555 11.9305L27.1276 11.9279C27.272 11.9228 27.4157 11.952 27.5467 12.0132C27.6789 12.0749 27.8016 12.155 27.9113 12.2513L28.3246 12.614L28.9033 13.1217L29.3106 13.5212L29.5652 13.7709C29.666 13.8698 29.7458 13.9879 29.8001 14.1182C29.8544 14.2487 29.8839 14.3882 29.8871 14.5296L29.8883 14.5785L29.8892 14.6176C29.8925 14.7658 29.8731 14.9136 29.8314 15.0559C29.7902 15.1966 29.7137 15.3245 29.6091 15.4273L28.9817 16.0445L28.1949 16.8185L27.3059 17.5944L26.4168 18.3702L26.1112 18.6196L25.9837 18.7235C25.866 18.8196 25.7312 18.8926 25.5865 18.9388L25.5345 18.9555C25.4248 18.9905 25.3082 18.9986 25.1947 18.9789L25.1728 18.9751C25.0726 18.9577 24.975 18.9282 24.882 18.887C24.7897 18.8462 24.7069 18.7865 24.6389 18.7119L23.89 17.8897L23.1632 17.0918C23.08 17.0004 23.0058 16.901 22.9419 16.7952C22.8792 16.6915 22.8486 16.5715 22.8541 16.4504L22.8577 16.3712L22.8659 16.1918C22.8684 16.1367 22.8915 16.0846 22.9305 16.0456C22.9458 16.0304 22.9712 16.046 22.9645 16.0666L22.9317 16.1671C22.8928 16.2864 22.8855 16.4137 22.9105 16.5366L22.9126 16.5469C22.9389 16.6759 23.0026 16.7944 23.0957 16.8875L23.2886 17.0803L23.6241 17.4158L24.2419 17.9565L24.7451 18.3967C24.8208 18.4629 24.9091 18.5131 25.0047 18.5443L25.0099 18.546C25.1014 18.5758 25.1991 18.5814 25.2934 18.5622C25.3872 18.5432 25.4729 18.496 25.5391 18.427L25.5832 18.3811L25.7291 18.2292L26.4001 17.4475L27.0711 16.6659L27.9903 15.6839L28.8243 14.7931C28.8789 14.7347 28.9086 14.6573 28.9068 14.5773C28.9051 14.4969 28.8744 14.4198 28.8204 14.3603L28.062 13.524L27.3094 12.6941C27.2508 12.6294 27.1759 12.5818 27.0925 12.5562C27.0099 12.5308 26.9212 12.5332 26.8401 12.5632L26.8324 12.5661C26.7445 12.5985 26.6631 12.6461 26.5917 12.7068L26.08 13.1415L25.9516 13.2506C25.6252 13.5279 25.3313 13.8412 25.0753 14.1845L24.6902 14.7013L24.358 15.1078L24.1122 15.4085C24.0556 15.4778 23.9814 15.5308 23.8974 15.5618C23.815 15.5923 23.7241 15.5903 23.6431 15.5564L23.6301 15.551C23.5442 15.515 23.4456 15.528 23.3719 15.5851L23.3679 15.5882C23.3547 15.5985 23.3381 15.5806 23.3494 15.5682L23.3539 15.5633C23.414 15.4969 23.4085 15.3943 23.3416 15.3348L23.1198 15.1378L22.7765 14.8327L22.3788 14.4769C22.1556 14.2773 21.8154 14.2868 21.6037 14.4985L21.4623 14.6399L21.058 15.0442C20.9829 15.1193 20.8908 15.1751 20.7894 15.2069L20.7381 15.223C20.6711 15.244 20.5992 15.2442 20.5321 15.2235C20.4643 15.2027 20.4027 15.1656 20.3526 15.1155L19.8691 14.6321L19.6308 14.3937C19.4502 14.2131 19.1602 14.2043 18.9689 14.3735L18.6284 14.6747L17.9501 15.3145L17.2718 15.9542L16.9636 16.2182L16.7941 16.3634C16.7192 16.4275 16.7148 16.5418 16.7845 16.6115C16.8694 16.6964 16.9323 16.8007 16.9678 16.9154L16.9752 16.9394L17.0077 17.0444C17.0269 17.1066 17.0397 17.1707 17.0459 17.2355C17.0521 17.3003 17.0511 17.3657 17.0431 17.4303L17.0331 17.5109C17.0186 17.6282 16.9809 17.7415 16.9221 17.8441L16.9197 17.8483C16.8589 17.9544 16.7865 18.0534 16.7038 18.1434L15.2169 19.761L13.6055 21.5141L12.7553 22.4329L11.9051 23.3517L10.661 24.6092L9.62953 25.6517C9.48948 25.7932 9.32 25.9022 9.1331 25.9709L9.11851 25.9763C8.94056 26.0416 8.75198 26.0732 8.56245 26.0694C8.37326 26.0656 8.18531 26.0221 8.01337 25.9431C7.8399 25.8634 7.68213 25.7532 7.54757 25.6177L7.11479 25.1822L6.47853 24.5419L5.68421 23.689L5.01536 22.9709C4.93221 22.8816 4.86322 22.7801 4.8108 22.6699C4.75827 22.5596 4.71983 22.443 4.69638 22.323L4.68285 22.2538C4.65068 22.0894 4.65653 21.9199 4.69993 21.7581L4.70932 21.7231L4.73878 21.6132C4.76908 21.5001 4.81954 21.3935 4.88775 21.2984C4.95629 21.2028 5.03456 21.1146 5.1213 21.0351L7.145 19.1812L9.29916 17.2078L10.8207 15.7277L12.3227 14.2666C12.3301 14.2594 12.3425 14.2646 12.3425 14.2749C12.3426 14.2924 12.3359 14.3093 12.3238 14.3219L10.8024 15.9099L9.2621 17.5176L7.36461 19.5852L5.58221 21.5274C5.50642 21.61 5.44975 21.7083 5.41623 21.8152C5.38309 21.9209 5.38375 22.0348 5.41777 22.1401C5.45221 22.2468 5.51281 22.3432 5.59405 22.4204L6.90802 23.6697L8.24458 24.9405C8.31078 25.0034 8.3931 25.0468 8.48243 25.0659L8.52294 25.0745C8.58602 25.088 8.65147 25.0854 8.71328 25.0669C8.77519 25.0485 8.83177 25.0154 8.87825 24.9706L10.2187 23.6762L11.63 22.3135L14.1004 20.0381L16.4596 17.8652C16.5332 17.7973 16.5954 17.718 16.6438 17.6303L16.6496 17.6196C16.6941 17.5389 16.726 17.4519 16.7444 17.3616C16.7627 17.2717 16.7622 17.1791 16.7431 17.0894L16.7417 17.083C16.7217 16.9889 16.685 16.8991 16.6334 16.8178L16.6124 16.7847L16.6034 16.7706C16.5479 16.6832 16.4489 16.6332 16.3457 16.6405C16.2404 16.6479 16.1379 16.6043 16.0702 16.5233L15.7501 16.1402L15.3221 15.6282L14.8937 15.0626L14.4653 14.4969L14.1794 14.1997L14.027 14.0413C13.9387 13.9495 13.8353 13.8735 13.7213 13.8166C13.6083 13.7602 13.4828 13.7337 13.3567 13.7394L13.2872 13.7426L13.0635 13.7528C13.05 13.7534 13.0428 13.737 13.0523 13.7274C13.0697 13.7101 13.093 13.6998 13.1176 13.6989L13.2874 13.6921L13.3087 13.6912C13.4322 13.6862 13.5556 13.7031 13.6733 13.7411C13.7907 13.779 13.8994 13.8398 13.9933 13.9198L14.0893 14.0016L14.3007 14.182C14.3158 14.1948 14.3382 14.1939 14.3522 14.1799L14.377 14.1551L14.9691 13.3908L15.5611 12.6265L16.1055 11.9951L16.13 11.9667C16.4259 11.6234 16.4164 11.1126 16.1079 10.7806L15.7422 10.3871C15.6293 10.2656 15.5686 10.1045 15.5734 9.93872C15.5782 9.77104 15.6389 9.60976 15.7459 9.48053L15.7997 9.41556C15.9443 9.24081 16.0559 9.03957 16.1281 8.82452C16.2007 8.60811 16.2385 8.38153 16.2401 8.15326L16.2402 8.12989L16.2409 8.03896C16.2421 7.8555 16.2133 7.67307 16.1555 7.49895C16.0974 7.32405 16.0233 7.15489 15.9341 6.99365L15.9207 6.96953C15.8232 6.79317 15.6961 6.63488 15.5449 6.50157L15.4734 6.43852L15.4193 6.39074C15.2565 6.24719 15.0717 6.13076 14.872 6.04589C14.6715 5.96069 14.4628 5.89653 14.249 5.85445L14.1974 5.8443C13.9493 5.79542 13.6971 5.77028 13.4442 5.7692L13.2984 5.76859L13.2791 5.7685C12.9421 5.76705 12.6058 5.79919 12.2752 5.86446L12.1708 5.88506C11.9094 5.93665 11.6525 6.00916 11.4026 6.10187L11.0273 6.24116L10.712 6.39848L10.4282 6.53997C10.4136 6.54725 10.3965 6.53668 10.3964 6.52037C10.3963 6.49729 10.4029 6.47468 10.4155 6.45536L10.5691 6.22038L10.742 5.95582L11.0309 5.61829C11.2232 5.3937 11.4359 5.18748 11.6663 5.00229L11.7346 4.94733L11.779 4.91167C12.0257 4.71345 12.2861 4.53306 12.5584 4.37186L12.9673 4.12978L13.4198 3.93716L13.8723 3.74454L14.3068 3.62413L14.7413 3.50369L15.1951 3.43715C15.4971 3.39286 15.8021 3.37229 16.1074 3.37565L16.3502 3.37832L16.5142 3.38012C16.8718 3.38403 17.2282 3.42037 17.5791 3.48869L18.1067 3.59138L18.6305 3.76845L19.1544 3.94553L19.503 4.11127L19.8518 4.27698L20.3666 4.61456C20.7091 4.83919 21.0311 5.09365 21.3289 5.37495L21.9806 5.99074L23.0799 7.02935L24.4653 8.41265L25.7798 9.72521C25.8262 9.77155 25.8596 9.82929 25.8766 9.89262ZM19.6304 5.08166L19.2415 4.83971L18.9124 4.67818L18.5832 4.51666L18.0574 4.34156L17.5316 4.16646L17.0774 4.08235L16.6233 3.99824L16.1247 3.96968C15.7928 3.95065 15.46 3.9582 15.1293 3.99226L15.1088 3.99437L14.5915 4.04758L14.0858 4.17142L13.58 4.29525L13.1623 4.46183C12.884 4.57274 12.6144 4.70391 12.3554 4.85429L12.2397 4.92146C11.9044 5.11614 11.5936 5.35019 11.3139 5.61862L11.0978 5.82601L10.8284 6.08449C10.773 6.13761 10.8386 6.22619 10.9056 6.18876L11.3505 5.94004L11.7299 5.78814C11.9822 5.68711 12.2433 5.60922 12.5097 5.55545L12.6485 5.52744C13.0071 5.45511 13.3721 5.41999 13.7379 5.42261L13.7483 5.42268L13.9649 5.42422C14.1936 5.42585 14.4215 5.45048 14.6452 5.49776L14.6581 5.50048C14.8733 5.546 15.0836 5.61213 15.2861 5.69796C15.4878 5.78341 15.6741 5.9013 15.8377 6.04695L15.9139 6.11474L16.0003 6.19167C16.1575 6.33168 16.297 6.49051 16.4154 6.66458C16.5338 6.8386 16.6295 7.02706 16.7001 7.22536L16.7478 7.35946C16.8498 7.6459 16.9027 7.9475 16.9043 8.25154L16.9043 8.25975L16.9047 8.33206C16.9061 8.59383 16.8651 8.85411 16.7834 9.10283L16.7478 9.21123C16.6895 9.38861 16.6097 9.55815 16.51 9.71604C16.4233 9.85338 16.4482 10.0332 16.5688 10.1419L16.7499 10.305L17.1398 10.6563L17.7757 11.2506L18.4115 11.8449L19.522 12.9563C20.1353 13.5701 21.13 13.5703 21.7435 12.9568L22.6581 12.0423L24.2892 10.4112C24.5089 10.1914 24.5144 9.83675 24.3015 9.61032L23.9193 9.20394L21.9693 7.26378L20.3439 5.64666C20.1282 5.43199 19.8888 5.24245 19.6304 5.08166ZM24.8726 12.4562L24.2264 11.981L24.1996 11.9551C24.1848 11.9408 24.1612 11.941 24.1466 11.9556L23.4271 12.6751L23.0757 13.0265C22.8579 13.2443 22.8577 13.5974 23.0753 13.8154L23.4693 14.2099L23.629 14.4126L23.6545 14.4451C23.7289 14.5396 23.8654 14.557 23.9611 14.4841L24.1337 14.3529L24.6692 13.9518L24.9387 13.75C25.1154 13.6176 25.2766 13.4656 25.419 13.2969L25.5818 13.1041C25.6109 13.0697 25.6084 13.0187 25.5761 12.9872L25.5189 12.9315L24.8726 12.4562ZM17.0042 12.1313L16.8033 12.2946L15.5908 13.2673L14.4004 14.2221C14.3864 14.2334 14.3779 14.2503 14.3773 14.2683C14.3767 14.2862 14.3847 14.3033 14.3988 14.3143L15.2317 14.9656L16.087 15.6344L16.1878 15.7363C16.2416 15.7906 16.3307 15.7861 16.3788 15.7266L16.4824 15.5984L16.6762 15.3586L17.5071 14.4899L18.338 13.6212L18.432 13.4934C18.487 13.4186 18.4833 13.3157 18.4229 13.2451L18.3737 13.1875L18.2214 13.0093L17.7132 12.4886L17.3859 12.1533C17.2835 12.0483 17.118 12.0388 17.0042 12.1313Z" stroke="currentColor" stroke-width="0.6" fill="none"/>
<path fill-rule="evenodd" clip-rule="evenodd" d="M38.4219 8.84933L38.1208 8.89927L37.8629 9.03187L37.605 9.16446L37.364 9.38445L37.1229 9.60436L35.6868 11.0873L34.2507 12.5702L30.6332 16.3536L27.0157 20.137L26.0127 21.1964L25.0097 22.2557V22.3036V22.3515L26.21 21.211L27.4104 20.0706L31.0607 16.5766L34.7111 13.0826L36.3554 11.485L37.9997 9.88745L38.1641 9.80316L38.3285 9.71893L38.5368 9.67405L38.7451 9.62924L39.0051 9.69925L39.2651 9.76934L39.4463 9.912L39.6276 10.0547L39.7495 10.323L39.8713 10.5914L39.8725 11.4798L39.8738 12.3681L39.8308 13.5001L39.7879 14.6321L39.6534 14.56L39.5189 14.488H39.1861H38.8534L38.591 14.6226L38.3285 14.7572L38.1663 14.9311L38.0041 15.1049L38.0739 15.2171L38.1436 15.3293L38.4167 15.5391L38.6899 15.7489L38.9703 15.791L39.2507 15.8331L39.5295 15.737L39.8084 15.6408V17.2384V18.836L39.4079 18.7113L39.0074 18.5866H38.5508H38.0942L37.6856 18.7244L37.277 18.862L37.0311 19.043L36.7852 19.2239L36.9322 19.3621L37.0793 19.5003L37.4737 19.685L37.8681 19.8697L38.5587 19.8675L39.2493 19.8653L39.496 19.7558L39.7426 19.6462V21.2108V22.7753L39.4189 22.7089L39.0951 22.6426L38.819 22.7254L38.5429 22.8081L38.2713 23.0631L37.9997 23.318L38.0718 23.4364L38.1438 23.5548L38.423 23.7523L38.7021 23.9497H39.2224H39.7426V25.4796V27.0096H39.718H39.6934L39.4056 26.9043L39.1178 26.799L38.5916 26.7935L38.0654 26.7881L37.7297 26.9009L37.3939 27.0138L37.0823 27.2115L36.7708 27.4092L36.8551 27.5109L36.9394 27.6125L37.3214 27.8054L37.7033 27.9983L38.1803 28.0699L38.6574 28.1414L39.0849 28.0458L39.5124 27.9502L39.6275 27.9006L39.7426 27.8509V29.099V30.3472L39.7024 30.6408L39.6622 30.9345L39.3151 30.9057L38.9681 30.8769L38.7294 30.9558L38.4907 31.0345L38.2616 31.2507L38.0326 31.4669V31.5451V31.6233L38.2448 31.8173L38.4571 32.0112L38.7385 32.1188L39.0201 32.2263L39.3485 32.1874L39.6769 32.1485V33.6589V35.1693H39.6493H39.6217L39.2053 35.0625L38.7889 34.9557L38.3613 34.9915L37.9338 35.0273L37.5706 35.1632L37.2076 35.2991L36.9857 35.4844L36.7638 35.6697L37.0858 35.8739L37.4077 36.0781L37.7224 36.1831L38.0372 36.288L38.5775 36.2851L39.1178 36.2822L39.3809 36.1873L39.644 36.0925L39.6604 36.0915L39.6769 36.0905V37.4745V38.8585L39.5867 39.0703L39.4965 39.282L39.3184 39.4466L39.1403 39.6111L36.6297 39.6525L34.1191 39.6939L27.8379 39.7059L21.5567 39.7178L16.1312 39.77L10.7058 39.8221L10.4989 39.7649L10.2919 39.7078L10.1283 39.579L9.96459 39.4501L9.85212 39.213L9.73959 38.9759V38.6921V38.4084L9.83976 38.2146L9.93993 38.0208L12.657 35.2274L15.3741 32.434L18.9587 28.6842L22.5432 24.9345L23.612 23.8085L24.6808 22.6825V22.634V22.5854L23.6148 23.5966L22.5488 24.6077L20.3433 26.7134L18.1378 28.8192L16.3942 30.4952L14.6506 32.1712L11.9539 34.7895L9.25728 37.4077L9.02708 37.8447L8.79688 38.2817L8.79773 38.749L8.79859 39.2162L8.97189 39.5879L9.1452 39.9596L9.40362 40.2181L9.66204 40.4767L9.98584 40.6346L10.3096 40.7927L12.4143 40.8427L14.519 40.8927L26.6211 40.946L38.7232 40.9993L39.0525 40.9546L39.3819 40.9099L39.6965 40.7619L40.0112 40.614L40.2993 40.3338L40.5874 40.0537L40.7225 39.7887L40.8577 39.5237L40.9272 39.213L40.9968 38.9024L40.923 26.6881L40.8492 14.4739L40.8046 12.401L40.7599 10.3282L40.5363 9.91358L40.3127 9.49888L40.1098 9.32726L39.9071 9.15558L39.5782 9.00884L39.2493 8.86203L38.9862 8.83071L38.7232 8.79932L38.4219 8.84933ZM34.4151 19.9329L34.2507 20.0235L32.2077 22.1511L30.1647 24.2787L28.721 25.8251L27.2774 27.3715L25.0874 29.7568L22.8974 32.142L21.7831 33.327L20.6687 34.512V34.5591V34.6064L21.1127 34.175L21.5567 33.7435L22.6751 32.6962L23.7935 31.6488L26.2926 29.3488L28.7916 27.0489L30.2347 25.6967L31.678 24.3445L32.8656 23.1994L34.0533 22.0543L34.0932 28.1019L34.1331 34.1493L34.1261 34.1581L34.1191 34.1668L31.9815 34.2426L29.8439 34.3184L27.2459 34.4457L24.6479 34.5731L22.6771 34.644L20.7064 34.7148L20.6847 34.7365L20.6631 34.7582L21.8991 34.8025L23.1352 34.8468L25.799 34.9746L28.4627 35.1025L29.9755 35.1663L31.4882 35.23L33.2003 35.2748L34.9123 35.3195L35.1077 35.1515L35.303 34.9834L35.3524 32.0987L35.4017 29.214L35.3853 24.7175L35.3688 20.2209L35.154 20.0289L34.9392 19.8369L34.7593 19.8395L34.5795 19.8422L34.4151 19.9329Z" fill="currentColor"/>
<path fill-rule="evenodd" clip-rule="evenodd" d="M38.4219 8.84933L38.1208 8.89927L37.8629 9.03187L37.605 9.16446L37.364 9.38445L37.1229 9.60436L35.6868 11.0873L34.2507 12.5702L30.6332 16.3536L27.0157 20.137L26.0127 21.1964L25.0097 22.2557V22.3036V22.3515L26.21 21.211L27.4104 20.0706L31.0607 16.5766L34.7111 13.0826L36.3554 11.485L37.9997 9.88745L38.1641 9.80316L38.3285 9.71893L38.5368 9.67405L38.7451 9.62924L39.0051 9.69925L39.2651 9.76934L39.4463 9.912L39.6276 10.0547L39.7495 10.323L39.8713 10.5914L39.8725 11.4798L39.8738 12.3681L39.8308 13.5001L39.7879 14.6321L39.6534 14.56L39.5189 14.488H39.1861H38.8534L38.591 14.6226L38.3285 14.7572L38.1663 14.9311L38.0041 15.1049L38.0739 15.2171L38.1436 15.3293L38.4167 15.5391L38.6899 15.7489L38.9703 15.791L39.2507 15.8331L39.5295 15.737L39.8084 15.6408V17.2384V18.836L39.4079 18.7113L39.0074 18.5866H38.5508H38.0942L37.6856 18.7244L37.277 18.862L37.0311 19.043L36.7852 19.2239L36.9322 19.3621L37.0793 19.5003L37.4737 19.685L37.8681 19.8697L38.5587 19.8675L39.2493 19.8653L39.496 19.7558L39.7426 19.6462V21.2108V22.7753L39.4189 22.7089L39.0951 22.6426L38.819 22.7254L38.5429 22.8081L38.2713 23.0631L37.9997 23.318L38.0718 23.4364L38.1438 23.5548L38.423 23.7523L38.7021 23.9497H39.2224H39.7426V25.4796V27.0096H39.718H39.6934L39.4056 26.9043L39.1178 26.799L38.5916 26.7935L38.0654 26.7881L37.7297 26.9009L37.3939 27.0138L37.0823 27.2115L36.7708 27.4092L36.8551 27.5109L36.9394 27.6125L37.3214 27.8054L37.7033 27.9983L38.1803 28.0699L38.6574 28.1414L39.0849 28.0458L39.5124 27.9502L39.6275 27.9006L39.7426 27.8509V29.099V30.3472L39.7024 30.6408L39.6622 30.9345L39.3151 30.9057L38.9681 30.8769L38.7294 30.9558L38.4907 31.0345L38.2616 31.2507L38.0326 31.4669V31.5451V31.6233L38.2448 31.8173L38.4571 32.0112L38.7385 32.1188L39.0201 32.2263L39.3485 32.1874L39.6769 32.1485V33.6589V35.1693H39.6493H39.6217L39.2053 35.0625L38.7889 34.9557L38.3613 34.9915L37.9338 35.0273L37.5706 35.1632L37.2076 35.2991L36.9857 35.4844L36.7638 35.6697L37.0858 35.8739L37.4077 36.0781L37.7224 36.1831L38.0372 36.288L38.5775 36.2851L39.1178 36.2822L39.3809 36.1873L39.644 36.0925L39.6604 36.0915L39.6769 36.0905V37.4745V38.8585L39.5867 39.0703L39.4965 39.282L39.3184 39.4466L39.1403 39.6111L36.6297 39.6525L34.1191 39.6939L27.8379 39.7059L21.5567 39.7178L16.1312 39.77L10.7058 39.8221L10.4989 39.7649L10.2919 39.7078L10.1283 39.579L9.96459 39.4501L9.85212 39.213L9.73959 38.9759V38.6921V38.4084L9.83976 38.2146L9.93993 38.0208L12.657 35.2274L15.3741 32.434L18.9587 28.6842L22.5432 24.9345L23.612 23.8085L24.6808 22.6825V22.634V22.5854L23.6148 23.5966L22.5488 24.6077L20.3433 26.7134L18.1378 28.8192L16.3942 30.4952L14.6506 32.1712L11.9539 34.7895L9.25728 37.4077L9.02708 37.8447L8.79688 38.2817L8.79773 38.749L8.79859 39.2162L8.97189 39.5879L9.1452 39.9596L9.40362 40.2181L9.66204 40.4767L9.98584 40.6346L10.3096 40.7927L12.4143 40.8427L14.519 40.8927L26.6211 40.946L38.7232 40.9993L39.0525 40.9546L39.3819 40.9099L39.6965 40.7619L40.0112 40.614L40.2993 40.3338L40.5874 40.0537L40.7225 39.7887L40.8577 39.5237L40.9272 39.213L40.9968 38.9024L40.923 26.6881L40.8492 14.4739L40.8046 12.401L40.7599 10.3282L40.5363 9.91358L40.3127 9.49888L40.1098 9.32726L39.9071 9.15558L39.5782 9.00884L39.2493 8.86203L38.9862 8.83071L38.7232 8.79932L38.4219 8.84933ZM34.4151 19.9329L34.2507 20.0235L32.2077 22.1511L30.1647 24.2787L28.721 25.8251L27.2774 27.3715L25.0874 29.7568L22.8974 32.142L21.7831 33.327L20.6687 34.512V34.5591V34.6064L21.1127 34.175L21.5567 33.7435L22.6751 32.6962L23.7935 31.6488L26.2926 29.3488L28.7916 27.0489L30.2347 25.6967L31.678 24.3445L32.8656 23.1994L34.0533 22.0543L34.0932 28.1019L34.1331 34.1493L34.1261 34.1581L34.1191 34.1668L31.9815 34.2426L29.8439 34.3184L27.2459 34.4457L24.6479 34.5731L22.6771 34.644L20.7064 34.7148L20.6847 34.7365L20.6631 34.7582L21.8991 34.8025L23.1352 34.8468L25.799 34.9746L28.4627 35.1025L29.9755 35.1663L31.4882 35.23L33.2003 35.2748L34.9123 35.3195L35.1077 35.1515L35.303 34.9834L35.3524 32.0987L35.4017 29.214L35.3853 24.7175L35.3688 20.2209L35.154 20.0289L34.9392 19.8369L34.7593 19.8395L34.5795 19.8422L34.4151 19.9329Z" stroke="currentColor" stroke-width="0.6" fill="none"/>
</svg>
