<svg width="39" height="37" viewBox="0 0 39 37" xmlns="http://www.w3.org/2000/svg">
<path d="M0.461805 1.32777C1.04785 7.92836 0.930641 14.5552 0.803815 21.1733C0.740702 24.4448 0.591035 27.7145 0.450986 30.9829C0.394485 32.3071 0.328367 33.6308 0.283888 34.9556C0.26285 35.5805 0.526853 35.845 0.168013 36.3804C0.493794 36.2284 1.14475 35.925 1.14475 35.925C1.14475 35.925 1.74703 36.0032 1.07623 35.9156C0.405437 35.8281 -0.472729 36.8152 0.534667 36.9459C0.557508 36.949 0.580349 36.9521 0.603189 36.9553C0.973449 37.0028 1.37016 36.8126 1.57993 36.4993C2.32766 35.3839 1.84126 33.4268 1.89716 32.1526C2.05044 28.6615 2.19169 25.1698 2.28966 21.6763C2.48381 14.7616 2.56616 7.807 1.95427 0.911789C1.89716 0.277501 0.400496 0.639683 0.461805 1.32777Z" fill="currentColor"/>
<path d="M0.944452 36.9982C7.03669 36.8631 12.824 36.1888 18.9188 36.0431C22.9159 35.9479 33.9871 36.0678 37.9894 36.0431C39.2367 36.0349 38.5923 34.8571 35.5333 34.8759C31.9769 34.8982 27.9901 34.7656 24.4441 34.8761C17.9008 35.0829 10.7913 35.0223 4.24805 35.168C3.01363 35.1962 -2.07847 37.0664 0.944452 36.9982Z" fill="currentColor"/>
<path d="M3.21354 1.21927C13.6649 1.23615 24.327 1.00154 34.7695 1.09724C38.0501 1.76144 40.7299 0.135046 37.5143 0.135176C27.0747 0.0394702 16.6292 0.016951 6.18084 6.17411e-05C-0.00247759 -0.009992 -1.74237 1.21113 3.21354 1.21927Z" fill="currentColor"/>
<path d="M37.38 0.609582C37.1781 1.70363 37.3247 2.7539 37.4305 3.85421C37.5874 5.48871 37.4131 7.20955 37.3951 8.85219C37.3602 12.0705 37.4227 15.2883 37.4432 18.506C37.4636 21.7638 37.6163 25.0472 37.3981 28.2987C37.2147 31.0297 36.9282 33.047 37.0995 35.79C37.1254 36.206 38.6245 35.9026 38.5914 35.3734C38.4255 32.7018 38.6796 30.7313 38.8821 28.0722C39.1015 25.186 38.9603 22.2748 38.9434 19.383C38.9242 16.1609 38.8653 12.9375 38.8779 9.71479C38.8845 8.22228 38.908 6.73039 38.9314 5.2385C38.9566 3.64966 38.5768 1.94071 38.8647 0.381889C38.9579 -0.125416 37.466 0.144813 37.38 0.609582Z" fill="currentColor"/>
<path d="M8.59249 9.79419C6.04975 9.79419 5.41406 8.26758 5.41406 7.50427C5.9438 6.23209 7.63896 3.8404 10.1817 4.45104C13.3601 5.21435 11.7709 9.79419 8.59249 9.79419Z" stroke="currentColor" fill="none"/>
<path d="M28.0474 19.5881C23.8095 19.5881 22.75 17.1455 22.75 15.9242C23.6329 13.8887 26.4582 10.062 30.6961 11.039C35.9934 12.2603 33.3447 19.5881 28.0474 19.5881Z" stroke="currentColor" fill="none"/>
<path d="M9.29184 27.2058C12.2584 27.2058 13 28.7324 13 29.4957C12.382 30.7679 10.4043 33.1596 7.43776 32.549C3.7296 31.7857 5.58368 27.2058 9.29184 27.2058Z" stroke="currentColor" fill="none"/>
<path d="M16.2599 15.2352C18.0773 15.2352 17.4715 17.3666 15.3512 17.3666C15.3512 17.4555 15.1694 17.4732 14.4424 16.8338C13.5337 16.0345 14.4424 15.2352 16.2599 15.2352Z" stroke="currentColor" fill="none"/>
<path d="M33.5979 3.26477C37.2327 3.26477 36.0211 8.5933 31.7804 8.5933C31.7804 8.81533 31.4169 8.85973 29.963 7.26117C28.1456 5.26297 29.963 3.26477 33.5979 3.26477Z" stroke="currentColor" fill="none"/>
<path d="M13.0099 22.853C14.8273 22.853 14.2215 24.9844 12.1012 24.9844C12.1012 25.0732 11.9194 25.091 11.1924 24.4516C10.2837 23.6523 11.1924 22.853 13.0099 22.853Z" stroke="currentColor" fill="none"/>
<path d="M30.3458 22.853C32.1632 22.853 31.5574 24.9844 29.4371 24.9844C29.4371 25.0732 29.2553 25.091 28.5284 24.4516C27.6197 23.6523 28.5284 22.853 30.3458 22.853Z" stroke="currentColor" fill="none"/>
<path d="M16.2599 3.26477C18.0773 3.26477 17.4715 5.39618 15.3512 5.39618C15.3512 5.48499 15.1694 5.50275 14.4424 4.86333C13.5337 4.06405 14.4424 3.26477 16.2599 3.26477Z" stroke="currentColor" fill="none"/>
<path d="M33.8867 31.9767C31.8978 33.9745 30.2388 30.9761 32.5591 28.6454C32.4623 28.5482 32.6419 28.329 34.134 28.2296C35.9992 28.1053 35.8755 29.9789 33.8867 31.9767Z" stroke="currentColor" fill="currennonetColor"/>
<path d="M19.8007 25.4477C17.8119 27.4455 16.1528 24.4471 18.4732 22.1163C18.3764 22.0191 18.5559 21.7999 20.0481 21.7005C21.9132 21.5763 21.7896 23.4499 19.8007 25.4477Z" stroke="currentColor" fill="none"/>
<path d="M9.48946 20.3021C9.04083 21.9839 6.80216 20.4355 5.82691 19.3163C4.28808 17.5502 5.58095 14.0194 7.89225 13.6759C10.5142 13.2862 10.0502 18.1998 9.48946 20.3021Z" stroke="currentColor" fill="none"/>
<path d="M25.2803 4.55768C26.6143 4.19864 26.4425 6.36704 26.0622 7.48885C25.4621 9.25892 22.5218 9.76937 21.3651 8.30429C20.0529 6.64227 23.6128 5.00649 25.2803 4.55768Z" stroke="currentColor" fill="none"/>
<path d="M18.3648 8.84518C19.2727 8.60081 19.1558 10.0766 18.897 10.8401C18.4886 12.0448 16.4874 12.3922 15.7002 11.3951C14.8071 10.2639 17.23 9.15063 18.3648 8.84518Z" stroke="currentColor" fill="none"/>
<path d="M15.3149 32.9106C14.407 33.1549 14.5239 31.6791 14.7827 30.9156C15.1911 29.7109 17.1923 29.3635 17.9795 30.3606C18.8726 31.4918 16.4497 32.6051 15.3149 32.9106Z" stroke="currentColor" fill="none"/>
<path d="M25.2803 28.4986C26.6143 28.1396 26.4425 30.308 26.0622 31.4298C25.4621 33.1998 22.5218 33.7103 21.3651 32.2452C20.0529 30.5832 23.6128 28.9474 25.2803 28.4986Z" stroke="currentColor" fill="none"/>
</svg>
