<svg width="30" height="30" viewBox="0 0 30 30" fill="none" xmlns="http://www.w3.org/2000/svg">
<path d="M15.0826 6.02945L15.0731 6.04375L10.5 12.9237V23.5H21.3529C22.7636 23.5 23.8264 22.6667 24.0068 21.7094L25.4713 13.9366C25.582 13.3489 25.3663 12.7676 24.8904 12.314C24.412 11.8581 23.6785 11.5455 22.8174 11.5455H19.4746H18.9746L18.9746 11.0454L18.9747 8.13367C18.9747 8.13366 18.9747 8.13366 18.9747 8.13365C18.9747 7.82799 18.974 7.5205 18.9375 7.23823L15.0826 6.02945ZM15.0826 6.02945L15.0911 6.01452M15.0826 6.02945L15.0911 6.01452M15.0911 6.01452C15.2494 5.73683 15.6357 5.5 16.1333 5.5C17.4126 5.5 18.236 5.80362 18.6439 6.39883L18.6439 6.39884M15.0911 6.01452L18.6439 6.39884M18.6439 6.39884C18.8231 6.66028 18.9002 6.95088 18.9375 7.23812L18.6439 6.39884Z" stroke="currentColor"/>
<path d="M6.98322 12.5H8.5V23.5H6.98322C5.56994 23.5 4.5 22.444 4.5 21.2308V14.7692C4.5 13.556 5.56994 12.5 6.98322 12.5Z" stroke="currentColor"/>
</svg>
