<svg width="30" height="30" viewBox="0 0 30 30" xmlns="http://www.w3.org/2000/svg">
<path d="M24.3717 3.69505C23.9404 4.21665 23.5546 4.78361 23.0779 5.25985C20.0591 8.20803 16.995 11.1108 13.9989 14.0817C10.4581 17.5968 6.96268 21.1346 3.48996 24.7178C2.83173 25.3981 2.44587 26.3053 1.99192 27.1671C1.87843 27.3712 1.94653 27.802 2.10541 27.9835C2.1962 28.0969 2.67285 28.0742 2.85443 27.9381C4.32977 26.9856 5.8505 26.1012 7.21235 24.99C14.3848 19.1163 21.0805 12.721 27.4358 5.96288C28.0487 5.30521 28.5707 4.55681 29.002 3.76307C29.2062 3.37754 29.2062 2.65184 28.9793 2.3797C28.7069 2.0622 28.0033 1.85809 27.572 1.9488C26.823 2.10755 26.1194 2.53846 25.3931 2.87864C25.098 3.0147 24.8256 3.19611 24.5306 3.3095C25.4158 2.33433 26.4144 1.54062 27.7536 1.29116C29.1381 1.01902 30.2957 2.13024 29.9326 3.51361C29.7283 4.33003 29.297 5.16914 28.775 5.84948C27.6628 7.27822 26.5052 8.66157 25.2569 9.99959C19.6052 16.032 13.8173 21.9511 7.34854 27.1444C6.21366 28.0515 4.9426 28.8226 3.67154 29.571C2.74094 30.1379 1.74225 30.2059 0.834353 29.3895C0.017243 28.6638 -0.255127 27.6887 0.266916 26.5321C0.743563 25.4889 1.2883 24.3776 2.06002 23.5839C6.05478 19.5245 10.0722 15.5104 14.2032 11.5871C16.8134 9.11514 19.6052 6.84732 22.3516 4.51146C22.8736 4.08057 23.4865 3.76308 24.0766 3.37755C24.1901 3.49094 24.2809 3.60433 24.3717 3.69505Z" fill="currentColor"/>
<path d="M15.6547 3.35399C15.8396 3.76833 16.1066 4.15965 16.1682 4.62004C16.7228 7.68157 14.3812 10.9963 11.4646 11.2265C9.5338 11.3877 7.80846 10.7201 6.41174 9.20083C4.72747 7.40535 4.54262 4.91931 5.89825 2.80155C7.45928 0.338513 10.9716 -0.72037 13.4158 0.522659C14.5455 1.09814 15.285 2.13399 15.3671 3.30796C15.2644 3.21588 15.1823 3.16985 15.1207 3.07777C13.1899 -0.213956 8.71221 1.07512 7.15118 3.49212C6.16526 5.0344 6.32958 6.73779 7.6236 7.93479C9.02031 9.20083 10.6224 9.77632 12.3478 9.03971C14.0937 8.3031 14.8947 6.66873 15.1001 4.62004C15.1412 4.20569 15.2234 3.81439 15.3055 3.40004C15.4288 3.40004 15.5315 3.37701 15.6547 3.35399Z" fill="currentColor"/>
<path d="M21.1681 29.9998C19.6765 29.9308 17.9325 29.3324 16.5327 27.9517C14.628 26.0877 14.4903 23.4182 16.1655 21.3241C17.9325 19.1149 21.3976 18.1483 24.0366 19.1379C25.2987 19.5981 26.1478 20.4496 26.6297 21.7153C26.7674 22.0835 27.2263 22.3827 27.2952 22.7509C27.4329 23.5793 27.5935 24.4768 27.4329 25.2822C26.8821 28.1358 24.4726 30.0228 21.1681 29.9998ZM21.3058 28.1127C23.6694 28.1358 25.3905 26.8701 26.0331 24.7759C26.2396 24.1086 26.3314 23.3722 26.3773 22.6588C26.4002 22.3136 26.3314 21.8994 26.1249 21.6232C24.9086 19.9663 23.1875 19.6211 21.3058 19.9893C19.3553 20.3806 17.6801 21.255 16.9228 23.2801C16.5098 24.3847 16.7163 25.4433 17.5195 26.3178C18.6439 27.5144 20.0437 28.0667 21.3058 28.1127Z" fill="currentColor"/>
</svg>
