<svg width="39" height="37" viewBox="0 0 39 37" xmlns="http://www.w3.org/2000/svg">
<path d="M0.226568 18.8975L0.226562 18.1384C2.25098 17.9646 4.7084 17.9543 6.75032 18.1086C7.04831 18.2946 7.61941 18.8975 6.99861 18.8975C6.3778 18.8975 0.524555 19.1282 0.226568 18.8975Z" fill="currentColor"/>
<path d="M7.50001 29.8975L7.5 29.1384C9.79723 28.9646 12.5858 28.9543 14.9029 29.1086C15.2411 29.2946 15.8891 29.8975 15.1847 29.8975C14.4802 29.8975 7.83815 30.1282 7.50001 29.8975Z" fill="currentColor"/>
<path d="M31.5 9.89746L31.5 9.13835C33.5101 8.96459 35.9501 8.95432 37.9776 9.10858C38.2734 9.29464 38.8405 9.89746 38.2241 9.89746C37.6077 9.89746 31.7959 10.1282 31.5 9.89746Z" fill="currentColor"/>
<path d="M15.5 14.8975L15.5 14.1384C17.7972 13.9646 20.5858 13.9543 22.9029 14.1086C23.2411 14.2946 23.8891 14.8975 23.1847 14.8975C22.4802 14.8975 15.8382 15.1282 15.5 14.8975Z" fill="currentColor"/>
<path d="M23.5 26.8973L23.5 26.1382C25.7972 25.9645 28.5858 25.9542 30.9029 26.1085C31.2411 26.2945 31.8891 26.8973 31.1847 26.8973C30.4802 26.8973 23.8382 27.1281 23.5 26.8973Z" fill="currentColor"/>
<path d="M38.0247 1.15419C38.1291 0.807259 38.9321 1.15419 38.9321 1.15419C38.8839 1.61069 39.1409 35.3729 38.8839 36.0668C38.627 36.7606 38.2736 37.345 38.2255 36.7606C38.1773 36.1763 37.9203 1.50113 38.0247 1.15419Z" fill="currentColor"/>
<path d="M7.00026 1.21673C7.0107 12.8684 7.14639 24.5263 7.00026 36.1748C6.982 37.6185 7.91789 36.9603 7.93267 35.7868C8.0788 24.1382 7.94311 12.4834 7.93267 0.828652C7.9318 -0.633627 6.99939 0.0587045 7.00026 1.21673Z" fill="currentColor"/>
<path d="M15.0247 1.15419C15.1291 0.807259 15.9321 1.15419 15.9321 1.15419C15.8839 1.61069 16.1409 35.3729 15.8839 36.0668C15.627 36.7606 15.2736 37.345 15.2255 36.7606C15.1773 36.1763 14.9203 1.50113 15.0247 1.15419Z" fill="currentColor"/>
<path d="M23.0247 1.15419C23.1291 0.807259 23.9321 1.15419 23.9321 1.15419C23.8839 1.61069 24.1409 35.3729 23.8839 36.0668C23.627 36.7606 23.2736 37.345 23.2255 36.7606C23.1773 36.1763 22.9203 1.50113 23.0247 1.15419Z" fill="currentColor"/>
<path d="M31.6578 36.6498C31.4352 24.7668 32 12.9409 32 1.06851C32 0.903593 31.3944 1.05202 31.3944 1.34694C31.3944 13.2184 30.8289 25.0452 31.0522 36.9283C31.055 37.1029 31.6635 36.9389 31.6578 36.6498Z" fill="currentColor"/>
<path d="M0.0247233 1.15419C0.129112 0.807259 0.9321 1.15419 0.9321 1.15419C0.883921 1.61069 1.14088 35.3729 0.883921 36.0668C0.626965 36.7606 0.273648 37.345 0.225469 36.7606C0.17729 36.1763 -0.0796653 1.50113 0.0247233 1.15419Z" fill="currentColor"/>
<path d="M0.167042 36.9753C-0.208803 36.8709 0.167043 36.0679 0.167043 36.0679C0.661577 36.1161 37.2373 35.8591 37.989 36.1161C38.7407 36.373 39.3737 36.7264 38.7407 36.7745C38.1077 36.8227 0.542888 37.0797 0.167042 36.9753Z" fill="currentColor"/>
<path d="M38.833 0.975272C39.2088 0.870883 38.833 0.0678992 38.833 0.0678992C38.3384 0.116078 1.76268 -0.140872 1.01099 0.116083C0.259304 0.373039 -0.373703 0.726353 0.2593 0.774532C0.892304 0.822711 38.4571 1.07966 38.833 0.975272Z" fill="currentColor"/>
</svg>
