<svg width="30" height="30" viewBox="0 0 30 30" fill="none" xmlns="http://www.w3.org/2000/svg">
<path d="M4 15.5C4 15.5 8 8 15 8C22 8 26 15.5 26 15.5C26 15.5 22 23 15 23C8 23 4 15.5 4 15.5Z" stroke="currentColor" stroke-linecap="round"/>
<path d="M19.002 5.20408C19.002 4.97956 18.851 4.78227 18.6324 4.73078C18.2722 4.64593 17.9142 4.57669 17.5587 4.52206C17.2627 4.47657 17.002 4.71024 17.002 5.00976C17.002 5.26375 17.1918 5.47668 17.4427 5.51597C17.7485 5.56387 18.0567 5.62348 18.3668 5.69561C18.687 5.7701 19.002 5.53288 19.002 5.20408Z" fill="currentColor"/>
<path d="M22.002 6.82108C22.002 7.00564 22.102 7.17521 22.2613 7.2684C22.5742 7.45143 22.8878 7.64939 23.2018 7.86301C23.5358 8.09027 24.002 7.85789 24.002 7.45386C24.002 7.29518 23.925 7.14602 23.7939 7.05651C23.4408 6.81521 23.0876 6.59234 22.735 6.38702C22.4051 6.19502 22.002 6.43943 22.002 6.82108Z" fill="currentColor"/>
<path d="M14.002 4.99255C14.002 4.6951 13.7446 4.46222 13.45 4.50379C13.3616 4.51628 13.2735 4.52954 13.1857 4.54355C9.4742 5.13594 6.37267 7.07057 4.50862 8.79959C4.30616 8.98738 4.30673 9.30454 4.50199 9.4998C4.69725 9.69506 5.01299 9.6947 5.21596 9.50746C6.96512 7.89393 9.88022 6.08379 13.3433 5.53105C13.4139 5.51977 13.4848 5.50902 13.556 5.4988C13.8093 5.46239 14.002 5.24845 14.002 4.99255Z" fill="currentColor"/>
<path d="M19 15.5C19 17.7091 17.2091 19.5 15 19.5C12.7909 19.5 11 17.7091 11 15.5C11 13.2909 12.7909 11.5 15 11.5C17.2091 11.5 19 13.2909 19 15.5Z" stroke="currentColor"/>
<path d="M16 15.5C16 16.0523 15.5523 16.5 15 16.5C14.4477 16.5 14 16.0523 14 15.5C14 14.9477 14.4477 14.5 15 14.5C15.5523 14.5 16 14.9477 16 15.5Z" fill="currentColor"/>
</svg>
