<svg width="29" height="29" viewBox="0 0 29 29" fill="none" xmlns="http://www.w3.org/2000/svg">
<path d="M13.9865 3.80557C13.8885 3.83865 13.7974 3.89076 13.7187 3.95884C13.64 4.02693 13.5752 4.10962 13.5281 4.20209C13.481 4.29456 13.4525 4.39495 13.4444 4.4974C13.4362 4.59984 13.4485 4.70229 13.4805 4.79876C13.5125 4.89522 13.5636 4.98377 13.6309 5.05922C13.6981 5.13467 13.7801 5.19551 13.8721 5.23819C13.9641 5.28087 14.0642 5.30453 14.1666 5.30779C14.2689 5.31105 14.3716 5.29384 14.4684 5.25717C15.472 4.89826 16.5324 4.7462 17.5845 4.81033C17.864 4.88587 18.1167 5.03379 18.3175 5.2394C18.5184 5.44502 18.6604 5.70119 18.7295 5.98251C18.7987 6.26382 18.7925 6.56049 18.7116 6.84309C18.6307 7.1257 18.4779 7.38441 18.2683 7.59356L17.6585 8.20337C17.5329 8.32949 17.461 8.49877 17.4584 8.67418C17.4558 8.84958 17.5228 9.01682 17.6447 9.13928L20.0519 11.5464C20.1744 11.6684 20.3416 11.7354 20.517 11.7328C20.6924 11.7302 20.8617 11.6582 20.9878 11.5326L20.9178 11.6026C21.1509 11.3689 21.4454 11.2067 21.7649 11.1361C21.83 11.1277 21.8948 11.1172 21.9594 11.1046C22.2229 11.0775 22.4873 11.113 22.7309 11.2082C22.9745 11.3034 23.1904 11.4556 23.361 11.6523C23.5316 11.849 23.652 12.0847 23.7124 12.34C23.7727 12.5954 23.7714 12.8632 23.7084 13.1216C23.6425 13.2881 23.6353 13.4706 23.688 13.6383C23.7407 13.8061 23.8501 13.9488 23.9978 14.0426C24.1456 14.1363 24.3226 14.1754 24.4991 14.1532C24.6757 14.1309 24.841 14.0488 24.9672 13.9206L27.2465 11.6412C27.3757 11.5122 27.4571 11.3434 27.4766 11.164C27.496 10.9846 27.4524 10.8058 27.3531 10.6587C27.2539 10.5115 27.1053 10.4052 26.9331 10.3581C26.7609 10.311 26.5758 10.3261 26.4099 10.4007C26.1577 10.4583 25.8972 10.4573 25.6489 10.3978C25.4005 10.3383 25.171 10.2218 24.978 10.0575C24.7851 9.89321 24.634 9.68547 24.5365 9.45046C24.439 9.21546 24.3977 8.95951 24.4158 8.70254C24.4391 8.59708 24.4567 8.49062 24.4688 8.38362L24.473 8.36583L24.4701 8.36292C24.5171 7.92067 24.4663 7.47637 24.3215 7.0616C24.1766 6.64684 23.9411 6.27179 23.6318 5.96314L23.6027 5.93402C23.5861 5.91324 23.5683 5.89344 23.5494 5.87472C22.3365 4.66109 20.7965 3.82337 19.1053 3.4573C17.4141 3.09123 15.6399 3.21158 13.9855 3.8046L13.9865 3.80557ZM16.373 10.4207C16.4991 10.2951 16.6684 10.2232 16.8438 10.2206C17.0192 10.218 17.1864 10.285 17.3089 10.4069L18.9735 12.0716C19.0951 12.1942 19.1619 12.3614 19.1593 12.5367C19.1567 12.712 19.085 12.8812 18.9597 13.0075L7.61812 24.3491C7.492 24.4747 7.32272 24.5466 7.14731 24.5492C6.97191 24.5518 6.80467 24.4848 6.68221 24.3629L5.01758 22.6982C4.89564 22.5758 4.82864 22.4085 4.83122 22.2331C4.83381 22.0577 4.90578 21.8884 5.03138 21.7623L16.373 10.4207Z" stroke="currentColor"/>
<path fill-rule="evenodd" clip-rule="evenodd" d="M2.96875 7.53528L7.21139 3.29264L25.5962 21.6774L21.3535 25.9201L2.96875 7.53528ZM10.0398 7.53528L11.8076 9.30305L10.7469 10.3637L11.454 11.0708L12.5147 10.0102L14.2825 11.7779L12.5147 13.5457L13.2218 14.2528L14.9896 12.485L16.998 14.5001L15.998 15.5001L16.4038 16.0206L17.4644 14.9599L19.2322 16.7277L17.4644 18.4954L18.1715 19.2025L19.9393 17.4348L21.7071 19.2025L20.6464 20.2632L21.3535 20.9703L22.4142 19.9096L24.182 21.6774L21.3535 24.5058L4.38296 7.53528L7.21139 4.70685L9.33271 6.82817L7.56494 8.59594L8.27205 9.30305L10.0398 7.53528Z" fill="currentColor"/>
</svg>
