<svg width="40" height="30" viewBox="0 0 40 30" fill="none" xmlns="http://www.w3.org/2000/svg">
<g clip-path="url(#clip0_479_6820)">
<rect x="-0.5" y="0.5" width="9" height="5" rx="0.5" transform="matrix(-1 0 0 1 37 15)" stroke="currentColor"/>
<path d="M32.9157 8.67991C32.8207 8.56591 32.68 8.5 32.5316 8.5H29C28.7239 8.5 28.5 8.72386 28.5 9V15C28.5 15.2761 28.7239 15.5 29 15.5H37.5V14.3621C37.5 14.2451 37.459 14.1318 37.3841 14.042L37.7682 13.7219L37.3841 14.042L32.9157 8.67991L33.2955 8.36343L32.9157 8.67991Z" stroke="currentColor"/>
<circle cx="15.5" cy="22.5" r="2" stroke="currentColor"/>
<path d="M10 5.5C10 5.22386 10.2239 5 10.5 5H27C27.5523 5 28 5.44772 28 6V20H11C10.4477 20 10 19.5523 10 19V17.5C10 17.2239 9.77614 17 9.5 17C9.22386 17 9 17.2239 9 17.5V20C9 20.5523 9.44772 21 10 21H29V5C29 4.44772 28.5523 4 28 4H10C9.44772 4 9 4.44772 9 5V5.5C9 5.77614 9.22386 6 9.5 6C9.77614 6 10 5.77614 10 5.5Z" fill="currentColor"/>
<circle cx="32.5" cy="22.5" r="2" stroke="currentColor"/>
<line x1="2.5" y1="7.5" x2="11.5" y2="7.5" stroke="currentColor" stroke-linecap="round"/>
<line x1="4.5" y1="11.5" x2="11.5" y2="11.5" stroke="currentColor" stroke-linecap="round"/>
<line x1="6.5" y1="15.5" x2="11.5" y2="15.5" stroke="currentColor" stroke-linecap="round"/>
</g>
<defs>
<clipPath id="clip0_479_6820">
<rect width="40" height="30" fill="currentColor"/>
</clipPath>
</defs>
</svg>
