<svg width="39" height="37" viewBox="0 0 39 37" xmlns="http://www.w3.org/2000/svg">
<path d="M0.509419 1.73204C1.08017 8.1746 0.984251 14.6298 0.857351 21.0897C0.796582 24.1612 0.651213 27.2332 0.517759 30.3028C0.462948 31.5617 0.39503 32.8193 0.350347 34.0788C0.330686 34.6289 -0.0452476 36.5712 0.449841 36.4085C-0.555826 36.74 0.385497 37.0613 0.994975 36.8601C1.91902 36.5556 1.75459 35.4607 1.80463 34.6409C1.99468 31.5262 2.08048 28.3996 2.20142 25.2825C2.51063 17.3126 2.70723 9.28209 2.00243 1.32965C1.96907 0.959082 0.467714 1.25758 0.509419 1.73204Z" fill="currentColor"/>
<path d="M0.632712 1.43738C3.25889 1.44398 6.31044 1.63497 8.83295 0.825372C8.56009 0.802549 8.28722 0.779727 8.01496 0.756303C8.64767 3.27038 8.47132 5.80008 8.3194 8.36401C8.14245 11.3454 8.24433 14.3483 8.29974 17.3333C8.4171 23.7134 7.80167 30.2046 8.26935 36.5576C8.67686 36.3787 9.08497 36.2003 9.49248 36.0219C6.71736 35.954 3.97263 36.3666 1.1987 36.2994C0.93477 36.5222 0.670842 36.745 0.407509 36.9684C0.479598 36.9558 0.551687 36.9444 0.623775 36.9324C1.01639 36.7324 1.40841 36.5324 1.80103 36.3324C1.60025 36.321 1.39947 36.3108 1.1987 36.2994C0.847191 36.2802 -0.524283 36.9234 0.244863 36.966C0.445639 36.9774 0.646415 36.9883 0.847191 36.9997C1.00686 37.0087 2.39144 36.5895 2.02444 36.3997C1.72417 36.2435 1.36492 36.2705 1.03605 36.297C0.772123 36.3186 -0.534411 36.9474 0.244863 36.966C3.01998 37.0333 5.76472 36.6207 8.53864 36.6886C8.81032 36.6952 9.79334 36.5859 9.76177 36.1528C9.32149 30.1751 9.97863 24.1206 9.81896 18.1206C9.73734 15.0504 9.66347 11.964 9.76296 8.89373C9.8565 6.00849 10.2223 3.19051 9.50737 0.352105C9.44422 0.100456 8.83176 0.237392 8.68937 0.283037C6.66791 0.931677 3.45668 0.770718 1.26185 0.765312C0.821572 0.765913 -0.364019 1.43497 0.632712 1.43738Z" fill="currentColor"/>
<path d="M8.72788 1.32047C10.1464 0.779932 11.7193 0.959509 13.1926 1.06882C15.4685 1.23698 15.0937 2.63576 15.1605 4.79009C15.2707 8.3492 15.1074 11.9467 15.0854 15.5089C15.061 19.3989 15.1795 23.2998 15.0842 27.1874C15.0109 30.194 14.5867 33.6107 15.3231 36.5554C15.6639 36.3284 16.0047 36.1014 16.3455 35.8744C13.5417 35.4443 10.8411 35.3663 8.04035 35.8329C8.21492 36.0467 8.38888 36.2605 8.56344 36.4743C8.64924 36.3957 8.73503 36.3164 8.82022 36.2377C9.48451 35.6263 8.01354 35.5242 7.60067 35.9044C7.51488 35.9831 7.42909 36.0623 7.34389 36.141C6.92209 36.529 7.49462 36.8449 7.86698 36.7825C10.5426 36.3368 13.1229 36.4227 15.792 36.8323C16.1185 36.8822 16.9305 36.6161 16.8143 36.1512C16.1137 33.3519 16.4789 29.9105 16.5844 27.0306C16.6976 23.9298 16.5516 20.8109 16.5689 17.707C16.5998 12.0909 17.204 6.14803 16.3043 0.585941C16.2716 0.383541 15.9939 0.323482 15.8343 0.308467C13.2641 0.0646266 10.5813 -0.358191 8.10649 0.58534C7.13835 0.954104 8.01116 1.59313 8.72788 1.32047Z" fill="currentColor"/>
<path d="M15.9076 36.4546C17.2749 36.3868 18.638 36.5465 20.0065 36.4787C20.9288 36.433 21.854 36.3057 22.778 36.2931C23.3553 36.2847 24.358 35.3916 23.3494 35.4048C22.5093 35.4168 21.6693 35.5117 20.831 35.5694C19.2516 35.6793 17.6794 35.5045 16.1012 35.582C15.3452 35.6204 14.8775 36.5057 15.9076 36.4546Z" fill="currentColor"/>
<path d="M15.2876 1.48159C17.2245 1.53624 19.2769 1.0876 21.1786 1.56026C21.7941 1.71341 22.9475 0.799912 22.0479 0.575891C19.9895 0.0641867 17.9013 0.4834 15.8143 0.423942C15.1178 0.404122 14.2772 1.45276 15.2876 1.48159Z" fill="currentColor"/>
<path d="M21.6812 1.30768C22.2967 7.01752 21.8987 12.8234 22.3652 18.5651C22.6118 21.5987 23.1599 24.6107 23.2529 27.6527C23.3369 30.3938 23.0074 33.1157 23.1403 35.8622C23.1611 36.2844 24.6589 35.9931 24.6333 35.4586C24.5159 33.0496 24.6672 30.655 24.7405 28.2479C24.8323 25.2641 24.2472 22.2978 23.9607 19.3375C23.3673 13.1982 23.8326 7.01031 23.1742 0.904087C23.126 0.463252 21.6252 0.78577 21.6812 1.30768Z" fill="currentColor"/>
<path d="M21.9556 1.35659C24.9077 1.4629 27.8586 1.24669 30.8106 1.35359C31.161 1.3662 32.5306 0.71336 31.7639 0.685733C28.8118 0.578827 25.8609 0.795041 22.9089 0.688736C22.5598 0.676123 21.1901 1.32897 21.9556 1.35659Z" fill="currentColor"/>
<path d="M23.1006 35.9114C24.1593 36.6387 26.1259 36.2838 27.3085 36.1829C28.7992 36.0556 30.5436 35.891 31.862 35.1138C32.4941 34.7415 30.988 34.9156 30.7205 35.0742C29.8966 35.5595 28.5364 35.533 27.6159 35.6117C26.7676 35.6844 25.268 35.924 24.5078 35.4003C24.1599 35.1619 22.895 35.7697 23.1006 35.9114Z" fill="currentColor"/>
<path d="M30.2989 1.0892C30.0082 6.79483 30.604 12.5521 30.5712 18.2697C30.5539 21.2955 30.8095 24.2937 30.8828 27.3153C30.9501 30.0558 30.4187 32.6636 30.9698 35.3878C31.105 36.0533 32.5254 35.6443 32.4628 34.9842C32.4443 34.7908 32.4253 34.5969 32.4068 34.4029C32.3448 33.7644 30.8477 34.1218 30.9138 34.8065C30.9323 34.9999 30.9513 35.1938 30.9698 35.3878C31.4667 35.2533 31.9647 35.1188 32.4628 34.9842C31.9367 32.3885 32.3407 29.7969 32.3895 27.1795C32.4455 24.1694 32.0767 21.1502 32.0767 18.1346C32.0791 12.4254 31.5161 6.64828 31.8057 0.954067C31.8444 0.211134 30.3317 0.459179 30.2989 1.0892Z" fill="currentColor"/>
<path d="M30.8709 1.4733C33.0014 1.48952 35.1318 1.51114 37.2617 1.60363C37.5501 1.61624 38.9585 1.0655 38.2418 1.03427C36.1125 0.941776 33.982 0.919554 31.8509 0.903938C31.5643 0.901536 30.1589 1.46789 30.8709 1.4733Z" fill="currentColor"/>
<path d="M37.432 1.12687C37.0864 3.64876 37.482 6.45533 37.4516 9.02106C37.4153 12.0559 37.4761 15.0894 37.4969 18.1236C37.519 21.1644 37.6399 24.2209 37.4969 27.2587C37.3629 30.1115 37.006 32.8802 37.1651 35.7462C37.18 36.0153 38.6813 35.7588 38.6581 35.3426C38.353 29.9079 39.0304 24.3698 38.9965 18.911C38.978 15.8414 38.9232 12.7718 38.9345 9.70213C38.9453 6.80067 38.533 3.57369 38.9238 0.723274C38.9494 0.542496 37.4945 0.66862 37.432 1.12687Z" fill="currentColor"/>
<path d="M31.6767 35.9635C33.6678 35.7371 35.6481 35.7605 37.6356 36.0061C38.2558 36.083 39.2043 35.2085 38.1975 35.0842C36.0866 34.823 33.9734 34.8133 31.8602 35.0542C31.1042 35.1407 30.6472 36.0812 31.6767 35.9635Z" fill="currentColor"/>
<path d="M2.92829 36.3427C3.49129 28.5452 5.4502 20.5266 4.34504 12.6733C4.30751 12.4084 3.67241 12.5634 3.71173 12.8439C4.81153 20.6588 2.85024 28.6455 2.28962 36.4039C2.26757 36.7096 2.90922 36.6027 2.92829 36.3427Z" fill="currentColor"/>
<path d="M4.63601 19.8349C4.61217 20.2421 4.7218 20.609 4.96368 20.9369C4.98394 20.9766 5.03577 20.9862 5.07628 20.9862C6.78735 20.9862 6.64019 17.6355 6.66521 16.4926C6.77662 11.3329 7.39861 6.23083 7.39861 1.05913C7.39861 0.944418 6.7653 1.03931 6.7653 1.2297C6.7653 5.05127 6.51329 8.77795 6.14629 12.5803C6.01463 13.9454 6.02654 15.2944 6.03131 16.6631C6.0331 17.1706 5.4683 21.5267 5.26872 19.6631C5.25501 19.531 4.61694 19.6571 4.63601 19.8349Z" fill="currentColor"/>
<path d="M4.96989 1.50427C4.76792 5.02554 4.7566 8.54682 4.80546 12.0723C4.80665 12.1684 5.44055 12.0753 5.43877 11.9017C5.38932 8.37625 5.40064 4.85437 5.6026 1.3337C5.60737 1.25142 4.98002 1.32229 4.96989 1.50427Z" fill="currentColor"/>
<path d="M4.89112 36.1773C4.965 31.2837 4.73741 25.2117 7.2909 20.8532C7.08059 20.8983 6.87088 20.9439 6.66057 20.9901C7.40053 26.0682 6.50806 31.4164 6.16906 36.5131C6.16072 36.6344 6.78807 36.5509 6.80237 36.3419C7.13958 31.2651 8.03145 25.885 7.29388 20.819C7.26588 20.6256 6.72313 20.8544 6.66355 20.9559C4.12257 25.294 4.33169 31.4669 4.25781 36.3491C4.25662 36.48 4.88814 36.3821 4.89112 36.1773Z" fill="currentColor"/>
<path d="M5.89072 26.9366C5.62263 29.6692 5.44389 32.4098 5.12635 35.1376C5.09179 35.4331 5.73404 35.328 5.76323 35.0746C6.08137 32.3467 6.2601 29.6062 6.52761 26.8735C6.5574 26.575 5.91575 26.6825 5.89072 26.9366Z" fill="currentColor"/>
<path d="M12.8589 22.3607C12.3221 18.9337 12.2619 15.4196 14.0028 12.3236C13.7925 12.3686 13.5822 12.4137 13.3725 12.4587C14.2286 16.156 13.6829 19.9481 13.5685 23.7006C13.5333 24.8525 13.4886 26.0711 13.1365 27.1786C13.1991 26.9804 12.6909 25.9786 12.6403 25.8285C12.2274 24.6147 12.5527 23.2135 12.8559 22.0123C12.9018 21.8309 12.2739 21.9288 12.228 22.1108C11.8312 23.682 11.3766 26.3072 12.7773 27.5594C12.9948 27.7534 13.5435 27.5084 13.6549 27.2927C14.2715 26.097 14.1738 24.4201 14.2143 23.1C14.3251 19.4784 14.8315 15.8581 14.0052 12.2887C13.9575 12.0839 13.438 12.3116 13.3749 12.4239C11.6185 15.5469 11.6852 19.0832 12.2256 22.533C12.2518 22.6988 12.8893 22.5547 12.8589 22.3607Z" fill="currentColor"/>
<path d="M13.0482 17.1368C13.0446 18.0389 12.9916 18.9374 12.8843 19.8329C12.8474 20.1404 13.4914 20.0419 13.523 19.7752C13.6297 18.8798 13.6827 17.9807 13.6868 17.0786C13.6886 16.7627 13.0494 16.8732 13.0482 17.1368Z" fill="currentColor"/>
<path d="M10.8721 27.0125C10.5146 30.0756 9.98555 33.1596 10.4866 36.2376C10.5116 36.389 11.1485 36.2454 11.1199 36.0665C10.6218 33.0095 11.1437 29.9506 11.4982 26.9068C11.5197 26.7231 10.8905 26.8486 10.8721 27.0125Z" fill="currentColor"/>
<path d="M12.8086 35.3287C13.4223 33.2711 13.4437 31.2249 12.976 29.1318C12.9415 28.9774 12.3058 29.1378 12.3427 29.303C12.8045 31.369 12.7902 33.3978 12.1819 35.4356C12.1384 35.5834 12.758 35.4987 12.8086 35.3287Z" fill="currentColor"/>
<path d="M11.6635 19.718C11.1291 15.9991 11.9346 12.5607 12.9379 8.99922C13.6951 6.31217 14.8176 3.0029 14.1753 0.177713C14.1414 0.0287665 13.5063 0.189125 13.542 0.348282C14.2492 3.45875 12.8861 7.07252 12.0466 10.0515C11.1196 13.3415 10.5393 16.4694 11.0302 19.8886C11.0499 20.0279 11.688 19.8904 11.6635 19.718Z" fill="currentColor"/>
<path d="M11.0769 1.00435C11.065 3.15207 10.9291 5.29619 10.9679 7.44451C10.9738 7.77663 11.6137 7.67573 11.6083 7.39406C11.5696 5.24634 11.706 3.10162 11.7173 0.953902C11.7197 0.621774 11.0787 0.721473 11.0769 1.00435Z" fill="currentColor"/>
<path d="M18.2161 35.7916C17.7514 28.7719 17.0317 21.0543 19.1979 14.2562C18.987 14.2994 18.7767 14.3426 18.5658 14.3853C18.7195 21.6465 18.3424 28.8848 19.0031 36.1291C19.0204 36.3195 19.6567 36.1856 19.6358 35.958C18.9751 28.713 19.3522 21.4759 19.1991 14.2147C19.195 14.0105 18.6159 14.1913 18.567 14.3438C16.4008 21.1408 17.1187 28.9539 17.5828 35.9634C17.5959 36.1502 18.2316 36.021 18.2161 35.7916Z" fill="currentColor"/>
<path d="M20.8883 35.6822C21.2213 31.8522 20.9753 28.015 21.0509 24.1772C21.0581 23.8673 20.4188 23.9808 20.4135 24.2385C20.3366 28.0763 20.5833 31.9129 20.2508 35.7435C20.224 36.048 20.8651 35.9422 20.8883 35.6822Z" fill="currentColor"/>
<path d="M20.673 18.516C20.9245 12.5725 20.346 6.62787 20.346 0.682004C20.346 0.336663 19.7031 0.425551 19.7031 0.725247C19.7031 6.67111 20.2816 12.6158 20.0308 18.5592C20.0165 18.9034 20.6605 18.8175 20.673 18.516Z" fill="currentColor"/>
<path d="M18.1196 1.49733C17.9957 3.87928 18.3228 6.26844 17.6829 8.59814C17.8509 8.51826 18.0184 8.43778 18.1858 8.3579C16.1035 7.32308 17.2456 2.75377 17.1783 0.899745C17.1658 0.561611 16.5259 0.659508 16.5367 0.947192C16.6135 3.05107 15.4136 7.59455 17.8218 8.79153C18.0094 8.88462 18.2728 8.74048 18.3246 8.55129C18.9639 6.2216 18.6374 3.83244 18.7613 1.45049C18.7786 1.11476 18.1345 1.20605 18.1196 1.49733Z" fill="currentColor"/>
<path d="M17.4138 4.30752C17.3054 5.22222 17.2542 6.13873 17.25 7.06004C17.2488 7.38676 17.8887 7.28406 17.8899 7.00718C17.894 6.08587 17.9453 5.16937 18.0537 4.25467C18.0918 3.93635 17.4466 4.02885 17.4138 4.30752Z" fill="currentColor"/>
<path d="M17.6876 11.7984C17.6835 12.6981 17.6364 13.5966 17.6328 14.4957C17.6322 14.6368 18.2649 14.5341 18.2661 14.3251C18.2691 13.4254 18.3168 12.5269 18.3209 11.6278C18.3215 11.4867 17.6888 11.5894 17.6876 11.7984Z" fill="currentColor"/>
<path d="M18.0691 23.8488C17.4822 27.304 16.9734 30.737 17.086 34.2523C17.0968 34.5802 17.7348 34.4745 17.7259 34.1994C17.6133 30.6836 18.1221 27.2512 18.7089 23.796C18.7626 23.4837 18.1161 23.5714 18.0691 23.8488Z" fill="currentColor"/>
<path d="M20.746 20.8254C21.5908 22.6698 22.1002 24.4734 21.7886 26.5172C21.7606 26.6944 22.3892 26.5772 22.4148 26.4115C22.73 24.3466 22.2355 22.5238 21.3793 20.6542C21.3013 20.4836 20.6882 20.6974 20.746 20.8254Z" fill="currentColor"/>
<path d="M25.0581 9.32109C25.0486 9.86883 24.9837 10.3889 25.1666 10.9169C25.2238 11.0814 25.7451 10.8994 25.7963 10.7775C26.115 10.016 26.115 9.41538 25.7999 8.65443C25.7337 8.49287 25.2226 8.66705 25.1713 8.79377C24.877 9.50667 24.8109 10.1235 25.0587 10.8622C25.1124 11.0226 25.6438 10.8496 25.6873 10.7229C25.8815 10.1661 25.9595 9.62799 25.9643 9.04001C25.9655 8.87005 25.415 9.10007 25.3602 9.14512C25.0844 9.37034 25.0987 9.64841 24.9527 9.94931C24.8991 10.0604 25.4972 10.0088 25.5777 9.8412C25.7069 9.57514 25.6903 9.30488 25.9351 9.10488C25.7337 9.14031 25.5324 9.17515 25.331 9.20998C25.3262 9.77694 25.2482 10.2953 25.0623 10.8298C25.272 10.7835 25.4811 10.7367 25.692 10.6904C25.4525 9.97574 25.5115 9.37635 25.7969 8.68446C25.5872 8.73071 25.3781 8.77756 25.1672 8.8238C25.4734 9.56073 25.4811 10.1427 25.1719 10.8844C25.3816 10.8382 25.5908 10.7913 25.8005 10.7451C25.6176 10.2172 25.6831 9.69646 25.692 9.14932C25.6926 9.03581 25.0605 9.1271 25.0581 9.32109Z" fill="currentColor"/>
<path d="M25.7683 1.39458C26.1281 4.09665 26.7304 6.75607 27.017 9.46775C27.3554 12.6623 26.5326 15.8124 25.9035 18.9169C24.6982 24.8627 25.1469 30.2543 25.714 36.238C25.7236 36.3437 26.3622 36.2259 26.3473 36.0668C26.0691 33.1353 25.6515 30.2194 25.5389 27.2735C25.4179 24.0784 26.1078 20.8658 26.7388 17.7577C27.2404 15.2815 27.7409 12.8509 27.7152 10.311C27.6837 7.26418 26.8031 4.23178 26.4028 1.22342C26.3861 1.1111 25.7474 1.24143 25.7683 1.39458Z" fill="currentColor"/>
<path d="M29.0801 35.0766C28.0667 31.8508 29.0813 28.3205 28.0435 25.0581C27.9809 24.8623 27.3512 25.0443 27.4101 25.2293C28.448 28.4911 27.4334 32.022 28.4468 35.2478C28.5088 35.4436 29.1379 35.2622 29.0801 35.0766Z" fill="currentColor"/>
<path d="M27.4933 23.3891C30.6676 17.0432 31.1388 8.477 29.4063 1.60982C29.361 1.43024 28.7277 1.59781 28.773 1.78039C30.5079 8.65357 30.0378 17.1435 26.8647 23.4864C26.7962 23.6245 27.4039 23.5675 27.4933 23.3891Z" fill="currentColor"/>
<path d="M23.6446 1.62368C23.4515 3.79002 23.6374 5.94855 23.8084 8.11008C23.8245 8.32449 24.4614 8.18696 24.4417 7.93952C24.2731 5.80861 24.0866 3.68191 24.2779 1.54561C24.3017 1.28255 23.6642 1.40507 23.6446 1.62368Z" fill="currentColor"/>
<path d="M29.3754 24.0179C29.6882 27.7818 29.1925 31.5656 29.8663 35.3024C29.8991 35.485 30.5353 35.3331 30.4996 35.1313C29.8258 31.395 30.3215 27.6113 30.0087 23.8467C29.9932 23.6756 29.3575 23.8041 29.3754 24.0179Z" fill="currentColor"/>
<path d="M28.3361 34.9146C28.351 35.2299 28.4434 35.5062 28.5584 35.7987C28.6656 36.0695 29.2924 35.8864 29.1917 35.6275C29.094 35.3807 28.9879 35.1278 28.9754 34.8588C28.9593 34.538 28.323 34.6521 28.3361 34.9146Z" fill="currentColor"/>
<path d="M23.3046 12.7713C26.0451 13.0212 23.9236 19.3754 23.6918 20.9838C23.6453 21.31 24.2924 21.2253 24.3329 20.9358C24.6051 19.0397 26.8965 12.6122 23.5232 12.3047C23.2116 12.277 22.8762 12.7329 23.3046 12.7713Z" fill="currentColor"/>
<path d="M33.4698 1.78004C33.5359 3.56921 33.7057 5.35237 33.7558 7.14393C33.7975 8.63761 34.2294 13.6832 32.1722 14.2399C31.7998 14.3402 31.8618 14.5697 32.233 14.4694C34.0411 13.9799 34.1853 11.7222 34.3277 10.1403C34.5827 7.29528 34.2092 4.44967 34.1031 1.60887C34.0966 1.47254 33.4615 1.58305 33.4698 1.78004Z" fill="currentColor"/>
<path d="M35.2731 1.72674C34.9287 7.69182 35.2605 13.6485 35.2731 19.6154C35.2742 19.9199 35.9105 19.8004 35.9105 19.5523C35.898 13.5842 35.565 7.62816 35.9105 1.66307C35.9272 1.36218 35.2874 1.47509 35.2731 1.72674Z" fill="currentColor"/>
<path d="M32.1652 23.5596C32.3618 22.5866 32.6573 20.4942 33.5301 22.2821C33.8173 22.8719 34.021 23.5596 34.1003 24.2125C34.5376 27.8124 33.7815 31.7006 33.772 35.3318C33.772 35.5198 34.4053 35.4021 34.4053 35.1607C34.4136 32.0352 34.6812 28.9205 34.7521 25.7974C34.7848 24.3176 34.6657 23.1416 34.0192 21.8149C32.8605 19.4425 31.7374 22.6341 31.5337 23.6431C31.4872 23.8767 32.1235 23.7698 32.1652 23.5596Z" fill="currentColor"/>
<path d="M33.0863 25.6697C33.184 27.3376 33.0779 29.0114 33.1947 30.6793C33.2132 30.9405 33.8477 30.7934 33.828 30.5081C33.7118 28.8415 33.8173 27.167 33.7196 25.4986C33.7041 25.2385 33.069 25.3832 33.0863 25.6697Z" fill="currentColor"/>
<path d="M37.9848 22.2735C36.2904 22.0957 35.8739 23.6777 35.6636 25.0999C35.1793 28.3641 35.6076 31.9532 35.7137 35.2475C35.7161 35.3388 36.3511 35.2421 36.347 35.0763C36.2969 33.5214 35.4104 22.2939 37.4617 22.5095C37.6053 22.5245 38.1349 22.2897 37.9848 22.2735Z" fill="currentColor"/>
<path d="M37.2406 9.33458C36.5864 11.0577 36.4667 12.8522 36.3129 14.6732C36.2933 14.9147 36.9272 14.7862 36.9439 14.5862C37.0988 12.7652 37.2185 10.9706 37.8715 9.24749C37.9448 9.0547 37.3162 9.13398 37.2406 9.33458Z" fill="currentColor"/>
<path d="M36.4168 18.9551C36.5764 19.5353 36.5818 20.1443 36.4739 20.7346C36.4388 20.9256 37.0685 20.8139 37.1013 20.6349C37.2139 20.0229 37.2151 19.3863 37.0501 18.7839C37.0006 18.6067 36.3679 18.7797 36.4168 18.9551Z" fill="currentColor"/>
<path d="M33.3053 15.0999C33.4602 16.1408 33.5275 17.1906 33.6336 18.2374C33.6461 18.3551 34.2842 18.2332 34.2669 18.0669C34.1608 17.02 34.0935 15.9702 33.9386 14.9294C33.9201 14.8044 33.2821 14.9408 33.3053 15.0999Z" fill="currentColor"/>
</svg>
