<svg width="39" height="37" viewBox="0 0 39 37" xmlns="http://www.w3.org/2000/svg">
<path d="M0.226568 6.89746L0.226562 6.13835C2.25098 5.96459 4.7084 5.95432 6.75032 6.10858C7.04831 6.29464 7.61941 6.89746 6.99861 6.89746C6.3778 6.89746 0.524555 7.12817 0.226568 6.89746Z" fill="currentColor"/>
<path d="M0.226568 14.8975L0.226562 14.1384C2.25098 13.9646 4.7084 13.9543 6.75032 14.1086C7.04831 14.2946 7.61941 14.8975 6.99861 14.8975C6.3778 14.8975 0.524555 15.1282 0.226568 14.8975Z" fill="currentColor"/>
<path d="M0.226568 23.8975L0.226562 23.1384C2.25098 22.9646 4.7084 22.9543 6.75032 23.1086C7.04831 23.2946 7.61941 23.8975 6.99861 23.8975C6.3778 23.8975 0.524555 24.1282 0.226568 23.8975Z" fill="currentColor"/>
<path d="M0.226568 30.8975L0.226562 30.1384C2.25098 29.9646 4.7084 29.9543 6.75032 30.1086C7.04831 30.2946 7.61941 30.8975 6.99861 30.8975C6.3778 30.8975 0.524555 31.1282 0.226568 30.8975Z" fill="currentColor"/>
<path d="M15.7031 6.89746L15.7031 6.13835C17.7993 5.96459 20.3439 5.95432 22.4583 6.10858C22.7668 6.29464 23.3582 6.89746 22.7154 6.89746C22.0726 6.89746 16.0117 7.12817 15.7031 6.89746Z" fill="currentColor"/>
<path d="M31.6016 6.89746L31.6016 6.13835C33.626 5.96459 36.0834 5.95432 38.1253 6.10858C38.4233 6.29464 38.9944 6.89746 38.3736 6.89746C37.7528 6.89746 31.8996 7.12817 31.6016 6.89746Z" fill="currentColor"/>
<path d="M15.7031 14.8975L15.7031 14.1384C17.7993 13.9646 20.3439 13.9543 22.4583 14.1086C22.7668 14.2946 23.3582 14.8975 22.7154 14.8975C22.0726 14.8975 16.0117 15.1282 15.7031 14.8975Z" fill="currentColor"/>
<path d="M31.6016 14.8975L31.6016 14.1384C33.626 13.9646 36.0834 13.9543 38.1253 14.1086C38.4233 14.2946 38.9944 14.8975 38.3736 14.8975C37.7528 14.8975 31.8996 15.1282 31.6016 14.8975Z" fill="currentColor"/>
<path d="M15.7031 23.8975L15.7031 23.1384C17.7993 22.9646 20.3439 22.9543 22.4583 23.1086C22.7668 23.2946 23.3582 23.8975 22.7154 23.8975C22.0726 23.8975 16.0117 24.1282 15.7031 23.8975Z" fill="currentColor"/>
<path d="M31.6016 23.8975L31.6016 23.1384C33.626 22.9646 36.0834 22.9543 38.1253 23.1086C38.4233 23.2946 38.9944 23.8975 38.3736 23.8975C37.7528 23.8975 31.8996 24.1282 31.6016 23.8975Z" fill="currentColor"/>
<path d="M15.7031 30.8975L15.7031 30.1384C17.7993 29.9646 20.3439 29.9543 22.4583 30.1086C22.7668 30.2946 23.3582 30.8975 22.7154 30.8975C22.0726 30.8975 16.0117 31.1282 15.7031 30.8975Z" fill="currentColor"/>
<path d="M31.6016 30.8975L31.6016 30.1384C33.626 29.9646 36.0834 29.9543 38.1253 30.1086C38.4233 30.2946 38.9944 30.8975 38.3736 30.8975C37.7528 30.8975 31.8996 31.1282 31.6016 30.8975Z" fill="currentColor"/>
<path d="M7.29688 3.89746L7.29688 3.13835C9.65154 2.96459 12.5098 2.95432 14.8849 3.10858C15.2315 3.29464 15.8957 3.89746 15.1737 3.89746C14.4516 3.89746 7.64348 4.12817 7.29688 3.89746Z" fill="currentColor"/>
<path d="M7.29688 11.8975L7.29688 11.1384C9.65154 10.9646 12.5098 10.9543 14.8849 11.1086C15.2315 11.2946 15.8957 11.8975 15.1737 11.8975C14.4516 11.8975 7.64348 12.1282 7.29688 11.8975Z" fill="currentColor"/>
<path d="M7.29688 18.8975L7.29688 18.1384C9.65154 17.9646 12.5098 17.9543 14.8849 18.1086C15.2315 18.2946 15.8957 18.8975 15.1737 18.8975C14.4516 18.8975 7.64348 19.1282 7.29688 18.8975Z" fill="currentColor"/>
<path d="M7.29688 26.8975L7.29688 26.1384C9.65154 25.9646 12.5098 25.9543 14.8849 26.1086C15.2315 26.2946 15.8957 26.8975 15.1737 26.8975C14.4516 26.8975 7.64348 27.1282 7.29688 26.8975Z" fill="currentColor"/>
<path d="M7.29688 33.8975L7.29688 33.1384C9.65154 32.9646 12.5098 32.9543 14.8849 33.1086C15.2315 33.2946 15.8957 33.8975 15.1737 33.8975C14.4516 33.8975 7.64348 34.1282 7.29688 33.8975Z" fill="currentColor"/>
<path d="M23.7031 3.89746L23.7031 3.13835C26.0147 2.96459 28.8207 2.95432 31.1523 3.10858C31.4926 3.29464 32.1447 3.89746 31.4358 3.89746C30.7269 3.89746 24.0434 4.12817 23.7031 3.89746Z" fill="currentColor"/>
<path d="M23.7031 11.8975L23.7031 11.1384C26.0147 10.9646 28.8207 10.9543 31.1523 11.1086C31.4926 11.2946 32.1447 11.8975 31.4358 11.8975C30.7269 11.8975 24.0434 12.1282 23.7031 11.8975Z" fill="currentColor"/>
<path d="M23.7031 18.8975L23.7031 18.1384C26.0147 17.9646 28.8207 17.9543 31.1523 18.1086C31.4926 18.2946 32.1447 18.8975 31.4358 18.8975C30.7269 18.8975 24.0434 19.1282 23.7031 18.8975Z" fill="currentColor"/>
<path d="M23.7031 26.8975L23.7031 26.1384C26.0147 25.9646 28.8207 25.9543 31.1523 26.1086C31.4926 26.2946 32.1447 26.8975 31.4358 26.8975C30.7269 26.8975 24.0434 27.1282 23.7031 26.8975Z" fill="currentColor"/>
<path d="M23.7031 33.8975L23.7031 33.1384C26.0147 32.9646 28.8207 32.9543 31.1523 33.1086C31.4926 33.2946 32.1447 33.8975 31.4358 33.8975C30.7269 33.8975 24.0434 34.1282 23.7031 33.8975Z" fill="currentColor"/>
<path d="M38.0247 1.15419C38.1291 0.807259 38.9321 1.15419 38.9321 1.15419C38.8839 1.61069 39.1409 35.3729 38.8839 36.0668C38.627 36.7606 38.2736 37.345 38.2255 36.7606C38.1773 36.1763 37.9203 1.50113 38.0247 1.15419Z" fill="currentColor"/>
<path d="M7.00026 1.21673C7.0107 12.8684 7.14639 24.5263 7.00026 36.1748C6.982 37.6185 7.91789 36.9603 7.93267 35.7868C8.0788 24.1382 7.94311 12.4834 7.93267 0.828652C7.9318 -0.633627 6.99939 0.0587045 7.00026 1.21673Z" fill="currentColor"/>
<path d="M15.0247 1.15419C15.1291 0.807259 15.9321 1.15419 15.9321 1.15419C15.8839 1.61069 16.1409 35.3729 15.8839 36.0668C15.627 36.7606 15.2736 37.345 15.2255 36.7606C15.1773 36.1763 14.9203 1.50113 15.0247 1.15419Z" fill="currentColor"/>
<path d="M23.0247 1.15419C23.1291 0.807259 23.9321 1.15419 23.9321 1.15419C23.8839 1.61069 24.1409 35.3729 23.8839 36.0668C23.627 36.7606 23.2736 37.345 23.2255 36.7606C23.1773 36.1763 22.9203 1.50113 23.0247 1.15419Z" fill="currentColor"/>
<path d="M31.6578 36.6498C31.4352 24.7668 32 12.9409 32 1.06851C32 0.903593 31.3944 1.05202 31.3944 1.34694C31.3944 13.2184 30.8289 25.0452 31.0522 36.9283C31.055 37.1029 31.6635 36.9389 31.6578 36.6498Z" fill="currentColor"/>
<path d="M0.0247233 1.15419C0.129112 0.807259 0.9321 1.15419 0.9321 1.15419C0.883921 1.61069 1.14088 35.3729 0.883921 36.0668C0.626965 36.7606 0.273648 37.345 0.225469 36.7606C0.17729 36.1763 -0.0796653 1.50113 0.0247233 1.15419Z" fill="currentColor"/>
<path d="M0.167042 36.9753C-0.208803 36.8709 0.167043 36.0679 0.167043 36.0679C0.661577 36.1161 37.2373 35.8591 37.989 36.1161C38.7407 36.373 39.3737 36.7264 38.7407 36.7745C38.1077 36.8227 0.542888 37.0797 0.167042 36.9753Z" fill="currentColor"/>
<path d="M38.833 0.975272C39.2088 0.870883 38.833 0.0678992 38.833 0.0678992C38.3384 0.116078 1.76268 -0.140872 1.01099 0.116083C0.259304 0.373039 -0.373703 0.726353 0.2593 0.774532C0.892304 0.822711 38.4571 1.07966 38.833 0.975272Z" fill="currentColor"/>
</svg>
