<svg width="30" height="31" viewBox="0 0 30 31" xmlns="http://www.w3.org/2000/svg">
<path d="M9.4525 6.07403L9.45254 6.07403C9.89876 6.09883 10.2868 6.37887 10.4586 6.78782L12.3202 11.2208C12.3202 11.2209 12.3202 11.2209 12.3202 11.2209C12.4922 11.6302 12.4208 12.1043 12.1324 12.4437C12.1324 12.4437 12.1324 12.4438 12.1324 12.4438L10.5132 14.3503C10.5132 14.3503 10.5132 14.3504 10.5132 14.3504C10.513 14.3522 10.5133 14.3547 10.5146 14.3573C12.5532 18.3542 16.2718 19.9572 17.4074 20.3658L19.0962 18.1375L19.0962 18.1375C19.4257 17.7029 20.0119 17.5537 20.5083 17.7865L22.773 18.8489L24.1919 19.5146L24.6532 19.731L24.7819 19.7914L24.8157 19.8073L24.8244 19.8113L24.8266 19.8124L24.8271 19.8126L24.8273 19.8127L24.6149 20.2654L24.8273 19.8127C25.3229 20.0452 25.5862 20.5906 25.4746 21.1214L25.4746 21.1214L25.2705 22.0913C25.2705 22.0913 25.2705 22.0913 25.2705 22.0914C25.0146 23.3083 24.3028 24.3935 23.2589 25.073C21.9714 25.9113 20.3059 26.3113 18.2351 25.7153L18.3734 25.2348L18.2351 25.7153C12.095 23.9482 8.62995 19.8101 6.79059 17.2572C4.9279 14.672 4.15038 12.0085 4.64574 9.76285C4.98458 8.22655 6.07267 7.07993 6.7172 6.51024L9.4525 6.07403ZM9.4525 6.07403L8.17461 6.00313M9.4525 6.07403L8.17461 6.00313M8.17461 6.00313C8.17461 6.00312 8.1746 6.00312 8.17459 6.00312M8.17461 6.00313L8.17459 6.00312M8.17459 6.00312C7.64153 5.97353 7.11898 6.15504 6.71727 6.51019L8.17459 6.00312Z" stroke="currentColor" fill="none"/>
<path d="M9.4525 6.07403L9.45254 6.07403C9.89876 6.09883 10.2868 6.37887 10.4586 6.78782L12.3202 11.2208C12.3202 11.2209 12.3202 11.2209 12.3202 11.2209C12.4922 11.6302 12.4208 12.1043 12.1324 12.4437C12.1324 12.4437 12.1324 12.4438 12.1324 12.4438L10.5132 14.3503C10.5132 14.3503 10.5132 14.3504 10.5132 14.3504C10.513 14.3522 10.5133 14.3547 10.5146 14.3573C12.5532 18.3542 16.2718 19.9572 17.4074 20.3658L19.0962 18.1375L19.0962 18.1375C19.4257 17.7029 20.0119 17.5537 20.5083 17.7865L22.773 18.8489L24.1919 19.5146L24.6532 19.731L24.7819 19.7914L24.8157 19.8073L24.8244 19.8113L24.8266 19.8124L24.8271 19.8126L24.8273 19.8127L24.6149 20.2654L24.8273 19.8127C25.3229 20.0452 25.5862 20.5906 25.4746 21.1214L25.4746 21.1214L25.2705 22.0913C25.2705 22.0913 25.2705 22.0913 25.2705 22.0914C25.0146 23.3083 24.3028 24.3935 23.2589 25.073C21.9714 25.9113 20.3059 26.3113 18.2351 25.7153L18.3734 25.2348L18.2351 25.7153C12.095 23.9482 8.62995 19.8101 6.79059 17.2572C4.9279 14.672 4.15038 12.0085 4.64574 9.76285C4.98458 8.22655 6.07267 7.07993 6.7172 6.51024L9.4525 6.07403ZM9.4525 6.07403L8.17461 6.00313M9.4525 6.07403L8.17461 6.00313M8.17461 6.00313C8.17461 6.00312 8.1746 6.00312 8.17459 6.00312M8.17461 6.00313L8.17459 6.00312M8.17459 6.00312C7.64153 5.97353 7.11898 6.15504 6.71727 6.51019L8.17459 6.00312Z" stroke="currentColor" fill="none"/>
</svg>
