<svg width="30" height="30" viewBox="0 0 30 30" xmlns="http://www.w3.org/2000/svg">
<circle cx="15" cy="15" r="12.5" stroke="currentColor" fill="none"/>
<path d="M12.2856 20V9H15.4376C16.3308 9 17.0355 9.165 17.5518 9.495C18.0732 9.81976 18.445 10.2388 18.667 10.7521C18.889 11.2655 19 11.7971 19 12.3471C19 12.7348 18.9355 13.125 18.8064 13.5179C18.6773 13.9055 18.4708 14.2643 18.1868 14.5943C17.9029 14.9243 17.5337 15.1888 17.0794 15.3879C16.6302 15.5869 16.0829 15.6864 15.4376 15.6864H11V14.2014H15.5305C15.9952 14.2014 16.3643 14.1071 16.6379 13.9186C16.9167 13.73 17.1155 13.4943 17.2343 13.2114C17.353 12.9286 17.4124 12.6405 17.4124 12.3471C17.4124 12.0852 17.3582 11.8102 17.2498 11.5221C17.1465 11.2288 16.9581 10.9826 16.6844 10.7836C16.4108 10.5845 16.0261 10.485 15.5305 10.485H13.85V20H12.2856ZM11 18.295V17.1007H16.1113V18.295H11Z" fill="currentColor"/>
</svg>
