<svg width="30" height="30" viewBox="0 0 30 30" xmlns="http://www.w3.org/2000/svg">
<path d="M8.30976 4.08483L6.77627 4.00273C6.2946 3.97692 5.82214 4.13499 5.45807 4.44559C4.71464 5.07962 3.52592 6.3054 3.16081 7.90273C2.61633 10.2844 3.45776 13.2009 5.63551 16.1173C7.81325 19.0337 11.8716 23.7 19.0481 25.693C21.3606 26.3352 23.1798 25.9022 24.5833 25.0204C25.695 24.3221 26.4613 23.2012 26.7375 21.934L26.9823 20.8109C27.0601 20.4539 26.8756 20.0917 26.5379 19.9388C26.5379 19.9388 21.6917 17.745 21.3553 17.5927C21.0188 17.4405 20.6199 17.5367 20.3936 17.8247L18.359 20.4151C18.2053 20.6108 17.9422 20.6884 17.7046 20.6064C16.3113 20.1255 11.644 18.2058 9.08304 13.361C8.97197 13.1508 8.99959 12.8958 9.15713 12.7166L11.1016 10.5074C11.3003 10.2818 11.3505 9.96465 11.2311 9.6905L8.99707 4.55743C8.87814 4.28416 8.61161 4.10101 8.30976 4.08483Z" fill="currentColor"/>
</svg>
