<svg width="18" height="18" viewBox="0 0 18 18" xmlns="http://www.w3.org/2000/svg">
<rect width="18" height="18" rx="9" fill="white"/>
<circle cx="9" cy="9" r="8.5" stroke="currentColor" fill="none"/>
<path d="M6.80348 12V5H8.77348C9.33172 5 9.77218 5.105 10.0949 5.315C10.4208 5.52167 10.6531 5.78833 10.7919 6.115C10.9306 6.44167 11 6.78 11 7.13C11 7.37667 10.9597 7.625 10.879 7.875C10.7983 8.12167 10.6692 8.35 10.4918 8.56C10.3143 8.77 10.0836 8.93833 9.79961 9.065C9.51888 9.19167 9.17683 9.255 8.77348 9.255H6V8.31H8.83156C9.12197 8.31 9.35269 8.25 9.52372 8.13C9.69797 8.01 9.8222 7.86 9.89642 7.68C9.97064 7.5 10.0077 7.31667 10.0077 7.13C10.0077 6.96333 9.97386 6.78833 9.9061 6.605C9.84156 6.41833 9.72378 6.26167 9.55276 6.135C9.38174 6.00833 9.14134 5.945 8.83156 5.945H7.78122V12H6.80348ZM6 10.915V10.155H9.19458V10.915H6Z" fill="currentColor"/>
</svg>
