<svg width="31" height="30" viewBox="0 0 31 30" xmlns="http://www.w3.org/2000/svg">
<path d="M17 23.0972L14.5781 21.85C12.1619 20.3146 10.1135 18.2661 8.57812 15.85C6.88809 13.2412 5.83636 10.271 5.50812 7.17997C5.48313 6.90344 5.51599 6.62473 5.60462 6.3616C5.69324 6.09846 5.83569 5.85666 6.02288 5.65159C6.21008 5.44652 6.43792 5.28268 6.69191 5.17049C6.94589 5.05831 7.22046 5.00023 7.49812 4.99997H10.4981C10.9834 4.99519 11.4539 5.16705 11.8219 5.4835C12.1898 5.79996 12.4302 6.23942 12.4981 6.71997C12.6247 7.68004 12.8596 8.6227 13.1981 9.52997C13.3327 9.88789 13.2779 10.2232 13.1981 10.5972C13.1184 10.9711 12.767 11.228 12.4981 11.4999L11 12.4999C12.4236 15.0034 15.9965 18.1736 18.5 19.5972L18.8421 18.913C19.2773 18.0426 19.9472 16.8476 20.8581 17.19V17.19C21.7654 17.5285 22.7081 17.7633 23.6681 17.89C24.1539 17.9585 24.5975 18.2032 24.9146 18.5775C25.2318 18.9518 25.4003 19.4295 25.3881 19.92V22.92C25.3892 23.1985 25.3322 23.4741 25.2206 23.7293C25.1091 23.9845 24.9454 24.2136 24.7402 24.4018C24.535 24.5901 24.2927 24.7335 24.0289 24.8227C23.765 24.9119 23.4855 24.945 23.2081 24.92L20.5 24.4018" stroke="currentColor" stroke-linecap="round" stroke-linejoin="round" fill="none"/>
<path d="M17.5 9.09717C18.4767 9.28773 19.3744 9.76543 20.0781 10.4691C20.7817 11.1728 21.2594 12.0704 21.45 13.0472M17.5 5.09717C19.5293 5.3226 21.4216 6.23134 22.8662 7.67418C24.3109 9.11701 25.222 11.0082 25.45 13.0372" stroke="currentColor" stroke-linecap="round" stroke-linejoin="round" fill="none"/>
</svg>
