<svg width="17" height="20" viewBox="0 0 17 20" xmlns="http://www.w3.org/2000/svg">
<path d="M5.17346 1.66668L5.17346 9.23332C4.44058 7.96664 2.70826 7.3 1.44238 7.8C1.2758 7.83332 1.14256 7.93332 0.975978 8.03332C0.476278 8.36664 0.509578 8.8 0.509578 8.93332C0.476278 9.13332 0.509578 9.16664 0.942639 9.7C1.54228 10.3667 2.77486 11.7667 3.54108 13.1667C3.60772 13.2334 4.50718 14.7 5.50658 15.8L5.50658 16.6667C5.50662 18.5 7.00573 20 8.83795 20L12.1693 20C13.6017 20 15.1008 18.8 15.434 17.4C15.5339 17 15.6339 16.7 15.7671 16.5667C16.1002 16.1667 16.5 15.2334 16.5 14L16.5 8.66668C16.5 7.73336 15.7671 7 14.8343 7C14.4679 7 14.1014 7.13332 13.8349 7.33332L13.8349 7C13.8349 6.06668 13.102 5.33332 12.1692 5.33332C11.8028 5.33332 11.4364 5.46664 11.1698 5.66664C11.1698 4.73332 10.437 3.99996 9.50415 3.99996C9.13769 3.99996 8.77127 4.13328 8.50475 4.33328L8.50475 1.6666C8.50475 0.73328 7.77187 -8.04265e-05 6.83907 -8.03857e-05C5.90627 -8.0345e-05 5.17346 0.733318 5.17346 1.66668ZM7.83855 1.66668L7.83855 7L7.83855 11C7.83855 11.2 7.97179 11.3333 8.17167 11.3333C8.37155 11.3333 8.50479 11.2 8.50479 11L8.50479 7L8.50479 5.66668C8.50479 5.1 8.93785 4.66668 9.50419 4.66668C10.0705 4.66668 10.5036 5.1 10.5036 5.66668L10.5036 7L10.5036 10.6667C10.5036 10.8667 10.6368 11 10.8367 11C11.0366 11 11.1698 10.8667 11.1698 10.6667L11.1698 7C11.1698 6.43332 11.6029 6 12.1692 6C12.7356 6 13.1686 6.43332 13.1686 7L13.1686 8.66668L13.1686 11C13.1686 11.2 13.3019 11.3333 13.5018 11.3333C13.7016 11.3333 13.8349 11.2 13.8349 11L13.8349 8.66668C13.8349 8.1 14.2679 7.66668 14.8343 7.66668C15.4006 7.66668 15.8337 8.1 15.8337 8.66668L15.8337 14C15.8337 14.9282 15.5656 15.5879 15.3587 15.9245C15.1478 16.1064 14.8026 16.1966 14.3013 16.3334L14.1014 16.3667C13.9348 16.4 13.8349 16.6 13.8682 16.7667C13.9016 16.9334 14.1014 17.0334 14.268 17L14.4346 16.9333C14.5828 16.8929 14.731 16.8537 14.8754 16.8104C14.8341 16.9411 14.7978 17.0826 14.7677 17.2333C14.5345 18.3666 13.3019 19.3333 12.1692 19.3333L8.83791 19.3333C7.37211 19.3333 6.17283 18.1333 6.17283 16.6666L6.17283 16.3401C6.2488 16.3962 6.32582 16.4498 6.40601 16.5C6.60589 16.6333 6.77247 16.7333 6.97235 16.9C7.10559 17.0333 7.30547 17 7.43875 16.8666C7.47205 16.8 7.50539 16.7333 7.50539 16.6666C7.50539 16.5666 7.47209 16.4666 7.37215 16.4C7.17227 16.2 6.97239 16.0666 6.77251 15.9333C6.54163 15.7683 6.31075 15.6032 6.07987 15.4058C5.08992 14.3724 4.14076 12.8333 4.14076 12.8333C3.34124 11.4 2.07532 9.9666 1.47568 9.2666C1.37574 9.13328 1.2425 8.9666 1.17586 8.89992C1.17586 8.79992 1.17586 8.73324 1.37574 8.59992C1.50898 8.53324 1.60892 8.4666 1.70886 8.43324C2.57502 8.13324 4.00748 8.53324 4.64042 9.63324L5.19521 10.4659C5.19849 10.4774 5.20227 10.4887 5.20673 10.4999L5.53985 11.1666C5.60649 11.2999 5.80637 11.3666 5.97291 11.2999C6.13945 11.2332 6.17279 10.9332 6.10615 10.8666L5.83963 10.3333L5.83963 1.6666C5.83963 1.09992 6.27269 0.666599 6.83903 0.666599C7.40549 0.666677 7.83855 1.1 7.83855 1.66668Z" fill="currentColor"/>
</svg>
