<svg width="24" height="24" viewBox="0 0 24 24" xmlns="http://www.w3.org/2000/svg">
<path d="M20.9018 10.177L23.5 10.4922V13.6134C23.5 13.6174 23.5 13.6211 23.4999 13.6248L20.607 13.9228L20.2708 13.9574L20.1776 14.2823C19.9711 15.002 19.7868 15.6298 19.4326 16.1588L19.2306 16.4605L19.455 16.7459L21.2778 19.0653L21.2965 19.0892L21.3167 19.1092L19.1533 21.2635C19.14 21.269 19.1269 21.2739 19.1141 21.2783C19.0882 21.2871 19.0677 21.2921 19.0524 21.2947L19.0415 21.2863L16.7124 19.4712L16.4641 19.2776L16.1822 19.418C15.5919 19.7119 14.9128 20.0008 14.2429 20.1914L13.9174 20.284L13.8824 20.6206L13.5834 23.4995C13.5792 23.4998 13.5747 23.5 13.5696 23.5H10.4304C10.4256 23.5 10.4211 23.5 10.4167 23.4999L10.1176 20.6206L10.0826 20.284L9.75708 20.1914C9.03431 19.9857 8.4032 19.802 7.87148 19.449L7.57155 19.2499L7.28759 19.4712L4.95847 21.2863L4.93453 21.305L4.91301 21.3264C4.91245 21.3269 4.91191 21.3275 4.91139 21.3279C4.91088 21.3275 4.91034 21.3269 4.90977 21.3264L2.74527 19.171C2.73992 19.158 2.73506 19.1452 2.73078 19.1327C2.72248 19.1085 2.71758 19.0892 2.71491 19.0746L2.72224 19.0653L4.54502 16.7459L4.74119 16.4963L4.59873 16.2126C4.30364 15.6249 4.01366 14.9489 3.82238 14.2823L3.72918 13.9574L3.39301 13.9228L0.50038 13.6248C0.500139 13.6214 0.5 13.6176 0.5 13.6134V10.5443C0.522055 10.5248 0.561096 10.4983 0.619497 10.4742L3.49427 10.178L3.83044 10.1434L3.92365 9.81857C4.13016 9.09881 4.31451 8.47101 4.66865 7.94203L4.87062 7.64035L4.64629 7.35491L2.8235 5.03558L2.80472 5.01169L2.78455 4.9916L4.94792 2.83732C4.96127 2.83186 4.97439 2.82691 4.98718 2.82256C5.01209 2.81407 5.03209 2.80909 5.04719 2.8064L5.07889 2.82875L7.50927 4.54304L7.75315 4.71507L8.02032 4.58204C8.61063 4.28813 9.28971 3.99924 9.95961 3.80865L10.2851 3.71603L10.3201 3.3794L10.6192 0.500534C10.6233 0.500199 10.6279 0.5 10.6329 0.5H13.7284C13.7336 0.503909 13.7399 0.509025 13.7475 0.51563C13.7867 0.549818 13.8364 0.604675 13.8958 0.684924L14.1862 3.48024L14.2212 3.81687L14.5467 3.90949C15.2695 4.11512 15.9006 4.29887 16.4323 4.65186L16.7322 4.85097L17.0162 4.62967L19.3453 2.81455L19.3693 2.79589L19.3908 2.77447C19.3913 2.7739 19.3919 2.77338 19.3924 2.7729C19.3929 2.77338 19.3935 2.7739 19.394 2.77447L21.5585 4.92987C21.5639 4.94289 21.5687 4.95567 21.573 4.96813C21.5813 4.99231 21.5862 5.01168 21.5889 5.02626L21.5816 5.03558L19.7588 7.35491L19.5626 7.60451L19.7051 7.88823C20.0002 8.47593 20.2901 9.15189 20.4814 9.81857L20.5728 10.1371L20.9018 10.177ZM0.482061 10.563C0.482026 10.563 0.482351 10.5625 0.483139 10.5615C0.482489 10.5625 0.482095 10.563 0.482061 10.563ZM13.7116 0.488762C13.7116 0.488726 13.7122 0.489005 13.7134 0.489708C13.7122 0.48915 13.7116 0.488799 13.7116 0.488762ZM7.60126 12.1008C7.60126 14.5975 9.64989 16.6345 12.1519 16.6345C14.6539 16.6345 16.7025 14.5975 16.7025 12.1008C16.7025 9.60423 14.6539 7.56723 12.1519 7.56723C9.64989 7.56723 7.60126 9.60423 7.60126 12.1008Z" stroke="currentColor" fill="none"/>
</svg>
