<svg width="18" height="17" viewBox="0 0 18 17" xmlns="http://www.w3.org/2000/svg">
<path d="M8.55163 1.03827C8.73504 0.666646 9.26496 0.666646 9.44837 1.03827L11.2579 4.70476C11.4764 5.14747 11.8987 5.45433 12.3873 5.52532L16.4335 6.11327C16.8436 6.17286 17.0074 6.67685 16.7106 6.96611L13.7827 9.82008C13.4292 10.1647 13.2679 10.6612 13.3513 11.1478L14.0425 15.1776C14.1126 15.5861 13.6839 15.8976 13.3171 15.7047L9.69801 13.8021C9.26103 13.5723 8.73897 13.5723 8.30199 13.8021L4.68295 15.7047C4.31614 15.8976 3.88742 15.5861 3.95747 15.1776L4.64865 11.1478C4.73211 10.6612 4.57078 10.1647 4.21726 9.82008L1.28939 6.96611C0.992632 6.67685 1.15639 6.17286 1.5665 6.11327L5.61271 5.52532C6.10127 5.45433 6.52362 5.14747 6.74211 4.70476L8.55163 1.03827Z" stroke="currentColor" fill="none"/>
</svg>
