<svg width="30" height="30" viewBox="0 0 30 30" xmlns="http://www.w3.org/2000/svg">
<path d="M13.9865 3.80569C13.8885 3.83878 13.7974 3.89088 13.7187 3.95897C13.64 4.02705 13.5752 4.10974 13.5281 4.20221C13.481 4.29468 13.4525 4.39507 13.4444 4.49752C13.4362 4.59997 13.4485 4.70242 13.4805 4.79888C13.5125 4.89534 13.5636 4.98389 13.6309 5.05934C13.6981 5.13479 13.7801 5.19563 13.8721 5.23831C13.9641 5.28099 14.0642 5.30465 14.1666 5.30791C14.2689 5.31117 14.3716 5.29396 14.4684 5.25729C15.472 4.89838 16.5324 4.74632 17.5845 4.81045C17.864 4.88599 18.1167 5.03391 18.3175 5.23953C18.5184 5.44514 18.6604 5.70132 18.7295 5.98263C18.7987 6.26394 18.7925 6.56061 18.7116 6.84321C18.6307 7.12582 18.4779 7.38453 18.2683 7.59368L17.6585 8.2035C17.5329 8.32961 17.461 8.4989 17.4584 8.6743C17.4558 8.8497 17.5228 9.01694 17.6447 9.1394L20.0519 11.5466C20.1744 11.6685 20.3416 11.7355 20.517 11.7329C20.6924 11.7303 20.8617 11.6584 20.9878 11.5328L20.9178 11.6027C21.1509 11.3691 21.4454 11.2069 21.7649 11.1362C21.83 11.1278 21.8948 11.1173 21.9594 11.1048C22.2229 11.0777 22.4873 11.1132 22.7309 11.2083C22.9745 11.3035 23.1904 11.4557 23.361 11.6524C23.5316 11.8491 23.652 12.0848 23.7124 12.3401C23.7727 12.5955 23.7714 12.8633 23.7084 13.1217C23.6425 13.2883 23.6353 13.4707 23.688 13.6385C23.7407 13.8062 23.8501 13.9489 23.9978 14.0427C24.1456 14.1365 24.3226 14.1755 24.4991 14.1533C24.6757 14.1311 24.841 14.0489 24.9672 13.9207L27.2465 11.6414C27.3757 11.5123 27.4571 11.3435 27.4766 11.1641C27.496 10.9847 27.4524 10.806 27.3531 10.6588C27.2539 10.5117 27.1053 10.4054 26.9331 10.3583C26.7609 10.3111 26.5758 10.3262 26.4099 10.4008C26.1577 10.4584 25.8972 10.4574 25.6489 10.3979C25.4005 10.3384 25.171 10.2219 24.978 10.0576C24.7851 9.89333 24.634 9.68559 24.5365 9.45059C24.439 9.21558 24.3977 8.95964 24.4158 8.70266C24.4391 8.5972 24.4567 8.49075 24.4688 8.38374L24.473 8.36595L24.4701 8.36304C24.5171 7.92079 24.4663 7.47649 24.3215 7.06172C24.1766 6.64696 23.9411 6.27192 23.6318 5.96326L23.6027 5.93414C23.5861 5.91336 23.5683 5.89356 23.5494 5.87485C22.3365 4.66121 20.7965 3.82349 19.1053 3.45742C17.4141 3.09135 15.6399 3.2117 13.9855 3.80472L13.9865 3.80569ZM16.373 10.4209C16.4991 10.2953 16.6684 10.2233 16.8438 10.2207C17.0192 10.2181 17.1864 10.2851 17.3089 10.4071L18.9735 12.0717C19.0951 12.1943 19.1619 12.3615 19.1593 12.5368C19.1567 12.7121 19.085 12.8813 18.9597 13.0076L7.61812 24.3492C7.492 24.4748 7.32272 24.5468 7.14731 24.5493C6.97191 24.5519 6.80467 24.4849 6.68221 24.363L5.01758 22.6984C4.89564 22.5759 4.82864 22.4087 4.83122 22.2333C4.83381 22.0578 4.90578 21.8886 5.03138 21.7624L16.373 10.4209Z" stroke="currentColor" fill="none"/>
<path fill-rule="evenodd" clip-rule="evenodd" d="M2.96875 7.5354L7.21139 3.29276L25.5962 21.6775L21.3535 25.9202L2.96875 7.5354ZM10.0398 7.5354L11.8076 9.30317L10.7469 10.3638L11.454 11.0709L12.5147 10.0103L14.2825 11.778L12.5147 13.5458L13.2218 14.2529L14.9896 12.4851L16.998 14.5002L15.998 15.5002L16.4038 16.0207L17.4644 14.96L19.2322 16.7278L17.4644 18.4956L18.1715 19.2027L19.9393 17.4349L21.7071 19.2027L20.6464 20.2633L21.3535 20.9704L22.4142 19.9098L24.182 21.6775L21.3535 24.506L4.38296 7.5354L7.21139 4.70697L9.33271 6.82829L7.56494 8.59606L8.27205 9.30317L10.0398 7.5354Z" fill="currentColor"/>
</svg>
