<svg width="20" height="20" viewBox="0 0 20 20" xmlns="http://www.w3.org/2000/svg">
<path d="M9.38979 2.0869L9.38979 2.0869C10.855 2.95403 11.7666 4.18275 12.2434 5.43582L12.5934 6.35582L13.1299 5.53057C13.3185 5.24044 13.4335 5.02968 13.5183 4.84958C14.5456 5.90311 15.4629 6.98904 16.1859 8.251L16.6198 8.00244L16.1859 8.25101C16.915 9.52347 17.5 11.0004 17.5 12.3946C17.5 13.9617 17.1602 15.3616 16.2578 16.4297L16.2578 16.4297C15.459 17.3753 14.2574 18.0167 12.5831 18.3096C12.8303 17.9619 13.0303 17.5696 13.1844 17.1474C13.6086 15.9856 13.4269 14.8163 12.7883 13.7925L12.7882 13.7923C12.615 13.5148 12.4275 13.2569 12.253 13.0168L12.2498 13.0124C11.8767 12.4991 11.5627 12.0612 11.3817 11.5252L11.3817 11.5252L11.0279 10.4782L10.8267 9.88285L10.2918 10.2127L9.34302 10.7976C7.39461 11.9989 6.29394 13.3564 5.96858 14.8809L6.45756 14.9852L5.96857 14.8809C5.79463 15.6959 5.96084 16.6061 6.32748 17.4022C6.4549 17.6789 6.60949 17.9484 6.78835 18.2013C5.06868 17.6998 3.52128 16.454 2.85112 14.7929C2.03208 12.7628 2.5578 10.2167 5.41589 7.77323C6.98321 6.43332 8.45277 4.48922 8.81535 2.3422C8.81535 2.3422 8.81535 2.34219 8.81535 2.34219L8.90676 1.80103L9.38979 2.0869Z" stroke="currentColor" shape-rendering="crispEdges" fill="none"/>
</svg>
