<svg width="31" height="27" viewBox="0 0 31 27" xmlns="http://www.w3.org/2000/svg">
<path d="M9.12488 20V11H11.8829C12.6644 11 13.2811 11.135 13.7328 11.405C14.1891 11.6707 14.5144 12.0136 14.7086 12.4336C14.9029 12.8536 15 13.2886 15 13.7386C15 14.0557 14.9435 14.375 14.8306 14.6964C14.7177 15.0136 14.5369 15.3071 14.2885 15.5771C14.04 15.8471 13.717 16.0636 13.3195 16.2264C12.9264 16.3893 12.4476 16.4707 11.8829 16.4707H8V15.2557H11.9642C12.3708 15.2557 12.6938 15.1786 12.9332 15.0243C13.1772 14.87 13.3511 14.6771 13.455 14.4457C13.5589 14.2143 13.6108 13.9786 13.6108 13.7386C13.6108 13.5243 13.5634 13.2993 13.4685 13.0636C13.3782 12.8236 13.2133 12.6221 12.9739 12.4593C12.7344 12.2964 12.3979 12.215 11.9642 12.215H10.4937V20H9.12488ZM8 18.605V17.6279H12.4724V18.605H8Z" fill="currentColor"/>

<circle cx="11.5" cy="15.5" r="9" stroke="currentColor" fill="none"/>

<path fill-rule="evenodd" clip-rule="evenodd" d="M17 18H25V10H29L21 2L13 10H17V18Z" fill="white"/>

<path d="M25 18V19H26V18H25ZM17 18H16V19H17V18ZM25 10V9H24V10H25ZM29 10V11H31.4142L29.7071 9.29289L29 10ZM21 2L21.7071 1.29289L21 0.585787L20.2929 1.29289L21 2ZM13 10L12.2929 9.29289L10.5858 11H13V10ZM17 10H18V9H17V10ZM25 17H17V19H25V17ZM24 10V18H26V10H24ZM29 9H25V11H29V9ZM20.2929 2.70711L28.2929 10.7071L29.7071 9.29289L21.7071 1.29289L20.2929 2.70711ZM13.7071 10.7071L21.7071 2.70711L20.2929 1.29289L12.2929 9.29289L13.7071 10.7071ZM17 9H13V11H17V9ZM18 18V10H16V18H18Z" fill="currentColor"/>
</svg>
