<svg width="31" height="27" viewBox="0 0 31 27" xmlns="http://www.w3.org/2000/svg">
<circle cx="11.5" cy="15.5" r="9" stroke="currentColor" fill="none"/>

<path d="M9.12488 20V11H11.8829C12.6644 11 13.2811 11.135 13.7328 11.405C14.1891 11.6707 14.5144 12.0136 14.7086 12.4336C14.9029 12.8536 15 13.2886 15 13.7386C15 14.0557 14.9435 14.375 14.8306 14.6964C14.7177 15.0136 14.5369 15.3071 14.2885 15.5771C14.04 15.8471 13.717 16.0636 13.3195 16.2264C12.9264 16.3893 12.4476 16.4707 11.8829 16.4707H8V15.2557H11.9642C12.3708 15.2557 12.6938 15.1786 12.9332 15.0243C13.1772 14.87 13.3511 14.6771 13.455 14.4457C13.5589 14.2143 13.6108 13.9786 13.6108 13.7386C13.6108 13.5243 13.5634 13.2993 13.4685 13.0636C13.3782 12.8236 13.2133 12.6221 12.9739 12.4593C12.7344 12.2964 12.3979 12.215 11.9642 12.215H10.4937V20H9.12488ZM8 18.605V17.6279H12.4724V18.605H8Z" fill="currentColor"/>

<path fill-rule="evenodd" clip-rule="evenodd" d="M17 2H25V10H29L21 18L13 10H17V2Z" fill="white"/>

<path d="M25 2V1H26V2H25ZM17 2H16V1H17V2ZM25 10V11H24V10H25ZM29 10V9H31.4142L29.7071 10.7071L29 10ZM21 18L21.7071 18.7071L21 19.4142L20.2929 18.7071L21 18ZM13 10L12.2929 10.7071L10.5858 9H13V10ZM17 10H18V11H17V10ZM25 3H17V1H25V3ZM24 10V2H26V10H24ZM29 11H25V9H29V11ZM20.2929 17.2929L28.2929 9.29289L29.7071 10.7071L21.7071 18.7071L20.2929 17.2929ZM13.7071 9.29289L21.7071 17.2929L20.2929 18.7071L12.2929 10.7071L13.7071 9.29289ZM17 11H13V9H17V11ZM18 2V10H16V2H18Z" fill="currentColor"/>
</svg>

