<svg width="30" height="31" viewBox="0 0 30 31" xmlns="http://www.w3.org/2000/svg">
<path fill-rule="evenodd" clip-rule="evenodd" d="M20.5848 6.70999C19.0871 5.73739 17.2915 5.33109 15.5211 5.56418C13.7506 5.79727 12.1213 6.65445 10.9264 7.98154C9.7315 9.30863 9.04932 11.0185 9.00257 12.8037C8.95582 14.5889 9.54758 16.3321 10.6714 17.7199C11.7952 19.1077 13.3774 20.049 15.1332 20.3744C16.8891 20.6999 18.7035 20.3881 20.25 19.4952C20.4891 19.3571 20.7949 19.4391 20.933 19.6782C21.0711 19.9174 20.9891 20.2232 20.75 20.3612C18.9973 21.3732 16.941 21.7265 14.951 21.3577C13.3024 21.0521 11.789 20.2676 10.594 19.1131L4.85355 24.8536C4.65829 25.0488 4.34171 25.0488 4.14645 24.8536C3.95118 24.6583 3.95118 24.3417 4.14645 24.1465L9.91642 18.3765C9.90902 18.3674 9.90163 18.3583 9.89426 18.3492C8.62059 16.7764 7.94993 14.8007 8.00291 12.7775C8.05589 10.7543 8.82903 8.81644 10.1833 7.31241C11.5375 5.80838 13.384 4.83691 15.3905 4.57274C17.3971 4.30857 19.4321 4.76904 21.1294 5.87132C22.8268 6.9736 24.0752 8.64535 24.65 10.5859C25.2248 12.5264 25.0883 14.6084 24.2651 16.4573C24.1528 16.7095 23.8573 16.823 23.605 16.7107C23.3527 16.5984 23.2393 16.3028 23.3516 16.0505C24.0779 14.4192 24.1983 12.5821 23.6911 10.8699C23.184 9.15767 22.0825 7.68259 20.5848 6.70999Z" fill="currentColor"/>
</svg>
