<svg width="31" height="30" viewBox="0 0 31 30" xmlns="http://www.w3.org/2000/svg">
<path d="M7.2929 29.0065C7.68301 29.3994 8.31815 29.4006 8.70968 29.0091L10.3438 27.375L11.9804 29.0116C12.3709 29.4022 13.0041 29.4022 13.3946 29.0116L15.0313 27.375L16.6679 29.0116C17.0584 29.4022 17.6916 29.4022 18.0821 29.0116L19.7188 27.375L21.3554 29.0116C21.7459 29.4022 22.3791 29.4022 22.7696 29.0116L24.4063 27.375L26.0429 29.0116C26.4334 29.4022 27.0666 29.4022 27.4571 29.0116L29.9844 26.4844L29.9844 4.54688C29.9844 2.10938 27.9922 0.140627 25.5781 0.140627L3.78125 0.140625C2.25782 0.140624 1.01563 1.38281 1.01563 2.90625L1.01562 19.8164C1.01562 20.3148 1.41962 20.7187 1.91797 20.7187C2.41632 20.7187 2.82031 20.3148 2.82031 19.8164L2.82031 2.90625C2.82031 2.36719 3.26563 1.92188 3.80469 1.92188C4.34375 1.92188 4.78906 2.36719 4.78906 2.90625L4.78906 26.4844L7.2929 29.0065ZM25.5781 1.92188C27.0313 1.92188 28.2031 3.09375 28.2031 4.54688L28.2031 25.7344L26.75 27.1875L25.1134 25.5509C24.7228 25.1603 24.0897 25.1603 23.6991 25.5509L22.0625 27.1875L20.4259 25.5509C20.0353 25.1603 19.4022 25.1603 19.0116 25.5509L17.375 27.1875L15.7384 25.5509C15.3478 25.1603 14.7147 25.1603 14.3241 25.5509L12.6875 27.1875L11.0509 25.5509C10.6603 25.1603 10.0272 25.1603 9.63664 25.5509L8 27.1875L6.54688 25.7344L6.54688 2.90625C6.54688 2.55469 6.47656 2.22656 6.35938 1.92188L25.5781 1.92188Z" fill="currentColor"/>
<path d="M16.1304 19V16.9167M13 13.8333H16.1304M16.1304 13.8333H19.0833C20.6942 13.8333 22 12.5275 22 10.9167V10.9167C22 9.30584 20.6942 8 19.0833 8H16.5217C16.3056 8 16.1304 8.17519 16.1304 8.3913V13.8333ZM16.1304 13.8333V16.9167M16.1304 16.9167H19.2609H13" stroke="currentColor" stroke-width="1.5" stroke-linecap="round" fill="none"/>
</svg>
