<svg width="30" height="30" viewBox="0 0 30 30" xmlns="http://www.w3.org/2000/svg">
<path d="M15 27C20.5228 27 25 22.5228 25 17C25 11.4772 20.5228 7 15 7C9.47715 7 5 11.4772 5 17C5 22.5228 9.47715 27 15 27Z" stroke="currentColor" stroke-miterlimit="10" fill="none"/>
<path d="M15 12V17L18 20" stroke="currentColor" fill="none"/>
<path d="M15 27C20.5228 27 25 22.5228 25 17C25 11.4772 20.5228 7 15 7C9.47715 7 5 11.4772 5 17C5 22.5228 9.47715 27 15 27Z" stroke="currentColor" stroke-miterlimit="10" fill="none"/>
<path d="M15 12V17L18 20" stroke="currentColor" fill="none"/>
</svg>
