<svg width="30" height="30" viewBox="0 0 30 30" xmlns="http://www.w3.org/2000/svg">
<path d="M9.5 11C9.5 7.96243 11.9624 5.5 15 5.5C18.0376 5.5 20.5 7.96243 20.5 11C20.5 14.0376 18.0376 16.5 15 16.5C11.9624 16.5 9.5 14.0376 9.5 11Z" stroke="currentColor" fill="none"/>
<path d="M8.66954 19.6399L8.66955 19.6399C10.1787 18.7971 12.2389 18.5 15.0008 18.5C17.757 18.5 19.8143 18.7958 21.3224 19.6345L21.5654 19.1975L21.3224 19.6345C22.909 20.5167 23.9156 22.0227 24.4645 24.3274C24.5421 24.6533 24.4858 24.9727 24.3614 25.198C24.2344 25.4278 24.0791 25.5 23.9682 25.5H6.02722C5.91776 25.5 5.7639 25.4288 5.6378 25.2006C5.5142 24.9769 5.45829 24.6596 5.53512 24.336C6.08239 22.0311 7.08563 20.5244 8.66954 19.6399Z" stroke="currentColor" fill="none"/>
</svg>
