<svg width="31" height="30" viewBox="0 0 31 30" xmlns="http://www.w3.org/2000/svg">
<path d="M4.5 15.5C4.5 15.5 8.5 8 15.5 8C22.5 8 26.5 15.5 26.5 15.5C26.5 15.5 22.5 23 15.5 23C8.5 23 4.5 15.5 4.5 15.5Z" stroke="currentColor" stroke-linecap="round" fill="none"/>
<path d="M19.502 5.20408C19.502 4.97956 19.351 4.78227 19.1324 4.73078C18.7722 4.64593 18.4142 4.57669 18.0587 4.52206C17.7627 4.47657 17.502 4.71024 17.502 5.00976C17.502 5.26375 17.6918 5.47668 17.9427 5.51597C18.2485 5.56387 18.5567 5.62348 18.8668 5.69561C19.187 5.7701 19.502 5.53288 19.502 5.20408Z" fill="currentColor"/>
<path d="M22.502 6.82108C22.502 7.00564 22.602 7.17521 22.7613 7.2684C23.0742 7.45143 23.3878 7.64939 23.7018 7.86301C24.0358 8.09027 24.502 7.85789 24.502 7.45386C24.502 7.29518 24.425 7.14602 24.2939 7.05651C23.9408 6.81521 23.5876 6.59234 23.235 6.38702C22.9051 6.19502 22.502 6.43943 22.502 6.82108Z" fill="currentColor"/>
<path d="M14.502 4.99255C14.502 4.6951 14.2446 4.46222 13.95 4.50379C13.8616 4.51628 13.7735 4.52954 13.6857 4.54355C9.9742 5.13594 6.87267 7.07057 5.00862 8.79959C4.80616 8.98738 4.80673 9.30454 5.00199 9.4998C5.19725 9.69506 5.51299 9.6947 5.71596 9.50746C7.46512 7.89393 10.3802 6.08379 13.8433 5.53105C13.9139 5.51977 13.9848 5.50902 14.056 5.4988C14.3093 5.46239 14.502 5.24845 14.502 4.99255Z" fill="currentColor"/>
<path d="M19.5 15.5C19.5 17.7091 17.7091 19.5 15.5 19.5C13.2909 19.5 11.5 17.7091 11.5 15.5C11.5 13.2909 13.2909 11.5 15.5 11.5C17.7091 11.5 19.5 13.2909 19.5 15.5Z" stroke="currentColor" fill="none"/>
<path d="M16.5 15.5C16.5 16.0523 16.0523 16.5 15.5 16.5C14.9477 16.5 14.5 16.0523 14.5 15.5C14.5 14.9477 14.9477 14.5 15.5 14.5C16.0523 14.5 16.5 14.9477 16.5 15.5Z" fill="currentColor"/>
</svg>
