<svg width="30" height="31" viewBox="0 0 30 31" xmlns="http://www.w3.org/2000/svg">
<path fill-rule="evenodd" clip-rule="evenodd" d="M3.8209 22.0398L2 28.5L8.66944 26.785C10.6018 27.8681 12.7861 28.4385 15.0168 28.4385C22.1758 28.4385 28 22.6205 28 15.4692C28 8.31798 22.1758 2.5 15.0168 2.5C7.85774 2.5 2.03344 8.31798 2.03344 15.4692C2.03344 17.7918 2.64995 20.0527 3.8209 22.0398ZM9.40782 24.668L9.01041 24.4256L5.15718 25.4164L6.20577 21.6961L5.93814 21.2798C4.82454 19.5476 4.23585 17.5383 4.23585 15.4692C4.23585 9.53108 9.07216 4.70001 15.0168 4.70001C20.9614 4.70001 25.7976 9.53108 25.7976 15.4692C25.7976 21.4074 20.9614 26.2385 15.0168 26.2385C13.0322 26.2385 11.0926 25.6954 9.40782 24.668ZM11.0455 9.50149L11.8761 9.54627C12.0396 9.5551 12.184 9.655 12.2484 9.80405L13.4585 12.6039C13.5232 12.7534 13.496 12.9264 13.3884 13.0495L12.3351 14.2545C12.2498 14.3523 12.2348 14.4914 12.295 14.606C13.6822 17.2486 16.2103 18.2957 16.965 18.558C17.0937 18.6027 17.2362 18.5604 17.3194 18.4537L18.4215 17.0408C18.5441 16.8837 18.7602 16.8312 18.9424 16.9142L21.7497 18.1939C21.9326 18.2773 22.0326 18.4748 21.9904 18.6696L21.8578 19.2822C21.7082 19.9734 21.2931 20.5848 20.691 20.9657C19.9307 21.4467 18.9453 21.6828 17.6927 21.3325C13.8055 20.2455 11.6072 17.7002 10.4276 16.1094C9.24796 14.5187 8.79218 12.9279 9.0871 11.6288C9.28487 10.7575 9.92876 10.0889 10.3315 9.74305C10.5287 9.57363 10.7846 9.48741 11.0455 9.50149Z" fill="currentColor"/>
</svg>
