<svg width="60" height="61" viewBox="0 0 60 61" fill="none" xmlns="http://www.w3.org/2000/svg">
<path fill-rule="evenodd" clip-rule="evenodd" d="M33.6222 6.01064C33.6222 3.51167 35.7233 1.5 38.3333 1.5C40.9449 1.5 43.0444 3.52839 43.0444 6.01064V6.01467C43.0262 8.45625 41.0205 10.4334 38.4985 10.5209C38.4589 10.5223 38.4193 10.5198 38.3803 10.5136C38.3486 10.5085 38.3021 10.5085 38.2704 10.5136C38.2313 10.5198 38.1918 10.5223 38.1522 10.5209C35.6309 10.4334 33.6222 8.45606 33.6222 6.01064ZM38.3333 2.62766C36.3738 2.62766 34.8 4.13446 34.8 6.01064C34.8 7.83263 36.2804 9.30276 38.1458 9.39196C38.2634 9.37887 38.3873 9.37887 38.5049 9.39196C40.369 9.30281 41.852 7.83349 41.8667 6.00864C41.8655 4.14725 40.2907 2.62766 38.3333 2.62766Z" fill="#10E048"/>
<path d="M3.97109 36.9377C6.44729 34.9152 11.3322 31.9468 16.1401 31.9468C18.5436 31.9468 22.6988 32.9426 26.5366 34.222C28.4432 34.8577 30.2456 35.5546 31.6818 36.2159C32.4002 36.5467 33.0196 36.8652 33.5116 37.1592C34.0128 37.4587 34.3467 37.7123 34.5247 37.9061C34.8269 38.2352 34.8663 38.5882 34.7128 39.0168C34.5471 39.4791 34.1638 39.9852 33.6744 40.4764C33.1933 40.9591 32.6505 41.3873 32.2227 41.6975C32.01 41.8517 31.8283 41.9748 31.7007 42.0588C31.6369 42.1008 31.5868 42.133 31.5532 42.1542L31.5156 42.1779L31.5067 42.1833L31.505 42.1844C31.4748 42.2029 31.4468 42.2237 31.4214 42.2462L24.2476 39.9632C23.939 39.865 23.6056 40.0249 23.503 40.3204C23.4005 40.6159 23.5675 40.9351 23.8761 41.0333L31.5535 43.4765C31.6505 43.5074 31.7542 43.5136 31.8544 43.4944L31.7979 43.223C31.8544 43.4944 31.8543 43.4945 31.8544 43.4944L32.0701 43.4534C32.2111 43.4266 32.4184 43.3872 32.6831 43.3372C33.2125 43.237 33.9718 43.0939 34.891 42.9222C36.7294 42.5788 39.2069 42.121 41.7641 41.6633C44.3218 41.2054 46.9564 40.7481 49.1098 40.4054C51.2914 40.0583 52.9126 39.8404 53.4918 39.8404C54.0402 39.8404 54.3646 39.9714 54.5441 40.1214C54.7131 40.2626 54.8222 40.4772 54.8222 40.8036C54.8222 41.5 54.3104 42.5853 53.076 43.7639C51.8212 44.9618 48.9753 47.3777 45.4989 49.4898C42.0062 51.6118 37.9653 53.3723 34.2984 53.3723C30.5591 53.3723 27.4352 52.4813 24.5675 51.5687C24.2764 51.476 23.9869 51.3828 23.6991 51.29C21.1847 50.4798 18.7879 49.7074 16.3845 49.7074H3.58969C3.26445 49.7074 3.00001 49.9599 3.00001 50.2713C3.00001 50.5827 3.26367 50.8351 3.5889 50.8351H16.3845C18.5826 50.8351 20.7873 51.5439 23.341 52.3648C23.6213 52.455 23.9068 52.5467 24.196 52.6388C27.0863 53.5586 30.3602 54.5 34.2984 54.5C38.3087 54.5 42.5851 52.5956 46.1299 50.4419C49.6911 48.2783 52.6032 45.8077 53.9076 44.5624C55.2323 43.2976 56 41.9397 56 40.8036C56 40.2139 55.7892 39.6649 55.3184 39.2717C54.8582 38.8872 54.2229 38.7128 53.4918 38.7128C52.7914 38.7128 51.0538 38.953 48.9168 39.293C46.7517 39.6375 44.1081 40.0965 41.5476 40.5548C38.9865 41.0133 36.5057 41.4717 34.6654 41.8155C34.3244 41.8792 34.0053 41.9389 33.7117 41.994C33.9813 41.7706 34.2607 41.5216 34.5266 41.2548C35.0587 40.7208 35.5793 40.0736 35.8268 39.3826C36.0865 38.658 36.0484 37.8576 35.4092 37.1616C35.1165 36.8428 34.666 36.5198 34.1351 36.2026C33.5951 35.8799 32.9349 35.5416 32.1922 35.1997C30.7063 34.5155 28.861 33.8029 26.9238 33.1571C23.0739 31.8736 18.7571 30.8191 16.1401 30.8191C10.9071 30.8191 5.751 34.0017 3.20671 36.0798C2.95928 36.2818 2.9298 36.6377 3.14088 36.8746C3.35196 37.1115 3.72366 37.1398 3.97109 36.9377Z" fill="#10E048"/>
<path d="M44.5805 13.0001C42.6764 11.7897 40.0075 11.4022 37.6428 11.799C37.3224 11.8528 37.1083 12.145 37.1644 12.4517C37.2206 12.7585 37.5258 12.9635 37.8461 12.9098C39.9744 12.5526 42.3231 12.919 43.9284 13.9392C44.9613 14.5991 45.4 15.4135 45.4 16.1563C45.4 16.8991 44.9612 17.7137 43.9279 18.3736L43.9269 18.3743C42.3386 19.3934 40.0223 19.7605 37.8912 19.4177C37.5705 19.3661 37.2668 19.5733 37.2129 19.8804C37.159 20.1875 37.3754 20.4782 37.6961 20.5298C40.0578 20.9096 42.6933 20.5228 44.5815 19.3117C45.8604 18.4949 46.5778 17.3614 46.5778 16.1563C46.5778 14.9511 45.8604 13.8176 44.5815 13.0008L44.5805 13.0001Z" fill="#10E048"/>
<path fill-rule="evenodd" clip-rule="evenodd" d="M25.3778 6.01064C25.3778 3.51167 23.2767 1.5 20.6667 1.5C18.0552 1.5 15.9556 3.52839 15.9556 6.01064V6.01467C15.9738 8.45625 17.9795 10.4334 20.5016 10.5209C20.5411 10.5223 20.5807 10.5198 20.6197 10.5136C20.6515 10.5085 20.6979 10.5085 20.7296 10.5136C20.7687 10.5198 20.8082 10.5223 20.8478 10.5209C23.3691 10.4334 25.3778 8.45606 25.3778 6.01064ZM20.6667 2.62766C22.6262 2.62766 24.2 4.13446 24.2 6.01064C24.2 7.83263 22.7196 9.30276 20.8542 9.39196C20.7366 9.37887 20.6127 9.37887 20.4951 9.39196C18.631 9.30281 17.148 7.83349 17.1333 6.00864C17.1345 4.14725 18.7093 2.62766 20.6667 2.62766Z" fill="#10E048"/>
<path d="M14.4195 13.0001C16.3236 11.7897 18.9925 11.4022 21.3572 11.799C21.6776 11.8528 21.8918 12.145 21.8356 12.4517C21.7795 12.7585 21.4742 12.9635 21.1539 12.9098C19.0256 12.5526 16.6769 12.919 15.0716 13.9392C14.0387 14.5991 13.6 15.4135 13.6 16.1563C13.6 16.8991 14.0388 17.7137 15.0721 18.3736L15.0731 18.3743C16.6614 19.3934 18.9777 19.7605 21.1088 19.4177C21.4296 19.3661 21.7332 19.5733 21.7871 19.8804C21.841 20.1875 21.6247 20.4782 21.3039 20.5298C18.9422 20.9096 16.3067 20.5228 14.4185 19.3117C13.1396 18.4949 12.4222 17.3614 12.4222 16.1563C12.4222 14.9511 13.1396 13.8176 14.4185 13.0008L14.4195 13.0001Z" fill="#10E048"/>
<path fill-rule="evenodd" clip-rule="evenodd" d="M24.2 15.5957C24.2 12.7842 26.5636 10.5213 29.5 10.5213C32.4379 10.5213 34.8 12.8032 34.8 15.5957V15.5998C34.7795 18.3437 32.5256 20.591 29.6814 20.67C29.6433 20.671 29.6052 20.6685 29.5676 20.6625C29.5221 20.6553 29.4597 20.6553 29.4142 20.6625C29.3752 20.6688 29.3356 20.6712 29.2961 20.6698C26.4598 20.5715 24.2 18.3471 24.2 15.5957ZM29.5 11.6489C27.2141 11.6489 25.3778 13.407 25.3778 15.5957C25.3778 17.7233 27.1087 19.4402 29.2886 19.5409C29.4216 19.5255 29.5627 19.5256 29.6956 19.5412C31.868 19.4563 33.6052 17.7284 33.6222 15.5937C33.6211 13.422 31.7838 11.6489 29.5 11.6489Z" fill="#10E048"/>
<path fill-rule="evenodd" clip-rule="evenodd" d="M35.8216 23.1137C34.0622 22.2257 31.7689 21.7979 29.5078 21.7979C27.2464 21.7979 24.9487 22.2257 23.1798 23.113L23.1784 23.1137C21.6177 23.9014 20.6667 25.0302 20.6667 26.3026C20.6667 27.5749 21.6174 28.7035 23.1778 29.4912C24.947 30.387 27.2402 30.8191 29.5 30.8191C31.7597 30.8191 34.0527 30.3871 35.8219 29.4914C37.3824 28.7037 38.3333 27.575 38.3333 26.3026C38.3333 25.0302 37.3823 23.9014 35.8216 23.1137ZM21.8445 26.3026C21.8445 25.6244 22.3582 24.8026 23.727 24.1115C25.2828 23.3314 27.3797 22.9255 29.5078 22.9255C31.6364 22.9255 33.7277 23.3316 35.2724 24.1112C36.6416 24.8023 37.1556 25.6243 37.1556 26.3026C37.1556 26.9809 36.6416 27.8029 35.2724 28.494C33.7168 29.2816 31.6248 29.6915 29.5 29.6915C27.3752 29.6915 25.2839 29.282 23.7283 28.4944C22.3591 27.8032 21.8445 26.9809 21.8445 26.3026Z" fill="#10E048"/>
</svg>
