<svg width="60" height="61" viewBox="0 0 60 61" fill="none" xmlns="http://www.w3.org/2000/svg">
<path fill-rule="evenodd" clip-rule="evenodd" d="M44 15C44 20.2467 39.7467 24.5 34.5 24.5C29.2533 24.5 25 20.2467 25 15C25 9.75329 29.2533 5.5 34.5 5.5C39.7467 5.5 44 9.75329 44 15ZM45 15C45 19.537 42.1225 23.4019 38.0929 24.8692C46.0344 26.5264 52 33.5665 52 42V54.677C52 55.1315 51.6315 55.5 51.177 55.5H43.5H20C19.7293 55.5 19.4671 55.4642 19.2176 55.397C19.1428 55.4313 19.0677 55.4657 18.9922 55.5C10.9974 51.8551 7 48.2187 7 44.5909V30.9545C7 29.9078 7.39254 29.6646 8.47894 28.9913L8.479 28.9913C8.80792 28.7874 9.20044 28.5442 9.66493 28.2273C9.88051 28.0802 14.4128 25.5 18.9922 25.5C21.1845 25.5 23.1796 25.9115 24.8639 26.5084C26.5255 25.5659 28.3784 24.9215 30.3498 24.6479C26.6148 23.0391 24 19.3249 24 15C24 9.20101 28.701 4.5 34.5 4.5C40.299 4.5 45 9.20101 45 15ZM26.0822 26.994C26.9441 27.3776 27.6967 27.8024 28.3194 28.2273C28.7838 28.5441 29.1763 28.7873 29.5052 28.9912L29.5054 28.9913L29.5054 28.9913C30.5918 29.6646 30.9843 29.9078 30.9843 30.9545C31.0106 31.2508 30.9977 37.5506 30.9894 41.5837C30.9866 42.959 30.9843 44.0708 30.9843 44.5909C30.9843 47.8939 27.6862 51.197 21.09 54.5H30H43V39C43 38.7239 43.2239 38.5 43.5 38.5C43.7761 38.5 44 38.7239 44 39V54.5H51V42C51 32.8873 43.6127 25.5 34.5 25.5H32.5C30.1957 25.5 28.0169 26.0375 26.0822 26.994ZM29.9843 30.9545V30.9988L29.9883 31.0429C29.9878 31.0379 29.988 31.0463 29.9885 31.0716C29.9893 31.1123 29.991 31.1971 29.9925 31.3412C29.9946 31.5462 29.9962 31.8296 29.9974 32.1766C29.9997 32.8699 30.0003 33.8096 29.9998 34.8673C29.9989 36.9815 29.9936 39.5624 29.9895 41.5787V41.5799L29.9894 41.5816C29.9866 42.9563 29.9843 44.0694 29.9843 44.5909C29.9843 46.0141 29.2057 47.5843 27.3134 49.3057C25.4911 50.9635 22.7351 52.6666 18.9927 54.3995C15.25 52.6626 12.4936 50.9573 10.671 49.2993C8.778 47.5773 8 46.0093 8 44.5909V30.9545C8 30.5888 8.06069 30.5189 8.09082 30.4842L8.0947 30.4797C8.13424 30.4331 8.209 30.3629 8.36627 30.2518C8.52616 30.1389 8.726 30.0147 9.0057 29.8413L9.00913 29.8392C9.33799 29.6354 9.74585 29.3826 10.2285 29.0533C10.2277 29.0539 10.2305 29.0523 10.2368 29.0486C10.2862 29.0198 10.5511 28.8655 11.0154 28.6341C11.5181 28.3835 12.2183 28.0608 13.0497 27.7423C14.7258 27.1005 16.8742 26.5 18.9922 26.5C22.7643 26.5 25.9078 27.7925 27.7558 29.0533C28.2385 29.3826 28.6463 29.6354 28.9751 29.8391L28.9752 29.8392L28.9786 29.8413C29.2583 30.0147 29.4582 30.1389 29.6181 30.2518C29.7754 30.3629 29.8501 30.4331 29.8896 30.4797L29.8935 30.4842C29.9237 30.5189 29.9843 30.5888 29.9843 30.9545Z" fill="#10E048"/>
</svg>
