<svg width="60" height="60" viewBox="0 0 60 60" fill="none" xmlns="http://www.w3.org/2000/svg">
<mask id="path-1-inside-1_479_12057" fill="white">
<path fill-rule="evenodd" clip-rule="evenodd" d="M43.0036 6C43.0036 5.44772 42.5559 5 42.0036 5H18.0036C17.4513 5 17.0036 5.44772 17.0036 6V29C17.0036 29.5523 16.5559 30 16.0036 30H6.48638C5.58599 30 5.14425 31.0968 5.79328 31.7208L29.3105 54.3335C29.6976 54.7058 30.3096 54.7058 30.6967 54.3335L54.2139 31.7208C54.863 31.0968 54.4212 30 53.5208 30H44.0036C43.4513 30 43.0036 29.5523 43.0036 29V6Z"/>
</mask>
<path d="M29.3105 54.3335L28.6174 55.0544L29.3105 54.3335ZM30.6967 54.3335L30.0036 53.6127L30.6967 54.3335ZM18.0036 6H42.0036V4H18.0036V6ZM18.0036 29V6H16.0036V29H18.0036ZM6.48638 31H16.0036V29H6.48638V31ZM30.0036 53.6127L6.48639 31L5.10017 32.4417L28.6174 55.0544L30.0036 53.6127ZM53.5208 31L30.0036 53.6127L31.3898 55.0544L54.907 32.4417L53.5208 31ZM44.0036 31H53.5208V29H44.0036V31ZM42.0036 6V29H44.0036V6H42.0036ZM44.0036 29H42.0036C42.0036 30.1046 42.899 31 44.0036 31V29ZM54.907 32.4417C56.2051 31.1935 55.3216 29 53.5208 29V31L54.907 32.4417ZM28.6174 55.0544C29.3916 55.7988 30.6156 55.7988 31.3898 55.0544L30.0036 53.6127L30.0036 53.6127L28.6174 55.0544ZM6.48638 29C4.68559 29 3.80212 31.1935 5.10017 32.4417L6.48639 31L6.48638 31V29ZM16.0036 29V31C17.1082 31 18.0036 30.1046 18.0036 29H16.0036ZM42.0036 6H44.0036C44.0036 4.89543 43.1082 4 42.0036 4V6ZM18.0036 4C16.899 4 16.0036 4.89543 16.0036 6H18.0036V6V4Z" fill="#10E048" mask="url(#path-1-inside-1_479_12057)"/>
<path d="M36.2552 24.063C36.4553 23.8385 36.4339 23.4862 36.2075 23.2763C35.981 23.0663 35.6352 23.0781 35.4352 23.3026L24.8269 35.2057C24.6268 35.4302 24.6482 35.7825 24.8746 35.9925C25.1011 36.2024 25.4469 36.1907 25.647 35.9661L36.2552 24.063Z" fill="#10E048"/>
<path fill-rule="evenodd" clip-rule="evenodd" d="M23.4599 24.6006C23.4388 23.0824 24.6315 21.8691 26.1239 21.8905C27.6164 21.912 28.8434 23.1602 28.8645 24.6784C28.8856 26.1966 27.6928 27.4099 26.2004 27.3885C24.708 27.367 23.481 26.1188 23.4599 24.6006ZM26.1394 23.0036C25.2513 22.9909 24.5415 23.7129 24.5541 24.6164C24.5667 25.5198 25.2968 26.2626 26.1849 26.2753C27.073 26.2881 27.7828 25.5661 27.7702 24.6626C27.7577 23.7592 27.0275 23.0164 26.1394 23.0036Z" fill="#10E048"/>
<path fill-rule="evenodd" clip-rule="evenodd" d="M34.8668 30.7843C33.3743 30.7629 32.1816 31.9762 32.2027 33.4944C32.2238 35.0126 33.4508 36.2608 34.9432 36.2823C36.4356 36.3037 37.6284 35.0904 37.6073 33.5722C37.5862 32.054 36.3592 30.8058 34.8668 30.7843ZM33.2969 33.5101C33.2843 32.6067 33.9941 31.8847 34.8822 31.8974C35.7704 31.9102 36.5005 32.653 36.5131 33.5564C36.5256 34.4599 35.8158 35.1819 34.9277 35.1691C34.0396 35.1564 33.3095 34.4136 33.2969 33.5101Z" fill="#10E048"/>
</svg>
