<svg width="60" height="60" viewBox="0 0 60 60" fill="none" xmlns="http://www.w3.org/2000/svg">
<g clip-path="url(#clip0_479_12051)">
<path d="M43.2773 41.7656L52.5986 50.6686C52.79 50.8593 52.9205 51.1029 52.9735 51.3684C53.0265 51.634 52.9996 51.9093 52.8963 52.1594C52.7929 52.4095 52.6178 52.623 52.3932 52.7727C52.1687 52.9225 51.9048 53.0016 51.6353 53H9.35684C8.99699 53 8.65188 52.8563 8.39743 52.6006C8.14297 52.345 8.00002 51.9982 8.00002 51.6366V44.8242C8.00002 44.7689 8.04479 44.7242 8.10002 44.7242H10.8443C10.8995 44.7242 10.9443 44.6794 10.9443 44.6242V42.6427C10.9443 42.5875 10.8995 42.5427 10.8443 42.5427H8.10002C8.04479 42.5427 8.00002 42.498 8.00002 42.4427V33.5762C8.00002 33.5209 8.04479 33.4762 8.10002 33.4762H10.8443C10.8995 33.4762 10.9443 33.4314 10.9443 33.3762V31.3947C10.9443 31.3395 10.8995 31.2947 10.8443 31.2947H8.10002C8.04479 31.2947 8.00002 31.25 8.00002 31.1947V22.669C8.00002 22.6138 8.04479 22.569 8.10002 22.569H10.8443C10.8995 22.569 10.9443 22.5242 10.9443 22.469V20.4876C10.9443 20.4323 10.8995 20.3876 10.8443 20.3876H8.10002C8.04479 20.3876 8.00002 20.3428 8.00002 20.2876V9.37132C7.99846 9.10052 8.07718 8.83538 8.22616 8.60971C8.37514 8.38405 8.58763 8.20807 8.83653 8.10422C9.08543 8.00038 9.35946 7.97337 9.6237 8.02664C9.88794 8.0799 10.1304 8.21104 10.3202 8.40331L37.85 36M43.2773 41.7656L38.85 41.7656C38.2977 41.7656 37.85 42.2133 37.85 42.7656V44.0787C37.85 44.6309 38.2977 45.0787 38.85 45.0787H42.2773C42.8296 45.0787 43.2773 44.6309 43.2773 44.0787L43.2773 41.7656ZM29.4615 40.4961L20.563 31.5643C19.9336 30.9326 18.8546 31.3783 18.8546 32.2701V41.2019C18.8546 41.7542 19.3023 42.2019 19.8546 42.2019H28.7531C29.6431 42.2019 30.0896 41.1266 29.4615 40.4961ZM43.1563 19.1556L41.3867 15.8926C41.0032 15.1855 39.9842 15.1976 39.6175 15.9135L37.9599 19.1504C37.8877 19.2914 37.85 19.4477 37.85 19.6062V38.6251C37.85 39.1774 38.2977 39.6251 38.85 39.6251H42.2773C42.8296 39.6251 43.2773 39.1774 43.2773 38.6251V19.6324C43.2773 19.4659 43.2357 19.302 43.1563 19.1556Z" stroke="#10E048"/>
</g>
<defs>
<clipPath id="clip0_479_12051">
<rect width="60" height="60" fill="white"/>
</clipPath>
</defs>
</svg>
