<svg width="60" height="60" viewBox="0 0 60 60" fill="none" xmlns="http://www.w3.org/2000/svg">
<path fill-rule="evenodd" clip-rule="evenodd" d="M17.1429 14.5C16.2525 14.5 15.5 15.2538 15.5 16.2222V25.1111C15.5 25.3873 15.2761 25.6111 15 25.6111C14.7239 25.6111 14.5 25.3873 14.5 25.1111V16.2222C14.5 14.7361 15.6662 13.5 17.1429 13.5H25H36H42.8571C44.3338 13.5 45.5 14.7361 45.5 16.2222V34C45.5 34.2761 45.2761 34.5 45 34.5C44.7239 34.5 44.5 34.2761 44.5 34V16.2222C44.5 15.2538 43.7475 14.5 42.8571 14.5H36.5V24C36.5 24.2761 36.2761 24.5 36 24.5H25C24.7239 24.5 24.5 24.2761 24.5 24V14.5H17.1429ZM25.5 14.5V23.5H35.5V14.5H25.5ZM4.33253 38.8279C5.53048 37.7611 7.33297 36.4234 9.43302 35.3547L29.8106 44.187L24.286 42.6027C24.0205 42.5266 23.7436 42.6801 23.6675 42.9455C23.5914 43.2109 23.7449 43.4878 24.0103 43.564L31.5659 45.7306C31.6382 45.7514 31.7143 45.7555 31.7885 45.7428L31.7037 45.25C31.7885 45.7428 31.7886 45.7427 31.7887 45.7427L31.7893 45.7426L31.7919 45.7422L31.8021 45.7404L31.8426 45.7335L32.0009 45.7063C32.1397 45.6825 32.3437 45.6477 32.6043 45.6032C33.1254 45.5144 33.8727 45.3875 34.7774 45.2353C36.5869 44.9307 39.0256 44.5246 41.5426 44.1186C44.0601 43.7125 46.654 43.3068 48.7747 43.0028C50.9159 42.6957 52.5259 42.5 53.1111 42.5C53.6782 42.5 54.0296 42.6232 54.2271 42.7719C54.406 42.9066 54.5 43.0915 54.5 43.3542C54.5 43.9422 54.0125 44.8983 52.785 45.9543C51.5482 47.0183 48.7434 49.1639 45.3155 51.0406C41.8769 52.923 37.8738 54.5 34.2222 54.5C30.5174 54.5 27.4248 53.7042 24.6008 52.8944C24.3143 52.8122 24.0299 52.7297 23.7474 52.6477C21.2681 51.928 18.9324 51.25 16.5926 51.25H16.5631H16.5335H16.5038H16.4741H16.4443H16.4145H16.3846H16.3547H16.3247H16.2947H16.2646H16.2344H16.2042H16.174H16.1437H16.1133H16.0829H16.0524H16.0219H15.9914H15.9608H15.9301H15.8994H15.8687H15.8379H15.8071H15.7762H15.7453H15.7143H15.6833H15.6522H15.6211H15.5899H15.5588H15.5275H15.4962H15.4649H15.4336H15.4022H15.3707H15.3393H15.3077H15.2762H15.2446H15.2129H15.1813H15.1496H15.1178H15.086H15.0542H15.0224H14.9905H14.9586H14.9266H14.8946H14.8626H14.8306H14.7985H14.7664H14.7342H14.702H14.6698H14.6376H14.6053H14.573H14.5407H14.5084H14.476H14.4436H14.4111H14.3787H14.3462H14.3137H14.2812H14.2486H14.216H14.1834H14.1508H14.1181H14.0855H14.0528H14.02H13.9873H13.9545H13.9218H13.889H13.8562H13.8233H13.7905H13.7576H13.7247H13.6918H13.6589H13.626H13.593H13.56H13.5271H13.4941H13.4611H13.428H13.395H13.362H13.3289H13.2958H13.2628H13.2297H13.1966H13.1635H13.1303H13.0972H13.0641H13.0309H12.9978H12.9646H12.9315H12.8983H12.8651H12.832H12.7988H12.7656H12.7324H12.6992H12.666H12.6328H12.5996H12.5664H12.5332H12.5H12.4668H12.4336H12.4004H12.3672H12.334H12.3008H12.2676H12.2344H12.2012H12.168H12.1349H12.1017H12.0685H12.0354H12.0022H11.9691H11.9359H11.9028H11.8697H11.8365H11.8034H11.7703H11.7372H11.7042H11.6711H11.638H11.605H11.572H11.5389H11.5059H11.4729H11.44H11.407H11.374H11.3411H11.3082H11.2753H11.2424H11.2095H11.1767H11.1438H11.111H11.0782H11.0455H11.0127H10.98H10.9473H10.9146H10.8819H10.8492H10.8166H10.784H10.7514H10.7189H10.6863H10.6538H10.6213H10.5889H10.5564H10.524H10.4917H10.4593H10.427H10.3947H10.3624H10.3302H10.298H10.2658H10.2336H10.2015H10.1694H10.1374H10.1054H10.0734H10.0414H10.0095H9.97763H9.94578H9.91396H9.88218H9.85044H9.81873H9.78706H9.75543H9.72383H9.69228H9.66076H9.62928H9.59784H9.56644H9.53508H9.50376H9.47249H9.44125H9.41006H9.37891H9.34781H9.31674H9.28572H9.25475H9.22382H9.19294H9.1621H9.13131H9.10057H9.06987H9.03922H9.00862H8.97807H8.94756H8.91711H8.88671H8.85635H8.82605H8.7958H8.7656H8.73545H8.70536H8.67532H8.64533H8.6154H8.58552H8.55569H8.52592H8.49621H8.46656H8.43695H8.40741H8.37793H8.3485H8.31913H8.28982H8.26057H8.23138H8.20225H8.17318H8.14418H8.11523H8.08635H8.05753H8.02877H8.00007H7.97144H7.94288H7.91437H7.88594H7.85757H7.82926H7.80103H7.77286H7.74475H7.71672H7.68875H7.66085H7.63303H7.60527H7.57758H7.54996H7.52242H7.49494H7.46754H7.44021H7.41295H7.38577H7.35866H7.33162H7.30466H7.27778H7.25097H7.22423H7.19758H7.17099H7.14449H7.11807H7.09172H7.06545H7.03926H7.01316H6.98713H6.96118H6.93531H6.90953H6.88382H6.8582H6.83266H6.80721H6.78184H6.75655H6.73135H6.70623H6.6812H6.65626H6.6314H6.60662H6.58194H6.55734H6.53283H6.50841H6.48408H6.45984H6.43569H6.41163H6.38766H6.36378H6.34H6.3163H6.2927H6.26919H6.24578H6.22246H6.19923H6.1761H6.15307H6.13013H6.10728H6.08454H6.06189H6.03934H6.01689H5.99453H5.97228H5.95012H5.92807H5.90611H5.88426H5.8625H5.84085H5.8193H5.79786H5.77651H5.75527H5.73414H5.71311H5.69218H5.67136H5.65065H5.63004H5.60953H5.58914H5.56885H5.54867H5.5286H5.50864H5.48879H5.46905H5.44942H5.42989H5.41048H5.39119H5.372H5.35293H5.33397H5.31512H5.29639H5.27777H5.25926H5.24088H5.2226H5.20445H5.18641H5.16848H5.15068H5.13299H5.11542H5.09797H5.08064H5.06343H5.04634H5.02937H5.01252H4.9958H4.97919H4.96271H4.94635H4.93011H4.914H4.89801H4.88215H4.86641H4.8508H4.83531H4.81995H4.80472H4.78961H4.77463H4.75979H4.74506H4.73047H4.71601H4.70168H4.68748H4.67341H4.65947H4.64567H4.63199H4.61845H4.60504H4.59177H4.57863H4.56563H4.55276H4.54002H4.52742H4.51496H4.50264H4.49045H4.4784H4.46649H4.45471H4.44308H4.43159H4.42023H4.40902H4.39795H4.38701H4.37623H4.36558H4.35507H4.34471H4.3345H4.32442H4.31449H4.30471H4.29507H4.28558H4.27623H4.26703H4.25798H4.24908H4.24032H4.23172H4.22326H4.21495H4.20679H4.19878H4.19092H4.18322H4.17566H4.16826H4.16101H4.15391H4.14697H4.14018H4.13355H4.12707H4.12074H4.11458H4.10856H4.10271H4.09701H4.09147H4.08609H4.08086H4.0758H4.07089H4.06615H4.06156H4.05714H4.05287H4.04877H4.04483H4.04106H4.03744H4.03399H4.0307H4.02758H4.02463H4.02183H4.01921H4.01675H4.01445H4.01233H4.01037H4.00858H4.00695H4.0055H4.00422H4.0031H4.00216H4.00138H4.00078H4.00035H4.00009L4.00001 51.75V51.25C3.72386 51.25 3.50001 51.4739 3.50001 51.75C3.50001 52.0261 3.72386 52.25 4.00001 52.25V51.75L4.00009 52.25H4.00035H4.00078H4.00138H4.00216H4.0031H4.00422H4.0055H4.00695H4.00858H4.01037H4.01233H4.01445H4.01675H4.01921H4.02183H4.02463H4.02758H4.0307H4.03399H4.03744H4.04106H4.04483H4.04877H4.05287H4.05714H4.06156H4.06615H4.07089H4.0758H4.08086H4.08609H4.09147H4.09701H4.10271H4.10856H4.11458H4.12074H4.12707H4.13355H4.14018H4.14697H4.15391H4.16101H4.16826H4.17566H4.18322H4.19092H4.19878H4.20679H4.21495H4.22326H4.23172H4.24032H4.24908H4.25798H4.26703H4.27623H4.28558H4.29507H4.30471H4.31449H4.32442H4.3345H4.34471H4.35507H4.36558H4.37623H4.38701H4.39795H4.40902H4.42023H4.43159H4.44308H4.45471H4.46649H4.4784H4.49045H4.50264H4.51496H4.52742H4.54002H4.55276H4.56563H4.57863H4.59177H4.60504H4.61845H4.63199H4.64567H4.65947H4.67341H4.68748H4.70168H4.71601H4.73047H4.74506H4.75979H4.77463H4.78961H4.80472H4.81995H4.83531H4.8508H4.86641H4.88215H4.89801H4.914H4.93011H4.94635H4.96271H4.97919H4.9958H5.01252H5.02937H5.04634H5.06343H5.08064H5.09797H5.11542H5.13299H5.15068H5.16848H5.18641H5.20445H5.2226H5.24088H5.25926H5.27777H5.29639H5.31512H5.33397H5.35293H5.372H5.39119H5.41048H5.42989H5.44942H5.46905H5.48879H5.50864H5.5286H5.54867H5.56885H5.58914H5.60953H5.63004H5.65065H5.67136H5.69218H5.71311H5.73414H5.75527H5.77651H5.79786H5.8193H5.84085H5.8625H5.88426H5.90611H5.92807H5.95012H5.97228H5.99453H6.01689H6.03934H6.06189H6.08454H6.10728H6.13013H6.15307H6.1761H6.19923H6.22246H6.24578H6.26919H6.2927H6.3163H6.34H6.36378H6.38766H6.41163H6.43569H6.45984H6.48408H6.50841H6.53283H6.55734H6.58194H6.60662H6.6314H6.65626H6.6812H6.70623H6.73135H6.75655H6.78184H6.80721H6.83266H6.8582H6.88382H6.90953H6.93531H6.96118H6.98713H7.01316H7.03926H7.06545H7.09172H7.11807H7.14449H7.17099H7.19758H7.22423H7.25097H7.27778H7.30466H7.33162H7.35866H7.38577H7.41295H7.44021H7.46754H7.49494H7.52242H7.54996H7.57758H7.60527H7.63303H7.66085H7.68875H7.71672H7.74475H7.77286H7.80103H7.82926H7.85757H7.88594H7.91437H7.94288H7.97144H8.00007H8.02877H8.05753H8.08635H8.11523H8.14418H8.17318H8.20225H8.23138H8.26057H8.28982H8.31913H8.3485H8.37793H8.40741H8.43695H8.46656H8.49621H8.52592H8.55569H8.58552H8.6154H8.64533H8.67532H8.70536H8.73545H8.7656H8.7958H8.82605H8.85635H8.88671H8.91711H8.94756H8.97807H9.00862H9.03922H9.06987H9.10057H9.13131H9.1621H9.19294H9.22382H9.25475H9.28572H9.31674H9.34781H9.37891H9.41006H9.44125H9.47249H9.50376H9.53508H9.56644H9.59784H9.62928H9.66076H9.69228H9.72383H9.75543H9.78706H9.81873H9.85044H9.88218H9.91396H9.94578H9.97763H10.0095H10.0414H10.0734H10.1054H10.1374H10.1694H10.2015H10.2336H10.2658H10.298H10.3302H10.3624H10.3947H10.427H10.4593H10.4917H10.524H10.5564H10.5889H10.6213H10.6538H10.6863H10.7189H10.7514H10.784H10.8166H10.8492H10.8819H10.9146H10.9473H10.98H11.0127H11.0455H11.0782H11.111H11.1438H11.1767H11.2095H11.2424H11.2753H11.3082H11.3411H11.374H11.407H11.44H11.4729H11.5059H11.5389H11.572H11.605H11.638H11.6711H11.7042H11.7372H11.7703H11.8034H11.8365H11.8697H11.9028H11.9359H11.9691H12.0022H12.0354H12.0685H12.1017H12.1349H12.168H12.2012H12.2344H12.2676H12.3008H12.334H12.3672H12.4004H12.4336H12.4668H12.5H12.5332H12.5664H12.5996H12.6328H12.666H12.6992H12.7324H12.7656H12.7988H12.832H12.8651H12.8983H12.9315H12.9646H12.9978H13.0309H13.0641H13.0972H13.1303H13.1635H13.1966H13.2297H13.2628H13.2958H13.3289H13.362H13.395H13.428H13.4611H13.4941H13.5271H13.56H13.593H13.626H13.6589H13.6918H13.7247H13.7576H13.7905H13.8233H13.8562H13.889H13.9218H13.9545H13.9873H14.02H14.0528H14.0855H14.1181H14.1508H14.1834H14.216H14.2486H14.2812H14.3137H14.3462H14.3787H14.4111H14.4436H14.476H14.5084H14.5407H14.573H14.6053H14.6376H14.6698H14.702H14.7342H14.7664H14.7985H14.8306H14.8626H14.8946H14.9266H14.9586H14.9905H15.0224H15.0542H15.086H15.1178H15.1496H15.1813H15.2129H15.2446H15.2762H15.3077H15.3393H15.3707H15.4022H15.4336H15.4649H15.4962H15.5275H15.5588H15.5899H15.6211H15.6522H15.6833H15.7143H15.7453H15.7762H15.8071H15.8379H15.8687H15.8994H15.9301H15.9608H15.9914H16.0219H16.0524H16.0829H16.1133H16.1437H16.174H16.2042H16.2344H16.2646H16.2947H16.3247H16.3547H16.3846H16.4145H16.4443H16.4741H16.5038H16.5335H16.5631H16.5926C18.7811 52.25 20.9739 52.8854 23.4813 53.612C23.7586 53.6923 24.0397 53.7738 24.3251 53.8556C27.1678 54.6708 30.3715 55.5 34.2222 55.5C38.1262 55.5 42.3083 53.827 45.7957 51.9177C49.2936 50.0028 52.1555 47.815 53.4372 46.7124C54.7282 45.6017 55.5 44.3912 55.5 43.3542C55.5 42.8043 55.2792 42.3122 54.8285 41.9729C54.3963 41.6476 53.8033 41.5 53.1111 41.5C52.437 41.5 50.7415 41.7105 48.6327 42.0129C46.5035 42.3182 43.9029 42.725 41.3833 43.1314C38.8633 43.5379 36.4223 43.9443 34.6115 44.2491C33.706 44.4015 32.958 44.5285 32.4363 44.6175L32.4073 44.6224C32.8445 44.3019 33.3496 43.9011 33.8209 43.4534C34.412 42.8919 34.9883 42.2212 35.2868 41.5122C35.5968 40.7761 35.6195 39.9501 35.0074 39.2234C34.7302 38.8942 34.2985 38.5555 33.7818 38.2189C33.2576 37.8773 32.6156 37.5187 31.8921 37.1554C30.4446 36.4287 28.6459 35.6713 26.7568 34.9846C23.0002 33.6192 18.7945 32.5 16.25 32.5C13.6936 32.5 11.1639 33.3519 8.97949 34.4635C6.79204 35.5766 4.91953 36.9661 3.66748 38.0811C3.46126 38.2648 3.44296 38.5808 3.62661 38.7871C3.81026 38.9933 4.12631 39.0116 4.33253 38.8279ZM9.43302 35.3547C11.5361 34.2845 13.9064 33.5 16.25 33.5C18.6055 33.5 22.6685 34.5626 26.4151 35.9245C28.2776 36.6014 30.039 37.344 31.4434 38.0491C32.1459 38.4018 32.7529 38.742 33.2359 39.0567C33.7265 39.3763 34.0604 39.6513 34.2426 39.8675C34.5492 40.2317 34.572 40.633 34.3652 41.1241C34.1469 41.6424 33.6895 42.199 33.1322 42.7284C32.5827 43.2504 31.973 43.7117 31.4963 44.0446C31.259 44.2104 31.0568 44.3429 30.9146 44.4334C30.8868 44.4511 30.8613 44.4673 30.8383 44.4817L29.8115 44.1872L9.43302 35.3547Z" fill="#10E048"/>
</svg>
