<svg width="60" height="60" viewBox="0 0 60 60" fill="none" xmlns="http://www.w3.org/2000/svg">
<path d="M3.22199 49.3805L3.22194 49.3806C2.574 50.3475 3.26786 51.655 4.43573 51.655H11.0682H11.3772L11.5154 51.9314L14.8948 58.6912L3.22199 49.3805ZM3.22199 49.3805L10.0835 39.138C10.5812 41.39 11.873 43.3915 13.7747 44.7727L14.0686 44.3681M3.22199 49.3805L14.0686 44.3681M14.0686 44.3681L13.7747 44.7727M14.0686 44.3681L13.7747 44.7727M13.7747 44.7727C16.444 46.7111 19.2129 46.9113 22.1497 46.1825M13.7747 44.7727L22.1497 46.1825M22.1497 46.1825C22.7518 46.9202 23.2495 47.485 24.1221 48.1144L17.4417 58.8116C17.4417 58.8116 17.4417 58.8117 17.4416 58.8117C17.4416 58.8118 17.4416 58.8118 17.4416 58.8118C16.8371 59.7781 15.4074 59.7137 14.895 58.6916L22.1497 46.1825Z" stroke="#10E048"/>
<path d="M56.7784 49.3823L56.7783 49.3822L49.5335 38.5768C49.0816 41.2868 47.7292 43.3352 45.7455 44.7753L56.7784 49.3823ZM56.7784 49.3823C57.4262 50.3478 56.7327 51.657 55.5647 51.657H48.9323H48.6232M56.7784 49.3823L48.6232 51.657M48.6232 51.657L48.485 51.9334M48.6232 51.657L48.485 51.9334M48.485 51.9334L45.1057 58.6932M48.485 51.9334L45.1057 58.6932M37.3721 46.1839C36.8608 46.8129 36.4526 47.2905 35.7175 47.8684L42.5586 58.814L37.3721 46.1839ZM37.3721 46.1839C40.2724 46.903 43.0474 46.7351 45.7454 44.7754L37.3721 46.1839ZM45.1057 58.6932C44.5936 59.7151 43.1637 59.7803 42.5588 58.8143L45.1057 58.6932Z" stroke="#10E048"/>
<path d="M45.9545 12.146L45.9543 12.1459C45.3324 11.9076 44.9061 11.3232 44.8717 10.6565L44.8717 10.6565C44.8573 10.3751 44.847 10.1004 44.837 9.83215C44.76 7.76985 44.6973 6.09221 42.8531 4.75255C41.018 3.4202 39.4283 3.86844 37.3919 4.44266C37.1406 4.51352 36.8824 4.5863 36.6162 4.65789C35.9759 4.83052 35.2866 4.60877 34.8649 4.0895L34.8641 4.08862C34.687 3.86948 34.5171 3.65326 34.3513 3.44219C33.0759 1.81879 32.0398 0.5 29.7617 0.5C27.496 0.5 26.4779 1.7897 25.1575 3.46221C24.9965 3.66617 24.831 3.87581 24.6581 4.08951L45.9545 12.146ZM45.9545 12.146C46.2117 12.2445 46.4631 12.3372 46.7079 12.4275C48.6935 13.1602 50.2441 13.7323 50.9445 15.8895C51.6472 18.054 50.7162 19.443 49.6271 21.068C49.4904 21.272 49.3512 21.4797 49.2125 21.6931M45.9545 12.146L22.9089 4.65786M22.9089 4.65786L22.9087 4.65778C22.636 4.58446 22.371 4.5092 22.1123 4.43573C20.1265 3.8718 18.5141 3.41387 16.6703 4.75314L16.6702 4.75324C14.8345 6.08565 14.7696 7.73849 14.6866 9.85418C14.6763 10.1147 14.6658 10.3822 14.6517 10.657L14.6517 10.6574C14.6171 11.3231 14.1929 11.9072 13.5704 12.1458L13.5702 12.1459C13.3068 12.2467 13.0484 12.3415 12.7961 12.434C10.8594 13.1443 9.28414 13.7221 8.57872 15.8898C7.8781 18.0482 8.79365 19.4178 9.9721 21.1807C10.1172 21.3979 10.2664 21.6209 10.417 21.8522L10.4173 21.8528C10.7802 22.4116 10.7802 23.1331 10.4173 23.692L10.4169 23.6925C10.2626 23.9294 10.1085 24.1585 9.95795 24.3825C8.81472 26.0827 7.87339 27.4827 8.57876 29.6557C9.281 31.8126 10.8271 32.3832 12.8157 33.117C13.0608 33.2075 13.3125 33.3004 13.5702 33.399L13.5704 33.3991C14.1931 33.6377 14.6173 34.2219 14.6517 34.8884L14.6517 34.8886C14.6662 35.1697 14.6764 35.4442 14.6864 35.7124C14.7632 37.7729 14.8259 39.4531 16.6702 40.7918L16.6704 40.7919C18.5056 42.1253 20.0959 41.6767 22.1332 41.1021C22.384 41.0314 22.6416 40.9587 22.9072 40.8873L22.9078 40.8871C23.5549 40.7139 24.2387 40.9383 24.6587 41.4558L24.6594 41.4566C24.8368 41.6762 25.0069 41.8928 25.1729 42.1043C26.4465 43.7265 27.4815 45.0449 29.7617 45.0449C32.0291 45.0449 33.0497 43.7515 34.3622 42.0881C34.5245 41.8824 34.6913 41.6711 34.8654 41.4558C35.2848 40.9356 35.9802 40.7129 36.6161 40.8875C36.8898 40.961 37.1556 41.0364 37.4147 41.1098C39.4078 41.6749 41.0124 42.1298 42.853 40.7925L42.853 40.7924C44.6885 39.4592 44.7535 37.8078 44.8367 35.6924C44.847 35.4322 44.8575 35.165 44.8716 34.8905L44.8716 34.8903C44.9062 34.2223 45.3317 33.6379 45.9541 33.3992L45.9544 33.3991C46.2172 33.2985 46.475 33.204 46.7269 33.1116C48.6621 32.4018 50.2411 31.8226 50.9444 29.6561L51.4199 29.8105L50.9444 29.656C51.6419 27.5076 50.7297 26.1368 49.5988 24.4376C49.4716 24.2464 49.3416 24.0511 49.2109 23.8501M22.9089 4.65786C23.5537 4.83081 24.2384 4.60896 24.658 4.08973L22.9089 4.65786ZM49.2109 23.8501L49.63 23.5775L49.2113 23.8507C49.2111 23.8505 49.211 23.8503 49.2109 23.8501ZM49.2109 23.8501C48.7838 23.1949 48.784 22.349 49.2125 21.6931M49.2125 21.6931C49.2126 21.6929 49.2127 21.6928 49.2128 21.6926L49.6313 21.9661L49.2121 21.6936C49.2122 21.6934 49.2123 21.6932 49.2125 21.6931Z" stroke="#10E048"/>
<path d="M21.5 23C21.5 18.3133 25.3133 14.5 30 14.5C34.6867 14.5 38.5 18.3132 38.5 23C38.5 27.6867 34.6867 31.5 30 31.5C25.3133 31.5 21.5 27.6867 21.5 23Z" stroke="#10E048"/>
</svg>
