<svg width="69" height="75" viewBox="0 0 69 75" fill="none" xmlns="http://www.w3.org/2000/svg">
<g filter="url(#filter0_d_2233_126805)">
<path d="M25.5235 12.1585C27.758 13.0204 30.2907 12.1974 31.5919 10.1868C33.1916 7.71479 36.8084 7.71479 38.4081 10.1868C39.7093 12.1974 42.242 13.0204 44.4765 12.1585C47.2237 11.0989 50.1497 13.2248 49.9909 16.165C49.8618 18.5565 51.4271 20.7109 53.7414 21.327C56.5867 22.0846 57.7044 25.5244 55.8477 27.8097C54.3376 29.6685 54.3376 32.3315 55.8477 34.1903C57.7044 36.4756 56.5867 39.9154 53.7414 40.673C51.4271 41.2891 49.8618 43.4435 49.9909 45.835C50.1497 48.7752 47.2237 50.9011 44.4765 49.8415C42.242 48.9796 39.7093 49.8026 38.4081 51.8132C36.8084 54.2852 33.1916 54.2852 31.5919 51.8132C30.2907 49.8026 27.758 48.9796 25.5235 49.8415C22.7763 50.9011 19.8503 48.7752 20.0091 45.835C20.1382 43.4435 18.5729 41.2891 16.2586 40.673C13.4133 39.9154 12.2956 36.4756 14.1523 34.1903C15.6624 32.3315 15.6624 29.6685 14.1523 27.8097C12.2956 25.5244 13.4133 22.0846 16.2586 21.327C18.5729 20.7109 20.1382 18.5565 20.0091 16.165C19.8503 13.2248 22.7763 11.0989 25.5235 12.1585Z" stroke="#10E048" shape-rendering="crispEdges"/>
</g>
<g filter="url(#filter1_d_2233_126805)">
<path fill-rule="evenodd" clip-rule="evenodd" d="M7.80658 57.1022C6.93693 58.4 7.86635 60.155 9.43573 60.155H16.0682L19.4478 66.9152C20.1354 68.2878 22.0551 68.373 22.8657 67.0767L29.7993 55.9738C28.6233 55.1986 28.1183 54.5844 27.3353 53.618C24.3848 54.4127 21.6796 54.2643 19.0686 52.3681C17.3254 51.1022 16.1231 49.2864 15.6197 47.236C15.504 46.7648 15.4253 46.2812 15.3853 45.7891L7.80658 57.1022ZM14.895 48.3177L8.63739 57.6588C8.21116 58.2948 8.66937 59.155 9.43573 59.155H16.6863L20.3419 66.4673C20.679 67.1388 21.6194 67.1831 22.0176 66.5468C22.0177 66.5467 22.0176 66.5468 22.0176 66.5468L28.4559 56.2371C27.8426 55.7495 27.4114 55.2809 26.9619 54.741C24.0305 55.4068 21.2035 55.1545 18.4809 53.1772C16.7862 51.9465 15.5518 50.2474 14.895 48.3177Z" fill="#10E048"/>
</g>
<g filter="url(#filter2_d_2233_126805)">
<path fill-rule="evenodd" clip-rule="evenodd" d="M61.6661 57.1022C62.5357 58.4 61.6063 60.155 60.0369 60.155H53.4045L50.0249 66.9152C49.3372 68.2878 47.4176 68.373 46.607 67.0767L39.6733 55.9738C40.8493 55.1986 41.3544 54.5844 42.1373 53.618C45.0879 54.4127 47.793 54.2643 50.4041 52.3681C52.1472 51.1022 53.3496 49.2864 53.853 47.236C53.9686 46.7648 54.0474 46.2812 54.0873 45.7891L61.6661 57.1022ZM54.5776 48.3177L60.8353 57.6588C61.2615 58.2948 60.8033 59.155 60.0369 59.155H52.7864L49.1308 66.4673C48.7937 67.1388 47.8532 67.1831 47.455 66.5468C47.455 66.5467 47.4551 66.5468 47.455 66.5468L41.0167 56.2371C41.6301 55.7495 42.0612 55.2809 42.5107 54.741C45.4421 55.4068 48.2691 55.1545 50.9917 53.1772C52.6865 51.9465 53.9209 50.2474 54.5776 48.3177Z" fill="#10E048"/>
</g>
<g filter="url(#filter3_d_2233_126805)">
<circle cx="35" cy="31" r="8.5" stroke="#10E048" shape-rendering="crispEdges"/>
</g>
<defs>
<filter id="filter0_d_2233_126805" x="5.74023" y="0.832764" width="58.5195" height="60.3345" filterUnits="userSpaceOnUse" color-interpolation-filters="sRGB">
<feFlood flood-opacity="0" result="BackgroundImageFix"/>
<feColorMatrix in="SourceAlpha" type="matrix" values="0 0 0 0 0 0 0 0 0 0 0 0 0 0 0 0 0 0 127 0" result="hardAlpha"/>
<feOffset/>
<feGaussianBlur stdDeviation="3.5"/>
<feComposite in2="hardAlpha" operator="out"/>
<feColorMatrix type="matrix" values="0 0 0 0 0 0 0 0 0 1 0 0 0 0 0.268041 0 0 0 1 0"/>
<feBlend mode="normal" in2="BackgroundImageFix" result="effect1_dropShadow_2233_126805"/>
<feBlend mode="normal" in="SourceGraphic" in2="effect1_dropShadow_2233_126805" result="shape"/>
</filter>
<filter id="filter1_d_2233_126805" x="0.472656" y="38.7891" width="36.3262" height="36.21" filterUnits="userSpaceOnUse" color-interpolation-filters="sRGB">
<feFlood flood-opacity="0" result="BackgroundImageFix"/>
<feColorMatrix in="SourceAlpha" type="matrix" values="0 0 0 0 0 0 0 0 0 0 0 0 0 0 0 0 0 0 127 0" result="hardAlpha"/>
<feOffset/>
<feGaussianBlur stdDeviation="3.5"/>
<feComposite in2="hardAlpha" operator="out"/>
<feColorMatrix type="matrix" values="0 0 0 0 0 0 0 0 0 1 0 0 0 0 0.268041 0 0 0 1 0"/>
<feBlend mode="normal" in2="BackgroundImageFix" result="effect1_dropShadow_2233_126805"/>
<feBlend mode="normal" in="SourceGraphic" in2="effect1_dropShadow_2233_126805" result="shape"/>
</filter>
<filter id="filter2_d_2233_126805" x="32.6738" y="38.7891" width="36.3262" height="36.21" filterUnits="userSpaceOnUse" color-interpolation-filters="sRGB">
<feFlood flood-opacity="0" result="BackgroundImageFix"/>
<feColorMatrix in="SourceAlpha" type="matrix" values="0 0 0 0 0 0 0 0 0 0 0 0 0 0 0 0 0 0 127 0" result="hardAlpha"/>
<feOffset/>
<feGaussianBlur stdDeviation="3.5"/>
<feComposite in2="hardAlpha" operator="out"/>
<feColorMatrix type="matrix" values="0 0 0 0 0 0 0 0 0 1 0 0 0 0 0.268041 0 0 0 1 0"/>
<feBlend mode="normal" in2="BackgroundImageFix" result="effect1_dropShadow_2233_126805"/>
<feBlend mode="normal" in="SourceGraphic" in2="effect1_dropShadow_2233_126805" result="shape"/>
</filter>
<filter id="filter3_d_2233_126805" x="19" y="15" width="32" height="32" filterUnits="userSpaceOnUse" color-interpolation-filters="sRGB">
<feFlood flood-opacity="0" result="BackgroundImageFix"/>
<feColorMatrix in="SourceAlpha" type="matrix" values="0 0 0 0 0 0 0 0 0 0 0 0 0 0 0 0 0 0 127 0" result="hardAlpha"/>
<feOffset/>
<feGaussianBlur stdDeviation="3.5"/>
<feComposite in2="hardAlpha" operator="out"/>
<feColorMatrix type="matrix" values="0 0 0 0 0 0 0 0 0 1 0 0 0 0 0.268041 0 0 0 1 0"/>
<feBlend mode="normal" in2="BackgroundImageFix" result="effect1_dropShadow_2233_126805"/>
<feBlend mode="normal" in="SourceGraphic" in2="effect1_dropShadow_2233_126805" result="shape"/>
</filter>
</defs>
</svg>
