<svg width="60" height="60" viewBox="0 0 60 60" fill="none" xmlns="http://www.w3.org/2000/svg">
<path d="M19.6223 37.9949C20.388 37.7569 20.6814 37.2809 20.7403 36.9237C20.6814 36.4471 20.4088 36.2541 20.3199 35.3878C20.2159 34.3794 21.0487 31.9669 21.2963 31.5364C21.2626 31.4541 21.2278 31.3814 21.1946 31.2968C20.0342 30.5525 18.8522 29.2066 18.309 26.774C18.0186 25.4734 18.2588 24.1444 18.9546 23.0113C18.9546 23.0113 18.1675 17.459 19.276 13.8327C18.2405 13.3288 17.1128 13.4137 15.5673 13.5698C14.3812 13.6898 14.2128 13.9447 13.3018 13.8111C12.2578 13.6576 11.4105 13.3372 11.1557 13.2082C11.0089 13.1342 9.63179 14.3694 9.24841 15.3781C8.03224 18.5735 8.35878 20.7642 8.66833 22.4218C8.65799 22.5915 8.6447 22.7606 8.6447 22.9322L8.92736 24.1463C8.92841 24.1591 8.92736 24.171 8.92778 24.1832C8.31163 24.7419 7.94027 25.5497 8.13634 26.4276C8.54008 28.2333 9.40935 28.9657 10.2653 29.2829C10.8331 30.9022 11.3839 31.9246 12.0268 32.6121C12.1893 33.3614 12.3328 34.3789 12.2289 35.3879C11.795 39.6137 3 37.3877 3 44.8067C3 45.7783 5.73703 47.3635 12.3675 47.82C12.3481 47.6769 12.3349 47.5326 12.3349 47.3852C12.3349 40.7321 16.6127 38.9312 19.6223 37.9949Z" stroke="#10E048"/>
<path d="M47.7715 35.3874C47.6675 34.379 47.8106 33.3619 47.9731 32.6138C48.6171 31.9252 49.1679 30.9022 49.7358 29.282C50.5915 28.9646 51.4602 28.2319 51.8636 26.4271C52.0502 25.5958 51.7272 24.827 51.1685 24.2732C51.5733 22.9015 53.165 16.5459 48.3843 15.257C46.7945 13.2482 45.404 13.3284 43.019 13.5693C41.8329 13.6894 41.6644 13.9443 40.7539 13.8107C40.5545 13.7813 40.3655 13.7448 40.1833 13.7057C40.3582 13.9467 40.5248 14.1958 40.6723 14.462C42.2682 17.3445 41.8467 20.9952 41.3453 23.225C41.9434 24.3137 42.139 25.5649 41.8688 26.7742C41.3256 29.2054 40.1442 30.5509 38.9844 31.2953C38.9263 31.4428 38.7553 31.7447 38.9907 32.0424C39.2058 32.3948 39.2443 32.3612 39.4788 32.6116C39.6411 33.3609 39.7844 34.3784 39.6802 35.3874C39.5946 36.2244 38.1665 36.9233 38.5693 37.2615C38.9654 37.4301 39.425 37.6063 39.9404 37.7976C42.8962 38.8949 47.843 40.7317 47.843 47.3847C47.843 47.5278 47.8306 47.6683 47.8123 47.807C54.3131 47.3349 57 45.7692 57 44.8063C57 37.3873 48.2053 39.6133 47.7715 35.3874Z" stroke="#10E048"/>
<path d="M34.7466 36.5401C34.6269 35.3794 34.7922 34.2084 34.9788 33.3459C35.7199 32.5544 36.3548 31.3758 37.0084 29.5106C37.9935 29.1452 38.994 28.302 39.4584 26.2236C39.6723 25.2665 39.3009 24.3815 38.6584 23.7439C39.1237 22.1647 40.956 14.847 35.4523 13.3631C33.622 11.0501 32.0205 11.1425 29.275 11.4201C27.9091 11.5581 27.715 11.8517 26.6666 11.6976C25.4643 11.5209 24.4891 11.152 24.1957 11.0037C24.0268 10.9181 22.441 12.3406 21.9992 13.5018C20.5996 17.1806 20.9756 19.7033 21.3316 21.6117C21.3199 21.8071 21.3038 22.0017 21.3038 22.1993L21.6299 23.5972C21.6309 23.6116 21.6299 23.6254 21.6303 23.6398C20.9209 24.2828 20.4936 25.2128 20.7195 26.2236C21.1837 28.3027 22.1848 29.1457 23.1703 29.5108C23.8241 31.3753 24.4578 32.5533 25.1986 33.3448C25.3856 34.2068 25.5509 35.3789 25.4312 36.5401C24.9315 41.4052 14.8058 38.8426 14.8058 47.385C14.8058 48.7024 19.1722 51 30.0889 51C41.0056 51 45.372 48.7024 45.372 47.385C45.372 38.8425 35.2463 41.4052 34.7466 36.5401ZM28.3167 49.586L25.5454 38.2056L28.9546 39.6401L28.7713 41.3055L29.3129 41.2936L28.3167 49.586ZM32.1315 49.586L31.1352 41.2936L31.6767 41.3055L31.4934 39.6401L34.9026 38.2056L32.1315 49.586Z" stroke="#10E048"/>
</svg>
