<svg width="60" height="60" viewBox="0 0 60 60" fill="none" xmlns="http://www.w3.org/2000/svg">
<path fill-rule="evenodd" clip-rule="evenodd" d="M44 14.5C44 19.7467 39.7467 24 34.5 24C29.2533 24 25 19.7467 25 14.5C25 9.25329 29.2533 5 34.5 5C39.7467 5 44 9.25329 44 14.5ZM45 14.5C45 19.0375 42.1218 22.9028 38.0915 24.3697C46.0318 26.0278 51.9961 33.0674 51.9961 41.5V54.177C51.9961 54.6315 51.6276 55 51.1731 55H43.5H19.9961C19.7263 55 19.4649 54.9644 19.2162 54.8976C19.1419 54.9317 19.0672 54.9659 18.9922 55C10.9974 51.3551 7 47.7187 7 44.0909V30.4545C7 29.4078 7.39254 29.1646 8.47894 28.4913L8.479 28.4913C8.80792 28.2874 9.20044 28.0442 9.66493 27.7273C9.88051 27.5802 14.4128 25 18.9922 25C21.1834 25 23.1777 25.4111 24.8615 26.0075C26.5236 25.065 28.3769 24.4208 30.3489 24.1475C26.6144 22.5385 24 18.8246 24 14.5C24 8.70101 28.701 4 34.5 4C40.299 4 45 8.70101 45 14.5ZM26.0802 26.4931C26.9429 26.8769 27.6962 27.3021 28.3194 27.7273C28.7838 28.0441 29.1763 28.2873 29.5052 28.4912L29.5054 28.4913L29.5054 28.4913C30.5918 29.1646 30.9843 29.4078 30.9843 30.4545C31.0106 30.7508 30.9977 37.0506 30.9894 41.0837C30.9866 42.459 30.9843 43.5708 30.9843 44.0909C30.9843 47.3939 27.6862 50.697 21.09 54H29.9961H43V38.5C43 38.2239 43.2239 38 43.5 38C43.7761 38 44 38.2239 44 38.5V54H50.9961V41.5C50.9961 32.3873 43.6088 25 34.4961 25H32.4961C30.1925 25 28.0144 25.5372 26.0802 26.4931ZM29.9843 30.4545V30.4988L29.9883 30.5429C29.9878 30.5379 29.988 30.5463 29.9885 30.5716C29.9893 30.6123 29.991 30.6971 29.9925 30.8412C29.9946 31.0462 29.9962 31.3296 29.9974 31.6766C29.9997 32.3699 30.0003 33.3096 29.9998 34.3673C29.9989 36.4815 29.9936 39.0624 29.9895 41.0787V41.0799L29.9894 41.0816C29.9866 42.4563 29.9843 43.5694 29.9843 44.0909C29.9843 45.5141 29.2057 47.0843 27.3134 48.8057C25.4911 50.4635 22.7351 52.1666 18.9927 53.8995C15.25 52.1626 12.4936 50.4573 10.671 48.7993C8.778 47.0773 8 45.5093 8 44.0909V30.4545C8 30.0888 8.06069 30.0189 8.09082 29.9842L8.0947 29.9797C8.13424 29.9331 8.209 29.8629 8.36627 29.7518C8.52616 29.6389 8.726 29.5147 9.0057 29.3413L9.00913 29.3392C9.33799 29.1354 9.74585 28.8826 10.2285 28.5533C10.2277 28.5539 10.2305 28.5523 10.2368 28.5486C10.2862 28.5198 10.5511 28.3655 11.0154 28.1341C11.5181 27.8835 12.2183 27.5608 13.0497 27.2423C14.7258 26.6005 16.8742 26 18.9922 26C22.7643 26 25.9078 27.2925 27.7558 28.5533C28.2385 28.8826 28.6463 29.1354 28.9751 29.3391L28.9752 29.3392L28.9786 29.3413C29.2583 29.5147 29.4582 29.6389 29.6181 29.7518C29.7754 29.8629 29.8501 29.9331 29.8896 29.9797L29.8935 29.9842C29.9237 30.0189 29.9843 30.0888 29.9843 30.4545Z" fill="#10E048"/>
</svg>
