<svg width="32" height="32" viewBox="0 0 32 32" fill="none" xmlns="http://www.w3.org/2000/svg">
<g id="Frame">
<path id="Vector" d="M22 9C22 14.3 16 19 16 19C16 19 10 14.3 10 9C10 5.7 12.7 3 16 3C19.3 3 22 5.7 22 9Z" stroke="#52B36C" stroke-width="1.5" stroke-miterlimit="10" stroke-linecap="round" stroke-linejoin="round"/>
<path id="Vector_2" d="M16 11C17.1046 11 18 10.1046 18 9C18 7.89543 17.1046 7 16 7C14.8954 7 14 7.89543 14 9C14 10.1046 14.8954 11 16 11Z" stroke="#52B36C" stroke-width="1.5" stroke-miterlimit="10" stroke-linecap="round" stroke-linejoin="round"/>
<path id="Vector_3" d="M21.7 7H27V29H5V7H10.3" stroke="#52B36C" stroke-width="1.5" stroke-miterlimit="10" stroke-linecap="round" stroke-linejoin="round"/>
<path id="Vector_4" d="M27 14L16 25L5 14" stroke="#52B36C" stroke-width="1.5" stroke-miterlimit="10" stroke-linecap="round" stroke-linejoin="round"/>
<path id="Line" d="M20 29L13 22" stroke="#52B36C" stroke-width="1.5" stroke-miterlimit="10" stroke-linecap="round" stroke-linejoin="round"/>
<path id="Line_2" d="M10 29V19" stroke="#52B36C" stroke-width="1.5" stroke-miterlimit="10" stroke-linecap="round" stroke-linejoin="round"/>
</g>
</svg>
