<svg width="58" height="32" viewBox="0 0 58 32" fill="none" xmlns="http://www.w3.org/2000/svg">
<path d="M53.2002 12.8803L53.3456 13.1244H53.6297H56C56.8284 13.1244 57.5 13.7959 57.5 14.6244V24.3192C57.5 25.1476 56.8284 25.8192 56 25.8192H52.036C51.4202 22.4302 48.3996 19.8609 44.7863 19.8609C41.1731 19.8609 38.1522 22.4302 37.5366 25.8192H20.8633C20.2476 22.4302 17.2268 19.8609 13.6136 19.8609C10.0003 19.8609 6.97968 22.4302 6.36405 25.8192H2.02315C1.18797 25.8192 0.513639 25.137 0.523251 24.3019L0.634931 14.5985C0.644394 13.7763 1.31396 13.115 2.13618 13.1158L11.8597 13.1245L12.1053 13.1247L12.2556 12.9305L20.7366 1.97006C21.2101 1.35819 21.9402 1 22.7138 1H44.6997C45.5805 1 46.3963 1.46352 46.8473 2.22016L53.2002 12.8803ZM36.1209 4.61885H35.6209V5.11885V12.6244V13.1244H36.1209H47.4494H48.1073L47.9311 12.4905L47.8993 12.3759L47.8952 12.3611L47.8902 12.3467L47.7411 11.9148L47.7233 11.8631L47.6948 11.8165L43.4287 4.85753L43.2824 4.61885H43.0024H36.1209ZM18.0663 12.4218L17.779 13.1117L18.5263 13.114L21.8638 13.1245H21.8654H30.7319H31.2319V12.6245V5.11885V4.61885H30.7319H24.4316H24.1943L24.0442 4.80268L18.3639 11.7617L18.3177 11.8182L18.2896 11.8856L18.0663 12.4218Z" stroke="#10E048"/>
<path d="M9.66755 26.4136L9.6676 26.4136L9.66878 26.407C9.99485 24.5777 11.6311 23.1704 13.6149 23.1704C15.599 23.1704 17.2353 24.5776 17.5614 26.407L17.5614 26.407L17.5626 26.4131C17.6033 26.6262 17.6243 26.8565 17.6243 27.0891C17.6243 29.2352 15.8394 31 13.6148 31C11.3905 31 9.60547 29.2353 9.60547 27.0891C9.60547 26.8566 9.62663 26.6266 9.66755 26.4136Z" stroke="#10E048"/>
<path d="M40.8392 26.4136L40.8392 26.4136L40.8404 26.407C41.1665 24.5777 42.8027 23.1704 44.7868 23.1704C46.7707 23.1704 48.407 24.5776 48.7331 26.407L48.733 26.407L48.7342 26.4131C48.7749 26.6262 48.7959 26.8565 48.7959 27.0891C48.7959 29.2353 47.011 31 44.7867 31C42.5621 31 40.7773 29.2354 40.7773 27.0891C40.7773 26.8563 40.7983 26.6263 40.8392 26.4136Z" stroke="#10E048"/>
</svg>
