<svg width="44" height="60" viewBox="0 0 44 60" fill="none" xmlns="http://www.w3.org/2000/svg">
<path d="M36.5479 6.58128L36.5479 6.58158L42.7735 37.9927L42.7736 37.9931C43.0069 39.166 42.3634 40.717 41.2143 42.0283C40.0683 43.3361 38.5788 44.2217 37.3606 44.2217H9.40166C7.723 44.2217 6.25263 44.137 5.01276 43.8915C3.77286 43.6461 2.79686 43.2461 2.07805 42.6402C0.679277 41.461 0.0684808 39.3248 0.830468 35.293L0.830481 35.293L6.20157 6.85059L6.20169 6.84996C6.44036 5.57707 7.40684 3.97363 8.69556 2.67664C9.99414 1.36971 11.4931 0.5 12.722 0.5H30.1341C31.3693 0.5 32.8374 1.31612 34.1008 2.55222C35.3564 3.78071 36.2979 5.3161 36.5479 6.58128ZM9.53035 49.3135H14.3853L13.1047 52.2047L12.7935 52.9072H13.5618H29.5189H30.2878L29.9759 52.2044L28.6472 49.2109H33.3987L37.7388 59.2949H33.0721L31.5115 55.8903L31.3778 55.5986H31.0569H11.8187H11.4826L11.3557 55.9097L9.89085 59.5H5.13739L9.53035 49.3135ZM4.522 29.8615L4.40037 30.4609H5.01202H37.9954H38.5991L38.4867 29.8678L34.932 11.1227L34.8548 10.7158H34.4407H8.81573H8.40699L8.32571 11.1164L4.522 29.8615ZM18.2903 37.4023C18.2903 34.9973 16.3428 33.0498 13.9378 33.0498C11.5327 33.0498 9.58526 34.9973 9.58526 37.4023C9.58526 39.8074 11.5327 41.7549 13.9378 41.7549C16.3428 41.7549 18.2903 39.8074 18.2903 37.4023ZM24.973 3.12793H18.0296C17.5777 3.12793 17.2073 3.49827 17.2073 3.9502V7.21191C17.2073 7.66384 17.5777 8.03418 18.0296 8.03418H24.973C25.4249 8.03418 25.7952 7.66383 25.7952 7.21191V3.9502C25.7952 3.49828 25.4249 3.12793 24.973 3.12793ZM33.4173 37.4023C33.4173 34.9973 31.4698 33.0498 29.0647 33.0498C26.6597 33.0498 24.7122 34.9973 24.7122 37.4023C24.7122 39.8074 26.6597 41.7549 29.0647 41.7549C31.4698 41.7549 33.4173 39.8074 33.4173 37.4023Z" stroke="#10E048"/>
</svg>
