<svg width="24" height="24" viewBox="0 0 24 24" fill="none" xmlns="http://www.w3.org/2000/svg">
<path d="M5.89617 13.2273L10.0712 8.42426L10.0363 7.92548L10.4653 6.89302L11.4279 6.32445L11.9616 6.78834L12.4255 6.25467L13.4231 6.18488L12.9941 7.21733L13.5277 7.68122L14.5951 8.609L15.5229 7.54165L15.9867 7.00797L16.4157 5.97552L15.8472 5.01285L14.8496 5.08264C14.695 5.26053 14.279 5.52353 13.852 5.15242C13.4251 4.78131 13.9601 4.30949 14.281 4.11997L14.2461 3.62119C13.8904 3.31193 12.4784 2.55303 10.5453 0.872757C9.47797 -0.0550171 6.74459 1.4728 6.16097 2.68314C6.45859 2.1611 7.36707 1.29559 8.61998 2.00989C9.87288 2.7242 9.56759 3.61434 9.25833 3.97012L9.8269 4.93279L8.89913 6.00014L7.93646 6.56871L3.76147 11.3718L5.89617 13.2273Z" fill="#F0F0F0"/>
<mask id="path-2-outside-1_1988_100318" maskUnits="userSpaceOnUse" x="-1.02251" y="-2.47774" width="19.652" height="19.8494" fill="black">
<rect fill="white" x="-1.02251" y="-2.47774" width="19.652" height="19.8494"/>
<path fill-rule="evenodd" clip-rule="evenodd" d="M14.5628 3.87612C14.5742 3.90908 14.576 3.9446 14.5679 3.97852L14.5604 4.00988C14.5473 4.06459 14.5212 4.11534 14.4843 4.1578L14.249 4.42859L14.0405 4.66844C13.9929 4.72313 13.9933 4.80459 14.0413 4.85885L14.1253 4.95368L14.3616 5.23571L14.5713 5.48597C14.5838 5.50087 14.6075 5.4979 14.6159 5.48039C14.6279 5.45552 14.6423 5.43188 14.6588 5.40981L14.7779 5.25114L14.8536 5.15029C14.8988 5.09007 14.9538 5.03792 15.0164 4.99605C15.0785 4.95452 15.1498 4.92871 15.2241 4.92086L15.2659 4.91644L15.3041 4.91239C15.3808 4.90428 15.4583 4.91448 15.5303 4.94215C15.6029 4.97007 15.6712 5.00815 15.7331 5.05527L15.9665 5.23285L16.2933 5.48146L16.5249 5.67883L16.6696 5.80221C16.7269 5.85106 16.7738 5.91091 16.8075 5.97823C16.8413 6.04566 16.8622 6.11878 16.8691 6.19386L16.8716 6.21984L16.8735 6.24063C16.8808 6.31934 16.876 6.39871 16.8591 6.47594C16.8424 6.55236 16.8064 6.62323 16.7546 6.68184L16.4438 7.03353L16.054 7.47462L15.6099 7.9205L15.1658 8.36639L15.0125 8.51042L14.9485 8.57048C14.8894 8.62595 14.8205 8.66982 14.7452 8.6998L14.7181 8.71058C14.6611 8.73332 14.5993 8.74194 14.5382 8.7357L14.5264 8.73449C14.4725 8.72898 14.4194 8.71689 14.3684 8.69847C14.3178 8.68017 14.2715 8.65152 14.2326 8.61434L13.8035 8.20478L13.3872 7.80731C13.3395 7.76177 13.2963 7.71168 13.2584 7.65775C13.2211 7.6049 13.2004 7.54219 13.1988 7.47756L13.1978 7.43528L13.1955 7.33954C13.1948 7.31015 13.2051 7.28155 13.2244 7.25939C13.232 7.2507 13.2461 7.25807 13.2433 7.26924L13.2296 7.32395C13.2133 7.38885 13.2141 7.45688 13.2321 7.52135L13.2336 7.52672C13.2524 7.59439 13.2906 7.65504 13.3437 7.70111L13.4534 7.79652L13.6444 7.96256L13.9933 8.22719L14.2773 8.44268C14.3201 8.47509 14.3689 8.49852 14.4209 8.51155L14.4238 8.51226C14.4736 8.52472 14.5258 8.52406 14.5752 8.51035C14.6244 8.49672 14.6682 8.46844 14.7009 8.42926L14.7227 8.40318L14.7946 8.31695L15.1225 7.87609L15.4504 7.43525L15.9029 6.87863L16.3135 6.37361C16.3404 6.34053 16.3533 6.29823 16.3494 6.25576C16.3455 6.21304 16.3263 6.17317 16.2953 6.14348L15.8607 5.72678L15.4294 5.31324C15.3958 5.28105 15.3542 5.2585 15.3089 5.24795C15.264 5.23752 15.2169 5.24214 15.1748 5.2611L15.1708 5.26291C15.1253 5.28344 15.0837 5.3118 15.048 5.34672L14.792 5.59706L14.7277 5.65989C14.5644 5.81955 14.4196 5.99718 14.2963 6.18939L14.1106 6.47864L13.949 6.7073L13.8294 6.87643C13.8019 6.91542 13.7644 6.94633 13.7208 6.96596C13.6781 6.98524 13.6297 6.98761 13.5853 6.97258L13.5782 6.97017C13.5312 6.95423 13.4792 6.96483 13.4421 6.99792L13.4401 6.99974C13.4334 7.00568 13.424 6.99679 13.4295 6.98979L13.4317 6.98698C13.4612 6.94945 13.4545 6.89504 13.4166 6.86589L13.2913 6.76932L13.0973 6.61979L12.8725 6.44532C12.7463 6.34742 12.5657 6.36512 12.4609 6.48564L12.391 6.5661L12.1909 6.79628C12.1537 6.83902 12.1068 6.87215 12.0541 6.89283L12.0274 6.9033C11.9925 6.91698 11.9543 6.91976 11.9178 6.91126C11.8809 6.9027 11.8468 6.88527 11.8183 6.86047L11.543 6.62125L11.4074 6.50333C11.3046 6.41395 11.15 6.42003 11.0545 6.5172L10.8845 6.69013L10.5475 7.05574L10.2104 7.42134L10.0562 7.57331L9.97147 7.65685C9.93403 7.69374 9.93593 7.75471 9.97561 7.78919C10.0239 7.8312 10.0613 7.88435 10.0844 7.94404L10.0893 7.95652L10.1105 8.01121C10.123 8.04359 10.1322 8.07718 10.1379 8.11144C10.1436 8.14571 10.1455 8.18051 10.1437 8.2152L10.1413 8.25844C10.138 8.32142 10.1221 8.3831 10.0947 8.43988L10.0936 8.4422C10.0652 8.5009 10.0303 8.55624 9.98965 8.6072L9.25878 9.5232L8.46672 10.5159L8.0486 11.0364L7.63048 11.5568L7.01537 12.2721L6.50539 12.8652C6.43615 12.9457 6.35003 13.01 6.25315 13.0535L6.24559 13.0569C6.15335 13.0983 6.05419 13.1221 5.95321 13.1271C5.85242 13.1321 5.7508 13.116 5.65638 13.0804C5.56112 13.0444 5.47308 12.9917 5.39645 12.9246L5.14999 12.709L4.78765 12.392L4.3333 11.9678L3.95072 11.6106C3.90315 11.5662 3.86267 11.5148 3.83068 11.4581C3.79863 11.4014 3.77384 11.3408 3.7569 11.2778L3.74712 11.2415C3.72389 11.1553 3.72069 11.0648 3.73776 10.9771L3.74145 10.9582L3.75303 10.8986C3.76495 10.8373 3.78783 10.7787 3.82058 10.7256C3.85348 10.6722 3.89184 10.6223 3.93503 10.5768L4.9427 9.51515L6.01534 8.38507L6.76978 7.54094L7.51451 6.70768C7.51817 6.70359 7.52494 6.70588 7.52535 6.71135C7.52605 6.72067 7.5231 6.7299 7.51712 6.73709L6.76679 7.63859L6.00715 8.55127L5.07459 9.72192L4.19858 10.8216C4.16133 10.8683 4.13483 10.9227 4.12098 10.9809C4.10728 11.0383 4.11187 11.0989 4.13389 11.1537C4.15619 11.2092 4.19201 11.2582 4.23811 11.2962L4.98368 11.912L5.74208 12.5384C5.77964 12.5694 5.82505 12.5894 5.87329 12.5962L5.89516 12.5993C5.92923 12.6041 5.96395 12.6003 5.99615 12.5882C6.0284 12.5761 6.05727 12.5564 6.08033 12.5308L6.74533 11.7922L7.44544 11.0147L8.67511 9.71217L9.84939 8.46828C9.88605 8.42944 9.91619 8.38492 9.93863 8.33645L9.94135 8.33058C9.96199 8.28597 9.97576 8.23849 9.98218 8.18976C9.98855 8.14127 9.98486 8.09198 9.97135 8.04498L9.9704 8.04166C9.95621 7.99232 9.93334 7.94591 9.90287 7.90459L9.89045 7.88776L9.88515 7.88057C9.85237 7.83614 9.79787 7.81324 9.74319 7.82094C9.68745 7.82879 9.63133 7.80941 9.5923 7.76884L9.40771 7.57695L9.16097 7.32047L8.91198 7.03548L8.663 6.75049L8.49985 6.60302L8.41285 6.52441C8.36244 6.47886 8.30461 6.44227 8.24185 6.41623C8.17965 6.39045 8.11189 6.38098 8.04501 6.38873L8.00812 6.393L7.8895 6.40675C7.88233 6.40758 7.87788 6.39915 7.88262 6.39369C7.89123 6.38379 7.90325 6.37749 7.91629 6.37606L8.00637 6.36612L8.01764 6.36487C8.08318 6.35763 8.14948 6.36202 8.21349 6.37786C8.27735 6.39366 8.33746 6.42192 8.39038 6.461L8.4445 6.50097L8.56371 6.58905C8.5722 6.59533 8.58409 6.59402 8.59102 6.58605L8.60331 6.57191L8.88986 6.14326L9.17641 5.7146L9.44252 5.35841L9.45452 5.34234C9.59916 5.14871 9.57507 4.87729 9.39859 4.71216L9.18938 4.51641C9.12477 4.45596 9.08653 4.37253 9.08291 4.28413C9.07922 4.19474 9.10552 4.10668 9.15761 4.03394L9.18381 3.99737C9.25425 3.89902 9.30615 3.7878 9.33653 3.67069C9.36713 3.55285 9.37881 3.4309 9.37113 3.30939L9.37034 3.29696L9.36729 3.24855C9.36113 3.1509 9.33899 3.05492 9.30175 2.96443C9.26436 2.87354 9.21863 2.7863 9.16516 2.70383L9.15716 2.6915C9.0987 2.6013 9.02518 2.52182 8.93981 2.45652L8.89943 2.42563L8.86883 2.40223C8.7769 2.33191 8.67426 2.27684 8.56483 2.23913C8.45501 2.20125 8.34154 2.17489 8.22627 2.16046L8.19844 2.15698C8.06461 2.14021 7.9295 2.13622 7.79492 2.14506L7.71728 2.15016L7.70704 2.15083C7.52769 2.1626 7.34995 2.19222 7.17647 2.23925L7.12172 2.25409C6.98454 2.29128 6.85057 2.33941 6.7211 2.39804L6.52661 2.48611L6.36467 2.58155L6.21898 2.66739C6.21149 2.6718 6.20197 2.66682 6.20132 2.65815C6.20039 2.64587 6.20309 2.63359 6.20909 2.62284L6.28204 2.49211L6.36417 2.34492L6.50535 2.15459C6.59925 2.02795 6.70474 1.91032 6.82043 1.80321L6.85476 1.77142L6.87704 1.7508C7.00088 1.63616 7.13274 1.5305 7.2716 1.4346L7.48017 1.29058L7.71372 1.17126L7.94728 1.05194L8.174 0.971705L8.4007 0.891454L8.63962 0.839163C8.79866 0.804356 8.96019 0.782063 9.12271 0.772487L9.25201 0.764869L9.33933 0.75972C9.52969 0.748496 9.72068 0.754563 9.90994 0.777848L10.1944 0.81285L10.4797 0.88756L10.765 0.962271L10.9567 1.03747L11.1484 1.11266L11.4349 1.2731C11.6254 1.37986 11.8062 1.50326 11.9751 1.64184L12.3448 1.9452L12.9683 2.45686L13.7568 3.14126L14.5051 3.79066C14.5315 3.81358 14.5514 3.84306 14.5628 3.87612ZM11.0606 1.54902L10.8447 1.43476L10.6635 1.36108L10.4824 1.28739L10.1961 1.2138L9.90986 1.14022L9.66511 1.11237L9.42037 1.08452L9.15403 1.08789C8.97676 1.09011 8.79996 1.10652 8.62531 1.13694L8.61447 1.13883L8.34123 1.1864L8.07679 1.2711L7.81231 1.35581L7.59623 1.45999C7.45234 1.52935 7.31374 1.60917 7.18154 1.69882L7.12249 1.73886C6.95136 1.85492 6.79472 1.99101 6.65589 2.14424L6.54863 2.26262L6.41493 2.41016C6.38746 2.44049 6.42563 2.48517 6.45987 2.46277L6.68736 2.31387L6.88353 2.21894C7.01403 2.1558 7.15 2.10465 7.28976 2.06612L7.36255 2.04605C7.55063 1.99422 7.74355 1.96195 7.93826 1.94973L7.94378 1.94938L8.05909 1.94214C8.1808 1.93449 8.30297 1.93912 8.42376 1.95594L8.43072 1.95691C8.54691 1.97312 8.66126 2.00047 8.7722 2.0386C8.88268 2.07656 8.9862 2.13234 9.07866 2.20374L9.12169 2.23698L9.17053 2.27469C9.2594 2.34333 9.3395 2.42264 9.409 2.51084C9.47849 2.59902 9.5364 2.69572 9.58133 2.7986L9.61172 2.86817C9.67664 3.01677 9.71601 3.17526 9.72816 3.33696L9.72849 3.34133L9.73138 3.37978C9.74185 3.51901 9.72975 3.65901 9.69555 3.79437L9.68063 3.85337C9.65623 3.94991 9.62005 4.04309 9.57291 4.1308C9.53191 4.20709 9.55181 4.30183 9.62005 4.35517L9.72246 4.43522L9.94299 4.60761L10.3034 4.90012L10.6638 5.19264L11.296 5.74264C11.6451 6.04636 12.1743 6.00945 12.4779 5.66022L12.9305 5.13959L13.7375 4.21108C13.8463 4.08597 13.836 3.89709 13.7143 3.78455L13.4958 3.58257L12.3861 2.62292L11.4612 1.82305C11.3384 1.71687 11.204 1.62494 11.0606 1.54902ZM14.1241 5.2774L13.7626 5.04861L13.7474 5.03586C13.7389 5.02879 13.7264 5.02978 13.7192 5.03809L13.3632 5.44764L13.1893 5.64771C13.0815 5.7717 13.0946 5.95955 13.2185 6.06742L13.4428 6.26267L13.5352 6.36457L13.55 6.38087C13.5931 6.42839 13.6664 6.43256 13.7146 6.39024L13.8016 6.31399L14.0715 6.08068L14.2074 5.96326C14.2965 5.88626 14.3766 5.79939 14.4461 5.70433L14.5255 5.59571C14.5397 5.57632 14.5365 5.54926 14.5181 5.53373L14.4856 5.50619L14.1241 5.2774ZM9.92572 5.3974L9.82494 5.49178L9.21603 6.05438L8.61826 6.60671C8.6112 6.61324 8.60733 6.62253 8.60769 6.63215C8.60804 6.64167 8.61292 6.65045 8.62081 6.65578L9.08818 6.9713L9.56812 7.2953L9.62556 7.34575C9.65621 7.37267 9.70345 7.36696 9.72681 7.33352L9.77718 7.26142L9.87136 7.12663L10.2811 6.63354L10.6908 6.14045L10.7361 6.06896C10.7626 6.0271 10.7567 5.9725 10.722 5.93718L10.6937 5.90837L10.606 5.81922L10.3163 5.56113L10.1296 5.39488C10.0712 5.34286 9.98281 5.34396 9.92572 5.3974Z"/>
</mask>
<path fill-rule="evenodd" clip-rule="evenodd" d="M14.5628 3.87612C14.5742 3.90908 14.576 3.9446 14.5679 3.97852L14.5604 4.00988C14.5473 4.06459 14.5212 4.11534 14.4843 4.1578L14.249 4.42859L14.0405 4.66844C13.9929 4.72313 13.9933 4.80459 14.0413 4.85885L14.1253 4.95368L14.3616 5.23571L14.5713 5.48597C14.5838 5.50087 14.6075 5.4979 14.6159 5.48039C14.6279 5.45552 14.6423 5.43188 14.6588 5.40981L14.7779 5.25114L14.8536 5.15029C14.8988 5.09007 14.9538 5.03792 15.0164 4.99605C15.0785 4.95452 15.1498 4.92871 15.2241 4.92086L15.2659 4.91644L15.3041 4.91239C15.3808 4.90428 15.4583 4.91448 15.5303 4.94215C15.6029 4.97007 15.6712 5.00815 15.7331 5.05527L15.9665 5.23285L16.2933 5.48146L16.5249 5.67883L16.6696 5.80221C16.7269 5.85106 16.7738 5.91091 16.8075 5.97823C16.8413 6.04566 16.8622 6.11878 16.8691 6.19386L16.8716 6.21984L16.8735 6.24063C16.8808 6.31934 16.876 6.39871 16.8591 6.47594C16.8424 6.55236 16.8064 6.62323 16.7546 6.68184L16.4438 7.03353L16.054 7.47462L15.6099 7.9205L15.1658 8.36639L15.0125 8.51042L14.9485 8.57048C14.8894 8.62595 14.8205 8.66982 14.7452 8.6998L14.7181 8.71058C14.6611 8.73332 14.5993 8.74194 14.5382 8.7357L14.5264 8.73449C14.4725 8.72898 14.4194 8.71689 14.3684 8.69847C14.3178 8.68017 14.2715 8.65152 14.2326 8.61434L13.8035 8.20478L13.3872 7.80731C13.3395 7.76177 13.2963 7.71168 13.2584 7.65775C13.2211 7.6049 13.2004 7.54219 13.1988 7.47756L13.1978 7.43528L13.1955 7.33954C13.1948 7.31015 13.2051 7.28155 13.2244 7.25939C13.232 7.2507 13.2461 7.25807 13.2433 7.26924L13.2296 7.32395C13.2133 7.38885 13.2141 7.45688 13.2321 7.52135L13.2336 7.52672C13.2524 7.59439 13.2906 7.65504 13.3437 7.70111L13.4534 7.79652L13.6444 7.96256L13.9933 8.22719L14.2773 8.44268C14.3201 8.47509 14.3689 8.49852 14.4209 8.51155L14.4238 8.51226C14.4736 8.52472 14.5258 8.52406 14.5752 8.51035C14.6244 8.49672 14.6682 8.46844 14.7009 8.42926L14.7227 8.40318L14.7946 8.31695L15.1225 7.87609L15.4504 7.43525L15.9029 6.87863L16.3135 6.37361C16.3404 6.34053 16.3533 6.29823 16.3494 6.25576C16.3455 6.21304 16.3263 6.17317 16.2953 6.14348L15.8607 5.72678L15.4294 5.31324C15.3958 5.28105 15.3542 5.2585 15.3089 5.24795C15.264 5.23752 15.2169 5.24214 15.1748 5.2611L15.1708 5.26291C15.1253 5.28344 15.0837 5.3118 15.048 5.34672L14.792 5.59706L14.7277 5.65989C14.5644 5.81955 14.4196 5.99718 14.2963 6.18939L14.1106 6.47864L13.949 6.7073L13.8294 6.87643C13.8019 6.91542 13.7644 6.94633 13.7208 6.96596C13.6781 6.98524 13.6297 6.98761 13.5853 6.97258L13.5782 6.97017C13.5312 6.95423 13.4792 6.96483 13.4421 6.99792L13.4401 6.99974C13.4334 7.00568 13.424 6.99679 13.4295 6.98979L13.4317 6.98698C13.4612 6.94945 13.4545 6.89504 13.4166 6.86589L13.2913 6.76932L13.0973 6.61979L12.8725 6.44532C12.7463 6.34742 12.5657 6.36512 12.4609 6.48564L12.391 6.5661L12.1909 6.79628C12.1537 6.83902 12.1068 6.87215 12.0541 6.89283L12.0274 6.9033C11.9925 6.91698 11.9543 6.91976 11.9178 6.91126C11.8809 6.9027 11.8468 6.88527 11.8183 6.86047L11.543 6.62125L11.4074 6.50333C11.3046 6.41395 11.15 6.42003 11.0545 6.5172L10.8845 6.69013L10.5475 7.05574L10.2104 7.42134L10.0562 7.57331L9.97147 7.65685C9.93403 7.69374 9.93593 7.75471 9.97561 7.78919C10.0239 7.8312 10.0613 7.88435 10.0844 7.94404L10.0893 7.95652L10.1105 8.01121C10.123 8.04359 10.1322 8.07718 10.1379 8.11144C10.1436 8.14571 10.1455 8.18051 10.1437 8.2152L10.1413 8.25844C10.138 8.32142 10.1221 8.3831 10.0947 8.43988L10.0936 8.4422C10.0652 8.5009 10.0303 8.55624 9.98965 8.6072L9.25878 9.5232L8.46672 10.5159L8.0486 11.0364L7.63048 11.5568L7.01537 12.2721L6.50539 12.8652C6.43615 12.9457 6.35003 13.01 6.25315 13.0535L6.24559 13.0569C6.15335 13.0983 6.05419 13.1221 5.95321 13.1271C5.85242 13.1321 5.7508 13.116 5.65638 13.0804C5.56112 13.0444 5.47308 12.9917 5.39645 12.9246L5.14999 12.709L4.78765 12.392L4.3333 11.9678L3.95072 11.6106C3.90315 11.5662 3.86267 11.5148 3.83068 11.4581C3.79863 11.4014 3.77384 11.3408 3.7569 11.2778L3.74712 11.2415C3.72389 11.1553 3.72069 11.0648 3.73776 10.9771L3.74145 10.9582L3.75303 10.8986C3.76495 10.8373 3.78783 10.7787 3.82058 10.7256C3.85348 10.6722 3.89184 10.6223 3.93503 10.5768L4.9427 9.51515L6.01534 8.38507L6.76978 7.54094L7.51451 6.70768C7.51817 6.70359 7.52494 6.70588 7.52535 6.71135C7.52605 6.72067 7.5231 6.7299 7.51712 6.73709L6.76679 7.63859L6.00715 8.55127L5.07459 9.72192L4.19858 10.8216C4.16133 10.8683 4.13483 10.9227 4.12098 10.9809C4.10728 11.0383 4.11187 11.0989 4.13389 11.1537C4.15619 11.2092 4.19201 11.2582 4.23811 11.2962L4.98368 11.912L5.74208 12.5384C5.77964 12.5694 5.82505 12.5894 5.87329 12.5962L5.89516 12.5993C5.92923 12.6041 5.96395 12.6003 5.99615 12.5882C6.0284 12.5761 6.05727 12.5564 6.08033 12.5308L6.74533 11.7922L7.44544 11.0147L8.67511 9.71217L9.84939 8.46828C9.88605 8.42944 9.91619 8.38492 9.93863 8.33645L9.94135 8.33058C9.96199 8.28597 9.97576 8.23849 9.98218 8.18976C9.98855 8.14127 9.98486 8.09198 9.97135 8.04498L9.9704 8.04166C9.95621 7.99232 9.93334 7.94591 9.90287 7.90459L9.89045 7.88776L9.88515 7.88057C9.85237 7.83614 9.79787 7.81324 9.74319 7.82094C9.68745 7.82879 9.63133 7.80941 9.5923 7.76884L9.40771 7.57695L9.16097 7.32047L8.91198 7.03548L8.663 6.75049L8.49985 6.60302L8.41285 6.52441C8.36244 6.47886 8.30461 6.44227 8.24185 6.41623C8.17965 6.39045 8.11189 6.38098 8.04501 6.38873L8.00812 6.393L7.8895 6.40675C7.88233 6.40758 7.87788 6.39915 7.88262 6.39369C7.89123 6.38379 7.90325 6.37749 7.91629 6.37606L8.00637 6.36612L8.01764 6.36487C8.08318 6.35763 8.14948 6.36202 8.21349 6.37786C8.27735 6.39366 8.33746 6.42192 8.39038 6.461L8.4445 6.50097L8.56371 6.58905C8.5722 6.59533 8.58409 6.59402 8.59102 6.58605L8.60331 6.57191L8.88986 6.14326L9.17641 5.7146L9.44252 5.35841L9.45452 5.34234C9.59916 5.14871 9.57507 4.87729 9.39859 4.71216L9.18938 4.51641C9.12477 4.45596 9.08653 4.37253 9.08291 4.28413C9.07922 4.19474 9.10552 4.10668 9.15761 4.03394L9.18381 3.99737C9.25425 3.89902 9.30615 3.7878 9.33653 3.67069C9.36713 3.55285 9.37881 3.4309 9.37113 3.30939L9.37034 3.29696L9.36729 3.24855C9.36113 3.1509 9.33899 3.05492 9.30175 2.96443C9.26436 2.87354 9.21863 2.7863 9.16516 2.70383L9.15716 2.6915C9.0987 2.6013 9.02518 2.52182 8.93981 2.45652L8.89943 2.42563L8.86883 2.40223C8.7769 2.33191 8.67426 2.27684 8.56483 2.23913C8.45501 2.20125 8.34154 2.17489 8.22627 2.16046L8.19844 2.15698C8.06461 2.14021 7.9295 2.13622 7.79492 2.14506L7.71728 2.15016L7.70704 2.15083C7.52769 2.1626 7.34995 2.19222 7.17647 2.23925L7.12172 2.25409C6.98454 2.29128 6.85057 2.33941 6.7211 2.39804L6.52661 2.48611L6.36467 2.58155L6.21898 2.66739C6.21149 2.6718 6.20197 2.66682 6.20132 2.65815C6.20039 2.64587 6.20309 2.63359 6.20909 2.62284L6.28204 2.49211L6.36417 2.34492L6.50535 2.15459C6.59925 2.02795 6.70474 1.91032 6.82043 1.80321L6.85476 1.77142L6.87704 1.7508C7.00088 1.63616 7.13274 1.5305 7.2716 1.4346L7.48017 1.29058L7.71372 1.17126L7.94728 1.05194L8.174 0.971705L8.4007 0.891454L8.63962 0.839163C8.79866 0.804356 8.96019 0.782063 9.12271 0.772487L9.25201 0.764869L9.33933 0.75972C9.52969 0.748496 9.72068 0.754563 9.90994 0.777848L10.1944 0.81285L10.4797 0.88756L10.765 0.962271L10.9567 1.03747L11.1484 1.11266L11.4349 1.2731C11.6254 1.37986 11.8062 1.50326 11.9751 1.64184L12.3448 1.9452L12.9683 2.45686L13.7568 3.14126L14.5051 3.79066C14.5315 3.81358 14.5514 3.84306 14.5628 3.87612ZM11.0606 1.54902L10.8447 1.43476L10.6635 1.36108L10.4824 1.28739L10.1961 1.2138L9.90986 1.14022L9.66511 1.11237L9.42037 1.08452L9.15403 1.08789C8.97676 1.09011 8.79996 1.10652 8.62531 1.13694L8.61447 1.13883L8.34123 1.1864L8.07679 1.2711L7.81231 1.35581L7.59623 1.45999C7.45234 1.52935 7.31374 1.60917 7.18154 1.69882L7.12249 1.73886C6.95136 1.85492 6.79472 1.99101 6.65589 2.14424L6.54863 2.26262L6.41493 2.41016C6.38746 2.44049 6.42563 2.48517 6.45987 2.46277L6.68736 2.31387L6.88353 2.21894C7.01403 2.1558 7.15 2.10465 7.28976 2.06612L7.36255 2.04605C7.55063 1.99422 7.74355 1.96195 7.93826 1.94973L7.94378 1.94938L8.05909 1.94214C8.1808 1.93449 8.30297 1.93912 8.42376 1.95594L8.43072 1.95691C8.54691 1.97312 8.66126 2.00047 8.7722 2.0386C8.88268 2.07656 8.9862 2.13234 9.07866 2.20374L9.12169 2.23698L9.17053 2.27469C9.2594 2.34333 9.3395 2.42264 9.409 2.51084C9.47849 2.59902 9.5364 2.69572 9.58133 2.7986L9.61172 2.86817C9.67664 3.01677 9.71601 3.17526 9.72816 3.33696L9.72849 3.34133L9.73138 3.37978C9.74185 3.51901 9.72975 3.65901 9.69555 3.79437L9.68063 3.85337C9.65623 3.94991 9.62005 4.04309 9.57291 4.1308C9.53191 4.20709 9.55181 4.30183 9.62005 4.35517L9.72246 4.43522L9.94299 4.60761L10.3034 4.90012L10.6638 5.19264L11.296 5.74264C11.6451 6.04636 12.1743 6.00945 12.4779 5.66022L12.9305 5.13959L13.7375 4.21108C13.8463 4.08597 13.836 3.89709 13.7143 3.78455L13.4958 3.58257L12.3861 2.62292L11.4612 1.82305C11.3384 1.71687 11.204 1.62494 11.0606 1.54902ZM14.1241 5.2774L13.7626 5.04861L13.7474 5.03586C13.7389 5.02879 13.7264 5.02978 13.7192 5.03809L13.3632 5.44764L13.1893 5.64771C13.0815 5.7717 13.0946 5.95955 13.2185 6.06742L13.4428 6.26267L13.5352 6.36457L13.55 6.38087C13.5931 6.42839 13.6664 6.43256 13.7146 6.39024L13.8016 6.31399L14.0715 6.08068L14.2074 5.96326C14.2965 5.88626 14.3766 5.79939 14.4461 5.70433L14.5255 5.59571C14.5397 5.57632 14.5365 5.54926 14.5181 5.53373L14.4856 5.50619L14.1241 5.2774ZM9.92572 5.3974L9.82494 5.49178L9.21603 6.05438L8.61826 6.60671C8.6112 6.61324 8.60733 6.62253 8.60769 6.63215C8.60804 6.64167 8.61292 6.65045 8.62081 6.65578L9.08818 6.9713L9.56812 7.2953L9.62556 7.34575C9.65621 7.37267 9.70345 7.36696 9.72681 7.33352L9.77718 7.26142L9.87136 7.12663L10.2811 6.63354L10.6908 6.14045L10.7361 6.06896C10.7626 6.0271 10.7567 5.9725 10.722 5.93718L10.6937 5.90837L10.606 5.81922L10.3163 5.56113L10.1296 5.39488C10.0712 5.34286 9.98281 5.34396 9.92572 5.3974Z" fill="#52B36C"/>
<path fill-rule="evenodd" clip-rule="evenodd" d="M14.5628 3.87612C14.5742 3.90908 14.576 3.9446 14.5679 3.97852L14.5604 4.00988C14.5473 4.06459 14.5212 4.11534 14.4843 4.1578L14.249 4.42859L14.0405 4.66844C13.9929 4.72313 13.9933 4.80459 14.0413 4.85885L14.1253 4.95368L14.3616 5.23571L14.5713 5.48597C14.5838 5.50087 14.6075 5.4979 14.6159 5.48039C14.6279 5.45552 14.6423 5.43188 14.6588 5.40981L14.7779 5.25114L14.8536 5.15029C14.8988 5.09007 14.9538 5.03792 15.0164 4.99605C15.0785 4.95452 15.1498 4.92871 15.2241 4.92086L15.2659 4.91644L15.3041 4.91239C15.3808 4.90428 15.4583 4.91448 15.5303 4.94215C15.6029 4.97007 15.6712 5.00815 15.7331 5.05527L15.9665 5.23285L16.2933 5.48146L16.5249 5.67883L16.6696 5.80221C16.7269 5.85106 16.7738 5.91091 16.8075 5.97823C16.8413 6.04566 16.8622 6.11878 16.8691 6.19386L16.8716 6.21984L16.8735 6.24063C16.8808 6.31934 16.876 6.39871 16.8591 6.47594C16.8424 6.55236 16.8064 6.62323 16.7546 6.68184L16.4438 7.03353L16.054 7.47462L15.6099 7.9205L15.1658 8.36639L15.0125 8.51042L14.9485 8.57048C14.8894 8.62595 14.8205 8.66982 14.7452 8.6998L14.7181 8.71058C14.6611 8.73332 14.5993 8.74194 14.5382 8.7357L14.5264 8.73449C14.4725 8.72898 14.4194 8.71689 14.3684 8.69847C14.3178 8.68017 14.2715 8.65152 14.2326 8.61434L13.8035 8.20478L13.3872 7.80731C13.3395 7.76177 13.2963 7.71168 13.2584 7.65775C13.2211 7.6049 13.2004 7.54219 13.1988 7.47756L13.1978 7.43528L13.1955 7.33954C13.1948 7.31015 13.2051 7.28155 13.2244 7.25939C13.232 7.2507 13.2461 7.25807 13.2433 7.26924L13.2296 7.32395C13.2133 7.38885 13.2141 7.45688 13.2321 7.52135L13.2336 7.52672C13.2524 7.59439 13.2906 7.65504 13.3437 7.70111L13.4534 7.79652L13.6444 7.96256L13.9933 8.22719L14.2773 8.44268C14.3201 8.47509 14.3689 8.49852 14.4209 8.51155L14.4238 8.51226C14.4736 8.52472 14.5258 8.52406 14.5752 8.51035C14.6244 8.49672 14.6682 8.46844 14.7009 8.42926L14.7227 8.40318L14.7946 8.31695L15.1225 7.87609L15.4504 7.43525L15.9029 6.87863L16.3135 6.37361C16.3404 6.34053 16.3533 6.29823 16.3494 6.25576C16.3455 6.21304 16.3263 6.17317 16.2953 6.14348L15.8607 5.72678L15.4294 5.31324C15.3958 5.28105 15.3542 5.2585 15.3089 5.24795C15.264 5.23752 15.2169 5.24214 15.1748 5.2611L15.1708 5.26291C15.1253 5.28344 15.0837 5.3118 15.048 5.34672L14.792 5.59706L14.7277 5.65989C14.5644 5.81955 14.4196 5.99718 14.2963 6.18939L14.1106 6.47864L13.949 6.7073L13.8294 6.87643C13.8019 6.91542 13.7644 6.94633 13.7208 6.96596C13.6781 6.98524 13.6297 6.98761 13.5853 6.97258L13.5782 6.97017C13.5312 6.95423 13.4792 6.96483 13.4421 6.99792L13.4401 6.99974C13.4334 7.00568 13.424 6.99679 13.4295 6.98979L13.4317 6.98698C13.4612 6.94945 13.4545 6.89504 13.4166 6.86589L13.2913 6.76932L13.0973 6.61979L12.8725 6.44532C12.7463 6.34742 12.5657 6.36512 12.4609 6.48564L12.391 6.5661L12.1909 6.79628C12.1537 6.83902 12.1068 6.87215 12.0541 6.89283L12.0274 6.9033C11.9925 6.91698 11.9543 6.91976 11.9178 6.91126C11.8809 6.9027 11.8468 6.88527 11.8183 6.86047L11.543 6.62125L11.4074 6.50333C11.3046 6.41395 11.15 6.42003 11.0545 6.5172L10.8845 6.69013L10.5475 7.05574L10.2104 7.42134L10.0562 7.57331L9.97147 7.65685C9.93403 7.69374 9.93593 7.75471 9.97561 7.78919C10.0239 7.8312 10.0613 7.88435 10.0844 7.94404L10.0893 7.95652L10.1105 8.01121C10.123 8.04359 10.1322 8.07718 10.1379 8.11144C10.1436 8.14571 10.1455 8.18051 10.1437 8.2152L10.1413 8.25844C10.138 8.32142 10.1221 8.3831 10.0947 8.43988L10.0936 8.4422C10.0652 8.5009 10.0303 8.55624 9.98965 8.6072L9.25878 9.5232L8.46672 10.5159L8.0486 11.0364L7.63048 11.5568L7.01537 12.2721L6.50539 12.8652C6.43615 12.9457 6.35003 13.01 6.25315 13.0535L6.24559 13.0569C6.15335 13.0983 6.05419 13.1221 5.95321 13.1271C5.85242 13.1321 5.7508 13.116 5.65638 13.0804C5.56112 13.0444 5.47308 12.9917 5.39645 12.9246L5.14999 12.709L4.78765 12.392L4.3333 11.9678L3.95072 11.6106C3.90315 11.5662 3.86267 11.5148 3.83068 11.4581C3.79863 11.4014 3.77384 11.3408 3.7569 11.2778L3.74712 11.2415C3.72389 11.1553 3.72069 11.0648 3.73776 10.9771L3.74145 10.9582L3.75303 10.8986C3.76495 10.8373 3.78783 10.7787 3.82058 10.7256C3.85348 10.6722 3.89184 10.6223 3.93503 10.5768L4.9427 9.51515L6.01534 8.38507L6.76978 7.54094L7.51451 6.70768C7.51817 6.70359 7.52494 6.70588 7.52535 6.71135C7.52605 6.72067 7.5231 6.7299 7.51712 6.73709L6.76679 7.63859L6.00715 8.55127L5.07459 9.72192L4.19858 10.8216C4.16133 10.8683 4.13483 10.9227 4.12098 10.9809C4.10728 11.0383 4.11187 11.0989 4.13389 11.1537C4.15619 11.2092 4.19201 11.2582 4.23811 11.2962L4.98368 11.912L5.74208 12.5384C5.77964 12.5694 5.82505 12.5894 5.87329 12.5962L5.89516 12.5993C5.92923 12.6041 5.96395 12.6003 5.99615 12.5882C6.0284 12.5761 6.05727 12.5564 6.08033 12.5308L6.74533 11.7922L7.44544 11.0147L8.67511 9.71217L9.84939 8.46828C9.88605 8.42944 9.91619 8.38492 9.93863 8.33645L9.94135 8.33058C9.96199 8.28597 9.97576 8.23849 9.98218 8.18976C9.98855 8.14127 9.98486 8.09198 9.97135 8.04498L9.9704 8.04166C9.95621 7.99232 9.93334 7.94591 9.90287 7.90459L9.89045 7.88776L9.88515 7.88057C9.85237 7.83614 9.79787 7.81324 9.74319 7.82094C9.68745 7.82879 9.63133 7.80941 9.5923 7.76884L9.40771 7.57695L9.16097 7.32047L8.91198 7.03548L8.663 6.75049L8.49985 6.60302L8.41285 6.52441C8.36244 6.47886 8.30461 6.44227 8.24185 6.41623C8.17965 6.39045 8.11189 6.38098 8.04501 6.38873L8.00812 6.393L7.8895 6.40675C7.88233 6.40758 7.87788 6.39915 7.88262 6.39369C7.89123 6.38379 7.90325 6.37749 7.91629 6.37606L8.00637 6.36612L8.01764 6.36487C8.08318 6.35763 8.14948 6.36202 8.21349 6.37786C8.27735 6.39366 8.33746 6.42192 8.39038 6.461L8.4445 6.50097L8.56371 6.58905C8.5722 6.59533 8.58409 6.59402 8.59102 6.58605L8.60331 6.57191L8.88986 6.14326L9.17641 5.7146L9.44252 5.35841L9.45452 5.34234C9.59916 5.14871 9.57507 4.87729 9.39859 4.71216L9.18938 4.51641C9.12477 4.45596 9.08653 4.37253 9.08291 4.28413C9.07922 4.19474 9.10552 4.10668 9.15761 4.03394L9.18381 3.99737C9.25425 3.89902 9.30615 3.7878 9.33653 3.67069C9.36713 3.55285 9.37881 3.4309 9.37113 3.30939L9.37034 3.29696L9.36729 3.24855C9.36113 3.1509 9.33899 3.05492 9.30175 2.96443C9.26436 2.87354 9.21863 2.7863 9.16516 2.70383L9.15716 2.6915C9.0987 2.6013 9.02518 2.52182 8.93981 2.45652L8.89943 2.42563L8.86883 2.40223C8.7769 2.33191 8.67426 2.27684 8.56483 2.23913C8.45501 2.20125 8.34154 2.17489 8.22627 2.16046L8.19844 2.15698C8.06461 2.14021 7.9295 2.13622 7.79492 2.14506L7.71728 2.15016L7.70704 2.15083C7.52769 2.1626 7.34995 2.19222 7.17647 2.23925L7.12172 2.25409C6.98454 2.29128 6.85057 2.33941 6.7211 2.39804L6.52661 2.48611L6.36467 2.58155L6.21898 2.66739C6.21149 2.6718 6.20197 2.66682 6.20132 2.65815C6.20039 2.64587 6.20309 2.63359 6.20909 2.62284L6.28204 2.49211L6.36417 2.34492L6.50535 2.15459C6.59925 2.02795 6.70474 1.91032 6.82043 1.80321L6.85476 1.77142L6.87704 1.7508C7.00088 1.63616 7.13274 1.5305 7.2716 1.4346L7.48017 1.29058L7.71372 1.17126L7.94728 1.05194L8.174 0.971705L8.4007 0.891454L8.63962 0.839163C8.79866 0.804356 8.96019 0.782063 9.12271 0.772487L9.25201 0.764869L9.33933 0.75972C9.52969 0.748496 9.72068 0.754563 9.90994 0.777848L10.1944 0.81285L10.4797 0.88756L10.765 0.962271L10.9567 1.03747L11.1484 1.11266L11.4349 1.2731C11.6254 1.37986 11.8062 1.50326 11.9751 1.64184L12.3448 1.9452L12.9683 2.45686L13.7568 3.14126L14.5051 3.79066C14.5315 3.81358 14.5514 3.84306 14.5628 3.87612ZM11.0606 1.54902L10.8447 1.43476L10.6635 1.36108L10.4824 1.28739L10.1961 1.2138L9.90986 1.14022L9.66511 1.11237L9.42037 1.08452L9.15403 1.08789C8.97676 1.09011 8.79996 1.10652 8.62531 1.13694L8.61447 1.13883L8.34123 1.1864L8.07679 1.2711L7.81231 1.35581L7.59623 1.45999C7.45234 1.52935 7.31374 1.60917 7.18154 1.69882L7.12249 1.73886C6.95136 1.85492 6.79472 1.99101 6.65589 2.14424L6.54863 2.26262L6.41493 2.41016C6.38746 2.44049 6.42563 2.48517 6.45987 2.46277L6.68736 2.31387L6.88353 2.21894C7.01403 2.1558 7.15 2.10465 7.28976 2.06612L7.36255 2.04605C7.55063 1.99422 7.74355 1.96195 7.93826 1.94973L7.94378 1.94938L8.05909 1.94214C8.1808 1.93449 8.30297 1.93912 8.42376 1.95594L8.43072 1.95691C8.54691 1.97312 8.66126 2.00047 8.7722 2.0386C8.88268 2.07656 8.9862 2.13234 9.07866 2.20374L9.12169 2.23698L9.17053 2.27469C9.2594 2.34333 9.3395 2.42264 9.409 2.51084C9.47849 2.59902 9.5364 2.69572 9.58133 2.7986L9.61172 2.86817C9.67664 3.01677 9.71601 3.17526 9.72816 3.33696L9.72849 3.34133L9.73138 3.37978C9.74185 3.51901 9.72975 3.65901 9.69555 3.79437L9.68063 3.85337C9.65623 3.94991 9.62005 4.04309 9.57291 4.1308C9.53191 4.20709 9.55181 4.30183 9.62005 4.35517L9.72246 4.43522L9.94299 4.60761L10.3034 4.90012L10.6638 5.19264L11.296 5.74264C11.6451 6.04636 12.1743 6.00945 12.4779 5.66022L12.9305 5.13959L13.7375 4.21108C13.8463 4.08597 13.836 3.89709 13.7143 3.78455L13.4958 3.58257L12.3861 2.62292L11.4612 1.82305C11.3384 1.71687 11.204 1.62494 11.0606 1.54902ZM14.1241 5.2774L13.7626 5.04861L13.7474 5.03586C13.7389 5.02879 13.7264 5.02978 13.7192 5.03809L13.3632 5.44764L13.1893 5.64771C13.0815 5.7717 13.0946 5.95955 13.2185 6.06742L13.4428 6.26267L13.5352 6.36457L13.55 6.38087C13.5931 6.42839 13.6664 6.43256 13.7146 6.39024L13.8016 6.31399L14.0715 6.08068L14.2074 5.96326C14.2965 5.88626 14.3766 5.79939 14.4461 5.70433L14.5255 5.59571C14.5397 5.57632 14.5365 5.54926 14.5181 5.53373L14.4856 5.50619L14.1241 5.2774ZM9.92572 5.3974L9.82494 5.49178L9.21603 6.05438L8.61826 6.60671C8.6112 6.61324 8.60733 6.62253 8.60769 6.63215C8.60804 6.64167 8.61292 6.65045 8.62081 6.65578L9.08818 6.9713L9.56812 7.2953L9.62556 7.34575C9.65621 7.37267 9.70345 7.36696 9.72681 7.33352L9.77718 7.26142L9.87136 7.12663L10.2811 6.63354L10.6908 6.14045L10.7361 6.06896C10.7626 6.0271 10.7567 5.9725 10.722 5.93718L10.6937 5.90837L10.606 5.81922L10.3163 5.56113L10.1296 5.39488C10.0712 5.34286 9.98281 5.34396 9.92572 5.3974Z" stroke="#52B36C" stroke-width="0.6" mask="url(#path-2-outside-1_1988_100318)"/>
<path d="M21.5 22.0002V7.00022C21.5 6.14711 20.375 5.64476 20 6.00022L5 22.0002H21.5Z" fill="#F0F0F0"/>
<mask id="path-4-outside-2_1988_100318" maskUnits="userSpaceOnUse" x="3.6875" y="4.69336" width="19" height="19" fill="black">
<rect fill="white" x="3.6875" y="4.69336" width="19" height="19"/>
<path fill-rule="evenodd" clip-rule="evenodd" d="M20.4875 5.72003L20.3269 5.74667L20.1894 5.81739L20.0518 5.8881L19.9233 6.00543L19.7947 6.12272L19.0288 6.9136L18.2628 7.70447L16.3335 9.72233L14.4042 11.7401L13.8693 12.3051L13.3343 12.8701V12.8956V12.9212L13.9745 12.3129L14.6147 11.7047L16.5615 9.84127L18.5084 7.9778L19.3854 7.12575L20.2623 6.2737L20.35 6.22874L20.4377 6.18382L20.5488 6.15988L20.6599 6.13598L20.7985 6.17333L20.9372 6.2107L21.0339 6.28679L21.1305 6.36288L21.1955 6.506L21.2605 6.64915L21.2612 7.12294L21.2618 7.59673L21.2389 8.20045L21.2161 8.80416L21.1443 8.76573L21.0726 8.7273H20.8951H20.7176L20.5777 8.79911L20.4377 8.87088L20.3512 8.96363L20.2647 9.05636L20.3019 9.11619L20.3391 9.17603L20.4848 9.28792L20.6304 9.3998L20.78 9.42226L20.9295 9.44469L21.0782 9.39345L21.227 9.34217V10.1942V11.0463L21.0134 10.9798L20.7998 10.9133H20.5562H20.3127L20.0948 10.9867L19.8769 11.0601L19.7458 11.1566L19.6146 11.2531L19.693 11.3268L19.7714 11.4005L19.9818 11.499L20.1922 11.5976L20.5605 11.5964L20.9288 11.5952L21.0604 11.5368L21.1919 11.4784V12.3128V13.1472L21.0192 13.1118L20.8465 13.0764L20.6993 13.1206L20.552 13.1647L20.4072 13.3007L20.2623 13.4367L20.3008 13.4998L20.3392 13.563L20.4881 13.6683L20.637 13.7735H20.9144H21.1919V14.5895V15.4055H21.1788H21.1656L21.0122 15.3493L20.8587 15.2932L20.578 15.2903L20.2974 15.2874L20.1183 15.3475L19.9392 15.4077L19.7731 15.5132L19.6069 15.6186L19.6519 15.6729L19.6969 15.7271L19.9006 15.8299L20.1043 15.9328L20.3587 15.971L20.6131 16.0091L20.8411 15.9581L21.0691 15.9071L21.1305 15.8807L21.1919 15.8542V16.5199V17.1856L21.1704 17.3422L21.149 17.4988L20.9639 17.4834L20.7788 17.4681L20.6515 17.5101L20.5242 17.5521L20.402 17.6674L20.2799 17.7827V17.8244V17.8661L20.3931 17.9696L20.5063 18.073L20.6564 18.1304L20.8065 18.1878L20.9817 18.167L21.1568 18.1462V18.9518V19.7573H21.1421H21.1274L20.9053 19.7004L20.6833 19.6434L20.4552 19.6625L20.2272 19.6816L20.0335 19.7541L19.8399 19.8266L19.7216 19.9254L19.6032 20.0242L19.7749 20.1331L19.9466 20.242L20.1145 20.298L20.2823 20.354L20.5705 20.3524L20.8587 20.3509L20.999 20.3003L21.1393 20.2497L21.148 20.2492L21.1568 20.2487V20.9868V21.7249L21.1087 21.8379L21.0606 21.9508L20.9656 22.0386L20.8707 22.1263L19.5317 22.1484L18.1927 22.1705L14.8427 22.1769L11.4927 22.1832L8.59913 22.211L5.70558 22.2388L5.59522 22.2083L5.48487 22.1779L5.39759 22.1092L5.31028 22.0404L5.2503 21.914L5.19028 21.7875V21.6362V21.4848L5.2437 21.3815L5.29713 21.2782L6.74622 19.7883L8.19534 18.2985L10.1071 16.2986L12.0189 14.2988L12.5889 13.6983L13.1589 13.0977V13.0718V13.0459L12.5904 13.5852L12.0218 14.1245L10.8456 15.2476L9.66934 16.3706L8.73941 17.2645L7.80948 18.1584L6.37126 19.5548L4.93305 20.9512L4.81027 21.1843L4.6875 21.4173L4.68796 21.6665L4.68841 21.9157L4.78084 22.1139L4.87328 22.3122L5.0111 22.45L5.14892 22.5879L5.32161 22.6722L5.4943 22.7565L6.61681 22.7832L7.73932 22.8098L14.1938 22.8382L20.6482 22.8667L20.8238 22.8428L20.9995 22.819L21.1673 22.7401L21.3351 22.6612L21.4888 22.5117L21.6424 22.3623L21.7145 22.221L21.7866 22.0797L21.8237 21.914L21.8608 21.7483L21.8214 15.2341L21.7821 8.71979L21.7583 7.61428L21.7345 6.50877L21.6152 6.28763L21.4959 6.06646L21.3877 5.97493L21.2796 5.88337L21.1042 5.8051L20.9288 5.72681L20.7885 5.7101L20.6482 5.69336L20.4875 5.72003ZM18.3505 11.6312L18.2628 11.6796L17.1733 12.8143L16.0837 13.949L15.3137 14.7738L14.5438 15.5985L13.3758 16.8707L12.2078 18.1428L11.6135 18.7748L11.0192 19.4068V19.4319V19.4571L11.2559 19.227L11.4927 18.9969L12.0892 18.4383L12.6857 17.8797L14.0185 16.6531L15.3513 15.4264L16.121 14.7053L16.8908 13.9841L17.5242 13.3734L18.1576 12.7627L18.1789 15.988L18.2002 19.2134L18.1964 19.218L18.1927 19.2227L17.0526 19.2631L15.9126 19.3035L14.527 19.3714L13.1414 19.4394L12.0903 19.4772L11.0393 19.515L11.0277 19.5265L11.0161 19.5381L11.6754 19.5617L12.3346 19.5854L13.7553 19.6535L15.1759 19.7217L15.9828 19.7557L16.7896 19.7897L17.7026 19.8136L18.6157 19.8375L18.7199 19.7478L18.8241 19.6582L18.8504 18.1197L18.8768 16.5812L18.868 14.183L18.8592 11.7849L18.7446 11.6825L18.63 11.5801L18.5341 11.5815L18.4382 11.5829L18.3505 11.6312Z"/>
</mask>
<path fill-rule="evenodd" clip-rule="evenodd" d="M20.4875 5.72003L20.3269 5.74667L20.1894 5.81739L20.0518 5.8881L19.9233 6.00543L19.7947 6.12272L19.0288 6.9136L18.2628 7.70447L16.3335 9.72233L14.4042 11.7401L13.8693 12.3051L13.3343 12.8701V12.8956V12.9212L13.9745 12.3129L14.6147 11.7047L16.5615 9.84127L18.5084 7.9778L19.3854 7.12575L20.2623 6.2737L20.35 6.22874L20.4377 6.18382L20.5488 6.15988L20.6599 6.13598L20.7985 6.17333L20.9372 6.2107L21.0339 6.28679L21.1305 6.36288L21.1955 6.506L21.2605 6.64915L21.2612 7.12294L21.2618 7.59673L21.2389 8.20045L21.2161 8.80416L21.1443 8.76573L21.0726 8.7273H20.8951H20.7176L20.5777 8.79911L20.4377 8.87088L20.3512 8.96363L20.2647 9.05636L20.3019 9.11619L20.3391 9.17603L20.4848 9.28792L20.6304 9.3998L20.78 9.42226L20.9295 9.44469L21.0782 9.39345L21.227 9.34217V10.1942V11.0463L21.0134 10.9798L20.7998 10.9133H20.5562H20.3127L20.0948 10.9867L19.8769 11.0601L19.7458 11.1566L19.6146 11.2531L19.693 11.3268L19.7714 11.4005L19.9818 11.499L20.1922 11.5976L20.5605 11.5964L20.9288 11.5952L21.0604 11.5368L21.1919 11.4784V12.3128V13.1472L21.0192 13.1118L20.8465 13.0764L20.6993 13.1206L20.552 13.1647L20.4072 13.3007L20.2623 13.4367L20.3008 13.4998L20.3392 13.563L20.4881 13.6683L20.637 13.7735H20.9144H21.1919V14.5895V15.4055H21.1788H21.1656L21.0122 15.3493L20.8587 15.2932L20.578 15.2903L20.2974 15.2874L20.1183 15.3475L19.9392 15.4077L19.7731 15.5132L19.6069 15.6186L19.6519 15.6729L19.6969 15.7271L19.9006 15.8299L20.1043 15.9328L20.3587 15.971L20.6131 16.0091L20.8411 15.9581L21.0691 15.9071L21.1305 15.8807L21.1919 15.8542V16.5199V17.1856L21.1704 17.3422L21.149 17.4988L20.9639 17.4834L20.7788 17.4681L20.6515 17.5101L20.5242 17.5521L20.402 17.6674L20.2799 17.7827V17.8244V17.8661L20.3931 17.9696L20.5063 18.073L20.6564 18.1304L20.8065 18.1878L20.9817 18.167L21.1568 18.1462V18.9518V19.7573H21.1421H21.1274L20.9053 19.7004L20.6833 19.6434L20.4552 19.6625L20.2272 19.6816L20.0335 19.7541L19.8399 19.8266L19.7216 19.9254L19.6032 20.0242L19.7749 20.1331L19.9466 20.242L20.1145 20.298L20.2823 20.354L20.5705 20.3524L20.8587 20.3509L20.999 20.3003L21.1393 20.2497L21.148 20.2492L21.1568 20.2487V20.9868V21.7249L21.1087 21.8379L21.0606 21.9508L20.9656 22.0386L20.8707 22.1263L19.5317 22.1484L18.1927 22.1705L14.8427 22.1769L11.4927 22.1832L8.59913 22.211L5.70558 22.2388L5.59522 22.2083L5.48487 22.1779L5.39759 22.1092L5.31028 22.0404L5.2503 21.914L5.19028 21.7875V21.6362V21.4848L5.2437 21.3815L5.29713 21.2782L6.74622 19.7883L8.19534 18.2985L10.1071 16.2986L12.0189 14.2988L12.5889 13.6983L13.1589 13.0977V13.0718V13.0459L12.5904 13.5852L12.0218 14.1245L10.8456 15.2476L9.66934 16.3706L8.73941 17.2645L7.80948 18.1584L6.37126 19.5548L4.93305 20.9512L4.81027 21.1843L4.6875 21.4173L4.68796 21.6665L4.68841 21.9157L4.78084 22.1139L4.87328 22.3122L5.0111 22.45L5.14892 22.5879L5.32161 22.6722L5.4943 22.7565L6.61681 22.7832L7.73932 22.8098L14.1938 22.8382L20.6482 22.8667L20.8238 22.8428L20.9995 22.819L21.1673 22.7401L21.3351 22.6612L21.4888 22.5117L21.6424 22.3623L21.7145 22.221L21.7866 22.0797L21.8237 21.914L21.8608 21.7483L21.8214 15.2341L21.7821 8.71979L21.7583 7.61428L21.7345 6.50877L21.6152 6.28763L21.4959 6.06646L21.3877 5.97493L21.2796 5.88337L21.1042 5.8051L20.9288 5.72681L20.7885 5.7101L20.6482 5.69336L20.4875 5.72003ZM18.3505 11.6312L18.2628 11.6796L17.1733 12.8143L16.0837 13.949L15.3137 14.7738L14.5438 15.5985L13.3758 16.8707L12.2078 18.1428L11.6135 18.7748L11.0192 19.4068V19.4319V19.4571L11.2559 19.227L11.4927 18.9969L12.0892 18.4383L12.6857 17.8797L14.0185 16.6531L15.3513 15.4264L16.121 14.7053L16.8908 13.9841L17.5242 13.3734L18.1576 12.7627L18.1789 15.988L18.2002 19.2134L18.1964 19.218L18.1927 19.2227L17.0526 19.2631L15.9126 19.3035L14.527 19.3714L13.1414 19.4394L12.0903 19.4772L11.0393 19.515L11.0277 19.5265L11.0161 19.5381L11.6754 19.5617L12.3346 19.5854L13.7553 19.6535L15.1759 19.7217L15.9828 19.7557L16.7896 19.7897L17.7026 19.8136L18.6157 19.8375L18.7199 19.7478L18.8241 19.6582L18.8504 18.1197L18.8768 16.5812L18.868 14.183L18.8592 11.7849L18.7446 11.6825L18.63 11.5801L18.5341 11.5815L18.4382 11.5829L18.3505 11.6312Z" fill="#52B36C"/>
<path fill-rule="evenodd" clip-rule="evenodd" d="M20.4875 5.72003L20.3269 5.74667L20.1894 5.81739L20.0518 5.8881L19.9233 6.00543L19.7947 6.12272L19.0288 6.9136L18.2628 7.70447L16.3335 9.72233L14.4042 11.7401L13.8693 12.3051L13.3343 12.8701V12.8956V12.9212L13.9745 12.3129L14.6147 11.7047L16.5615 9.84127L18.5084 7.9778L19.3854 7.12575L20.2623 6.2737L20.35 6.22874L20.4377 6.18382L20.5488 6.15988L20.6599 6.13598L20.7985 6.17333L20.9372 6.2107L21.0339 6.28679L21.1305 6.36288L21.1955 6.506L21.2605 6.64915L21.2612 7.12294L21.2618 7.59673L21.2389 8.20045L21.2161 8.80416L21.1443 8.76573L21.0726 8.7273H20.8951H20.7176L20.5777 8.79911L20.4377 8.87088L20.3512 8.96363L20.2647 9.05636L20.3019 9.11619L20.3391 9.17603L20.4848 9.28792L20.6304 9.3998L20.78 9.42226L20.9295 9.44469L21.0782 9.39345L21.227 9.34217V10.1942V11.0463L21.0134 10.9798L20.7998 10.9133H20.5562H20.3127L20.0948 10.9867L19.8769 11.0601L19.7458 11.1566L19.6146 11.2531L19.693 11.3268L19.7714 11.4005L19.9818 11.499L20.1922 11.5976L20.5605 11.5964L20.9288 11.5952L21.0604 11.5368L21.1919 11.4784V12.3128V13.1472L21.0192 13.1118L20.8465 13.0764L20.6993 13.1206L20.552 13.1647L20.4072 13.3007L20.2623 13.4367L20.3008 13.4998L20.3392 13.563L20.4881 13.6683L20.637 13.7735H20.9144H21.1919V14.5895V15.4055H21.1788H21.1656L21.0122 15.3493L20.8587 15.2932L20.578 15.2903L20.2974 15.2874L20.1183 15.3475L19.9392 15.4077L19.7731 15.5132L19.6069 15.6186L19.6519 15.6729L19.6969 15.7271L19.9006 15.8299L20.1043 15.9328L20.3587 15.971L20.6131 16.0091L20.8411 15.9581L21.0691 15.9071L21.1305 15.8807L21.1919 15.8542V16.5199V17.1856L21.1704 17.3422L21.149 17.4988L20.9639 17.4834L20.7788 17.4681L20.6515 17.5101L20.5242 17.5521L20.402 17.6674L20.2799 17.7827V17.8244V17.8661L20.3931 17.9696L20.5063 18.073L20.6564 18.1304L20.8065 18.1878L20.9817 18.167L21.1568 18.1462V18.9518V19.7573H21.1421H21.1274L20.9053 19.7004L20.6833 19.6434L20.4552 19.6625L20.2272 19.6816L20.0335 19.7541L19.8399 19.8266L19.7216 19.9254L19.6032 20.0242L19.7749 20.1331L19.9466 20.242L20.1145 20.298L20.2823 20.354L20.5705 20.3524L20.8587 20.3509L20.999 20.3003L21.1393 20.2497L21.148 20.2492L21.1568 20.2487V20.9868V21.7249L21.1087 21.8379L21.0606 21.9508L20.9656 22.0386L20.8707 22.1263L19.5317 22.1484L18.1927 22.1705L14.8427 22.1769L11.4927 22.1832L8.59913 22.211L5.70558 22.2388L5.59522 22.2083L5.48487 22.1779L5.39759 22.1092L5.31028 22.0404L5.2503 21.914L5.19028 21.7875V21.6362V21.4848L5.2437 21.3815L5.29713 21.2782L6.74622 19.7883L8.19534 18.2985L10.1071 16.2986L12.0189 14.2988L12.5889 13.6983L13.1589 13.0977V13.0718V13.0459L12.5904 13.5852L12.0218 14.1245L10.8456 15.2476L9.66934 16.3706L8.73941 17.2645L7.80948 18.1584L6.37126 19.5548L4.93305 20.9512L4.81027 21.1843L4.6875 21.4173L4.68796 21.6665L4.68841 21.9157L4.78084 22.1139L4.87328 22.3122L5.0111 22.45L5.14892 22.5879L5.32161 22.6722L5.4943 22.7565L6.61681 22.7832L7.73932 22.8098L14.1938 22.8382L20.6482 22.8667L20.8238 22.8428L20.9995 22.819L21.1673 22.7401L21.3351 22.6612L21.4888 22.5117L21.6424 22.3623L21.7145 22.221L21.7866 22.0797L21.8237 21.914L21.8608 21.7483L21.8214 15.2341L21.7821 8.71979L21.7583 7.61428L21.7345 6.50877L21.6152 6.28763L21.4959 6.06646L21.3877 5.97493L21.2796 5.88337L21.1042 5.8051L20.9288 5.72681L20.7885 5.7101L20.6482 5.69336L20.4875 5.72003ZM18.3505 11.6312L18.2628 11.6796L17.1733 12.8143L16.0837 13.949L15.3137 14.7738L14.5438 15.5985L13.3758 16.8707L12.2078 18.1428L11.6135 18.7748L11.0192 19.4068V19.4319V19.4571L11.2559 19.227L11.4927 18.9969L12.0892 18.4383L12.6857 17.8797L14.0185 16.6531L15.3513 15.4264L16.121 14.7053L16.8908 13.9841L17.5242 13.3734L18.1576 12.7627L18.1789 15.988L18.2002 19.2134L18.1964 19.218L18.1927 19.2227L17.0526 19.2631L15.9126 19.3035L14.527 19.3714L13.1414 19.4394L12.0903 19.4772L11.0393 19.515L11.0277 19.5265L11.0161 19.5381L11.6754 19.5617L12.3346 19.5854L13.7553 19.6535L15.1759 19.7217L15.9828 19.7557L16.7896 19.7897L17.7026 19.8136L18.6157 19.8375L18.7199 19.7478L18.8241 19.6582L18.8504 18.1197L18.8768 16.5812L18.868 14.183L18.8592 11.7849L18.7446 11.6825L18.63 11.5801L18.5341 11.5815L18.4382 11.5829L18.3505 11.6312Z" stroke="#52B36C" stroke-width="0.6" mask="url(#path-4-outside-2_1988_100318)"/>
</svg>
