<svg width="60" height="60" viewBox="0 0 60 60" fill="none" xmlns="http://www.w3.org/2000/svg">
<path d="M5.45454 8H54.5454C57.2819 8 59.5 10.2182 59.5 12.9545V45.6818C59.5 48.4182 57.2819 50.6363 54.5454 50.6363H5.45454C2.71821 50.6363 0.5 48.4182 0.5 45.6818V12.9545C0.5 10.2182 2.71822 8 5.45454 8Z" stroke="#52B36C"/>
<path d="M0.5 26.0909V16.1819H59.5V26.0909H0.5Z" stroke="#52B36C"/>
<path d="M42.2697 38H50.4517C50.9286 38 51.3154 38.3867 51.3154 38.8637V41.5909C51.3154 42.0679 50.9286 42.4546 50.4517 42.4546H42.2697C41.7929 42.4546 41.4062 42.068 41.4062 41.5909V38.8637C41.4062 38.3866 41.7929 38 42.2697 38Z" stroke="#52B36C"/>
<path d="M14.9986 43.079L15.3736 43.5043C15.6061 43.768 15.8635 44.0039 16.1464 44.2128C16.4293 44.4217 16.7306 44.5984 17.051 44.743C17.3712 44.8875 17.703 44.9967 18.0469 45.0708C18.3906 45.1448 18.7379 45.1817 19.0895 45.1817C19.2515 45.1817 19.4132 45.1737 19.5748 45.1579C19.7368 45.1418 19.8971 45.1181 20.0559 45.0865L20.056 45.0865C20.2153 45.0548 20.3724 45.0155 20.5276 44.9684L20.5279 44.9683C20.6828 44.9213 20.8354 44.8667 20.9858 44.8045C21.1356 44.7424 21.282 44.6731 21.425 44.5967L21.4252 44.5966C21.5683 44.5202 21.7071 44.437 21.8418 44.3469L21.8421 44.3466C21.977 44.2565 22.1073 44.16 22.2325 44.0572C22.3581 43.9541 22.4781 43.8453 22.5925 43.7307L22.5931 43.7302C22.7077 43.6158 22.8164 43.4958 22.9195 43.3703C23.0223 43.245 23.1188 43.1147 23.2089 42.9798L23.2092 42.9794C23.2993 42.8448 23.3825 42.706 23.4589 42.5629L23.459 42.5626C23.5355 42.4195 23.6049 42.273 23.6671 42.123C23.7291 41.9728 23.7837 41.8203 23.8306 41.6656L23.8307 41.6653C23.8778 41.5101 23.9171 41.353 23.9488 41.1937L23.9489 41.1936C23.9805 41.0344 24.0044 40.8743 24.0202 40.7129L24.0202 40.7129C24.036 40.5512 24.044 40.3894 24.044 40.2271C24.044 40.0649 24.036 39.9031 24.0202 39.7414L24.0202 39.7413C24.0044 39.58 23.9805 39.4199 23.9489 39.2607L23.9488 39.2606C23.9171 39.1013 23.8778 38.9442 23.8307 38.789L23.8306 38.7887C23.7837 38.6338 23.729 38.4811 23.6668 38.3306L24.1289 38.1397M14.9986 43.079L22.2326 36.3972C22.3582 36.5002 22.4781 36.609 22.5925 36.7236L22.5931 36.7241C22.7077 36.8385 22.8164 36.9585 22.9195 37.084C23.0223 37.2093 23.1188 37.3396 23.2089 37.4745L23.2092 37.4748C23.2993 37.6095 23.3825 37.7483 23.4589 37.8914L23.459 37.8917C23.5355 38.0348 23.6049 38.1813 23.6671 38.3313L24.1289 38.1397M14.9986 43.079L14.6236 43.5043C14.3911 43.768 14.1337 44.0039 13.8507 44.2128C13.5679 44.4217 13.2665 44.5984 12.9462 44.743M14.9986 43.079L12.9462 44.743M24.1289 38.1397C24.0605 37.9747 23.9842 37.8135 23.9 37.656M24.1289 38.1397C24.1972 38.3049 24.2574 38.4729 24.3091 38.6437C24.361 38.8147 24.4044 38.9878 24.4392 39.1631C24.4741 39.3382 24.5004 39.5146 24.5178 39.6926C24.5352 39.8703 24.544 40.0485 24.544 40.2271C24.544 40.4058 24.5352 40.584 24.5178 40.7617C24.5004 40.9396 24.4741 41.1161 24.4392 41.2912C24.4044 41.4665 24.361 41.6396 24.3091 41.8106C24.2574 41.9814 24.1972 42.1494 24.1289 42.3146L23.9 37.656M23.9 37.656C23.8158 37.4983 23.7241 37.3453 23.6247 37.1968M23.9 37.656L23.6247 37.1968M23.6247 37.1968C23.5255 37.0483 23.4192 36.9048 23.306 36.7668L23.6247 37.1968ZM12.9462 44.743C12.6259 44.8876 12.2942 44.9967 11.9503 45.0708C11.6066 45.1448 11.2592 45.1817 10.9077 45.1817C10.7457 45.1817 10.5839 45.1737 10.4224 45.1579L12.9462 44.743ZM9.46916 44.9682L9.46963 44.9684C9.62472 45.0155 9.78187 45.0548 9.94115 45.0865C10.1001 45.1181 10.2604 45.1418 10.4224 45.1579L9.46916 44.9682ZM9.46916 44.9682C9.31427 44.9213 9.16175 44.8667 9.01158 44.8046C8.86167 44.7424 8.71519 44.6731 8.57208 44.5967L8.57206 44.5967M9.46916 44.9682L8.57206 44.5967M8.57206 44.5967C8.42891 44.5202 8.29002 44.437 8.15535 44.3468L8.15496 44.3466M8.57206 44.5967L8.15496 44.3466M8.15496 44.3466C8.02013 44.2565 7.88995 44.16 7.7644 44.057C7.63893 43.9539 7.51894 43.8452 7.40435 43.7305L7.40409 43.7303M8.15496 44.3466L7.40409 43.7303M7.40409 43.7303C7.28947 43.6158 7.18074 43.4958 7.07784 43.3704L7.07765 43.3701M7.40409 43.7303L7.07765 43.3701M7.07765 43.3701C6.97486 43.245 6.87833 43.1147 6.78809 42.9797C6.69793 42.8448 6.61465 42.7059 6.53824 42.5628L6.53812 42.5626M7.07765 43.3701L6.53812 42.5626M6.53812 42.5626C6.46166 42.4196 6.3924 42.2732 6.33032 42.1234C6.26818 41.9732 6.21355 41.8205 6.16642 41.6653C6.11933 41.51 6.07996 41.3529 6.04835 41.1938L6.04832 41.1936M6.53812 42.5626L6.04832 41.1936M6.04832 41.1936C6.01667 41.0346 5.9929 40.8744 5.97699 40.7127L5.97698 40.7127M6.04832 41.1936L5.97698 40.7127M5.97698 40.7127C5.96108 40.5512 5.95312 40.3895 5.95312 40.2271C5.95312 40.0648 5.96108 39.9031 5.97698 39.7416L5.97699 39.7416M5.97698 40.7127L5.97699 39.7416M5.97699 39.7416C5.9929 39.5799 6.01667 39.4197 6.04832 39.2607L6.04835 39.2605M5.97699 39.7416L6.04835 39.2605M6.04835 39.2605C6.07996 39.1014 6.11933 38.9443 6.16642 38.789L6.04835 39.2605ZM6.53824 37.8915L6.53812 37.8917C6.46166 38.0347 6.3924 38.1811 6.33032 38.3309L6.53824 37.8915ZM6.53824 37.8915C6.61465 37.7484 6.69793 37.6095 6.78809 37.4746C6.87833 37.3396 6.97486 37.2093 7.07765 37.0842L7.07784 37.0839M6.53824 37.8915L7.07784 37.0839M7.07784 37.0839C7.18074 36.9585 7.28947 36.8385 7.40409 36.724L7.40435 36.7237M7.07784 37.0839L7.40435 36.7237M7.40435 36.7237C7.51904 36.609 7.63913 36.5002 7.76471 36.397L7.44737 36.0107L7.7644 36.3973C7.88995 36.2943 8.02013 36.1977 8.15496 36.1077L8.15535 36.1075M7.40435 36.7237L8.15535 36.1075M8.15535 36.1075C8.29002 36.0173 8.42891 35.9341 8.57206 35.8576L8.57208 35.8576M8.15535 36.1075L8.57208 35.8576M8.57208 35.8576C8.71526 35.7811 8.86167 35.7118 9.01136 35.6499L9.01179 35.6498M8.57208 35.8576L9.01179 35.6498M9.01179 35.6498C9.16175 35.5876 9.31419 35.533 9.46916 35.4861L9.46963 35.4859M9.01179 35.6498L9.46963 35.4859M9.46963 35.4859C9.62473 35.4388 9.78187 35.3995 9.94115 35.3678M9.46963 35.4859L9.94115 35.3678M17.0512 35.7112C16.7306 35.8561 16.4292 36.0327 16.1464 36.2415C15.8635 36.4504 15.6061 36.6863 15.3736 36.9499L14.9986 37.3753L14.6236 36.95C14.3911 36.6863 14.1337 36.4504 13.8507 36.2415C13.5681 36.0327 13.2667 35.8562 12.9462 35.7113L17.0512 35.7112ZM17.0512 35.7112C17.3714 35.5667 17.7031 35.4576 18.0469 35.3835C18.3906 35.3095 18.7379 35.2726 19.0895 35.2726C19.2516 35.2726 19.4133 35.2806 19.575 35.2964C19.7369 35.3125 19.8972 35.3362 20.0559 35.3678L20.056 35.3678C20.2153 35.3995 20.3724 35.4388 20.5276 35.4859L20.5279 35.486C20.6828 35.533 20.8354 35.5876 20.9855 35.6498L20.9858 35.6499C21.1355 35.7118 21.2818 35.7811 21.425 35.8576L21.4252 35.8577C21.5683 35.9341 21.7071 36.0173 21.8418 36.1074L21.8421 36.1077C21.977 36.1978 22.1073 36.2943 22.2325 36.3971L17.0512 35.7112ZM9.94115 35.3678C10.1 35.3362 10.2603 35.3125 10.4221 35.2964M9.94115 35.3678L10.4221 35.2964M10.4221 35.2964C10.5838 35.2806 10.7456 35.2726 10.9077 35.2726C11.2592 35.2726 11.6065 35.3095 11.9501 35.3834L10.4221 35.2964ZM6.16648 38.7888C6.21358 38.6337 6.26816 38.4811 6.33025 38.3311L6.16648 38.7888ZM11.9503 35.3835C12.2941 35.4576 12.6257 35.5667 12.946 35.7112L11.9503 35.3835Z" stroke="#52B36C"/>
</svg>
