<svg width="25" height="24" viewBox="0 0 25 24" fill="none" xmlns="http://www.w3.org/2000/svg">
<path fill-rule="evenodd" clip-rule="evenodd" d="M16.5 10C16.5 12.2091 14.7091 14 12.5 14C10.2909 14 8.5 12.2091 8.5 10C8.5 7.79086 10.2909 6 12.5 6C14.7091 6 16.5 7.79086 16.5 10ZM20.5 20.3333V23H4.5V20.3333C4.5 18.9188 4.92143 17.5623 5.67157 16.5621C6.42172 15.5619 7.43913 15 8.5 15H16.5C17.5609 15 18.5783 15.5619 19.3284 16.5621C20.0786 17.5623 20.5 18.9188 20.5 20.3333Z" fill="#F0F0F0"/>
<path d="M20.5 23V23.5C20.7761 23.5 21 23.2761 21 23H20.5ZM4.5 23H4C4 23.2761 4.22386 23.5 4.5 23.5V23ZM5.67157 16.5621L6.07157 16.8621H6.07157L5.67157 16.5621ZM19.3284 16.5621L18.9284 16.8621L19.3284 16.5621ZM12.5 14.5C14.9853 14.5 17 12.4853 17 10H16C16 11.933 14.433 13.5 12.5 13.5V14.5ZM8 10C8 12.4853 10.0147 14.5 12.5 14.5V13.5C10.567 13.5 9 11.933 9 10H8ZM12.5 5.5C10.0147 5.5 8 7.51472 8 10H9C9 8.067 10.567 6.5 12.5 6.5V5.5ZM17 10C17 7.51472 14.9853 5.5 12.5 5.5V6.5C14.433 6.5 16 8.067 16 10H17ZM21 23V20.3333H20V23H21ZM4.5 23.5H20.5V22.5H4.5V23.5ZM4 20.3333V23H5V20.3333H4ZM5.27157 16.2621C4.44812 17.36 4 18.8255 4 20.3333H5C5 19.0122 5.39473 17.7646 6.07157 16.8621L5.27157 16.2621ZM8.5 14.5C7.25249 14.5 6.09709 15.1614 5.27157 16.2621L6.07157 16.8621C6.74635 15.9624 7.62578 15.5 8.5 15.5V14.5ZM16.5 14.5H8.5V15.5H16.5V14.5ZM19.7284 16.2621C18.9029 15.1614 17.7475 14.5 16.5 14.5V15.5C17.3742 15.5 18.2536 15.9624 18.9284 16.8621L19.7284 16.2621ZM21 20.3333C21 18.8255 20.5519 17.36 19.7284 16.2621L18.9284 16.8621C19.6053 17.7646 20 19.0122 20 20.3333H21Z" fill="#52B36C"/>
<path d="M13.5 11L16.6667 9.94444C16.6667 9.94444 17.3418 10.4444 18.7778 10.4444C21.3858 10.4444 23.5 8.33022 23.5 5.72222C23.5 3.11421 21.3858 1 18.7778 1C16.1698 1 14.0556 3.11421 14.0556 5.72222C14.0556 7.11111 14.5556 7.83333 14.5556 7.83333L13.5 11Z" fill="white" stroke="#52B36C" stroke-linecap="round" stroke-linejoin="round"/>
<path d="M20.6879 4.99039C20.6399 4.8286 20.5119 4.71793 20.3599 4.69242L19.4634 4.55614L19.0633 3.71291C18.9913 3.5682 18.8471 3.5 18.7031 3.5C18.5591 3.5 18.415 3.5682 18.3429 3.71291L17.9428 4.55614L17.0463 4.69231C16.8943 4.71793 16.7663 4.8286 16.7183 4.99039C16.6782 5.14376 16.7183 5.31398 16.8303 5.42476L17.4706 6.08057L17.3185 7.00031C17.2945 7.15368 17.3505 7.31547 17.4786 7.41771C17.5987 7.51131 17.7667 7.52838 17.8947 7.45176L18.7031 7.00885L19.5115 7.45176C19.6475 7.52838 19.8076 7.51131 19.9277 7.41771C20.0557 7.31547 20.1118 7.15368 20.0877 7.00031L19.9356 6.08057L20.5759 5.42476C20.6879 5.31409 20.7281 5.14376 20.6879 4.99039Z" stroke="#52B36C"/>
</svg>
