<svg width="60" height="60" viewBox="0 0 60 60" fill="none" xmlns="http://www.w3.org/2000/svg">
<g clip-path="url(#clip0_1292_42978)">
<mask id="path-1-outside-1_1292_42978" maskUnits="userSpaceOnUse" x="-1" y="11" width="62" height="40" fill="black">
<rect fill="white" x="-1" y="11" width="62" height="40"/>
<path d="M56.6028 38.1887C56.5798 38.0276 56.5178 37.8746 56.4223 37.7429L55.0657 35.8724C54.9295 35.6846 54.7321 35.55 54.5075 35.4916L53.5695 35.2481C53.1227 35.1321 52.6546 35.337 52.4366 35.7439L52.2337 36.1227C52.0916 36.3881 51.8087 36.5473 51.5081 36.5311C51.1175 36.51 50.8037 36.2014 50.7761 35.8112L50.4968 31.8623C50.4848 31.6923 50.5164 31.5221 50.5887 31.3677L51.7634 28.8585C51.8574 28.6578 52.0154 28.494 52.2126 28.3928L52.3073 28.3442C52.7551 28.1145 52.9624 27.5877 52.7912 27.1144L52.064 25.104C51.9788 24.8686 51.985 24.6099 52.0814 24.3789L52.4228 23.5603C52.5954 23.1464 53.0953 22.9824 53.4794 23.2137C53.5984 23.2853 53.6945 23.3892 53.7569 23.5132L55.385 26.7537C55.4573 26.8975 55.5632 27.0218 55.6938 27.1159L56.2735 27.5338C56.4243 27.6426 56.6024 27.7071 56.7879 27.7202L57.9759 27.804C58.8032 27.8623 59.3378 26.9462 58.8801 26.2546L57.4026 24.0219C57.2765 23.8314 57.089 23.6898 56.8713 23.6207L56.1361 23.3873C56.0034 23.3451 55.881 23.2757 55.7766 23.1835L55.0102 22.5064C54.8469 22.362 54.7352 22.1683 54.6921 21.9546L54.3538 20.2762C54.3419 20.2175 54.3248 20.1599 54.3027 20.1042L53.0936 17.0643C53.013 16.8617 52.8684 16.6911 52.6819 16.5782L51.4578 15.8378C51.3036 15.7446 51.1774 15.6113 51.0927 15.4522L50.8171 14.9347C50.6415 14.605 50.6685 14.2041 50.8868 13.9009L51.0097 13.7303C51.2745 13.3624 51.173 12.8473 50.7885 12.6074C50.3205 12.3153 49.7052 12.5853 49.6033 13.1275L49.556 13.3792C49.5219 13.5606 49.4362 13.7283 49.3091 13.8622L47.4322 15.839C47.3307 15.9459 47.2541 16.0739 47.2079 16.2138L46.6131 18.0142C46.554 18.1931 46.5467 18.385 46.5919 18.5679L46.6845 18.9425C46.7668 19.2757 46.6726 19.6278 46.4348 19.8753L44.9219 21.45C44.8253 21.5505 44.7509 21.67 44.7032 21.801L44.4289 22.5551C44.2957 22.9213 43.962 23.1768 43.5738 23.2097L43.2487 23.2373C43.0344 23.2555 42.8317 23.3423 42.6707 23.4848L41.7263 24.3204C41.455 24.5604 41.3347 24.9285 41.4119 25.2824L41.4503 25.4585C41.5113 25.7383 41.4495 26.0308 41.2805 26.2619L40.5781 27.2224C40.3032 27.5983 39.7534 27.6292 39.4381 27.2866C39.1718 26.9973 38.7256 26.9673 38.4229 27.2182L37.9135 27.6406C37.7885 27.7442 37.6402 27.8158 37.4814 27.8493L34.75 28.4249C34.7413 28.4267 34.7339 28.4323 34.7298 28.4401C34.7166 28.4654 34.6788 28.4591 34.6744 28.4309L34.42 26.8058C34.374 26.5116 34.1101 26.3018 33.813 26.3233L33.3915 26.3538C33.2779 26.362 33.1665 26.3896 33.0622 26.4353L30.0049 27.7757C29.8012 27.8649 29.6332 28.0195 29.5272 28.215L29.1816 28.8526C29.0208 29.1494 28.7209 29.345 28.3845 29.3727L27.8635 29.4156C27.6009 29.4372 27.3574 29.5616 27.1859 29.7617L26.9482 30.0394C26.7803 30.2354 26.5432 30.3589 26.2865 30.3841L25.7363 30.4382C25.451 30.4662 25.1705 30.3495 24.9893 30.1273C24.6652 29.7298 24.0666 29.7047 23.7104 30.0737L22.7274 31.0919C22.4185 31.4119 21.9353 31.4893 21.5418 31.282L18.3271 29.588C18.2494 29.5471 18.1667 29.5165 18.0811 29.4972L12.8646 28.3193C12.7937 28.3033 12.7195 28.3123 12.6544 28.3446C12.3862 28.4781 12.1003 28.1977 12.2286 27.927L12.8996 26.511C12.9068 26.4958 12.9082 26.4785 12.9037 26.4623L13.3181 27.4792C13.4686 27.8485 13.8316 28.0864 14.2304 28.0771C14.7989 28.0638 15.2315 27.5623 15.1613 26.998L14.9373 25.1953C14.8787 24.7241 14.4968 24.359 14.0235 24.3217L13.894 24.3115C13.6506 24.2923 13.4086 24.3629 13.2137 24.5098L10.5345 26.5288C10.3662 26.6556 10.2423 26.8324 10.1804 27.0338L10.1689 27.0712C10.0637 27.4137 9.78326 27.6738 9.43374 27.7529L7.75217 28.1335C7.56985 28.1748 7.37962 28.1641 7.20306 28.1027L6.8191 27.9692C6.51966 27.8651 6.18859 27.9092 5.92679 28.088L4.89796 28.7906C4.55614 29.024 4.39346 29.4439 4.48878 29.8467L4.56842 30.1832C4.61975 30.4001 4.59716 30.6279 4.50423 30.8305L2.94645 34.2263C2.84611 34.445 2.82802 34.6926 2.89549 34.9236L3.36867 36.5436C3.52165 37.0674 3.22649 37.6172 2.70537 37.779L1.48828 38.157C1.42653 38.1762 1.36307 38.1893 1.29878 38.1962L0.966037 38.2321C0.428071 38.29 0.0337695 38.7653 0.0762085 39.3048L0.184109 40.6762C0.195688 40.8234 0.239708 40.9662 0.313009 41.0943L1.92493 43.9122C1.95624 43.967 1.97953 44.0259 1.99409 44.0873C2.13308 44.6731 2.92022 44.7809 3.21166 44.2541L3.58233 43.584C3.70671 43.3592 3.91646 43.1939 4.16417 43.1256L4.30024 43.0881C4.43739 43.0503 4.58184 43.0474 4.72037 43.0798C5.24731 43.2031 5.75397 42.8098 5.76526 42.2688L5.78283 41.4273C5.79044 41.0626 5.99599 40.731 6.3192 40.562L6.78037 40.3209C6.97883 40.2171 7.2064 40.1829 7.42659 40.2238L10.0147 40.7051C10.2206 40.7434 10.4093 40.8453 10.5542 40.9966L12.7218 43.2603C13.0891 43.6438 13.692 43.6735 14.0951 43.3278L14.8174 42.7084C15.0482 42.5105 15.3565 42.4283 15.6552 42.4851L19.3857 43.1945C19.6849 43.2514 19.9419 43.4416 20.0838 43.7112L20.5598 44.6157C20.7476 44.9725 21.1423 45.1693 21.5403 45.1047C21.9296 45.0415 22.317 45.2287 22.5094 45.573L23.7207 47.7402C23.8645 47.9976 24.1147 48.1784 24.4042 48.2342L26.0548 48.5525C26.2049 48.5815 26.3464 48.6445 26.4684 48.7367L27.6458 49.6266C27.9484 49.8554 28.3545 49.8932 28.6941 49.7243L30.4324 48.8596C30.6177 48.7675 30.827 48.7351 31.0315 48.7668L33.1757 49.1003C33.6625 49.176 34.1318 48.886 34.2819 48.4168L34.4178 47.9919C34.5679 47.5224 35.0377 47.2323 35.5247 47.3084L36.3645 47.4397C36.5186 47.4638 36.665 47.5236 36.7919 47.6144L37.2858 47.9677C37.5166 48.1328 37.8067 48.1921 38.0838 48.1308L39.8779 47.7336C39.9557 47.7164 40.0354 47.7085 40.1152 47.7102L41.4549 47.7386C41.7338 47.7445 42.0025 47.6336 42.1961 47.4327L43.2591 46.3297C43.4087 46.1744 43.6045 46.0717 43.8173 46.0368L45.0355 45.8369C45.3853 45.7796 45.6786 45.5414 45.8064 45.2108L45.9274 44.8978C45.9664 44.7968 45.9888 44.6902 45.9937 44.582L46.0912 42.4049C46.1083 42.0241 46.3403 41.6862 46.6894 41.5335L47.5113 41.1739C47.8129 41.042 48.1603 41.067 48.4399 41.2408L49.9498 42.1793C50.1942 42.3312 50.4921 42.3704 50.7675 42.2871L51.9619 41.9254C52.1504 41.8683 52.3546 41.9002 52.5168 42.0119C52.8202 42.2209 53.2366 42.135 53.4325 41.8229L53.5389 41.6535C53.858 41.1449 54.5939 41.1305 54.9329 41.6261C54.9882 41.707 55.0289 41.7971 55.0529 41.8922L55.5988 44.0498C55.6969 44.4376 56.1125 44.6519 56.4853 44.5069C56.6623 44.4381 56.8015 44.2969 56.8678 44.1189L57.1996 43.2286C57.2579 43.0721 57.2761 42.9034 57.2525 42.7381L56.6028 38.1887Z"/>
</mask>
<path d="M56.6028 38.1887C56.5798 38.0276 56.5178 37.8746 56.4223 37.7429L55.0657 35.8724C54.9295 35.6846 54.7321 35.55 54.5075 35.4916L53.5695 35.2481C53.1227 35.1321 52.6546 35.337 52.4366 35.7439L52.2337 36.1227C52.0916 36.3881 51.8087 36.5473 51.5081 36.5311C51.1175 36.51 50.8037 36.2014 50.7761 35.8112L50.4968 31.8623C50.4848 31.6923 50.5164 31.5221 50.5887 31.3677L51.7634 28.8585C51.8574 28.6578 52.0154 28.494 52.2126 28.3928L52.3073 28.3442C52.7551 28.1145 52.9624 27.5877 52.7912 27.1144L52.064 25.104C51.9788 24.8686 51.985 24.6099 52.0814 24.3789L52.4228 23.5603C52.5954 23.1464 53.0953 22.9824 53.4794 23.2137C53.5984 23.2853 53.6945 23.3892 53.7569 23.5132L55.385 26.7537C55.4573 26.8975 55.5632 27.0218 55.6938 27.1159L56.2735 27.5338C56.4243 27.6426 56.6024 27.7071 56.7879 27.7202L57.9759 27.804C58.8032 27.8623 59.3378 26.9462 58.8801 26.2546L57.4026 24.0219C57.2765 23.8314 57.089 23.6898 56.8713 23.6207L56.1361 23.3873C56.0034 23.3451 55.881 23.2757 55.7766 23.1835L55.0102 22.5064C54.8469 22.362 54.7352 22.1683 54.6921 21.9546L54.3538 20.2762C54.3419 20.2175 54.3248 20.1599 54.3027 20.1042L53.0936 17.0643C53.013 16.8617 52.8684 16.6911 52.6819 16.5782L51.4578 15.8378C51.3036 15.7446 51.1774 15.6113 51.0927 15.4522L50.8171 14.9347C50.6415 14.605 50.6685 14.2041 50.8868 13.9009L51.0097 13.7303C51.2745 13.3624 51.173 12.8473 50.7885 12.6074C50.3205 12.3153 49.7052 12.5853 49.6033 13.1275L49.556 13.3792C49.5219 13.5606 49.4362 13.7283 49.3091 13.8622L47.4322 15.839C47.3307 15.9459 47.2541 16.0739 47.2079 16.2138L46.6131 18.0142C46.554 18.1931 46.5467 18.385 46.5919 18.5679L46.6845 18.9425C46.7668 19.2757 46.6726 19.6278 46.4348 19.8753L44.9219 21.45C44.8253 21.5505 44.7509 21.67 44.7032 21.801L44.4289 22.5551C44.2957 22.9213 43.962 23.1768 43.5738 23.2097L43.2487 23.2373C43.0344 23.2555 42.8317 23.3423 42.6707 23.4848L41.7263 24.3204C41.455 24.5604 41.3347 24.9285 41.4119 25.2824L41.4503 25.4585C41.5113 25.7383 41.4495 26.0308 41.2805 26.2619L40.5781 27.2224C40.3032 27.5983 39.7534 27.6292 39.4381 27.2866C39.1718 26.9973 38.7256 26.9673 38.4229 27.2182L37.9135 27.6406C37.7885 27.7442 37.6402 27.8158 37.4814 27.8493L34.75 28.4249C34.7413 28.4267 34.7339 28.4323 34.7298 28.4401C34.7166 28.4654 34.6788 28.4591 34.6744 28.4309L34.42 26.8058C34.374 26.5116 34.1101 26.3018 33.813 26.3233L33.3915 26.3538C33.2779 26.362 33.1665 26.3896 33.0622 26.4353L30.0049 27.7757C29.8012 27.8649 29.6332 28.0195 29.5272 28.215L29.1816 28.8526C29.0208 29.1494 28.7209 29.345 28.3845 29.3727L27.8635 29.4156C27.6009 29.4372 27.3574 29.5616 27.1859 29.7617L26.9482 30.0394C26.7803 30.2354 26.5432 30.3589 26.2865 30.3841L25.7363 30.4382C25.451 30.4662 25.1705 30.3495 24.9893 30.1273C24.6652 29.7298 24.0666 29.7047 23.7104 30.0737L22.7274 31.0919C22.4185 31.4119 21.9353 31.4893 21.5418 31.282L18.3271 29.588C18.2494 29.5471 18.1667 29.5165 18.0811 29.4972L12.8646 28.3193C12.7937 28.3033 12.7195 28.3123 12.6544 28.3446C12.3862 28.4781 12.1003 28.1977 12.2286 27.927L12.8996 26.511C12.9068 26.4958 12.9082 26.4785 12.9037 26.4623L13.3181 27.4792C13.4686 27.8485 13.8316 28.0864 14.2304 28.0771C14.7989 28.0638 15.2315 27.5623 15.1613 26.998L14.9373 25.1953C14.8787 24.7241 14.4968 24.359 14.0235 24.3217L13.894 24.3115C13.6506 24.2923 13.4086 24.3629 13.2137 24.5098L10.5345 26.5288C10.3662 26.6556 10.2423 26.8324 10.1804 27.0338L10.1689 27.0712C10.0637 27.4137 9.78326 27.6738 9.43374 27.7529L7.75217 28.1335C7.56985 28.1748 7.37962 28.1641 7.20306 28.1027L6.8191 27.9692C6.51966 27.8651 6.18859 27.9092 5.92679 28.088L4.89796 28.7906C4.55614 29.024 4.39346 29.4439 4.48878 29.8467L4.56842 30.1832C4.61975 30.4001 4.59716 30.6279 4.50423 30.8305L2.94645 34.2263C2.84611 34.445 2.82802 34.6926 2.89549 34.9236L3.36867 36.5436C3.52165 37.0674 3.22649 37.6172 2.70537 37.779L1.48828 38.157C1.42653 38.1762 1.36307 38.1893 1.29878 38.1962L0.966037 38.2321C0.428071 38.29 0.0337695 38.7653 0.0762085 39.3048L0.184109 40.6762C0.195688 40.8234 0.239708 40.9662 0.313009 41.0943L1.92493 43.9122C1.95624 43.967 1.97953 44.0259 1.99409 44.0873C2.13308 44.6731 2.92022 44.7809 3.21166 44.2541L3.58233 43.584C3.70671 43.3592 3.91646 43.1939 4.16417 43.1256L4.30024 43.0881C4.43739 43.0503 4.58184 43.0474 4.72037 43.0798C5.24731 43.2031 5.75397 42.8098 5.76526 42.2688L5.78283 41.4273C5.79044 41.0626 5.99599 40.731 6.3192 40.562L6.78037 40.3209C6.97883 40.2171 7.2064 40.1829 7.42659 40.2238L10.0147 40.7051C10.2206 40.7434 10.4093 40.8453 10.5542 40.9966L12.7218 43.2603C13.0891 43.6438 13.692 43.6735 14.0951 43.3278L14.8174 42.7084C15.0482 42.5105 15.3565 42.4283 15.6552 42.4851L19.3857 43.1945C19.6849 43.2514 19.9419 43.4416 20.0838 43.7112L20.5598 44.6157C20.7476 44.9725 21.1423 45.1693 21.5403 45.1047C21.9296 45.0415 22.317 45.2287 22.5094 45.573L23.7207 47.7402C23.8645 47.9976 24.1147 48.1784 24.4042 48.2342L26.0548 48.5525C26.2049 48.5815 26.3464 48.6445 26.4684 48.7367L27.6458 49.6266C27.9484 49.8554 28.3545 49.8932 28.6941 49.7243L30.4324 48.8596C30.6177 48.7675 30.827 48.7351 31.0315 48.7668L33.1757 49.1003C33.6625 49.176 34.1318 48.886 34.2819 48.4168L34.4178 47.9919C34.5679 47.5224 35.0377 47.2323 35.5247 47.3084L36.3645 47.4397C36.5186 47.4638 36.665 47.5236 36.7919 47.6144L37.2858 47.9677C37.5166 48.1328 37.8067 48.1921 38.0838 48.1308L39.8779 47.7336C39.9557 47.7164 40.0354 47.7085 40.1152 47.7102L41.4549 47.7386C41.7338 47.7445 42.0025 47.6336 42.1961 47.4327L43.2591 46.3297C43.4087 46.1744 43.6045 46.0717 43.8173 46.0368L45.0355 45.8369C45.3853 45.7796 45.6786 45.5414 45.8064 45.2108L45.9274 44.8978C45.9664 44.7968 45.9888 44.6902 45.9937 44.582L46.0912 42.4049C46.1083 42.0241 46.3403 41.6862 46.6894 41.5335L47.5113 41.1739C47.8129 41.042 48.1603 41.067 48.4399 41.2408L49.9498 42.1793C50.1942 42.3312 50.4921 42.3704 50.7675 42.2871L51.9619 41.9254C52.1504 41.8683 52.3546 41.9002 52.5168 42.0119C52.8202 42.2209 53.2366 42.135 53.4325 41.8229L53.5389 41.6535C53.858 41.1449 54.5939 41.1305 54.9329 41.6261C54.9882 41.707 55.0289 41.7971 55.0529 41.8922L55.5988 44.0498C55.6969 44.4376 56.1125 44.6519 56.4853 44.5069C56.6623 44.4381 56.8015 44.2969 56.8678 44.1189L57.1996 43.2286C57.2579 43.0721 57.2761 42.9034 57.2525 42.7381L56.6028 38.1887Z" stroke="#10E048" stroke-width="2" mask="url(#path-1-outside-1_1292_42978)"/>
</g>
<defs>
<clipPath id="clip0_1292_42978">
<rect width="60" height="60" fill="white"/>
</clipPath>
</defs>
</svg>
