<svg width="60" height="60" viewBox="0 0 60 60" fill="none" xmlns="http://www.w3.org/2000/svg">
<path fill-rule="evenodd" clip-rule="evenodd" d="M47.9314 16.3246L47.9291 16.3339L42.6933 37.551L42.576 38.0262L42.1287 38.2251C40.2073 39.0795 38.8535 40.9197 38.7211 43.0617L38.6631 44H37.723H26.7392H25.799L25.7411 43.0616C25.5583 40.1013 23.0395 37.7183 19.9381 37.7183C16.8369 37.7183 14.3181 40.1013 14.1355 43.0616L14.0777 44H13.1374H11.984C11.1562 44 10.3673 43.6314 9.84213 42.9885L9.8421 42.9885C9.3161 42.3446 9.11409 41.4968 9.29741 40.6853L9.2975 40.6849L10.4754 35.481H4.75307C3.25014 35.481 2 34.2798 2 32.7599C2 31.2399 3.25014 30.0387 4.75307 30.0387H11.7073L12.0825 28.3814H7.64553C6.14218 28.3814 4.89246 27.1803 4.89246 25.6602C4.89246 24.1406 6.14204 22.9391 7.64553 22.9391H13.3141L13.6891 21.2819H11.984C10.4811 21.2819 9.23097 20.0807 9.23097 18.5608C9.23097 17.0407 10.4812 15.8398 11.984 15.8398H14.9212L15.0825 15.1275C15.3661 13.872 16.4922 13 17.7691 13H45.2468C46.0749 13 46.8636 13.3689 47.3887 14.0114L47.3888 14.0115C47.9146 14.655 48.1175 15.5028 47.9335 16.3153L47.9314 16.3246ZM16.0579 15.3478L15.72 16.8398H11.984C11.016 16.8398 10.231 17.6103 10.231 18.5608C10.231 19.5112 11.016 20.2819 11.984 20.2819H13.9154H14.9407L14.7144 21.2819L14.1131 23.9391H7.64553C6.67712 23.9391 5.89246 24.71 5.89246 25.6602C5.89246 26.6108 6.67712 27.3814 7.64553 27.3814H12.3088H13.3341L13.1078 28.3814L12.5062 31.0387H4.75307C3.78502 31.0387 3 31.8094 3 32.7599C3 33.7103 3.78502 34.481 4.75307 34.481H10.7017H11.727L11.5007 35.481L10.2728 40.9057C10.1577 41.4152 10.284 41.9487 10.6166 42.3559C10.9493 42.7632 11.4523 43 11.984 43H13.1374C13.3533 39.5004 16.3206 36.7183 19.9381 36.7183C23.5558 36.7183 26.5231 39.5004 26.7392 43H37.723C37.8796 40.4663 39.4786 38.3092 41.7224 37.3114L46.9582 16.0943C47.0737 15.5846 46.947 15.0512 46.6145 14.6443C46.2815 14.237 45.7785 14 45.2468 14H17.7691C16.9472 14 16.2358 14.5602 16.0579 15.3478ZM54 28H55.0035L55 26.9965L54.9854 22.7554L54.9854 22.7554C54.9799 21.2211 53.723 20 52.1988 20H49.5185H48.7401L48.5491 20.7546L47.0306 26.7546L46.7154 28H48H54ZM52.1988 21H49.5185L48.2531 26L48 27H49.0315H53H54L53.9965 26L53.9854 22.7589C53.9819 21.7867 53.1833 21 52.1988 21ZM16 43.4998C16 41.0177 18.0176 39 20.4998 39C22.9824 39 25 41.0176 25 43.4998C25 45.9825 22.9824 48 20.4998 48C18.0175 48 16 45.9824 16 43.4998ZM17 43.4998C17 41.57 18.5699 40 20.4998 40C22.4301 40 24 41.57 24 43.4998C24 45.4302 22.4301 47 20.4998 47C18.5699 47 17 45.4302 17 43.4998ZM40 43.4998C40 41.0177 42.0176 39 44.4998 39C46.9824 39 49 41.0176 49 43.4998C49 45.9825 46.9824 48 44.4998 48C42.0175 48 40 45.9824 40 43.4998ZM41 43.4998C41 41.57 42.5699 40 44.4998 40C46.4301 40 48 41.57 48 43.4998C48 45.4302 46.4301 47 44.4998 47C42.5699 47 41 45.4302 41 43.4998ZM56.6657 31.6743C56.4103 31.3277 56.0359 31.0914 55.6187 31H47.459L46.2525 35.726L46 36.715C46.3418 36.7266 46.6773 36.7628 47.0048 36.8218C49.7241 37.3117 51.8876 39.3751 52.4704 42.0094C52.5417 42.3317 52.5894 42.6625 52.6115 43C52.9739 42.9398 53.3102 42.77 53.5702 42.5149C53.7578 42.3309 53.9058 42.1024 53.9951 41.8387L56.9104 33.2314C57.0886 32.7038 56.9978 32.1249 56.6657 31.6743ZM55.8327 30.0232C56.4787 30.1646 57.0664 30.5324 57.4706 31.0809L57.4707 31.081C57.9956 31.7932 58.1411 32.7128 57.8578 33.5514L57.8576 33.5522L54.9422 42.1595C54.6032 43.1604 53.7392 43.8264 52.7754 43.9865L51.6859 44.1675L51.6136 43.0654C51.4235 40.1647 48.9953 37.8173 45.9661 37.7144L44.7235 37.6723L45.0311 36.4677L46.4901 30.7526L46.6822 30H47.459H55.6187H55.7269L55.8327 30.0232Z" fill="#10E048"/>
</svg>
