<svg width="24" height="24" viewBox="0 0 24 24" fill="none" xmlns="http://www.w3.org/2000/svg">
<g clip-path="url(#clip0_1988_100330)">
<mask id="path-1-outside-1_1988_100330" maskUnits="userSpaceOnUse" x="-1" y="-1" width="26" height="26" fill="black">
<rect fill="white" x="-1" y="-1" width="26" height="26"/>
<path fill-rule="evenodd" clip-rule="evenodd" d="M4.32697 7.76618L4.32697 7.76585C4.3177 5.44012 4.30843 3.11449 4.30646 0.789231C4.3064 0.704528 4.31364 0.623667 4.32653 0.548217C1.92425 0.528081 0.261683 0.510589 0.159627 0.502399C-0.22978 0.471148 0.159628 0.241971 0.622048 0.0752969C0.741769 0.032145 2.33868 0.011337 4.64515 0.00365334C4.66506 -0.00108837 4.68462 -0.00127971 4.70344 0.00346243C8.58793 -0.00904353 14.4464 0.0150792 18.6678 0.0324611C21.637 0.0446871 23.7963 0.0535783 23.8891 0.0440427C23.8891 0.0440427 24.1203 0.564897 23.8891 0.632609C23.723 0.681241 11.7554 0.608966 4.88006 0.552797C4.88207 2.87396 4.89132 5.19513 4.90057 7.51618L4.90057 7.51663L4.90057 7.51706L4.90057 7.5175L4.90058 7.51793L4.90058 7.51836L4.90058 7.5188C4.90657 9.02207 4.91256 10.5253 4.91658 12.0284C5.04377 12.0774 5.01909 12.1499 4.91706 12.2116C4.92282 14.4582 4.92401 16.7047 4.91403 18.9509C6.3734 18.8183 7.85752 18.7257 9.31603 18.9294C9.29431 16.1626 9.27044 12.6285 9.25298 9.41299C9.22097 9.37022 9.2179 9.32311 9.25226 9.27992C9.22772 4.72386 9.21638 0.841502 9.24287 0.748666C9.30709 0.523627 9.80106 0.748666 9.80106 0.748666C9.79202 0.839014 9.80045 2.94066 9.81205 5.8306L9.81207 5.83669L9.81216 5.85878C9.81622 6.86996 9.82066 7.97682 9.82486 9.12726C10.9221 9.0345 11.8504 9.09859 12.8845 9.16998C13.1831 9.1906 13.4905 9.21182 13.8133 9.23006C13.9467 9.23759 14.067 9.25274 14.1736 9.27324C14.1491 4.72006 14.1378 0.841457 14.1643 0.748666C14.2285 0.523627 14.7225 0.748666 14.7225 0.748666C14.7134 0.839014 14.7218 2.94066 14.7334 5.8306C14.738 6.97018 14.7431 8.23233 14.7477 9.54206C14.7695 9.57964 14.7699 9.61517 14.7481 9.64499C14.7567 12.0523 14.7638 14.6132 14.7642 16.8646C15.8386 16.6719 16.727 16.7837 17.7226 16.909C17.9957 16.9433 18.2768 16.9787 18.572 17.0091C18.7785 17.0303 18.9508 17.088 19.086 17.1637C19.1079 14.9451 19.1498 12.7279 19.1917 10.5106C19.2523 7.30015 19.313 4.08945 19.313 0.873692C19.313 0.682393 19.6855 0.586115 19.6855 0.693091C19.6855 2.40182 19.6684 4.10905 19.6433 5.81554C20.8489 5.73222 22.1802 5.90265 23.3861 6.11018C23.3735 3.05474 23.3719 0.818848 23.3919 0.748666C23.4561 0.523627 23.9501 0.748666 23.9501 0.748666C23.9411 0.839015 23.9495 2.94074 23.9611 5.83077L23.9628 6.26039C24.0156 6.30395 24.0092 6.35115 23.9633 6.39221C23.9898 13.0009 24.0272 23.0907 23.9205 23.3947C23.8915 23.4772 23.8605 23.5573 23.8291 23.6308C24.0163 23.7397 24.0727 23.8345 23.8323 23.8538C23.8192 23.8548 23.7804 23.856 23.7177 23.8573C23.6208 24.0226 23.5373 24.0696 23.5168 23.8609C22.8875 23.8707 21.3787 23.8854 19.4128 23.9017C19.3071 24.0012 19.1037 24.0369 19.1025 23.9535L19.1016 23.9042C17.708 23.9156 16.1059 23.9277 14.4355 23.9392C14.377 24.0135 14.3284 24.0264 14.3031 23.9401C12.7156 23.9511 11.07 23.9615 9.48627 23.9706C9.44819 24.0075 9.41588 24.0119 9.39391 23.9711C7.64456 23.9811 5.97363 23.9892 4.54327 23.9943C4.51817 24.0017 4.49359 24.002 4.47034 23.9946C2.29561 24.0022 0.689905 24.0025 0.23307 23.9909C0.212628 24.0032 0.194498 24.0034 0.179574 23.9893C0.135482 23.9877 0.109526 23.9859 0.10282 23.984C-0.128391 23.9162 0.10282 23.3954 0.10282 23.3954C0.107229 23.3958 0.1163 23.3963 0.129899 23.3966C0.0863739 20.1835 -0.0441406 0.956644 0.0152083 0.748666C0.0794253 0.523627 0.573402 0.748666 0.573402 0.748666C0.564359 0.839014 0.572791 2.94068 0.584387 5.83063C0.591769 7.67067 0.600434 9.83027 0.606687 11.9938C0.630404 11.989 0.65495 11.9857 0.680276 11.984C1.89353 11.9022 3.12693 11.8423 4.34207 11.9481C4.33809 10.5545 4.33253 9.16078 4.32698 7.76712L4.32697 7.76618ZM23.3877 6.48885C23.4139 12.5704 23.4802 21.5563 23.5078 23.4791C23.463 23.4611 23.4168 23.4436 23.3699 23.4266C23.2523 23.3843 21.7091 23.3634 19.4681 23.3554C19.4005 19.0072 19.4824 14.6705 19.5643 10.333V10.3329C19.5866 9.14954 19.609 7.96609 19.6283 6.78234C19.9339 6.7435 20.2458 6.69209 20.5605 6.64022C21.5039 6.4847 22.4729 6.32497 23.3766 6.48694L23.3877 6.48885ZM19.08 17.8386C19.0653 19.6758 19.0658 21.514 19.0927 23.3542C17.7931 23.3505 16.2861 23.3507 14.7006 23.3532C14.7465 22.9898 14.7626 20.6233 14.7641 17.5482C14.7954 17.549 14.828 17.5465 14.8616 17.5405C15.8021 17.3719 16.9253 17.5373 17.9653 17.6904L17.9654 17.6905C18.3495 17.747 18.7224 17.8019 19.0704 17.8377L19.08 17.8386ZM14.176 9.71632C14.2064 15.2255 14.2547 21.5606 14.2784 23.3539C12.8016 23.3566 11.2674 23.3612 9.77742 23.3664C9.81602 23.1092 9.8341 21.4677 9.84027 19.1762C9.8435 19.1605 9.84365 19.145 9.84039 19.1298C9.84745 16.4274 9.83812 12.8346 9.82636 9.54235C10.8402 9.45234 12.0385 9.54916 13.1499 9.63896H13.1499H13.1499H13.1499H13.1499H13.1499C13.5037 9.66754 13.8486 9.69541 14.176 9.71632ZM9.32044 19.4845C9.33479 21.2671 9.34789 22.6709 9.35718 23.3679C7.93306 23.3731 6.55864 23.3787 5.32421 23.3838L4.86798 23.3857C4.87513 23.3305 4.87934 23.2728 4.88005 23.213C4.89243 22.1725 4.90152 21.1318 4.90798 20.0911C5.41984 20.0319 5.92168 19.9056 6.42095 19.7798C7.28899 19.5613 8.14924 19.3446 9.04073 19.4866C9.13253 19.5013 9.22833 19.499 9.32044 19.4845ZM4.33719 19.8613C4.33079 21.037 4.32117 22.2125 4.30737 23.388C2.56507 23.3951 1.20464 23.4001 0.542123 23.3993L0.543763 23.3947C0.619459 23.1791 0.622659 18.0449 0.608691 12.7197C1.09069 12.6866 1.56194 12.5991 2.03056 12.5121C2.78461 12.3721 3.53189 12.2334 4.30631 12.3243C4.3185 12.3258 4.33078 12.3269 4.34312 12.3279C4.3494 14.7032 4.35071 17.0784 4.33928 19.4531C4.29731 19.5944 4.29386 19.742 4.33719 19.8613Z"/>
</mask>
<path fill-rule="evenodd" clip-rule="evenodd" d="M4.32697 7.76618L4.32697 7.76585C4.3177 5.44012 4.30843 3.11449 4.30646 0.789231C4.3064 0.704528 4.31364 0.623667 4.32653 0.548217C1.92425 0.528081 0.261683 0.510589 0.159627 0.502399C-0.22978 0.471148 0.159628 0.241971 0.622048 0.0752969C0.741769 0.032145 2.33868 0.011337 4.64515 0.00365334C4.66506 -0.00108837 4.68462 -0.00127971 4.70344 0.00346243C8.58793 -0.00904353 14.4464 0.0150792 18.6678 0.0324611C21.637 0.0446871 23.7963 0.0535783 23.8891 0.0440427C23.8891 0.0440427 24.1203 0.564897 23.8891 0.632609C23.723 0.681241 11.7554 0.608966 4.88006 0.552797C4.88207 2.87396 4.89132 5.19513 4.90057 7.51618L4.90057 7.51663L4.90057 7.51706L4.90057 7.5175L4.90058 7.51793L4.90058 7.51836L4.90058 7.5188C4.90657 9.02207 4.91256 10.5253 4.91658 12.0284C5.04377 12.0774 5.01909 12.1499 4.91706 12.2116C4.92282 14.4582 4.92401 16.7047 4.91403 18.9509C6.3734 18.8183 7.85752 18.7257 9.31603 18.9294C9.29431 16.1626 9.27044 12.6285 9.25298 9.41299C9.22097 9.37022 9.2179 9.32311 9.25226 9.27992C9.22772 4.72386 9.21638 0.841502 9.24287 0.748666C9.30709 0.523627 9.80106 0.748666 9.80106 0.748666C9.79202 0.839014 9.80045 2.94066 9.81205 5.8306L9.81207 5.83669L9.81216 5.85878C9.81622 6.86996 9.82066 7.97682 9.82486 9.12726C10.9221 9.0345 11.8504 9.09859 12.8845 9.16998C13.1831 9.1906 13.4905 9.21182 13.8133 9.23006C13.9467 9.23759 14.067 9.25274 14.1736 9.27324C14.1491 4.72006 14.1378 0.841457 14.1643 0.748666C14.2285 0.523627 14.7225 0.748666 14.7225 0.748666C14.7134 0.839014 14.7218 2.94066 14.7334 5.8306C14.738 6.97018 14.7431 8.23233 14.7477 9.54206C14.7695 9.57964 14.7699 9.61517 14.7481 9.64499C14.7567 12.0523 14.7638 14.6132 14.7642 16.8646C15.8386 16.6719 16.727 16.7837 17.7226 16.909C17.9957 16.9433 18.2768 16.9787 18.572 17.0091C18.7785 17.0303 18.9508 17.088 19.086 17.1637C19.1079 14.9451 19.1498 12.7279 19.1917 10.5106C19.2523 7.30015 19.313 4.08945 19.313 0.873692C19.313 0.682393 19.6855 0.586115 19.6855 0.693091C19.6855 2.40182 19.6684 4.10905 19.6433 5.81554C20.8489 5.73222 22.1802 5.90265 23.3861 6.11018C23.3735 3.05474 23.3719 0.818848 23.3919 0.748666C23.4561 0.523627 23.9501 0.748666 23.9501 0.748666C23.9411 0.839015 23.9495 2.94074 23.9611 5.83077L23.9628 6.26039C24.0156 6.30395 24.0092 6.35115 23.9633 6.39221C23.9898 13.0009 24.0272 23.0907 23.9205 23.3947C23.8915 23.4772 23.8605 23.5573 23.8291 23.6308C24.0163 23.7397 24.0727 23.8345 23.8323 23.8538C23.8192 23.8548 23.7804 23.856 23.7177 23.8573C23.6208 24.0226 23.5373 24.0696 23.5168 23.8609C22.8875 23.8707 21.3787 23.8854 19.4128 23.9017C19.3071 24.0012 19.1037 24.0369 19.1025 23.9535L19.1016 23.9042C17.708 23.9156 16.1059 23.9277 14.4355 23.9392C14.377 24.0135 14.3284 24.0264 14.3031 23.9401C12.7156 23.9511 11.07 23.9615 9.48627 23.9706C9.44819 24.0075 9.41588 24.0119 9.39391 23.9711C7.64456 23.9811 5.97363 23.9892 4.54327 23.9943C4.51817 24.0017 4.49359 24.002 4.47034 23.9946C2.29561 24.0022 0.689905 24.0025 0.23307 23.9909C0.212628 24.0032 0.194498 24.0034 0.179574 23.9893C0.135482 23.9877 0.109526 23.9859 0.10282 23.984C-0.128391 23.9162 0.10282 23.3954 0.10282 23.3954C0.107229 23.3958 0.1163 23.3963 0.129899 23.3966C0.0863739 20.1835 -0.0441406 0.956644 0.0152083 0.748666C0.0794253 0.523627 0.573402 0.748666 0.573402 0.748666C0.564359 0.839014 0.572791 2.94068 0.584387 5.83063C0.591769 7.67067 0.600434 9.83027 0.606687 11.9938C0.630404 11.989 0.65495 11.9857 0.680276 11.984C1.89353 11.9022 3.12693 11.8423 4.34207 11.9481C4.33809 10.5545 4.33253 9.16078 4.32698 7.76712L4.32697 7.76618ZM23.3877 6.48885C23.4139 12.5704 23.4802 21.5563 23.5078 23.4791C23.463 23.4611 23.4168 23.4436 23.3699 23.4266C23.2523 23.3843 21.7091 23.3634 19.4681 23.3554C19.4005 19.0072 19.4824 14.6705 19.5643 10.333V10.3329C19.5866 9.14954 19.609 7.96609 19.6283 6.78234C19.9339 6.7435 20.2458 6.69209 20.5605 6.64022C21.5039 6.4847 22.4729 6.32497 23.3766 6.48694L23.3877 6.48885ZM19.08 17.8386C19.0653 19.6758 19.0658 21.514 19.0927 23.3542C17.7931 23.3505 16.2861 23.3507 14.7006 23.3532C14.7465 22.9898 14.7626 20.6233 14.7641 17.5482C14.7954 17.549 14.828 17.5465 14.8616 17.5405C15.8021 17.3719 16.9253 17.5373 17.9653 17.6904L17.9654 17.6905C18.3495 17.747 18.7224 17.8019 19.0704 17.8377L19.08 17.8386ZM14.176 9.71632C14.2064 15.2255 14.2547 21.5606 14.2784 23.3539C12.8016 23.3566 11.2674 23.3612 9.77742 23.3664C9.81602 23.1092 9.8341 21.4677 9.84027 19.1762C9.8435 19.1605 9.84365 19.145 9.84039 19.1298C9.84745 16.4274 9.83812 12.8346 9.82636 9.54235C10.8402 9.45234 12.0385 9.54916 13.1499 9.63896H13.1499H13.1499H13.1499H13.1499H13.1499C13.5037 9.66754 13.8486 9.69541 14.176 9.71632ZM9.32044 19.4845C9.33479 21.2671 9.34789 22.6709 9.35718 23.3679C7.93306 23.3731 6.55864 23.3787 5.32421 23.3838L4.86798 23.3857C4.87513 23.3305 4.87934 23.2728 4.88005 23.213C4.89243 22.1725 4.90152 21.1318 4.90798 20.0911C5.41984 20.0319 5.92168 19.9056 6.42095 19.7798C7.28899 19.5613 8.14924 19.3446 9.04073 19.4866C9.13253 19.5013 9.22833 19.499 9.32044 19.4845ZM4.33719 19.8613C4.33079 21.037 4.32117 22.2125 4.30737 23.388C2.56507 23.3951 1.20464 23.4001 0.542123 23.3993L0.543763 23.3947C0.619459 23.1791 0.622659 18.0449 0.608691 12.7197C1.09069 12.6866 1.56194 12.5991 2.03056 12.5121C2.78461 12.3721 3.53189 12.2334 4.30631 12.3243C4.3185 12.3258 4.33078 12.3269 4.34312 12.3279C4.3494 14.7032 4.35071 17.0784 4.33928 19.4531C4.29731 19.5944 4.29386 19.742 4.33719 19.8613Z" fill="#52B36C"/>
<path d="M4.32697 7.76585L4.02697 7.76704L4.02697 7.76712L4.32697 7.76585ZM4.32697 7.76618L4.02698 7.76746L4.02698 7.76756L4.32697 7.76618ZM4.30646 0.789231L4.00646 0.789445V0.789485L4.30646 0.789231ZM4.32653 0.548217L4.62225 0.598759L4.68165 0.251183L4.32905 0.248228L4.32653 0.548217ZM0.159627 0.502399L0.135628 0.801437H0.135628L0.159627 0.502399ZM0.622048 0.0752969L0.520323 -0.20693L0.520323 -0.20693L0.622048 0.0752969ZM4.64515 0.00365334L4.64615 0.303652L4.68088 0.303536L4.71466 0.29549L4.64515 0.00365334ZM4.70344 0.00346243L4.63013 0.294367L4.6667 0.303582L4.70441 0.303461L4.70344 0.00346243ZM18.6678 0.0324611L18.669 -0.267536L18.6678 0.0324611ZM23.8891 0.0440427L24.1633 -0.0776756L24.075 -0.27663L23.8584 -0.254387L23.8891 0.0440427ZM23.8891 0.632609L23.9734 0.920516L23.8891 0.632609ZM4.88006 0.552797L4.88252 0.252807L4.5798 0.250334L4.58007 0.553056L4.88006 0.552797ZM4.90057 7.51618L5.20057 7.51522L5.20057 7.51498L4.90057 7.51618ZM4.90057 7.51663L4.60057 7.51758V7.51761L4.90057 7.51663ZM4.90058 7.5188L4.60058 7.51979L4.60058 7.52L4.90058 7.5188ZM4.91658 12.0284L4.61658 12.0292L4.61713 12.2346L4.80878 12.3084L4.91658 12.0284ZM4.91706 12.2116L4.76181 11.9549L4.61663 12.0427L4.61706 12.2124L4.91706 12.2116ZM4.91403 18.9509L4.61404 18.9496L4.61257 19.2795L4.94118 19.2497L4.91403 18.9509ZM9.31603 18.9294L9.27455 19.2265L9.61875 19.2745L9.61602 18.927L9.31603 18.9294ZM9.25298 9.41299L9.55298 9.41136L9.55244 9.31243L9.49316 9.23322L9.25298 9.41299ZM9.25226 9.27992L9.48701 9.46671L9.55283 9.384L9.55226 9.2783L9.25226 9.27992ZM9.24287 0.748666L8.95438 0.666343L8.95438 0.666346L9.24287 0.748666ZM9.80106 0.748666L10.0996 0.778546L10.121 0.564741L9.92544 0.475661L9.80106 0.748666ZM9.81205 5.8306L9.51205 5.83181L9.51205 5.83187L9.81205 5.8306ZM9.81207 5.83669L10.1121 5.83548V5.83542L9.81207 5.83669ZM9.81216 5.85878L10.1122 5.85757V5.85757L9.81216 5.85878ZM9.82486 9.12726L9.52487 9.12836L9.52605 9.45359L9.85013 9.42619L9.82486 9.12726ZM12.8845 9.16998L12.9051 8.8707L12.8845 9.16998ZM13.8133 9.23006L13.8303 8.93054H13.8303L13.8133 9.23006ZM14.1736 9.27324L14.117 9.56784L14.4756 9.63679L14.4736 9.27162L14.1736 9.27324ZM14.1643 0.748666L13.8758 0.666343V0.666344L14.1643 0.748666ZM14.7225 0.748666L15.021 0.778546L15.0424 0.564741L14.8468 0.475661L14.7225 0.748666ZM14.7334 5.8306L14.4334 5.83181V5.83181L14.7334 5.8306ZM14.7477 9.54206L14.4478 9.54313L14.448 9.62306L14.4881 9.69225L14.7477 9.54206ZM14.7481 9.64499L14.506 9.46787L14.4478 9.54745L14.4481 9.64605L14.7481 9.64499ZM14.7642 16.8646L14.4642 16.8646L14.4643 17.2231L14.8171 17.1598L14.7642 16.8646ZM17.7226 16.909L17.7601 16.6113L17.7226 16.909ZM18.572 17.0091L18.6027 16.7107H18.6027L18.572 17.0091ZM19.086 17.1637L18.9395 17.4255L19.381 17.6726L19.386 17.1666L19.086 17.1637ZM19.1917 10.5106L19.4916 10.5162L19.1917 10.5106ZM19.6433 5.81554L19.3433 5.81112L19.3385 6.13732L19.664 6.11483L19.6433 5.81554ZM23.3861 6.11018L23.3352 6.40584L23.6875 6.46648L23.6861 6.10895L23.3861 6.11018ZM23.3919 0.748666L23.6804 0.830988V0.830987L23.3919 0.748666ZM23.9501 0.748666L24.2486 0.778549L24.27 0.564742L24.0745 0.475661L23.9501 0.748666ZM23.9611 5.83077L24.2611 5.82957V5.82957L23.9611 5.83077ZM23.9628 6.26039L23.6628 6.26159L23.6634 6.4023L23.7719 6.49183L23.9628 6.26039ZM23.9633 6.39221L23.7632 6.1687L23.6628 6.25861L23.6633 6.39341L23.9633 6.39221ZM23.9205 23.3947L23.6374 23.2953L23.6374 23.2953L23.9205 23.3947ZM23.8291 23.6308L23.5532 23.5128L23.4489 23.7568L23.6782 23.8902L23.8291 23.6308ZM23.8323 23.8538L23.8083 23.5547H23.8083L23.8323 23.8538ZM23.7177 23.8573L23.7113 23.5574L23.5438 23.561L23.459 23.7055L23.7177 23.8573ZM23.5168 23.8609L23.8154 23.8316L23.7884 23.5567L23.5122 23.5609L23.5168 23.8609ZM19.4128 23.9017L19.4103 23.6017L19.2928 23.6027L19.2072 23.6832L19.4128 23.9017ZM19.1025 23.9535L19.4024 23.9489L19.4024 23.9482L19.1025 23.9535ZM19.1016 23.9042L19.4015 23.8989L19.3963 23.6018L19.0991 23.6042L19.1016 23.9042ZM14.4355 23.9392L14.4334 23.6392L14.2891 23.6402L14.1998 23.7537L14.4355 23.9392ZM14.3031 23.9401L14.591 23.8558L14.5274 23.6386L14.301 23.6401L14.3031 23.9401ZM9.48627 23.9706L9.48456 23.6706L9.36405 23.6713L9.27751 23.7551L9.48627 23.9706ZM9.39391 23.9711L9.65798 23.8287L9.57244 23.6701L9.3922 23.6711L9.39391 23.9711ZM4.54327 23.9943L4.54221 23.6943L4.49958 23.6945L4.45868 23.7065L4.54327 23.9943ZM4.47034 23.9946L4.56183 23.7089L4.51669 23.6944L4.46929 23.6946L4.47034 23.9946ZM0.23307 23.9909L0.240713 23.691L0.153423 23.6887L0.0785736 23.7337L0.23307 23.9909ZM0.179574 23.9893L0.386194 23.7718L0.303835 23.6935L0.190312 23.6895L0.179574 23.9893ZM0.10282 23.984L0.187154 23.6961L0.187135 23.6961L0.10282 23.984ZM0.10282 23.3954L0.133416 23.097L-0.0830799 23.0748L-0.171379 23.2737L0.10282 23.3954ZM0.129899 23.3966L0.121698 23.6965L0.434105 23.7051L0.429872 23.3926L0.129899 23.3966ZM0.0152083 0.748666L0.303692 0.830988L0.0152083 0.748666ZM0.573402 0.748666L0.87191 0.778545L0.893311 0.564741L0.697774 0.475661L0.573402 0.748666ZM0.584387 5.83063L0.284389 5.83184L0.584387 5.83063ZM0.606687 11.9938L0.306689 11.9946L0.307743 12.3594L0.665412 12.288L0.606687 11.9938ZM0.680276 11.984L0.66009 11.6847L0.660011 11.6847L0.680276 11.984ZM4.34207 11.9481L4.31603 12.247L4.64301 12.2755L4.64207 11.9473L4.34207 11.9481ZM4.32698 7.76712L4.62698 7.76592L4.62697 7.76574L4.32698 7.76712ZM23.5078 23.4791L23.396 23.7575L23.8142 23.9253L23.8077 23.4748L23.5078 23.4791ZM23.3877 6.48885L23.6877 6.48756L23.6866 6.23627L23.439 6.19328L23.3877 6.48885ZM23.3699 23.4266L23.2681 23.7089L23.2682 23.7089L23.3699 23.4266ZM19.4681 23.3554L19.1681 23.3601L19.1727 23.6544L19.467 23.6554L19.4681 23.3554ZM19.5643 10.333L19.8643 10.3387V10.333H19.5643ZM19.5643 10.3329L19.2643 10.3273V10.3329H19.5643ZM19.6283 6.78234L19.5905 6.48474L19.3326 6.51751L19.3283 6.77745L19.6283 6.78234ZM20.5605 6.64022L20.6092 6.93622L20.5605 6.64022ZM23.3766 6.48694L23.3237 6.78224L23.3253 6.78251L23.3766 6.48694ZM19.0927 23.3542L19.0919 23.6542L19.3972 23.6551L19.3927 23.3498L19.0927 23.3542ZM19.08 17.8386L19.3799 17.841L19.3821 17.5665L19.1089 17.54L19.08 17.8386ZM14.7006 23.3532L14.403 23.3156L14.3603 23.6537L14.7011 23.6532L14.7006 23.3532ZM14.7641 17.5482L14.7713 17.2483L14.4643 17.2409L14.4641 17.5481L14.7641 17.5482ZM14.8616 17.5405L14.8087 17.2452L14.8085 17.2452L14.8616 17.5405ZM17.9653 17.6904L18.0147 17.3945L18.009 17.3936L17.9653 17.6904ZM17.9654 17.6905L17.916 17.9864L17.9217 17.9873L17.9654 17.6905ZM19.0704 17.8377L19.0398 18.1361L19.0415 18.1363L19.0704 17.8377ZM14.2784 23.3539L14.2789 23.6539L14.5824 23.6534L14.5784 23.3499L14.2784 23.3539ZM14.176 9.71632L14.476 9.71466L14.4745 9.43477L14.1951 9.41693L14.176 9.71632ZM9.77742 23.3664L9.48074 23.3219L9.42885 23.6676L9.77847 23.6664L9.77742 23.3664ZM9.84027 19.1762L9.54646 19.1155L9.54035 19.1451L9.54027 19.1754L9.84027 19.1762ZM9.84039 19.1298L9.54039 19.1291L9.54031 19.1614L9.54713 19.1931L9.84039 19.1298ZM9.82636 9.54235L9.79983 9.24353L9.52538 9.2679L9.52637 9.54342L9.82636 9.54235ZM13.1499 9.63896L13.1257 9.93798L13.1378 9.93896H13.1499V9.63896ZM13.1499 9.63896L13.1741 9.33993L13.162 9.33896H13.1499V9.63896ZM9.35718 23.3679L9.35826 23.6679L9.66118 23.6668L9.65715 23.3639L9.35718 23.3679ZM9.32044 19.4845L9.62043 19.4821L9.61763 19.1341L9.27385 19.1882L9.32044 19.4845ZM5.32421 23.3838L5.32544 23.6838H5.32544L5.32421 23.3838ZM4.86798 23.3857L4.57047 23.3472L4.52644 23.6871L4.86922 23.6857L4.86798 23.3857ZM4.88005 23.213L5.18003 23.2166V23.2166L4.88005 23.213ZM4.90798 20.0911L4.87354 19.7931L4.60963 19.8236L4.60799 20.0892L4.90798 20.0911ZM6.42095 19.7798L6.4942 20.0708H6.4942L6.42095 19.7798ZM9.04073 19.4866L9.08808 19.1904L9.08793 19.1904L9.04073 19.4866ZM4.30737 23.388L4.30859 23.688L4.60388 23.6868L4.60735 23.3915L4.30737 23.388ZM4.33719 19.8613L4.63718 19.8629L4.63748 19.8092L4.61914 19.7588L4.33719 19.8613ZM0.542123 23.3993L0.259126 23.2998L0.118731 23.6988L0.541766 23.6993L0.542123 23.3993ZM0.543763 23.3947L0.82676 23.4942L0.826814 23.4941L0.543763 23.3947ZM0.608691 12.7197L0.588111 12.4204L0.307955 12.4397L0.308692 12.7205L0.608691 12.7197ZM2.03056 12.5121L1.9758 12.2171H1.9758L2.03056 12.5121ZM4.30631 12.3243L4.34142 12.0264L4.3413 12.0264L4.30631 12.3243ZM4.34312 12.3279L4.64312 12.3271L4.64238 12.0498L4.3659 12.0287L4.34312 12.3279ZM4.33928 19.4531L4.62686 19.5385L4.63907 19.4974L4.63928 19.4546L4.33928 19.4531ZM4.02697 7.76712L4.02698 7.76746L4.62697 7.76491L4.62697 7.76457L4.02697 7.76712ZM4.00646 0.789485C4.00843 3.11529 4.01771 5.4414 4.02697 7.76704L4.62697 7.76465C4.6177 5.43885 4.60843 3.11368 4.60646 0.788976L4.00646 0.789485ZM4.03082 0.497675C4.01509 0.589741 4.00639 0.687581 4.00646 0.789445L4.60646 0.789016C4.60641 0.721475 4.61219 0.657592 4.62225 0.598759L4.03082 0.497675ZM0.135628 0.801437C0.25195 0.810773 1.93414 0.828174 4.32402 0.848207L4.32905 0.248228C3.128 0.23816 2.11208 0.228756 1.38375 0.220846C1.01954 0.21689 0.727563 0.213312 0.520425 0.210215C0.41679 0.208665 0.334874 0.207243 0.275958 0.205964C0.246444 0.205323 0.223301 0.20473 0.206364 0.204193C0.186936 0.203576 0.181618 0.203199 0.183625 0.20336L0.135628 0.801437ZM0.520323 -0.20693C0.285558 -0.122312 0.0344036 -0.0105734 -0.11169 0.101982C-0.149119 0.130819 -0.198423 0.173649 -0.236673 0.230981C-0.273456 0.286116 -0.333492 0.408816 -0.277193 0.554232C-0.225301 0.688265 -0.110739 0.742639 -0.0560274 0.763027C0.00695383 0.786496 0.0747079 0.796548 0.135628 0.801437L0.183625 0.20336C0.147194 0.200436 0.141934 0.196491 0.153483 0.200794C0.156762 0.202016 0.241472 0.232056 0.282336 0.337605C0.327607 0.454536 0.275366 0.544602 0.262446 0.563968C0.24806 0.585532 0.238685 0.589461 0.254496 0.57728C0.321359 0.525766 0.496119 0.439579 0.723773 0.357524L0.520323 -0.20693ZM4.64415 -0.296345C3.49058 -0.292502 2.51315 -0.285375 1.80863 -0.273785C1.45666 -0.267995 1.17094 -0.261063 0.964775 -0.25278C0.862021 -0.248652 0.77636 -0.244086 0.711045 -0.238923C0.678604 -0.236358 0.648189 -0.233417 0.621764 -0.229875C0.603233 -0.227391 0.561149 -0.221645 0.520323 -0.20693L0.723773 0.357524C0.697912 0.366845 0.682334 0.367372 0.701474 0.364806C0.712721 0.363299 0.731143 0.36136 0.758329 0.359211C0.812271 0.354947 0.889029 0.350747 0.988861 0.346737C1.18786 0.338741 1.46798 0.3319 1.8185 0.326134C2.51899 0.314611 3.49325 0.307492 4.64615 0.303652L4.64415 -0.296345ZM4.77675 -0.287442C4.70663 -0.305112 4.63785 -0.302999 4.57564 -0.288184L4.71466 0.29549C4.69227 0.300823 4.66261 0.302552 4.63013 0.294367L4.77675 -0.287442ZM18.669 -0.267536C14.448 -0.284917 8.58832 -0.309046 4.70247 -0.296536L4.70441 0.303461C8.58755 0.290959 14.4447 0.315075 18.6665 0.332459L18.669 -0.267536ZM23.8584 -0.254387C23.8648 -0.255043 23.8405 -0.253933 23.7573 -0.253204C23.6847 -0.252569 23.582 -0.252183 23.4513 -0.252025C23.19 -0.251709 22.8191 -0.252307 22.3579 -0.253586C21.4356 -0.256145 20.1537 -0.261423 18.669 -0.267536L18.6665 0.332459C20.151 0.338571 21.4334 0.343852 22.3562 0.346411C22.8176 0.347691 23.1895 0.348292 23.452 0.347975C23.5832 0.347817 23.6876 0.347428 23.7625 0.346773C23.8267 0.346211 23.8902 0.345513 23.9198 0.342472L23.8584 -0.254387ZM23.9734 0.920516C24.1747 0.861579 24.2577 0.695467 24.2816 0.566863C24.3031 0.450961 24.2866 0.333897 24.2695 0.251727C24.2511 0.163479 24.2245 0.0817113 24.2037 0.0243499C24.1931 -0.0049601 24.1835 -0.0293728 24.1763 -0.0468715C24.1727 -0.0556478 24.1697 -0.0627599 24.1675 -0.0679609C24.1664 -0.0705635 24.1655 -0.072694 24.1648 -0.0743217C24.1644 -0.0751358 24.1641 -0.0758248 24.1639 -0.0763848C24.1637 -0.0766649 24.1636 -0.0769128 24.1635 -0.0771281C24.1635 -0.0772357 24.1634 -0.0773352 24.1634 -0.0774265C24.1634 -0.077472 24.1634 -0.0775344 24.1634 -0.0775572C24.1633 -0.0776174 24.1633 -0.0776756 23.8891 0.0440427C23.6149 0.165761 23.6149 0.165707 23.6149 0.165655C23.6148 0.16564 23.6148 0.165589 23.6148 0.165559C23.6148 0.1655 23.6148 0.165448 23.6147 0.165403C23.6147 0.165314 23.6147 0.165255 23.6147 0.165226C23.6146 0.165167 23.6147 0.165226 23.6147 0.1654C23.6149 0.165747 23.6152 0.16655 23.6158 0.167778C23.6168 0.17024 23.6186 0.174384 23.6209 0.179982C23.6254 0.191232 23.6321 0.208041 23.6395 0.228619C23.6549 0.271033 23.6716 0.323712 23.6821 0.374141C23.6873 0.399075 23.6903 0.420083 23.6914 0.436608C23.6925 0.45396 23.6912 0.45995 23.6917 0.457296C23.6922 0.454793 23.6965 0.432808 23.7169 0.405941C23.7404 0.375197 23.773 0.354 23.8048 0.344701L23.9734 0.920516ZM4.87761 0.852787C8.31554 0.880874 13.0266 0.912987 16.8991 0.932C18.8352 0.941506 20.5621 0.947739 21.8155 0.948553C22.4421 0.948961 22.951 0.948015 23.3088 0.945438C23.4875 0.944151 23.6296 0.942449 23.7303 0.940274C23.7803 0.939191 23.822 0.937955 23.8534 0.936495C23.8689 0.935776 23.8843 0.934897 23.898 0.933733C23.9003 0.933537 23.9368 0.931251 23.9734 0.920516L23.8048 0.344701C23.8362 0.335486 23.8617 0.33466 23.8475 0.335867C23.8446 0.336106 23.8378 0.336572 23.8256 0.337141C23.8015 0.338257 23.7657 0.339368 23.7173 0.340414C23.621 0.342495 23.4823 0.344172 23.3045 0.345454C22.9491 0.348013 22.4421 0.348961 21.8159 0.348554C20.5638 0.347739 18.8379 0.341512 16.902 0.332007C13.0303 0.312998 8.31989 0.280889 4.88252 0.252807L4.87761 0.852787ZM5.20057 7.51498C5.19132 5.19386 5.18207 2.87316 5.18006 0.552538L4.58007 0.553056C4.58207 2.87477 4.59132 5.1964 4.60057 7.51737L5.20057 7.51498ZM5.20057 7.51567L5.20057 7.51522L4.60057 7.51714L4.60057 7.51758L5.20057 7.51567ZM5.20057 7.51607L5.20057 7.51564L4.60057 7.51761L4.60057 7.51805L5.20057 7.51607ZM5.20057 7.51651L5.20057 7.51607L4.60057 7.51805L4.60058 7.51848L5.20057 7.51651ZM5.20057 7.51694L5.20057 7.51651L4.60058 7.51848L4.60058 7.51892L5.20057 7.51694ZM5.20058 7.51738L5.20057 7.51694L4.60058 7.51892L4.60058 7.51935L5.20058 7.51738ZM5.20058 7.51781L5.20058 7.51738L4.60058 7.51935L4.60058 7.51979L5.20058 7.51781ZM5.21658 12.0276C5.21256 10.5243 5.20657 9.02084 5.20058 7.5176L4.60058 7.52C4.60657 9.0233 4.61256 10.5263 4.61658 12.0292L5.21658 12.0276ZM5.07231 12.4683C5.11329 12.4435 5.1599 12.4099 5.20048 12.365C5.23935 12.322 5.29161 12.2473 5.30144 12.1435C5.31249 12.0269 5.2652 11.9285 5.20168 11.8619C5.1452 11.8027 5.07763 11.769 5.02438 11.7485L4.80878 12.3084C4.81913 12.3124 4.79617 12.306 4.76765 12.2762C4.73208 12.2389 4.69609 12.1717 4.70411 12.087C4.71092 12.0151 4.74583 11.9732 4.75535 11.9627C4.76658 11.9502 4.77185 11.9488 4.76181 11.9549L5.07231 12.4683ZM5.21403 18.9522C5.22401 16.7051 5.22282 14.4578 5.21706 12.2108L4.61706 12.2124C4.62282 14.4586 4.62401 16.7043 4.61404 18.9496L5.21403 18.9522ZM9.35751 18.6322C7.86222 18.4235 6.34842 18.5193 4.88688 18.6521L4.94118 19.2497C6.39837 19.1172 7.85283 19.028 9.27455 19.2265L9.35751 18.6322ZM8.95298 9.41462C8.97044 12.6303 8.99432 16.1648 9.01604 18.9317L9.61602 18.927C9.59431 16.1605 9.57043 12.6266 9.55298 9.41136L8.95298 9.41462ZM9.01751 9.09312C8.96279 9.16189 8.92566 9.25124 8.92779 9.35291C8.92987 9.45157 8.96824 9.53322 9.01281 9.59276L9.49316 9.23322C9.5057 9.24998 9.52654 9.28669 9.52766 9.3403C9.52885 9.39693 9.50737 9.44113 9.48701 9.46671L9.01751 9.09312ZM8.95438 0.666346C8.94345 0.704655 8.94145 0.744372 8.94131 0.746255C8.94019 0.761463 8.93931 0.779191 8.93857 0.7979C8.93708 0.835827 8.93581 0.887079 8.93471 0.949758C8.9325 1.0756 8.93085 1.25416 8.92971 1.47862C8.92743 1.92787 8.92713 2.56506 8.92843 3.34108C8.93102 4.89334 8.93999 7.00338 8.95227 9.28153L9.55226 9.2783C9.53998 7.00039 9.53102 4.89122 9.52843 3.34008C9.52713 2.56441 9.52743 1.92885 9.52971 1.48167C9.53084 1.25791 9.53247 1.08233 9.53461 0.960297C9.53569 0.899035 9.53687 0.852908 9.53811 0.82154C9.53873 0.805603 9.53929 0.795704 9.53968 0.790497C9.54105 0.771965 9.54063 0.798478 9.53135 0.830986L8.95438 0.666346ZM9.80106 0.748666C9.92544 0.475661 9.92538 0.475634 9.92531 0.475606C9.92529 0.475596 9.92523 0.475567 9.92518 0.475547C9.92509 0.475505 9.92499 0.47546 9.92489 0.475412C9.92467 0.475315 9.92443 0.475204 9.92415 0.475079C9.9236 0.47483 9.92293 0.474527 9.92213 0.474173C9.92055 0.473464 9.91848 0.472547 9.91597 0.471445C9.91095 0.469243 9.90411 0.466288 9.89568 0.462756C9.87888 0.455713 9.85547 0.446247 9.82737 0.435807C9.77247 0.415408 9.69388 0.38911 9.60879 0.370911C9.52993 0.354045 9.41536 0.337236 9.30101 0.359033C9.17177 0.383668 9.01078 0.468727 8.95438 0.666343L9.53135 0.830988C9.52246 0.862145 9.50182 0.895542 9.47021 0.92029C9.44221 0.942203 9.41833 0.947473 9.41335 0.948422C9.40968 0.949122 9.43064 0.946378 9.4833 0.957641C9.52973 0.967572 9.57865 0.98347 9.61838 0.998233C9.6376 1.00537 9.65328 1.01173 9.66375 1.01612C9.66895 1.0183 9.67278 1.01996 9.67503 1.02094C9.67615 1.02143 9.67687 1.02175 9.67715 1.02188C9.6773 1.02195 9.67733 1.02196 9.67726 1.02193C9.67722 1.02191 9.67715 1.02188 9.67706 1.02184C9.67701 1.02182 9.67696 1.02179 9.6769 1.02176C9.67687 1.02175 9.67682 1.02173 9.6768 1.02172C9.67675 1.0217 9.67669 1.02167 9.80106 0.748666ZM10.112 5.8294C10.1062 4.38434 10.1012 3.13668 10.0988 2.23898C10.0976 1.79007 10.097 1.42907 10.0973 1.17479C10.0975 1.04756 10.0978 0.94764 10.0985 0.876997C10.0991 0.79594 10.1002 0.772298 10.0996 0.778546L9.50255 0.718786C9.49967 0.74762 9.49901 0.809419 9.49847 0.871878C9.49785 0.944751 9.49748 1.04642 9.49733 1.17408C9.49703 1.42958 9.4976 1.79155 9.49882 2.2406C9.50124 3.13879 9.50625 4.38692 9.51205 5.83181L10.112 5.8294ZM10.1121 5.83542L10.112 5.82933L9.51205 5.83187L9.51208 5.83796L10.1121 5.83542ZM10.1122 5.85757L10.1121 5.83548L9.51208 5.83789L9.51216 5.85998L10.1122 5.85757ZM10.1249 9.12616C10.1207 7.97567 10.1162 6.86875 10.1122 5.85757L9.51216 5.85998C9.51622 6.87117 9.52066 7.97798 9.52487 9.12836L10.1249 9.12616ZM12.9051 8.8707C11.8726 8.79941 10.9228 8.73337 9.79959 8.82833L9.85013 9.42619C10.9214 9.33563 11.8281 9.39777 12.8638 9.46927L12.9051 8.8707ZM13.8303 8.93054C13.5096 8.91242 13.204 8.89133 12.9051 8.8707L12.8638 9.46927C13.1622 9.48987 13.4714 9.51123 13.7964 9.52958L13.8303 8.93054ZM14.2303 8.97863C14.1096 8.95544 13.976 8.93877 13.8303 8.93054L13.7964 9.52958C13.9174 9.53642 14.0244 9.55005 14.117 9.56784L14.2303 8.97863ZM13.8758 0.666344C13.8648 0.704646 13.8628 0.744348 13.8627 0.746231C13.8616 0.761432 13.8607 0.779149 13.86 0.797843C13.8585 0.83574 13.8572 0.88695 13.8561 0.949573C13.8539 1.07531 13.8522 1.2537 13.8511 1.47796C13.8488 1.92681 13.8485 2.56343 13.8498 3.33881C13.8524 4.88976 13.8614 6.99814 13.8736 9.27485L14.4736 9.27162C14.4613 6.99515 14.4524 4.88764 14.4498 3.33781C14.4485 2.56279 14.4488 1.92779 14.4511 1.48101C14.4522 1.25746 14.4539 1.08204 14.456 0.960119C14.4571 0.898913 14.4583 0.852832 14.4595 0.821496C14.4601 0.805574 14.4607 0.795689 14.4611 0.790491C14.4624 0.771977 14.462 0.798485 14.4527 0.830987L13.8758 0.666344ZM14.7225 0.748666C14.8468 0.475661 14.8468 0.475634 14.8467 0.475606C14.8467 0.475596 14.8466 0.475567 14.8466 0.475547C14.8465 0.475505 14.8464 0.47546 14.8463 0.475412C14.8461 0.475315 14.8458 0.475204 14.8455 0.475079C14.845 0.47483 14.8443 0.474527 14.8435 0.474173C14.8419 0.473464 14.8399 0.472547 14.8374 0.471445C14.8323 0.469243 14.8255 0.466288 14.8171 0.462756C14.8003 0.455713 14.7769 0.446247 14.7488 0.435807C14.6939 0.415408 14.6153 0.38911 14.5302 0.370911C14.4513 0.354045 14.3367 0.337236 14.2224 0.359033C14.0932 0.383668 13.9322 0.468727 13.8758 0.666343L14.4527 0.830988C14.4438 0.862145 14.4232 0.895542 14.3916 0.92029C14.3636 0.942203 14.3397 0.947473 14.3347 0.948422C14.3311 0.949122 14.352 0.946378 14.4047 0.957641C14.4511 0.967572 14.5 0.98347 14.5398 0.998233C14.559 1.00537 14.5747 1.01173 14.5851 1.01612C14.5903 1.0183 14.5942 1.01996 14.5964 1.02094C14.5975 1.02143 14.5983 1.02175 14.5985 1.02188C14.5987 1.02195 14.5987 1.02196 14.5986 1.02193C14.5986 1.02191 14.5985 1.02188 14.5984 1.02184C14.5984 1.02182 14.5983 1.02179 14.5983 1.02176C14.5983 1.02175 14.5982 1.02173 14.5982 1.02172C14.5981 1.0217 14.5981 1.02167 14.7225 0.748666ZM15.0334 5.8294C15.0276 4.38434 15.0226 3.13668 15.0202 2.23898C15.019 1.79007 15.0184 1.42907 15.0187 1.17479C15.0189 1.04756 15.0192 0.94764 15.0198 0.876997C15.0205 0.79594 15.0216 0.772298 15.021 0.778546L14.4239 0.718786C14.4211 0.74762 14.4204 0.809419 14.4199 0.871878C14.4192 0.944751 14.4189 1.04642 14.4187 1.17408C14.4184 1.42958 14.419 1.79155 14.4202 2.2406C14.4226 3.13879 14.4276 4.38692 14.4334 5.83181L15.0334 5.8294ZM15.0477 9.54099C15.0431 8.23118 15.038 6.96897 15.0334 5.8294L14.4334 5.83181C14.438 6.97139 14.4431 8.23347 14.4478 9.54313L15.0477 9.54099ZM14.9903 9.8221C15.0983 9.67443 15.0738 9.50669 15.0074 9.39187L14.4881 9.69225C14.4793 9.67714 14.4645 9.64462 14.4643 9.5982C14.464 9.54832 14.4807 9.50246 14.506 9.46787L14.9903 9.8221ZM15.0642 16.8645C15.0638 14.6126 15.0567 12.0513 15.0481 9.64392L14.4481 9.64605C14.4567 12.0533 14.4638 14.6137 14.4642 16.8646L15.0642 16.8645ZM17.7601 16.6113C16.767 16.4864 15.8363 16.3676 14.7113 16.5693L14.8171 17.1598C15.841 16.9763 16.687 17.081 17.6852 17.2066L17.7601 16.6113ZM18.6027 16.7107C18.3114 16.6807 18.0335 16.6457 17.7601 16.6113L17.6852 17.2066C17.9578 17.2409 18.2422 17.2767 18.5413 17.3075L18.6027 16.7107ZM19.2325 16.9019C19.0593 16.805 18.8473 16.7358 18.6027 16.7107L18.5413 17.3075C18.7098 17.3248 18.8422 17.371 18.9395 17.4255L19.2325 16.9019ZM18.8917 10.5049C18.8498 12.722 18.8079 14.9405 18.786 17.1607L19.386 17.1666C19.4078 14.9496 19.4497 12.7338 19.4916 10.5162L18.8917 10.5049ZM19.013 0.873692C19.013 4.08614 18.9524 7.29402 18.8917 10.5049L19.4916 10.5162C19.5522 7.30629 19.613 4.09275 19.613 0.873692H19.013ZM19.9855 0.693091C19.9855 0.576933 19.928 0.477838 19.8432 0.417659C19.7724 0.367405 19.6982 0.354299 19.6532 0.350399C19.5603 0.342338 19.4676 0.363242 19.3948 0.390324C19.3189 0.418509 19.2331 0.464988 19.1611 0.53554C19.0883 0.60698 19.013 0.721438 19.013 0.873692H19.613C19.613 0.930296 19.5842 0.960982 19.5812 0.96391C19.5792 0.96595 19.5865 0.959177 19.6038 0.952752C19.624 0.945224 19.6245 0.950161 19.6014 0.948156C19.5914 0.947285 19.5463 0.942714 19.4959 0.906922C19.4682 0.887268 19.4386 0.857744 19.4166 0.816393C19.3943 0.774532 19.3855 0.731359 19.3855 0.693091H19.9855ZM19.9433 5.81996C19.9684 4.11257 19.9855 2.40377 19.9855 0.693091H19.3855C19.3855 2.39986 19.3685 4.10553 19.3433 5.81112L19.9433 5.81996ZM23.4369 5.81453C22.2263 5.60618 20.8657 5.43035 19.6226 5.51625L19.664 6.11483C20.8321 6.0341 22.134 6.19912 23.3352 6.40584L23.4369 5.81453ZM23.1034 0.666344C23.0939 0.699669 23.0916 0.731429 23.0914 0.734214C23.0903 0.746238 23.0894 0.759125 23.0888 0.771374C23.0875 0.796311 23.0864 0.828514 23.0855 0.866363C23.0836 0.942582 23.082 1.04949 23.0808 1.18357C23.0783 1.45212 23.077 1.83471 23.0768 2.30978C23.0762 3.26017 23.0798 4.58357 23.0861 6.11142L23.6861 6.10895C23.6798 4.58136 23.6762 3.25908 23.6768 2.31012C23.677 1.83551 23.6783 1.45501 23.6808 1.18911C23.682 1.05596 23.6835 0.952807 23.6853 0.881382C23.6862 0.845409 23.6871 0.819395 23.688 0.802377C23.6882 0.798276 23.6884 0.795063 23.6886 0.792635C23.6887 0.791437 23.6887 0.79052 23.6888 0.789856C23.6888 0.789184 23.6889 0.788876 23.6889 0.788885C23.6889 0.788897 23.6888 0.789021 23.6888 0.789248C23.6888 0.789474 23.6888 0.789837 23.6887 0.790323C23.6886 0.791216 23.6884 0.792958 23.6881 0.795342C23.6878 0.79693 23.6859 0.811746 23.6804 0.830988L23.1034 0.666344ZM23.9501 0.748666C24.0745 0.475661 24.0744 0.475634 24.0744 0.475606C24.0743 0.475596 24.0743 0.475567 24.0742 0.475547C24.0741 0.475505 24.074 0.47546 24.0739 0.475411C24.0737 0.475314 24.0735 0.475203 24.0732 0.475079C24.0726 0.47483 24.072 0.474527 24.0712 0.474172C24.0696 0.473463 24.0675 0.472547 24.065 0.471445C24.06 0.469243 24.0532 0.466288 24.0447 0.462755C24.0279 0.455713 24.0045 0.446247 23.9764 0.435807C23.9215 0.415408 23.8429 0.38911 23.7578 0.370911C23.679 0.354045 23.5644 0.337236 23.4501 0.359033C23.3208 0.383668 23.1598 0.468727 23.1034 0.666344L23.6804 0.830987C23.6715 0.862145 23.6509 0.895542 23.6193 0.92029C23.5913 0.942204 23.5674 0.947473 23.5624 0.948422C23.5587 0.949122 23.5797 0.946378 23.6324 0.957641C23.6788 0.967572 23.7277 0.98347 23.7674 0.998233C23.7866 1.00537 23.8023 1.01173 23.8128 1.01612C23.818 1.0183 23.8218 1.01996 23.8241 1.02094C23.8252 1.02143 23.8259 1.02175 23.8262 1.02188C23.8263 1.02195 23.8264 1.02196 23.8263 1.02193C23.8263 1.02191 23.8262 1.02188 23.8261 1.02184C23.8261 1.02182 23.826 1.02179 23.8259 1.02176C23.8259 1.02175 23.8259 1.02173 23.8258 1.02172C23.8258 1.0217 23.8257 1.02167 23.9501 0.748666ZM24.2611 5.82957C24.2553 4.38447 24.2503 3.13676 24.2479 2.23903C24.2466 1.79011 24.2461 1.42909 24.2464 1.1748C24.2465 1.04757 24.2469 0.947646 24.2475 0.877002C24.2482 0.795941 24.2492 0.7723 24.2486 0.778549L23.6516 0.718783C23.6487 0.747619 23.6481 0.809421 23.6475 0.871881C23.6469 0.944758 23.6465 1.04643 23.6464 1.1741C23.6461 1.42961 23.6467 1.79159 23.6479 2.24065C23.6503 3.13887 23.6553 4.38705 23.6611 5.83197L24.2611 5.82957ZM24.2628 6.25918L24.2611 5.82957L23.6611 5.83197L23.6628 6.26159L24.2628 6.25918ZM24.1635 6.61573C24.2179 6.567 24.2954 6.47391 24.2999 6.33713C24.3048 6.19075 24.224 6.08689 24.1537 6.02894L23.7719 6.49183C23.7545 6.47745 23.6969 6.41898 23.7003 6.31735C23.7033 6.22533 23.7547 6.17637 23.7632 6.1687L24.1635 6.61573ZM24.2035 23.4941C24.2201 23.4468 24.2258 23.3936 24.2283 23.3703C24.2321 23.3353 24.2354 23.2926 24.2383 23.2444C24.2442 23.1474 24.2493 23.0165 24.2539 22.8565C24.2632 22.5358 24.2704 22.0887 24.2759 21.5422C24.287 20.4487 24.2915 18.9513 24.2919 17.2578C24.2925 13.8705 24.2766 9.69526 24.2633 6.39101L23.6633 6.39341C23.6766 9.69787 23.6925 13.8719 23.6919 17.2576C23.6915 18.9507 23.687 20.4457 23.6759 21.5361C23.6704 22.0815 23.6632 22.5242 23.6542 22.8392C23.6496 22.9971 23.6447 23.1206 23.6394 23.2081C23.6367 23.2521 23.6341 23.2841 23.6318 23.3056C23.6282 23.3386 23.6275 23.3235 23.6374 23.2953L24.2035 23.4941ZM24.1049 23.7488C24.1392 23.6686 24.1726 23.5822 24.2035 23.4941L23.6374 23.2953C23.6104 23.3722 23.5818 23.4461 23.5532 23.5128L24.1049 23.7488ZM23.8563 24.1528C23.9269 24.1471 24.0175 24.134 24.0978 24.0923C24.1408 24.07 24.1995 24.0299 24.2422 23.96C24.2892 23.8832 24.3003 23.7975 24.2859 23.7205C24.2623 23.595 24.1759 23.5148 24.1404 23.4836C24.0921 23.4411 24.035 23.4036 23.9799 23.3715L23.6782 23.8902C23.7167 23.9125 23.7369 23.9277 23.7443 23.9342C23.7478 23.9373 23.7424 23.9332 23.7339 23.9216C23.7264 23.9114 23.7054 23.8806 23.6962 23.8313C23.6855 23.7741 23.6937 23.7069 23.7303 23.6469C23.7628 23.5939 23.8038 23.5689 23.8212 23.5599C23.8503 23.5448 23.8579 23.5507 23.8083 23.5547L23.8563 24.1528ZM23.7242 24.1573C23.7824 24.156 23.8322 24.1547 23.8563 24.1528L23.8083 23.5547C23.8107 23.5545 23.8102 23.5546 23.8046 23.5549C23.7998 23.5551 23.7931 23.5553 23.7842 23.5556C23.7665 23.5561 23.7422 23.5568 23.7113 23.5574L23.7242 24.1573ZM23.2183 23.8903C23.2245 23.9535 23.2381 24.0389 23.28 24.1155C23.3025 24.1567 23.3423 24.2122 23.4101 24.2527C23.484 24.2968 23.5663 24.308 23.6411 24.2947C23.7643 24.2729 23.8425 24.19 23.8721 24.1568C23.9124 24.1117 23.9473 24.0589 23.9765 24.0092L23.459 23.7055C23.4397 23.7384 23.4278 23.7535 23.4246 23.7571C23.4232 23.7587 23.4289 23.7518 23.4422 23.7423C23.4543 23.7336 23.4864 23.7128 23.5362 23.704C23.5931 23.6939 23.6589 23.7024 23.7176 23.7375C23.7702 23.7688 23.7962 23.8089 23.8065 23.8278C23.8239 23.8597 23.8194 23.8727 23.8154 23.8316L23.2183 23.8903ZM19.4153 24.2017C21.3808 24.1854 22.8909 24.1706 23.5215 24.1609L23.5122 23.5609C22.8842 23.5707 21.3765 23.5854 19.4103 23.6017L19.4153 24.2017ZM18.8025 23.9581C18.8037 24.0344 18.83 24.112 18.8849 24.1755C18.936 24.2346 18.9971 24.2646 19.0434 24.2797C19.1303 24.3081 19.2144 24.3012 19.2688 24.2919C19.3825 24.2726 19.5165 24.2161 19.6184 24.1201L19.2072 23.6832C19.208 23.6825 19.2032 23.6868 19.1918 23.6922C19.1805 23.6975 19.1712 23.6999 19.1681 23.7004C19.1583 23.7021 19.1848 23.6947 19.2298 23.7094C19.2552 23.7177 19.2994 23.7375 19.3388 23.7831C19.3819 23.8329 19.4016 23.8934 19.4024 23.9489L18.8025 23.9581ZM18.8016 23.9095L18.8025 23.9588L19.4024 23.9482L19.4015 23.8989L18.8016 23.9095ZM14.4376 24.2392C16.108 24.2276 17.7103 24.2156 19.104 24.2042L19.0991 23.6042C17.7057 23.6156 16.1037 23.6277 14.4334 23.6392L14.4376 24.2392ZM14.0152 24.0245C14.0276 24.0669 14.0522 24.1324 14.106 24.1905C14.1698 24.2595 14.2666 24.3076 14.3797 24.299C14.4746 24.2918 14.5429 24.247 14.5785 24.2191C14.6175 24.1887 14.6483 24.1539 14.6713 24.1247L14.1998 23.7537C14.1935 23.7616 14.1963 23.7564 14.2089 23.7465C14.2182 23.7393 14.2618 23.7063 14.334 23.7008C14.4244 23.6939 14.5007 23.7337 14.5464 23.7831C14.5656 23.8038 14.5765 23.8229 14.5822 23.8342C14.5879 23.8457 14.5904 23.8537 14.591 23.8558L14.0152 24.0245ZM9.48799 24.2706C11.0719 24.2615 12.7175 24.2511 14.3052 24.2401L14.301 23.6401C12.7136 23.6511 11.0682 23.6615 9.48456 23.6706L9.48799 24.2706ZM9.12984 24.1135C9.17191 24.1915 9.27384 24.3065 9.44585 24.2997C9.57623 24.2946 9.66261 24.2174 9.69504 24.186L9.27751 23.7551C9.27992 23.7528 9.29086 23.7424 9.31055 23.7312C9.32997 23.7201 9.36858 23.7023 9.42225 23.7002C9.48133 23.6979 9.53889 23.7155 9.58539 23.7484C9.6274 23.7781 9.64884 23.8118 9.65798 23.8287L9.12984 24.1135ZM4.54434 24.2943C5.97498 24.2892 7.64613 24.281 9.39561 24.2711L9.3922 23.6711C7.64298 23.6811 5.97228 23.6892 4.54221 23.6943L4.54434 24.2943ZM4.37886 24.2803C4.46621 24.3082 4.55259 24.3043 4.62786 24.2821L4.45868 23.7065C4.48375 23.6991 4.52098 23.6958 4.56183 23.7089L4.37886 24.2803ZM0.225427 24.2908C0.687828 24.3026 2.29942 24.3022 4.47139 24.2946L4.46929 23.6946C2.29179 23.7022 0.691983 23.7025 0.240713 23.691L0.225427 24.2908ZM-0.027046 24.2068C0.0291147 24.2601 0.107332 24.2983 0.198757 24.2999C0.282063 24.3015 0.347354 24.2722 0.387566 24.248L0.0785736 23.7337C0.0983433 23.7218 0.144349 23.6988 0.209748 23.7C0.283266 23.7014 0.344957 23.7326 0.386194 23.7718L-0.027046 24.2068ZM0.018485 24.2719C0.0597918 24.284 0.104499 24.2859 0.106558 24.286C0.124225 24.2873 0.145515 24.2882 0.168835 24.2891L0.190312 23.6895C0.169541 23.6887 0.155807 23.688 0.147797 23.6875C0.143631 23.6872 0.143379 23.6871 0.145643 23.6874C0.146794 23.6875 0.150386 23.6879 0.15551 23.6888C0.15816 23.6892 0.162042 23.6899 0.166792 23.6909C0.171309 23.6919 0.178441 23.6935 0.187154 23.6961L0.018485 24.2719ZM0.10282 23.3954C-0.171379 23.2737 -0.171404 23.2737 -0.171431 23.2738C-0.171441 23.2738 -0.171469 23.2739 -0.171489 23.2739C-0.17153 23.274 -0.171574 23.2741 -0.171621 23.2742C-0.171716 23.2744 -0.171826 23.2747 -0.171949 23.275C-0.172195 23.2755 -0.172497 23.2762 -0.172852 23.277C-0.173561 23.2787 -0.174483 23.2808 -0.175595 23.2834C-0.177817 23.2886 -0.18081 23.2957 -0.184394 23.3045C-0.191541 23.322 -0.201161 23.3464 -0.211773 23.3757C-0.232543 23.4331 -0.259182 23.5148 -0.277574 23.6031C-0.294699 23.6852 -0.311205 23.8023 -0.289678 23.9182C-0.265792 24.0468 -0.182746 24.2129 0.0185046 24.2719L0.187135 23.6961C0.218891 23.7054 0.251523 23.7265 0.274972 23.7573C0.295464 23.7842 0.299769 23.8061 0.300233 23.8086C0.300726 23.8113 0.299389 23.8053 0.300547 23.788C0.301651 23.7714 0.304609 23.7504 0.309806 23.7255C0.320315 23.6751 0.337027 23.6224 0.352385 23.58C0.359836 23.5594 0.366473 23.5426 0.371067 23.5313C0.373354 23.5257 0.375102 23.5216 0.376154 23.5191C0.376679 23.5179 0.377027 23.5171 0.377179 23.5168C0.377255 23.5166 0.377281 23.5165 0.377255 23.5166C0.377242 23.5166 0.377216 23.5167 0.377176 23.5168C0.377157 23.5168 0.377134 23.5168 0.377107 23.5169C0.377094 23.5169 0.377072 23.517 0.377065 23.517C0.377042 23.5171 0.377018 23.5171 0.10282 23.3954ZM0.138101 23.0967C0.132288 23.0966 0.128584 23.0964 0.126543 23.0963C0.125546 23.0963 0.125506 23.0963 0.12618 23.0963C0.126547 23.0964 0.129297 23.0965 0.133416 23.097L0.0722231 23.6938C0.089781 23.6956 0.110335 23.6962 0.121698 23.6965L0.138101 23.0967ZM-0.273276 0.666344C-0.284776 0.706644 -0.286626 0.750103 -0.286757 0.752043C-0.287911 0.769164 -0.288834 0.789768 -0.289624 0.812306C-0.291222 0.857902 -0.292572 0.920344 -0.293729 0.997491C-0.296048 1.15225 -0.297672 1.37238 -0.298686 1.64864C-0.300716 2.20149 -0.300314 2.98289 -0.298029 3.92403C-0.293458 5.80651 -0.281345 8.33017 -0.266019 10.9475C-0.23537 16.1816 -0.191854 21.7928 -0.170073 23.4007L0.429872 23.3926C0.408128 21.7874 0.364623 16.1785 0.333971 10.944C0.318646 8.32691 0.306538 5.80404 0.301969 3.92258C0.299685 2.98175 0.299287 2.20182 0.30131 1.65085C0.302321 1.3752 0.303936 1.15778 0.306204 1.00648C0.307341 0.930598 0.308622 0.872878 0.310008 0.833322C0.31071 0.813284 0.311368 0.800063 0.311886 0.792379C0.313426 0.769513 0.313338 0.797187 0.303692 0.830988L-0.273276 0.666344ZM0.573402 0.748666C0.697774 0.475661 0.697715 0.475634 0.697654 0.475606C0.697631 0.475596 0.697568 0.475567 0.697523 0.475547C0.697431 0.475505 0.697332 0.47546 0.697225 0.475412C0.697011 0.475314 0.696766 0.475204 0.69649 0.475079C0.695939 0.47483 0.695265 0.474527 0.694473 0.474173C0.692887 0.473464 0.690823 0.472547 0.68831 0.471445C0.683288 0.469243 0.676445 0.466288 0.668017 0.462756C0.651215 0.455713 0.627806 0.446247 0.59971 0.435807C0.544813 0.415408 0.466222 0.38911 0.381132 0.370911C0.302271 0.354045 0.187699 0.337236 0.0733451 0.359033C-0.055896 0.383668 -0.216884 0.468728 -0.273276 0.666344L0.303692 0.830988C0.294801 0.862145 0.27416 0.895542 0.242545 0.920289C0.214549 0.942203 0.190666 0.947473 0.18569 0.948422C0.182018 0.949122 0.20298 0.946378 0.255641 0.957641C0.302072 0.967572 0.350989 0.98347 0.39072 0.998233C0.409938 1.00537 0.425622 1.01173 0.436085 1.01612C0.441289 1.0183 0.445122 1.01996 0.447367 1.02094C0.448488 1.02143 0.449205 1.02175 0.449493 1.02188C0.449637 1.02195 0.449673 1.02196 0.449597 1.02193C0.449559 1.02191 0.449493 1.02188 0.449399 1.02184C0.449352 1.02182 0.449297 1.02179 0.449236 1.02176C0.449205 1.02175 0.449154 1.02173 0.449139 1.02172C0.449085 1.0217 0.44903 1.02167 0.573402 0.748666ZM0.884384 5.82943C0.878586 4.38437 0.87358 3.1367 0.871154 2.23899C0.86994 1.79008 0.869373 1.42907 0.869672 1.17479C0.869822 1.04757 0.870188 0.947641 0.870791 0.876998C0.871483 0.79594 0.872536 0.772298 0.87191 0.778545L0.274894 0.718786C0.272007 0.747621 0.271346 0.809419 0.270813 0.871879C0.270191 0.944752 0.269823 1.04642 0.269673 1.17409C0.269372 1.42959 0.269942 1.79156 0.271156 2.24061C0.273584 3.13881 0.278592 4.38694 0.284389 5.83184L0.884384 5.82943ZM0.906686 11.9929C0.900433 9.82921 0.891767 7.66945 0.884384 5.82943L0.284389 5.83184C0.291772 7.6719 0.300436 9.83133 0.306689 11.9946L0.906686 11.9929ZM0.660011 11.6847C0.621796 11.6873 0.584402 11.6923 0.547963 11.6996L0.665412 12.288C0.676405 12.2858 0.688105 12.2842 0.700542 12.2833L0.660011 11.6847ZM4.36811 11.6493C3.12809 11.5412 1.87476 11.6028 0.66009 11.6847L0.700463 12.2833C1.91229 12.2016 3.12576 12.1433 4.31603 12.247L4.36811 11.6493ZM4.02698 7.76831C4.03253 9.162 4.03809 10.5555 4.04207 11.949L4.64207 11.9473C4.63808 10.5534 4.63253 9.15956 4.62698 7.76592L4.02698 7.76831ZM4.02698 7.76756L4.02698 7.7685L4.62697 7.76574L4.62697 7.76481L4.02698 7.76756ZM23.8077 23.4748C23.7802 21.5537 23.7139 12.5691 23.6877 6.48756L23.0877 6.49015C23.1139 12.5716 23.1802 21.5589 23.2078 23.4834L23.8077 23.4748ZM23.2682 23.7089C23.3119 23.7246 23.3548 23.7409 23.396 23.7575L23.6195 23.2007C23.5713 23.1813 23.5218 23.1625 23.4716 23.1444L23.2682 23.7089ZM19.467 23.6554C20.5872 23.6594 21.5316 23.6666 22.2102 23.6781C22.5497 23.6838 22.8209 23.6906 23.0135 23.6985C23.1101 23.7025 23.1843 23.7066 23.2364 23.7108C23.2626 23.7129 23.2803 23.7148 23.291 23.7162C23.3093 23.7187 23.2938 23.7181 23.2681 23.7089L23.4716 23.1444C23.4312 23.1299 23.3899 23.1242 23.3716 23.1217C23.3457 23.1182 23.3159 23.1152 23.2844 23.1127C23.2208 23.1076 23.1376 23.1031 23.038 23.099C22.8382 23.0908 22.5614 23.084 22.2203 23.0782C21.5376 23.0666 20.59 23.0594 19.4692 23.0554L19.467 23.6554ZM19.2643 10.3274C19.1825 14.664 19.1005 19.0059 19.1681 23.3601L19.768 23.3508C19.7006 19.0086 19.7823 14.677 19.8642 10.3387L19.2643 10.3274ZM19.2643 10.3329V10.333H19.8643V10.3329H19.2643ZM19.3283 6.77745C19.309 7.96075 19.2867 9.14381 19.2643 10.3273L19.8642 10.3386C19.8866 9.15527 19.9089 7.97143 19.9282 6.78723L19.3283 6.77745ZM20.5117 6.34421C20.1959 6.39626 19.8896 6.44671 19.5905 6.48474L19.6661 7.07995C19.9782 7.04028 20.2956 6.98793 20.6092 6.93622L20.5117 6.34421ZM23.4295 6.19164C22.4658 6.01892 21.4437 6.19057 20.5117 6.34421L20.6092 6.93622C21.5641 6.77882 22.48 6.63103 23.3237 6.78223L23.4295 6.19164ZM23.439 6.19328L23.4279 6.19136L23.3253 6.78251L23.3363 6.78443L23.439 6.19328ZM19.3927 23.3498C19.3658 21.5124 19.3653 19.6765 19.3799 17.841L18.78 17.8362C18.7653 19.675 18.7658 21.5156 18.7928 23.3586L19.3927 23.3498ZM14.7011 23.6532C16.2864 23.6507 17.7928 23.6505 19.0919 23.6542L19.0936 23.0542C17.7933 23.0505 16.2859 23.0507 14.7001 23.0532L14.7011 23.6532ZM14.4641 17.5481C14.4633 19.0853 14.4589 20.4446 14.449 21.4647C14.4389 22.498 14.4231 23.1562 14.403 23.3156L14.9983 23.3907C15.024 23.1868 15.0391 22.4801 15.049 21.4705C15.0589 20.4477 15.0633 19.0862 15.0641 17.5484L14.4641 17.5481ZM14.8085 17.2452C14.7944 17.2478 14.7821 17.2486 14.7713 17.2483L14.7569 17.8481C14.8088 17.8494 14.8615 17.8453 14.9147 17.8358L14.8085 17.2452ZM18.009 17.3936C16.983 17.2426 15.8071 17.0663 14.8087 17.2452L14.9145 17.8358C15.7971 17.6776 16.8677 17.8321 17.9216 17.9872L18.009 17.3936ZM18.0147 17.3945L18.0146 17.3945L17.916 17.9864L17.916 17.9864L18.0147 17.3945ZM19.1011 17.5393C18.7608 17.5043 18.3947 17.4504 18.0091 17.3937L17.9217 17.9873C18.3044 18.0436 18.684 18.0995 19.0398 18.1361L19.1011 17.5393ZM19.1089 17.54L19.0994 17.5391L19.0415 18.1363L19.051 18.1372L19.1089 17.54ZM14.5784 23.3499C14.5547 21.5579 14.5064 15.224 14.476 9.71466L13.876 9.71797C13.9064 15.2271 13.9547 21.5632 13.9784 23.3579L14.5784 23.3499ZM9.77847 23.6664C11.2684 23.6612 12.8023 23.6566 14.2789 23.6539L14.2778 23.0539C12.8008 23.0566 11.2665 23.0612 9.77636 23.0664L9.77847 23.6664ZM9.54027 19.1754C9.53719 20.3208 9.53113 21.3027 9.52104 22.03C9.51599 22.3938 9.50994 22.6926 9.50281 22.9158C9.49541 23.1474 9.48723 23.2787 9.48074 23.3219L10.0741 23.4109C10.0869 23.3255 10.0955 23.1552 10.1025 22.935C10.1098 22.7065 10.1159 22.4035 10.121 22.0383C10.1311 21.3076 10.1372 20.3231 10.1403 19.177L9.54027 19.1754ZM9.54713 19.1931C9.54085 19.164 9.542 19.1371 9.54646 19.1155L10.1341 19.2368C10.145 19.1838 10.1465 19.126 10.1337 19.0666L9.54713 19.1931ZM9.52637 9.54342C9.53813 12.8356 9.54744 16.4276 9.54039 19.1291L10.1404 19.1306C10.1474 16.4271 10.1381 12.8335 10.1264 9.54128L9.52637 9.54342ZM13.174 9.33993C12.0696 9.2507 10.8441 9.15082 9.79983 9.24353L9.85289 9.84118C10.8363 9.75386 12.0074 9.84762 13.1257 9.93798L13.174 9.33993ZM13.1499 9.33896H13.1499V9.93896H13.1499V9.33896ZM13.1499 9.33896H13.1499V9.93896H13.1499V9.33896ZM13.1499 9.33896H13.1499V9.93896H13.1499V9.33896ZM13.1499 9.33896H13.1499V9.93896H13.1499V9.33896ZM13.1499 9.33896H13.1499V9.93896H13.1499V9.33896ZM14.1951 9.41693C13.8707 9.39621 13.5284 9.36856 13.1741 9.33993L13.1258 9.93798C13.479 9.96652 13.8265 9.99461 14.1569 10.0157L14.1951 9.41693ZM9.65715 23.3639C9.64788 22.6679 9.63478 21.2648 9.62043 19.4821L9.02045 19.4869C9.03479 21.2695 9.04791 22.674 9.0572 23.3719L9.65715 23.3639ZM5.32544 23.6838C6.55989 23.6787 7.93423 23.6731 9.35826 23.6679L9.35609 23.0679C7.93189 23.0731 6.5574 23.0787 5.32297 23.0838L5.32544 23.6838ZM4.86922 23.6857L5.32544 23.6838L5.32297 23.0838L4.86675 23.0857L4.86922 23.6857ZM4.58007 23.2094C4.5795 23.2575 4.57612 23.3035 4.57047 23.3472L5.1655 23.4242C5.17414 23.3575 5.17918 23.2881 5.18003 23.2166L4.58007 23.2094ZM4.60799 20.0892C4.60153 21.1295 4.59245 22.1695 4.58007 23.2095L5.18003 23.2166C5.19242 22.1754 5.20151 21.1342 5.20798 20.093L4.60799 20.0892ZM6.34769 19.4889C5.84515 19.6155 5.36246 19.7366 4.87354 19.7931L4.94243 20.3891C5.47721 20.3273 5.99821 20.1957 6.4942 20.0708L6.34769 19.4889ZM9.08793 19.1904C8.12567 19.0371 7.20529 19.273 6.34769 19.4889L6.4942 20.0708C7.3727 19.8495 8.17281 19.6522 8.99354 19.7829L9.08793 19.1904ZM9.27385 19.1882C9.20744 19.1986 9.14377 19.1993 9.08808 19.1904L8.99339 19.7829C9.12129 19.8033 9.24922 19.7994 9.36703 19.7809L9.27385 19.1882ZM4.60735 23.3915C4.62116 22.2154 4.63079 21.0391 4.63718 19.8629L4.03719 19.8596C4.0308 21.0348 4.02118 22.2097 4.00739 23.3845L4.60735 23.3915ZM0.541766 23.6993C1.20528 23.7001 2.5667 23.6951 4.30859 23.688L4.30615 23.088C2.56343 23.0951 1.20401 23.1001 0.542479 23.0993L0.541766 23.6993ZM0.260766 23.2951L0.259126 23.2998L0.82512 23.4989L0.82676 23.4942L0.260766 23.2951ZM0.308692 12.7205C0.315675 15.383 0.318365 17.997 0.309854 19.972C0.305597 20.9597 0.298544 21.7865 0.287855 22.3792C0.282506 22.6759 0.276278 22.912 0.269131 23.0797C0.265544 23.1639 0.261834 23.2282 0.258132 23.2731C0.256266 23.2958 0.254631 23.3107 0.253442 23.3194C0.251319 23.3348 0.252117 23.3197 0.260713 23.2953L0.826814 23.4941C0.840141 23.4561 0.845528 23.418 0.847857 23.401C0.851119 23.3773 0.853797 23.3505 0.856108 23.3224C0.860763 23.2659 0.86487 23.1925 0.868587 23.1053C0.876049 22.9302 0.882381 22.6882 0.887758 22.39C0.898522 21.7931 0.905589 20.963 0.909848 19.9746C0.918369 17.9974 0.915674 15.3816 0.908689 12.7189L0.308692 12.7205ZM1.9758 12.2171C1.50445 12.3046 1.05007 12.3887 0.588111 12.4204L0.62927 13.019C1.13131 12.9845 1.61942 12.8935 2.08532 12.8071L1.9758 12.2171ZM4.3413 12.0264C3.51449 11.9293 2.7227 12.0785 1.9758 12.2171L2.08532 12.8071C2.84653 12.6657 3.54929 12.5375 4.27132 12.6223L4.3413 12.0264ZM4.3659 12.0287C4.35748 12.0281 4.34931 12.0273 4.34142 12.0264L4.2712 12.6223C4.2877 12.6242 4.30409 12.6258 4.32034 12.627L4.3659 12.0287ZM4.63928 19.4546C4.65071 17.0788 4.6494 14.7028 4.64312 12.3271L4.04312 12.3287C4.0494 14.7036 4.05071 17.0779 4.03928 19.4517L4.63928 19.4546ZM4.61914 19.7588C4.60316 19.7148 4.59812 19.6353 4.62686 19.5385L4.0517 19.3677C3.9965 19.5535 3.98455 19.7693 4.05524 19.9637L4.61914 19.7588Z" fill="#52B36C" mask="url(#path-1-outside-1_1988_100330)"/>
</g>
<defs>
<clipPath id="clip0_1988_100330">
<rect width="24" height="24" fill="white"/>
</clipPath>
</defs>
</svg>
