<svg width="60" height="60" viewBox="0 0 60 60" fill="none" xmlns="http://www.w3.org/2000/svg">
<path d="M9.55556 19.7778C13.14 12.2141 20.9611 7 30 7C42.7025 7 53 17.2975 53 30C53 42.7025 42.7025 53 30 53C17.2975 53 7 42.7025 7 30" stroke="#10E048"/>
<path d="M22.3207 40V24.2029H19V23.5514C19.8372 23.5514 20.4883 23.4926 20.9534 23.375C21.4278 23.2483 21.7859 23.004 22.0277 22.6421C22.2696 22.2802 22.4696 21.7329 22.6277 21H23.3253V40H22.3207Z" fill="#10E048"/>
<path d="M36.0375 40V34.4629H26.4939V33.8929L36.5956 21H37.042V33.5671H40V34.4629H37.042V40H36.0375ZM27.917 33.5671H36.0375V23.1714L27.917 33.5671Z" fill="#10E048"/>
<path d="M7 11L9.32937 19.6933L18.0227 17.364" stroke="#10E048"/>
</svg>
