<svg width="24" height="24" viewBox="0 0 24 24" fill="none" xmlns="http://www.w3.org/2000/svg">
<mask id="path-1-inside-1_1988_100327" fill="white">
<path fill-rule="evenodd" clip-rule="evenodd" d="M5.2214 8.94777C5.12103 8.59087 5.04847 8.22309 5.00605 7.84712L4.29036 1.40631H2.1094C1.7214 1.40631 1.40627 1.72144 1.40627 2.10946V3.18067C1.40627 4.59796 1.8937 5.98779 2.77957 7.09471C3.43085 7.90926 4.26801 8.54283 5.2214 8.94777ZM4.13409 0H4.13622H19.864H19.8656H21.8908C23.0539 0 24.0002 0.946327 24.0002 2.10946V3.18067C24.0002 4.91585 23.4029 6.61825 22.3193 7.97365C21.3929 9.13074 20.1604 9.99045 18.7549 10.4587L18.0077 10.7082C17.1416 12.1191 15.7853 13.2087 14.1561 13.7256V14.7662C14.1561 15.1599 14.4654 15.4694 14.8593 15.4694C16.0266 15.4694 16.9687 16.4115 16.9687 17.5788V18.2812H17.6722C18.066 18.2812 18.3753 18.5905 18.3753 18.9844V22.5933H19.0784C19.4723 22.5933 19.7815 22.9025 19.7815 23.2964C19.7815 23.6901 19.4723 23.9996 19.0784 23.9996H4.92199C4.52812 23.9996 4.21886 23.6901 4.21886 23.2964C4.21886 22.9025 4.52812 22.5933 4.92199 22.5933H5.62514V18.9844C5.62514 18.5905 5.93441 18.2812 6.32828 18.2812H7.03104V17.5788C7.03104 16.4115 7.97313 15.4694 9.14044 15.4694C9.5343 15.4694 9.84357 15.1599 9.84357 14.7662V13.7256C8.21445 13.2087 6.85815 12.1191 5.99203 10.7082L5.2453 10.4594C3.83977 9.99045 2.60727 9.13074 1.68093 7.97365C0.597297 6.61825 0 4.91585 0 3.18067V2.10946C0 0.946327 0.9463 0 2.1094 0H4.13409ZM18.7784 8.94748C19.7319 8.54302 20.5693 7.90939 21.2206 7.09471C22.1065 5.98779 22.5939 4.59796 22.5939 3.18067V2.10946C22.5939 1.72144 22.2788 1.40631 21.8908 1.40631H19.7093L18.9936 7.84712C18.9512 8.22299 18.8787 8.59067 18.7784 8.94748Z"/>
</mask>
<path d="M5.00605 7.84712L4.01216 7.95756L4.01236 7.95925L5.00605 7.84712ZM5.2214 8.94777L4.83046 9.86818L6.74807 10.6827L6.18406 8.67705L5.2214 8.94777ZM4.29036 1.40631L5.28424 1.29587L5.18539 0.406307H4.29036V1.40631ZM2.77957 7.09471L3.56061 6.47023L3.56033 6.46987L2.77957 7.09471ZM22.3193 7.97365L23.0999 8.59862L23.1003 8.5981L22.3193 7.97365ZM18.7549 10.4587L18.4388 9.50993L18.4382 9.51015L18.7549 10.4587ZM18.0077 10.7082L17.691 9.75965L17.3458 9.87489L17.1554 10.185L18.0077 10.7082ZM14.1561 13.7256L13.8537 12.7724L13.1561 12.9937V13.7256H14.1561ZM16.9687 18.2812H15.9687V19.2812H16.9687V18.2812ZM18.3753 22.5933H17.3753V23.5933H18.3753V22.5933ZM5.62514 22.5933V23.5933H6.62514V22.5933H5.62514ZM7.03104 18.2812V19.2812H8.03104V18.2812H7.03104ZM9.84357 13.7256H10.8436V12.9937L10.146 12.7724L9.84357 13.7256ZM5.99203 10.7082L6.84426 10.185L6.6537 9.87459L6.3081 9.75945L5.99203 10.7082ZM5.2453 10.4594L4.92881 11.408L4.92922 11.4081L5.2453 10.4594ZM1.68093 7.97365L0.899866 8.5981L0.90028 8.59862L1.68093 7.97365ZM21.2206 7.09471L20.4399 6.46987L20.4396 6.47023L21.2206 7.09471ZM18.7784 8.94748L17.8157 8.6768L17.2522 10.6811L19.1689 9.86809L18.7784 8.94748ZM19.7093 1.40631V0.406307H18.8143L18.7155 1.29587L19.7093 1.40631ZM18.9936 7.84712L19.9873 7.95925L19.9875 7.95755L18.9936 7.84712ZM4.01236 7.95925C4.06088 8.3893 4.1439 8.8101 4.25874 9.21848L6.18406 8.67705C6.09817 8.37163 6.03607 8.05687 5.99974 7.73498L4.01236 7.95925ZM3.29647 1.51675L4.01217 7.95755L5.99993 7.73668L5.28424 1.29587L3.29647 1.51675ZM2.1094 2.40631H4.29036V0.406307H2.1094V2.40631ZM2.40627 2.10946C2.40627 2.2737 2.27371 2.40631 2.1094 2.40631V0.406307C1.16908 0.406307 0.406267 1.16919 0.406267 2.10946H2.40627ZM2.40627 3.18067V2.10946H0.406267V3.18067H2.40627ZM3.56033 6.46987C2.81642 5.54034 2.40627 4.3709 2.40627 3.18067H0.406267C0.406267 4.82503 0.970978 6.43524 1.99882 7.71955L3.56033 6.46987ZM5.61233 8.02735C4.81129 7.68712 4.10825 7.15516 3.56061 6.47023L1.99853 7.71919C2.75345 8.66337 3.72473 9.39854 4.83046 9.86818L5.61233 8.02735ZM4.13622 -1H4.13409V1H4.13622V-1ZM19.864 -1H4.13622V1H19.864V-1ZM19.8656 -1H19.864V1H19.8656V-1ZM21.8908 -1H19.8656V1H21.8908V-1ZM25.0002 2.10946C25.0002 0.394069 23.6062 -1 21.8908 -1V1C22.5016 1 23.0002 1.49859 23.0002 2.10946H25.0002ZM25.0002 3.18067V2.10946H23.0002V3.18067H25.0002ZM23.1003 8.5981C24.3256 7.06556 25.0002 5.14299 25.0002 3.18067H23.0002C23.0002 4.68871 22.4802 6.17093 21.5382 7.3492L23.1003 8.5981ZM19.0709 11.4074C20.6597 10.8782 22.0534 9.90586 23.0999 8.59862L21.5386 7.34868C20.7325 8.35562 19.6612 9.10273 18.4389 9.50993L19.0709 11.4074ZM18.3244 11.6567L19.0716 11.4072L18.4382 9.51015L17.691 9.75965L18.3244 11.6567ZM14.4585 14.6788C16.3221 14.0875 17.8711 12.8421 18.8599 11.2313L17.1554 10.185C16.412 11.3962 15.2484 12.3299 13.8537 12.7724L14.4585 14.6788ZM15.1561 14.7662V13.7256H13.1561V14.7662H15.1561ZM14.8593 14.4694C14.9306 14.4694 15.0083 14.4995 15.0672 14.5584C15.126 14.6172 15.1561 14.6949 15.1561 14.7662H13.1561C13.1561 15.712 13.9129 16.4694 14.8593 16.4694V14.4694ZM17.9687 17.5788C17.9687 15.8592 16.5789 14.4694 14.8593 14.4694V16.4694C15.4743 16.4694 15.9687 16.9637 15.9687 17.5788H17.9687ZM17.9687 18.2812V17.5788H15.9687V18.2812H17.9687ZM17.6722 17.2812H16.9687V19.2812H17.6722V17.2812ZM19.3753 18.9844C19.3753 18.0383 18.6183 17.2812 17.6722 17.2812V19.2812C17.601 19.2812 17.5233 19.2512 17.4643 19.1922C17.4054 19.1333 17.3753 19.0555 17.3753 18.9844H19.3753ZM19.3753 22.5933V18.9844H17.3753V22.5933H19.3753ZM18.3753 23.5933H19.0784V21.5933H18.3753V23.5933ZM19.0784 23.5933C19.0073 23.5933 18.9295 23.5632 18.8706 23.5042C18.8116 23.4453 18.7815 23.3675 18.7815 23.2964H20.7815C20.7815 22.3503 20.0246 21.5933 19.0784 21.5933V23.5933ZM18.7815 23.2964C18.7815 23.2251 18.8117 23.1474 18.8705 23.0886C18.9294 23.0297 19.0071 22.9996 19.0784 22.9996V24.9996C20.0248 24.9996 20.7815 24.2422 20.7815 23.2964H18.7815ZM19.0784 22.9996H4.92199V24.9996H19.0784V22.9996ZM4.92199 22.9996C4.99331 22.9996 5.07105 23.0297 5.1299 23.0886C5.18874 23.1474 5.21886 23.2251 5.21886 23.2964H3.21886C3.21886 24.2422 3.97564 24.9996 4.92199 24.9996V22.9996ZM5.21886 23.2964C5.21886 23.3675 5.18879 23.4453 5.12984 23.5042C5.07089 23.5632 4.99314 23.5933 4.92199 23.5933V21.5933C3.97581 21.5933 3.21886 22.3503 3.21886 23.2964H5.21886ZM4.92199 23.5933H5.62514V21.5933H4.92199V23.5933ZM4.62514 18.9844V22.5933H6.62514V18.9844H4.62514ZM6.32828 17.2812C5.3821 17.2812 4.62514 18.0383 4.62514 18.9844H6.62514C6.62514 19.0555 6.59508 19.1333 6.53613 19.1922C6.47717 19.2512 6.39943 19.2812 6.32828 19.2812V17.2812ZM7.03104 17.2812H6.32828V19.2812H7.03104V17.2812ZM6.03104 17.5788V18.2812H8.03104V17.5788H6.03104ZM9.14044 14.4694C7.42081 14.4694 6.03104 15.8592 6.03104 17.5788H8.03104C8.03104 16.9637 8.52544 16.4694 9.14044 16.4694V14.4694ZM8.84357 14.7662C8.84357 14.6949 8.87369 14.6172 8.93252 14.5584C8.99138 14.4995 9.06911 14.4694 9.14044 14.4694V16.4694C10.0868 16.4694 10.8436 15.712 10.8436 14.7662H8.84357ZM8.84357 13.7256V14.7662H10.8436V13.7256H8.84357ZM5.13979 11.2313C6.12857 12.8421 7.67763 14.0875 9.54116 14.6788L10.146 12.7724C8.75127 12.3299 7.58773 11.3962 6.84426 10.185L5.13979 11.2313ZM4.92922 11.4081L5.67595 11.6569L6.3081 9.75945L5.56138 9.51067L4.92922 11.4081ZM0.90028 8.59862C1.94684 9.90588 3.34045 10.8781 4.92881 11.408L5.5618 9.51081C4.33908 9.10286 3.2677 8.3556 2.46158 7.34868L0.90028 8.59862ZM-1 3.18067C-1 5.14299 -0.325385 7.06556 0.899866 8.5981L2.46199 7.3492C1.51998 6.17093 1 4.68871 1 3.18067H-1ZM-1 2.10946V3.18067H1V2.10946H-1ZM2.1094 -1C0.393989 -1 -1 0.394069 -1 2.10946H1C1 1.49859 1.49861 1 2.1094 1V-1ZM4.13409 -1H2.1094V1H4.13409V-1ZM20.4396 6.47023C19.8919 7.15528 19.1888 7.68717 18.3879 8.02687L19.1689 9.86809C20.2751 9.39887 21.2466 8.66349 22.0017 7.71919L20.4396 6.47023ZM21.5939 3.18067C21.5939 4.3709 21.1838 5.54034 20.4399 6.46987L22.0014 7.71955C23.0292 6.43524 23.5939 4.82503 23.5939 3.18067H21.5939ZM21.5939 2.10946V3.18067H23.5939V2.10946H21.5939ZM21.8908 2.40631C21.7265 2.40631 21.5939 2.2737 21.5939 2.10946H23.5939C23.5939 1.16918 22.8311 0.406307 21.8908 0.406307V2.40631ZM19.7093 2.40631H21.8908V0.406307H19.7093V2.40631ZM19.9875 7.95755L20.7032 1.51675L18.7155 1.29587L17.9998 7.73668L19.9875 7.95755ZM19.741 9.21816C19.8558 8.80989 19.9388 8.38919 19.9873 7.95925L18 7.73498C17.9636 8.05678 17.9016 8.37146 17.8157 8.6768L19.741 9.21816Z" fill="#52B36C" mask="url(#path-1-inside-1_1988_100327)"/>
<path d="M14.4685 5.36384L14.4665 5.35592L14.4641 5.34806C14.3632 5.00809 14.0848 4.75725 13.7395 4.69931L13.7395 4.69926L13.7319 4.6981L13.0981 4.60175L12.8119 3.99854L12.8119 3.9985L12.8078 3.99016C12.6358 3.64451 12.2963 3.5 12 3.5C11.7036 3.5 11.3642 3.64451 11.1922 3.99016L11.1921 3.99012L11.1881 3.99854L10.9018 4.60171L10.2681 4.69798L10.2681 4.69792L10.2601 4.69926C9.91508 4.75739 9.63678 5.00805 9.53582 5.34806L9.53344 5.35607L9.53133 5.36415C9.45091 5.67235 9.52439 6.02904 9.77187 6.27658L10.2329 6.74875L10.1221 7.41876L10.1221 7.41876L10.1215 7.42278C10.0712 7.74318 10.187 8.08773 10.4635 8.30847L10.4635 8.3085L10.4681 8.31204C10.7314 8.51734 11.1176 8.57289 11.4384 8.38665L12 8.07898L12.566 8.38912C12.8868 8.56818 13.2625 8.52196 13.5318 8.31217L13.5319 8.3122L13.5367 8.30835C13.813 8.08761 13.9288 7.74314 13.8785 7.42278L13.8785 7.42278L13.8779 7.41876L13.7671 6.74875L14.228 6.27666C14.4755 6.02925 14.5492 5.67231 14.4685 5.36384Z" stroke="#52B36C"/>
</svg>
