<svg width="60" height="60" viewBox="0 0 60 60" fill="none" xmlns="http://www.w3.org/2000/svg">
<g clip-path="url(#clip0_1703_79054)">
<path d="M29.5 44C30.7856 44 32.0423 43.6188 33.1112 42.9046C34.1801 42.1903 35.0132 41.1752 35.5052 39.9874C35.9972 38.7997 36.1259 37.4928 35.8751 36.2319C35.6243 34.971 35.0052 33.8129 34.0962 32.9038C33.1871 31.9948 32.029 31.3757 30.7681 31.1249C29.5072 30.8741 28.2003 31.0028 27.0126 31.4948C25.8248 31.9868 24.8097 32.8199 24.0954 33.8888C23.3812 34.9577 23 36.2144 23 37.5C23 39.2239 23.6848 40.8772 24.9038 42.0962C26.1228 43.3152 27.7761 44 29.5 44ZM29.5 31.8125C30.6249 31.8125 31.7245 32.1461 32.6598 32.771C33.5951 33.396 34.3241 34.2842 34.7546 35.3235C35.185 36.3627 35.2977 37.5063 35.0782 38.6096C34.8588 39.7128 34.3171 40.7263 33.5217 41.5217C32.7263 42.3171 31.7128 42.8588 30.6096 43.0782C29.5063 43.2977 28.3627 43.185 27.3235 42.7546C26.2842 42.3241 25.396 41.5951 24.771 40.6598C24.1461 39.7245 23.8125 38.6249 23.8125 37.5C23.8125 35.9916 24.4117 34.5449 25.4783 33.4783C26.5449 32.4117 27.9916 31.8125 29.5 31.8125Z" fill="#52B36C"/>
<path d="M6.41379 44.7692C7.18201 44.7692 7.91876 45.0671 8.46197 45.5972C9.00517 46.1274 9.31034 46.8464 9.31034 47.5962C9.31034 47.7033 9.35394 47.806 9.43154 47.8817C9.50914 47.9575 9.61439 48 9.72414 48H50.2759C50.3856 48 50.4909 47.9575 50.5685 47.8817C50.6461 47.806 50.6897 47.7033 50.6897 47.5962C50.6897 46.8464 50.9948 46.1274 51.538 45.5972C52.0812 45.0671 52.818 44.7692 53.5862 44.7692C53.696 44.7692 53.8012 44.7267 53.8788 44.6509C53.9564 44.5752 54 44.4725 54 44.3654V30.6346C54 30.5275 53.9564 30.4248 53.8788 30.3491C53.8012 30.2733 53.696 30.2308 53.5862 30.2308C52.818 30.2308 52.0812 29.9329 51.538 29.4028C50.9948 28.8726 50.6897 28.1536 50.6897 27.4038C50.6897 27.2967 50.6461 27.194 50.5685 27.1183C50.4909 27.0425 50.3856 27 50.2759 27H9.72414C9.61439 27 9.50914 27.0425 9.43154 27.1183C9.35394 27.194 9.31034 27.2967 9.31034 27.4038C9.31034 28.1536 9.00517 28.8726 8.46197 29.4028C7.91876 29.9329 7.18201 30.2308 6.41379 30.2308C6.30405 30.2308 6.1988 30.2733 6.1212 30.3491C6.0436 30.4248 6 30.5275 6 30.6346V44.3654C6 44.4725 6.0436 44.5752 6.1212 44.6509C6.1988 44.7267 6.30405 44.7692 6.41379 44.7692ZM6.82759 31.0385C7.67422 30.9493 8.46415 30.5802 9.06628 29.9926C9.66842 29.4049 10.0466 28.634 10.1379 27.8077H49.8621C49.9534 28.634 50.3316 29.4049 50.9337 29.9926C51.5359 30.5802 52.3258 30.9493 53.1724 31.0385V43.9615C52.3258 44.0507 51.5359 44.4198 50.9337 45.0074C50.3316 45.5951 49.9534 46.366 49.8621 47.1923H10.1379C10.0466 46.366 9.66842 45.5951 9.06628 45.0074C8.46415 44.4198 7.67422 44.0507 6.82759 43.9615V31.0385Z" fill="#52B36C"/>
<path d="M43.5 40C43.9945 40 44.4778 39.8534 44.8889 39.5787C45.3 39.304 45.6205 38.9135 45.8097 38.4567C45.9989 37.9999 46.0484 37.4972 45.952 37.0123C45.8555 36.5273 45.6174 36.0819 45.2678 35.7322C44.9181 35.3826 44.4727 35.1445 43.9877 35.048C43.5028 34.9516 43.0001 35.0011 42.5433 35.1903C42.0865 35.3795 41.696 35.7 41.4213 36.1111C41.1466 36.5222 41 37.0055 41 37.5C41 38.163 41.2634 38.7989 41.7322 39.2678C42.2011 39.7366 42.837 40 43.5 40ZM43.5 35.8333C43.8296 35.8333 44.1519 35.9311 44.4259 36.1142C44.7 36.2974 44.9137 36.5577 45.0398 36.8622C45.1659 37.1667 45.199 37.5019 45.1346 37.8252C45.0703 38.1485 44.9116 38.4454 44.6785 38.6785C44.4454 38.9116 44.1485 39.0703 43.8252 39.1346C43.5019 39.199 43.1667 39.1659 42.8622 39.0398C42.5577 38.9137 42.2974 38.7 42.1142 38.426C41.9311 38.1519 41.8333 37.8296 41.8333 37.5C41.8333 37.058 42.0089 36.634 42.3215 36.3215C42.634 36.0089 43.058 35.8333 43.5 35.8333Z" fill="#52B36C"/>
<path d="M16.5 40C16.9945 40 17.4778 39.8534 17.8889 39.5787C18.3 39.304 18.6205 38.9135 18.8097 38.4567C18.9989 37.9999 19.0484 37.4972 18.952 37.0123C18.8555 36.5273 18.6174 36.0819 18.2678 35.7322C17.9181 35.3826 17.4727 35.1445 16.9877 35.048C16.5028 34.9516 16.0001 35.0011 15.5433 35.1903C15.0865 35.3795 14.696 35.7 14.4213 36.1111C14.1466 36.5222 14 37.0055 14 37.5C14 38.163 14.2634 38.7989 14.7322 39.2678C15.2011 39.7366 15.837 40 16.5 40ZM16.5 35.8333C16.8296 35.8333 17.1519 35.9311 17.426 36.1142C17.7 36.2974 17.9137 36.5577 18.0398 36.8622C18.1659 37.1667 18.199 37.5019 18.1346 37.8252C18.0703 38.1485 17.9116 38.4454 17.6785 38.6785C17.4454 38.9116 17.1485 39.0703 16.8252 39.1346C16.5018 39.199 16.1667 39.1659 15.8622 39.0398C15.5576 38.9137 15.2974 38.7 15.1142 38.426C14.9311 38.1519 14.8333 37.8296 14.8333 37.5C14.8333 37.058 15.0089 36.634 15.3215 36.3215C15.634 36.0089 16.058 35.8333 16.5 35.8333Z" fill="#52B36C"/>
<path d="M59.5833 21H0.416667C0.30616 21 0.200179 21.0408 0.122039 21.1135C0.0438984 21.1862 0 21.2847 0 21.3875V51.6125C0 51.7153 0.0438984 51.8138 0.122039 51.8865C0.200179 51.9592 0.30616 52 0.416667 52H59.5833C59.6938 52 59.7998 51.9592 59.878 51.8865C59.9561 51.8138 60 51.7153 60 51.6125V21.3875C60 21.2847 59.9561 21.1862 59.878 21.1135C59.7998 21.0408 59.6938 21 59.5833 21ZM59.1667 51.225H0.833333V21.775H59.1667V51.225Z" fill="#52B36C"/>
<path d="M4.41935 20C4.53057 20 4.63724 19.9561 4.71588 19.878C4.79453 19.7998 4.83871 19.6938 4.83871 19.5833V15.8333H55.1613V19.5833C55.1613 19.6938 55.2055 19.7998 55.2841 19.878C55.3628 19.9561 55.4694 20 55.5806 20C55.6919 20 55.7985 19.9561 55.8772 19.878C55.9558 19.7998 56 19.6938 56 19.5833V15.4167C56 15.3062 55.9558 15.2002 55.8772 15.122C55.7985 15.0439 55.6919 15 55.5806 15H4.41935C4.30814 15 4.20147 15.0439 4.12283 15.122C4.04418 15.2002 4 15.3062 4 15.4167V19.5833C4 19.6938 4.04418 19.7998 4.12283 19.878C4.20147 19.9561 4.30814 20 4.41935 20Z" fill="#52B36C"/>
<path d="M8.42308 12C8.53528 12 8.6429 11.9649 8.72224 11.9024C8.80158 11.8399 8.84615 11.7551 8.84615 11.6667V8.66667H51.1538V11.6667C51.1538 11.7551 51.1984 11.8399 51.2778 11.9024C51.3571 11.9649 51.4647 12 51.5769 12C51.6891 12 51.7967 11.9649 51.8761 11.9024C51.9554 11.8399 52 11.7551 52 11.6667V8.33333C52 8.24493 51.9554 8.16014 51.8761 8.09763C51.7967 8.03512 51.6891 8 51.5769 8H8.42308C8.31087 8 8.20326 8.03512 8.12392 8.09763C8.04457 8.16014 8 8.24493 8 8.33333V11.6667C8 11.7551 8.04457 11.8399 8.12392 11.9024C8.20326 11.9649 8.31087 12 8.42308 12Z" fill="#52B36C"/>
</g>
<defs>
<clipPath id="clip0_1703_79054">
<rect width="60" height="60" fill="white"/>
</clipPath>
</defs>
</svg>
