<svg width="74" height="60" viewBox="0 0 74 60" fill="none" xmlns="http://www.w3.org/2000/svg">
<g filter="url(#filter0_d_2226_126780)">
<path d="M8 17H66M66 28H8" stroke="#52B36C"/>
</g>
<g filter="url(#filter1_d_2226_126780)">
<rect x="7.5" y="8.5" width="59" height="43" rx="5.5" stroke="#52B36C" shape-rendering="crispEdges"/>
</g>
<g filter="url(#filter2_d_2226_126780)">
<rect x="48.5" y="38.5" width="10" height="5" rx="1.5" stroke="#52B36C" shape-rendering="crispEdges"/>
</g>
<g filter="url(#filter3_d_2226_126780)">
<mask id="path-4-inside-1_2226_126780" fill="white">
<path fill-rule="evenodd" clip-rule="evenodd" d="M23 44.6631C22.0046 46.0766 20.3602 47 18.5 47C15.4624 47 13 44.5376 13 41.5C13 38.4624 15.4624 36 18.5 36C20.3602 36 22.0046 36.9234 23 38.3369C23.9954 36.9234 25.6398 36 27.5 36C30.5376 36 33 38.4624 33 41.5C33 44.5376 30.5376 47 27.5 47C25.6398 47 23.9954 46.0766 23 44.6631Z"/>
</mask>
<path d="M23 44.6631L23.8176 44.0873L23 42.9263L22.1824 44.0873L23 44.6631ZM23 38.3369L22.1824 38.9127L23 40.0737L23.8176 38.9127L23 38.3369ZM22.1824 44.0873C21.3663 45.2462 20.0211 46 18.5 46V48C20.6992 48 22.643 46.9069 23.8176 45.2388L22.1824 44.0873ZM18.5 46C16.0147 46 14 43.9853 14 41.5H12C12 45.0899 14.9101 48 18.5 48V46ZM14 41.5C14 39.0147 16.0147 37 18.5 37V35C14.9101 35 12 37.9101 12 41.5H14ZM18.5 37C20.0211 37 21.3663 37.7538 22.1824 38.9127L23.8176 37.7612C22.643 36.0931 20.6992 35 18.5 35V37ZM23.8176 38.9127C24.6337 37.7538 25.9789 37 27.5 37V35C25.3008 35 23.357 36.0931 22.1824 37.7612L23.8176 38.9127ZM27.5 37C29.9853 37 32 39.0147 32 41.5H34C34 37.9101 31.0898 35 27.5 35V37ZM32 41.5C32 43.9853 29.9853 46 27.5 46V48C31.0898 48 34 45.0899 34 41.5H32ZM27.5 46C25.9789 46 24.6337 45.2462 23.8176 44.0873L22.1824 45.2388C23.357 46.9069 25.3008 48 27.5 48V46Z" fill="#52B36C" mask="url(#path-4-inside-1_2226_126780)"/>
</g>
<defs>
<filter id="filter0_d_2226_126780" x="1" y="9.5" width="72" height="26" filterUnits="userSpaceOnUse" color-interpolation-filters="sRGB">
<feFlood flood-opacity="0" result="BackgroundImageFix"/>
<feColorMatrix in="SourceAlpha" type="matrix" values="0 0 0 0 0 0 0 0 0 0 0 0 0 0 0 0 0 0 127 0" result="hardAlpha"/>
<feOffset/>
<feGaussianBlur stdDeviation="3.5"/>
<feComposite in2="hardAlpha" operator="out"/>
<feColorMatrix type="matrix" values="0 0 0 0 0 0 0 0 0 1 0 0 0 0 0.268041 0 0 0 1 0"/>
<feBlend mode="normal" in2="BackgroundImageFix" result="effect1_dropShadow_2226_126780"/>
<feBlend mode="normal" in="SourceGraphic" in2="effect1_dropShadow_2226_126780" result="shape"/>
</filter>
<filter id="filter1_d_2226_126780" x="0" y="1" width="74" height="58" filterUnits="userSpaceOnUse" color-interpolation-filters="sRGB">
<feFlood flood-opacity="0" result="BackgroundImageFix"/>
<feColorMatrix in="SourceAlpha" type="matrix" values="0 0 0 0 0 0 0 0 0 0 0 0 0 0 0 0 0 0 127 0" result="hardAlpha"/>
<feOffset/>
<feGaussianBlur stdDeviation="3.5"/>
<feComposite in2="hardAlpha" operator="out"/>
<feColorMatrix type="matrix" values="0 0 0 0 0 0 0 0 0 1 0 0 0 0 0.268041 0 0 0 1 0"/>
<feBlend mode="normal" in2="BackgroundImageFix" result="effect1_dropShadow_2226_126780"/>
<feBlend mode="normal" in="SourceGraphic" in2="effect1_dropShadow_2226_126780" result="shape"/>
</filter>
<filter id="filter2_d_2226_126780" x="41" y="31" width="25" height="20" filterUnits="userSpaceOnUse" color-interpolation-filters="sRGB">
<feFlood flood-opacity="0" result="BackgroundImageFix"/>
<feColorMatrix in="SourceAlpha" type="matrix" values="0 0 0 0 0 0 0 0 0 0 0 0 0 0 0 0 0 0 127 0" result="hardAlpha"/>
<feOffset/>
<feGaussianBlur stdDeviation="3.5"/>
<feComposite in2="hardAlpha" operator="out"/>
<feColorMatrix type="matrix" values="0 0 0 0 0 0 0 0 0 1 0 0 0 0 0.268041 0 0 0 1 0"/>
<feBlend mode="normal" in2="BackgroundImageFix" result="effect1_dropShadow_2226_126780"/>
<feBlend mode="normal" in="SourceGraphic" in2="effect1_dropShadow_2226_126780" result="shape"/>
</filter>
<filter id="filter3_d_2226_126780" x="6" y="29" width="34" height="25" filterUnits="userSpaceOnUse" color-interpolation-filters="sRGB">
<feFlood flood-opacity="0" result="BackgroundImageFix"/>
<feColorMatrix in="SourceAlpha" type="matrix" values="0 0 0 0 0 0 0 0 0 0 0 0 0 0 0 0 0 0 127 0" result="hardAlpha"/>
<feOffset/>
<feGaussianBlur stdDeviation="3.5"/>
<feComposite in2="hardAlpha" operator="out"/>
<feColorMatrix type="matrix" values="0 0 0 0 0 0 0 0 0 1 0 0 0 0 0.268041 0 0 0 1 0"/>
<feBlend mode="normal" in2="BackgroundImageFix" result="effect1_dropShadow_2226_126780"/>
<feBlend mode="normal" in="SourceGraphic" in2="effect1_dropShadow_2226_126780" result="shape"/>
</filter>
</defs>
</svg>
