<svg width="60" height="60" viewBox="0 0 60 60" fill="none" xmlns="http://www.w3.org/2000/svg">
<path fill-rule="evenodd" clip-rule="evenodd" d="M17.0246 12.0246C20.3333 8.71594 24.8208 6.85714 29.5 6.85714C34.1792 6.85714 38.6667 8.71594 41.9754 12.0246C45.0811 15.1304 46.9094 19.2748 47.122 23.6414C45.993 23.2265 44.7729 23 43.5 23H41.2727C40.5698 23 40 23.5698 40 24.2727V42.7273C40 43.4302 40.5698 44 41.2727 44H43.5C45.3306 44 47.0517 43.5316 48.5501 42.708C48.1843 48.769 43.153 53.5714 37 53.5714H30C29.7633 53.5714 29.5714 53.7633 29.5714 54C29.5714 54.2367 29.7633 54.4286 30 54.4286H37C43.808 54.4286 49.3375 48.9547 49.4275 42.1681C52.1885 40.2764 54 37.0997 54 33.5C54 29.3088 51.5444 25.6912 47.9934 24.0073C47.8676 19.2794 45.9346 14.7717 42.5815 11.4185C39.1121 7.9491 34.4065 6 29.5 6C24.5935 6 19.8879 7.9491 16.4185 11.4185C12.9491 14.8879 11 19.5935 11 24.5H11.0886C8.03938 26.3373 6 29.6805 6 33.5C6 39.299 10.701 44 16.5 44H18.7273C19.4302 44 20 43.4302 20 42.7273V24.2727C20 23.5698 19.4302 23 18.7273 23H16.5C14.8352 23 13.2608 23.3875 11.8622 24.0771C11.9706 19.5512 13.8157 15.2335 17.0246 12.0246ZM18.7273 23.8571H16.5C11.1744 23.8571 6.85714 28.1744 6.85714 33.5C6.85714 38.8256 11.1744 43.1429 16.5 43.1429H18.7273C18.9568 43.1429 19.1429 42.9568 19.1429 42.7273V24.2727C19.1429 24.0432 18.9568 23.8571 18.7273 23.8571ZM43.5 23.8571H41.2727C41.0432 23.8571 40.8571 24.0432 40.8571 24.2727V42.7273C40.8571 42.9568 41.0432 43.1429 41.2727 43.1429H43.5C48.8256 43.1429 53.1429 38.8256 53.1429 33.5C53.1429 28.1744 48.8256 23.8571 43.5 23.8571Z" fill="#10E048"/>
</svg>
