<svg width="60" height="60" viewBox="0 0 60 60" fill="none" xmlns="http://www.w3.org/2000/svg">
<path d="M23.6818 8.63636V8.13636H23.1818H9.54545H9.04545V8.63636V22.5455V23.0455H9.54545H23.1818H23.6818V22.5455V8.63636ZM23.6818 36.4545V35.9545H23.1818H9.54545H9.04545V36.4545V50.3636V50.8636H9.54545H23.1818H23.6818V50.3636V36.4545ZM36.8182 8.13636H36.3182V8.63636V22.5455V23.0455H36.8182H50.4545H50.9545V22.5455V8.63636V8.13636H50.4545H36.8182ZM50.4545 39.2727H50.9545V38.7727V32.3182H54.5V38.7727V42.9091H45.9091H45.4091V43.4091V54.5H32.7727V50.8636H41.3636H41.8636V50.3636V32.3182H45.4091V38.7727V39.2727H45.9091H50.4545ZM5.5 26.6818V4.5H27.2273V26.6818H5.5ZM5.5 54.5V32.3182H27.2273V54.5H5.5ZM32.7727 26.6818V4.5H54.5V26.6818H32.7727ZM32.7727 45.2273V32.3182H36.3182V45.2273H32.7727ZM14.5909 17.4091V13.7727H18.1364V17.4091H14.5909ZM14.5909 45.2273V41.5909H18.1364V45.2273H14.5909ZM45.4091 17.4091H41.8636V13.7727H45.4091V17.4091ZM50.9545 54.5V48.5455H54.5V54.5H50.9545Z" stroke="#52B36C"/>
</svg>
