<svg width="25" height="24" viewBox="0 0 25 24" fill="none" xmlns="http://www.w3.org/2000/svg">
<path d="M14.26 2.11636L6.45199 2.27132C5.93429 2.28159 5.44184 2.4989 5.08297 2.87542C4.72411 3.25195 4.52822 3.75685 4.53841 4.27907L4.84565 20.0311C4.85583 20.5533 5.07126 21.0501 5.44453 21.4121C5.8178 21.7741 6.31834 21.9717 6.83604 21.9614L18.548 21.729C19.0657 21.7187 19.5582 21.5014 19.917 21.1249C20.2759 20.7483 20.4718 20.2434 20.4616 19.7212L20.2312 7.90716L14.26 2.11636Z" stroke="#52B36C" stroke-linecap="round" stroke-linejoin="round"/>
<path d="M14.4531 2.15332V8.06149H20.3102" stroke="#52B36C" stroke-linecap="round" stroke-linejoin="round"/>
<path d="M16.5 13H8.5" stroke="#52B36C" stroke-linecap="round" stroke-linejoin="round"/>
<path d="M16.5 17H8.5" stroke="#52B36C" stroke-linecap="round" stroke-linejoin="round"/>
<path d="M10.5 9H9.5H8.5" stroke="#52B36C" stroke-linecap="round" stroke-linejoin="round"/>
</svg>
