<svg width="25" height="25" viewBox="0 0 25 25" fill="none" xmlns="http://www.w3.org/2000/svg">
<circle cx="12.5" cy="12.5" r="11.9546" fill="url(#paint0_linear_1988_100333)" stroke="white" stroke-width="1.09089"/>
<path d="M6.95312 9.06256V8.34816C6.95312 7.83479 7.0623 7.36781 7.28066 6.94721C7.49902 6.52662 7.81746 6.18953 8.23598 5.93593C8.66057 5.68234 9.17614 5.55554 9.78269 5.55554C10.4014 5.55554 10.92 5.68234 11.3385 5.93593C11.7631 6.18953 12.0815 6.52662 12.2938 6.94721C12.5122 7.36781 12.6214 7.83479 12.6214 8.34816V9.06256C12.6214 9.56356 12.5122 10.0244 12.2938 10.445C12.0815 10.8655 11.7661 11.2026 11.3476 11.4562C10.9291 11.7098 10.4135 11.8366 9.80089 11.8366C9.18827 11.8366 8.66967 11.7098 8.24508 11.4562C7.8205 11.2026 7.49902 10.8655 7.28066 10.445C7.0623 10.0244 6.95312 9.56356 6.95312 9.06256ZM8.58172 8.34816V9.06256C8.58172 9.29759 8.62418 9.52026 8.70909 9.73056C8.80008 9.93467 8.93655 10.1017 9.11852 10.2316C9.30048 10.3615 9.52794 10.4264 9.80089 10.4264C10.0738 10.4264 10.2952 10.3615 10.4651 10.2316C10.641 10.1017 10.7714 9.93467 10.8563 9.73056C10.9473 9.52026 10.9928 9.29759 10.9928 9.06256V8.34816C10.9928 8.10694 10.9473 7.88118 10.8563 7.67088C10.7714 7.46059 10.6379 7.29049 10.456 7.1606C10.2801 7.03071 10.0556 6.96577 9.78269 6.96577C9.51581 6.96577 9.29139 7.03071 9.10942 7.1606C8.93352 7.29049 8.80008 7.46059 8.70909 7.67088C8.62418 7.88118 8.58172 8.10694 8.58172 8.34816ZM13.3128 16.6611V15.9467C13.3128 15.4395 13.422 14.9756 13.6404 14.555C13.8648 14.1344 14.1893 13.7973 14.6139 13.5437C15.0385 13.2901 15.551 13.1634 16.1515 13.1634C16.7762 13.1634 17.2979 13.2901 17.7164 13.5437C18.1349 13.7973 18.4503 14.1344 18.6626 14.555C18.881 14.9756 18.9902 15.4395 18.9902 15.9467V16.6611C18.9902 17.1683 18.881 17.6322 18.6626 18.0528C18.4503 18.4734 18.1349 18.8104 17.7164 19.064C17.3039 19.3176 16.7914 19.4444 16.1788 19.4444C15.5662 19.4444 15.0445 19.3176 14.6139 19.064C14.1893 18.8104 13.8648 18.4734 13.6404 18.0528C13.422 17.6322 13.3128 17.1683 13.3128 16.6611ZM14.9505 15.9467V16.6611C14.9505 16.9023 14.999 17.1281 15.0961 17.3384C15.1931 17.5425 15.3326 17.7095 15.5146 17.8394C15.7026 17.9693 15.921 18.0342 16.1697 18.0342C16.473 18.0342 16.7126 17.9693 16.8885 17.8394C17.0644 17.7095 17.1887 17.5425 17.2615 17.3384C17.3343 17.1281 17.3707 16.9023 17.3707 16.6611V15.9467C17.3707 15.7055 17.3252 15.4828 17.2342 15.2787C17.1432 15.0684 17.0067 14.8983 16.8248 14.7684C16.6489 14.6385 16.4244 14.5736 16.1515 14.5736C15.8846 14.5736 15.6602 14.6385 15.4782 14.7684C15.3023 14.8983 15.1689 15.0684 15.0779 15.2787C14.993 15.4828 14.9505 15.7055 14.9505 15.9467ZM16.752 7.68016L10.2831 18.2383L9.09122 17.561L15.5601 7.00288L16.752 7.68016Z" fill="white"/>
<defs>
<linearGradient id="paint0_linear_1988_100333" x1="4.54546" y1="3.97727" x2="17.0455" y2="23.8636" gradientUnits="userSpaceOnUse">
<stop offset="0.121131" stop-color="#950000"/>
<stop offset="1" stop-color="#FF030B"/>
</linearGradient>
</defs>
</svg>
