<svg width="60" height="60" viewBox="0 0 60 60" fill="none" xmlns="http://www.w3.org/2000/svg">
<path d="M48.9461 33.8347L48.4575 34.1364L48.8236 34.5788C49.1241 34.9422 49.3456 35.3719 49.4709 35.8378C49.5961 36.3037 49.6217 36.7932 49.5455 37.2711C49.4694 37.7489 49.2937 38.202 49.0321 38.5983C48.7705 38.9945 48.4299 39.3236 48.0357 39.5636L47.5423 39.864L47.9104 40.3092C48.2109 40.6727 48.4322 41.1024 48.5574 41.5683C48.6826 42.0342 48.7081 42.5237 48.632 43.0015C48.5558 43.4793 48.3801 43.9324 48.1186 44.3287C47.8571 44.7249 47.5166 45.0541 47.1225 45.2942L46.6306 45.5939L46.9965 46.0388C47.3908 46.5182 47.6468 47.1085 47.7311 47.7399C47.8155 48.3714 47.7242 49.0144 47.4694 49.5915C47.2146 50.1684 46.808 50.6531 46.3012 50.9902C45.7947 51.3271 45.2085 51.5032 44.6124 51.4999H44.6097H23.7439V51.4985L23.2658 51.4775C22.641 51.4501 22.0279 51.2856 21.466 50.9937C20.9041 50.7018 20.4053 50.2886 20.003 49.7797L19.8529 49.5898H19.6108H13.5653C13.1174 49.5898 12.6396 49.364 12.1521 48.8462C11.6636 48.3276 11.2007 47.5501 10.8015 46.5477C10.0042 44.5459 9.5 41.7463 9.5 38.6287C9.5 35.5111 10.0042 32.7114 10.8015 30.7096C11.2007 29.7073 11.6636 28.9298 12.1521 28.4111C12.6396 27.8934 13.1174 27.6676 13.5653 27.6676H21.2233H21.492L21.6402 27.4435L28.5914 16.9375L28.6744 16.8121V16.6616V11.9263C28.9048 10.5308 29.5009 9.96969 29.9616 9.72799C30.2069 9.59926 30.4408 9.54703 30.6125 9.52718C30.698 9.51731 30.7662 9.51567 30.8101 9.5162C30.832 9.51647 30.8476 9.51727 30.856 9.51781L30.8621 9.51824L30.8622 9.51827L30.914 9.52404L30.9697 9.51776C31.3903 9.47033 31.8159 9.51813 32.2181 9.65837C32.6178 9.79773 32.9861 10.0255 33.2975 10.3279C34.5725 11.6651 35.2285 13.4695 35.5614 14.9786C35.727 15.7289 35.8098 16.3933 35.8511 16.8691C35.8718 17.1067 35.882 17.2965 35.8871 17.4256C35.8896 17.4901 35.8909 17.5393 35.8915 17.5718L35.892 17.6075L35.8921 17.6155L35.8921 17.6167C35.8921 17.6168 35.8921 17.6169 35.8921 17.6169C35.8921 17.617 35.8921 17.617 35.8921 17.617C35.892 20.6982 35.2237 23.0191 34.5629 24.562C34.2322 25.3341 33.9029 25.9122 33.6594 26.2938C33.5376 26.4846 33.4373 26.6261 33.3691 26.7181C33.3349 26.7641 33.3088 26.7976 33.292 26.8188L33.274 26.8411L33.271 26.8448L33.2708 26.8451L33.2706 26.8453L33.2706 26.8454L33.2703 26.8456L32.5753 27.6676H33.6529L47.3489 27.6676L47.35 27.6676C48.0341 27.666 48.7023 27.8998 49.2516 28.3369C49.8012 28.7744 50.2017 29.3921 50.3866 30.0972C50.5715 30.8024 50.5293 31.5519 50.2672 32.2287C50.0051 32.9053 49.5393 33.4684 48.9461 33.8347ZM13.6051 43.4782L13.9665 43.8237L13.6051 43.4782C13.3454 43.7498 13.1709 44.0932 13.1005 44.4639C13.03 44.8344 13.066 45.2188 13.2047 45.5691C13.3435 45.9196 13.58 46.2228 13.8876 46.4378C14.1955 46.653 14.56 46.7694 14.9349 46.7694C15.4382 46.7694 15.9161 46.5601 16.2648 46.1953L15.9034 45.8498L16.2648 46.1953C16.6128 45.8313 16.8046 45.3423 16.8046 44.8368C16.8046 44.4594 16.6977 44.0888 16.4951 43.7717C16.2924 43.4543 16.0019 43.2035 15.6579 43.0544C15.3135 42.9052 14.9331 42.8657 14.5659 42.9422C14.1989 43.0185 13.865 43.2064 13.6051 43.4782Z" stroke="#10E048"/>
</svg>
