<svg width="40" height="40" viewBox="0 0 40 40" fill="none" xmlns="http://www.w3.org/2000/svg">
<rect width="40" height="40" rx="20" fill="white"/>
<circle cx="20" cy="20" r="17" stroke="#10E048" stroke-width="2"/>
<g filter="url(#filter0_d_2001_127017)">
<circle cx="20" cy="20" r="16" fill="white"/>
</g>
<path d="M28.8796 19.9139L28.4059 20.2139L28.7579 20.6503C28.8777 20.7988 28.9672 20.976 29.0181 21.1702C29.069 21.3644 29.0795 21.5689 29.0485 21.7685C29.0175 21.9681 28.9461 22.1559 28.8412 22.3189C28.7363 22.4817 28.6012 22.6148 28.4474 22.7109L27.969 23.0096L28.323 23.4488C28.4427 23.5973 28.5323 23.7746 28.5831 23.9688C28.634 24.163 28.6444 24.3675 28.6134 24.5671C28.5824 24.7667 28.511 24.9545 28.4062 25.1175C28.3013 25.2804 28.1663 25.4135 28.0125 25.5096L27.5355 25.8077L27.8874 26.2464C28.0449 26.4428 28.1491 26.6873 28.1836 26.9518C28.218 27.2162 28.1806 27.4849 28.0773 27.7246C27.9741 27.9642 27.8112 28.1616 27.6126 28.2971C27.4144 28.4323 27.1879 28.5013 26.9598 28.5H26.957H18.0426L17.8053 28.4893C17.5482 28.4777 17.2949 28.4083 17.0615 28.284C16.8636 28.1785 16.6562 27.9614 16.4507 27.6948L16.3006 27.5H16.0547H11.0547C10.9402 27.5 10.7869 27.4456 10.5989 27.2364C10.408 27.024 10.2162 26.6869 10.0467 26.2227C9.709 25.2973 9.5 23.9767 9.5 22.4698C9.5 20.9629 9.70904 19.6584 10.0458 18.7495C10.2148 18.2936 10.4059 17.9646 10.5954 17.758C10.7815 17.5552 10.9356 17.5 11.0547 17.5H16.0547H16.3415L16.4863 17.2525L19.5623 11.9942L19.6307 11.8772V11.7417V9.44953C19.732 8.84713 19.973 8.65224 20.108 8.57961C20.1894 8.53579 20.2671 8.51807 20.3232 8.51141C20.3509 8.50813 20.3716 8.50776 20.3824 8.50789C20.3844 8.50792 20.386 8.50796 20.3872 8.508L20.4354 8.5135L20.4925 8.5069C20.6516 8.4885 20.813 8.50694 20.9663 8.56176C21.1173 8.61576 21.2586 8.70444 21.3799 8.8242C21.9394 9.42816 22.2379 10.2559 22.392 10.9723C22.4681 11.3262 22.5062 11.6399 22.5252 11.8641C22.5347 11.976 22.5394 12.0648 22.5417 12.1244C22.5428 12.1541 22.5434 12.1765 22.5436 12.1908L22.5438 12.2059L22.5438 12.2082C22.5438 12.2082 22.5438 12.2083 22.5438 12.2084V12.2086V12.2087C22.5438 13.6772 22.2334 14.7778 21.9303 15.5035C21.7785 15.8669 21.6282 16.1372 21.5188 16.313C21.4641 16.4009 21.4197 16.4651 21.3905 16.5054C21.3759 16.5256 21.3651 16.5398 21.3587 16.548L21.3527 16.5557L21.3526 16.5557C21.3522 16.5563 21.3521 16.5565 21.3522 16.5562L20.6792 17.3726H21.7395L28.2614 17.3726L28.2626 17.3726C28.5243 17.3719 28.7834 17.4635 28.9995 17.6399C29.2163 17.8169 29.3784 18.0704 29.4538 18.3652C29.5292 18.6601 29.5118 18.9738 29.4053 19.2558C29.2989 19.5376 29.1117 19.7669 28.8796 19.9139Z" stroke="#131313"/>
<path d="M12.2769 25.9157C12.3591 25.9707 12.4558 26 12.5547 26C12.6873 26 12.8145 25.9473 12.9082 25.8536C13.002 25.7598 13.0547 25.6326 13.0547 25.5C13.0547 25.4011 13.0254 25.3044 12.9704 25.2222C12.9155 25.14 12.8374 25.0759 12.746 25.0381C12.6547 25.0002 12.5541 24.9903 12.4571 25.0096C12.3602 25.0289 12.2711 25.0765 12.2011 25.1464C12.1312 25.2164 12.0836 25.3055 12.0643 25.4025C12.045 25.4994 12.0549 25.6 12.0927 25.6913C12.1306 25.7827 12.1947 25.8608 12.2769 25.9157Z" stroke="#131313"/>
<defs>
<filter id="filter0_d_2001_127017" x="0" y="0" width="40" height="40" filterUnits="userSpaceOnUse" color-interpolation-filters="sRGB">
<feFlood flood-opacity="0" result="BackgroundImageFix"/>
<feColorMatrix in="SourceAlpha" type="matrix" values="0 0 0 0 0 0 0 0 0 0 0 0 0 0 0 0 0 0 127 0" result="hardAlpha"/>
<feOffset/>
<feGaussianBlur stdDeviation="2"/>
<feComposite in2="hardAlpha" operator="out"/>
<feColorMatrix type="matrix" values="0 0 0 0 0 0 0 0 0 0 0 0 0 0 0 0 0 0 0.5 0"/>
<feBlend mode="normal" in2="BackgroundImageFix" result="effect1_dropShadow_2001_127017"/>
<feBlend mode="normal" in="SourceGraphic" in2="effect1_dropShadow_2001_127017" result="shape"/>
</filter>
</defs>
</svg>
