<svg width="60" height="60" viewBox="0 0 60 60" fill="none" xmlns="http://www.w3.org/2000/svg">
<path d="M58.5484 25.4963L58.5786 25.5H58.609C58.6633 25.5 58.8034 25.5384 58.9338 25.6499C59.0537 25.7524 59.1152 25.8729 59.1152 26V34.0336C59.1152 34.3735 59.0554 34.5627 58.9879 34.6573C58.9446 34.7181 58.8626 34.7941 58.609 34.7941H58.5832L58.5575 34.7968L51.2628 35.5531L50.9263 35.588L50.8335 35.9133C50.3265 37.6919 49.8414 39.3788 48.8857 40.8155L48.6859 41.1159L48.9079 41.4002L53.4357 47.1985L53.4544 47.2224L53.4758 47.2439C53.7841 47.5529 53.7841 47.9933 53.4758 48.3023L48.0012 53.7891C47.7912 53.8885 47.5683 53.9675 47.3656 53.9878C47.153 54.0091 47.0047 53.9645 46.889 53.8485L46.8675 53.827L46.8436 53.8083L41.0582 49.2704L40.8089 49.0749L40.5256 49.2169C39.0337 49.9645 37.3028 50.707 35.5812 51.2L35.2562 51.2931L35.2215 51.6293L34.4668 58.9403L34.4642 58.9659V58.9916C34.4642 59.1511 34.2589 59.5 33.7065 59.5H25.9087C25.5699 59.5 25.3819 59.4401 25.2879 59.3729C25.2274 59.3295 25.151 59.2469 25.151 58.9916V58.9659L25.1484 58.9403L24.3937 51.6293L24.359 51.2931L24.034 51.2C22.2594 50.6918 20.5766 50.2057 19.1433 49.2481L18.8421 49.0468L18.557 49.2704L12.7715 53.8083L12.7476 53.827L12.7262 53.8485C12.4184 54.1569 11.981 54.1569 11.6733 53.8485L6.19858 48.3616C6.09929 48.151 6.02031 47.9272 5.99999 47.7235C5.97864 47.5095 6.02342 47.3601 6.13939 47.2439L6.16084 47.2224L6.17953 47.1985L10.7073 41.4002L10.9014 41.1515L10.7606 40.8692C10.0146 39.3739 9.27365 37.639 8.78169 35.9133L8.68894 35.588L8.35241 35.5531L1.05773 34.7968L1.03201 34.7941H1.00616C0.849711 34.7941 0.5 34.59 0.5 34.0336V26.2185C0.5 26.1375 0.54184 26.0052 0.699815 25.8469C0.847275 25.6991 1.07314 25.5544 1.36653 25.4494L8.60395 24.699L8.94048 24.6641L9.03323 24.3388C9.54028 22.5602 10.0254 20.8733 10.981 19.4366L11.1808 19.1362L10.9588 18.8519L6.43107 13.0536L6.41238 13.0297L6.39093 13.0082C6.08258 12.6992 6.08258 12.2588 6.39093 11.9498L11.8655 6.463C12.0755 6.36359 12.2985 6.28463 12.5011 6.26431C12.7137 6.24301 12.862 6.28758 12.9777 6.40358L13.0077 6.43359L13.0422 6.45813L19.0792 10.7438L19.3241 10.9177L19.5927 10.7831C21.0846 10.0355 22.8155 9.293 24.5371 8.80001L24.8621 8.70694L24.8968 8.37066L25.6514 1.05974L25.6541 1.03414V1.0084C25.6541 0.848923 25.8593 0.5 26.4118 0.5H34.2096C34.2894 0.5 34.4273 0.54087 34.6345 0.722564C34.819 0.884358 35.0194 1.12408 35.2343 1.43662L35.9761 8.62277L36.0108 8.95905L36.3358 9.05211C38.1105 9.56029 39.7932 10.0464 41.2265 11.004L41.5277 11.2053L41.8128 10.9817L47.5983 6.44384L47.6222 6.42509L47.6436 6.40358C47.9514 6.09517 48.3888 6.09517 48.6965 6.40358L54.1712 11.8905C54.2705 12.1011 54.3495 12.3249 54.3698 12.5286C54.3912 12.7426 54.3464 12.892 54.2304 13.0082L54.209 13.0297L54.1903 13.0536L49.6626 18.8519L49.4684 19.1006L49.6092 19.3829C50.3552 20.8782 51.0962 22.6131 51.5881 24.3388L51.6791 24.6578L52.0084 24.698L58.5484 25.4963ZM19.6233 30.2521C19.6233 36.0734 24.3738 40.8361 30.1849 40.8361C35.996 40.8361 40.7465 36.0734 40.7465 30.2521C40.7465 24.4308 35.996 19.6681 30.1849 19.6681C24.3738 19.6681 19.6233 24.4308 19.6233 30.2521Z" stroke="#10E048"/>
<path d="M45.5 25.5C44.5779 22.8717 42.9487 20.0205 40.8826 18.1684C38.8165 16.3162 36.319 15.0222 33.6229 14.4069C30.9269 13.7917 28.1203 13.8753 25.4649 14.6499C22.8096 15.4246 20.3921 16.8651 18.438 18.8369C16.0016 21.5 15 23.5 14.5 27" stroke="#10E048" stroke-linecap="round" stroke-linejoin="round"/>
<path d="M12.2578 24.584L14.1388 27.842L17.3969 25.961" stroke="#10E048" stroke-linecap="round" stroke-linejoin="round"/>
<path d="M14.2578 35.3417C15.1799 37.9699 16.8091 40.8212 18.8752 42.6733C20.9413 44.5254 23.4388 45.8195 26.1349 46.4348C28.8309 47.05 31.6376 46.9664 34.2929 46.1918C36.9482 45.4171 39.3657 43.9766 41.3198 42.0047C43.7562 39.3417 44.7578 37.3417 45.2578 33.8417" stroke="#10E048" stroke-linecap="round" stroke-linejoin="round"/>
<path d="M47.5 36.2577L45.619 32.9996L42.3609 34.8807" stroke="#10E048" stroke-linecap="round" stroke-linejoin="round"/>
</svg>
