<svg width="60" height="60" viewBox="0 0 60 60" fill="none" xmlns="http://www.w3.org/2000/svg">
<path d="M52.6744 55.272L53.046 55.6065L52.6743 55.272C50.8028 57.3516 48.3499 58.4169 44.7393 58.9563C41.1085 59.4987 36.3796 59.5 30 59.5C23.6204 59.5 18.8915 59.4987 15.2607 58.9563C11.6502 58.4169 9.19732 57.3516 7.32571 55.272L6.95721 55.6037L7.3257 55.272C5.44731 53.185 4.47927 50.4372 3.99064 46.399C3.50086 42.3513 3.5 37.0838 3.5 30C3.5 22.9162 3.50086 17.6486 3.99064 13.601C4.47927 9.56278 5.44731 6.81499 7.32571 4.72789L6.95406 4.39341L7.32571 4.72789C9.19732 2.64832 11.6502 1.58305 15.2607 1.04369C18.8915 0.501305 23.6204 0.5 30 0.5C36.3796 0.5 41.1085 0.501305 44.7393 1.04369C48.3499 1.58305 50.8028 2.64832 52.6743 4.72789C54.5527 6.81499 55.5207 9.56278 56.0094 13.601C56.4991 17.6486 56.5 22.9162 56.5 30C56.5 37.0838 56.4991 42.3513 56.0094 46.399C55.5207 50.4372 54.5527 53.185 52.6744 55.272ZM45.3297 20.7941L44.8467 20.6647L45.3297 20.7941C45.5002 20.1577 45.5001 19.3996 45.5 18.0958L45.5 18L45.5 17.9042C45.5001 16.6004 45.5002 15.8423 45.3297 15.2059L44.8467 15.3353L45.3297 15.2059C44.8673 13.4804 43.5197 12.1327 41.794 11.6704C41.1577 11.4998 40.3996 11.4999 39.0959 11.5L39 11.5H21L20.9042 11.5C19.6004 11.4999 18.8423 11.4998 18.2059 11.6704C16.4804 12.1327 15.1327 13.4804 14.6704 15.2059C14.4998 15.8423 14.4999 16.6004 14.5 17.9042L14.5 18L14.5 18.0958C14.4999 19.3996 14.4998 20.1577 14.6704 20.7941C15.1327 22.5196 16.4804 23.8673 18.2059 24.3296C18.8423 24.5002 19.6004 24.5001 20.9042 24.5L21 24.5H39L39.0958 24.5C40.3996 24.5001 41.1577 24.5002 41.794 24.3296C43.5197 23.8673 44.8673 22.5196 45.3297 20.7941ZM18 36.5C19.933 36.5 21.5 34.933 21.5 33C21.5 31.067 19.933 29.5 18 29.5C16.067 29.5 14.5 31.067 14.5 33C14.5 34.933 16.067 36.5 18 36.5ZM30 36.5C31.933 36.5 33.5 34.933 33.5 33C33.5 31.067 31.933 29.5 30 29.5C28.067 29.5 26.5 31.067 26.5 33C26.5 34.933 28.067 36.5 30 36.5ZM42 36.5C43.933 36.5 45.5 34.933 45.5 33C45.5 31.067 43.933 29.5 42 29.5C40.067 29.5 38.5 31.067 38.5 33C38.5 34.933 40.067 36.5 42 36.5ZM42 48.5C43.933 48.5 45.5 46.933 45.5 45C45.5 43.067 43.933 41.5 42 41.5C40.067 41.5 38.5 43.067 38.5 45C38.5 46.933 40.067 48.5 42 48.5ZM30 48.5C31.933 48.5 33.5 46.933 33.5 45C33.5 43.067 31.933 41.5 30 41.5C28.067 41.5 26.5 43.067 26.5 45C26.5 46.933 28.067 48.5 30 48.5ZM18 48.5C19.933 48.5 21.5 46.933 21.5 45C21.5 43.067 19.933 41.5 18 41.5C16.067 41.5 14.5 43.067 14.5 45C14.5 46.933 16.067 48.5 18 48.5Z" stroke="#10E048"/>
</svg>
