<svg width="50" height="50" viewBox="0 0 50 50" fill="none" xmlns="http://www.w3.org/2000/svg">
<rect width="50" height="50" rx="5" fill="white"/>
<rect width="50" height="50" rx="5" fill="#F7931E"/>
<path d="M25.7608 9C21.1208 9 17.3594 12.7614 17.3594 17.4013C17.3594 22.0412 21.1208 25.8029 25.7608 25.8029C30.4009 25.8029 34.1623 22.0412 34.1623 17.4013C34.1623 12.7614 30.4009 9 25.7608 9ZM25.7608 20.8744C23.8428 20.8744 22.2879 19.3194 22.2879 17.4014C22.2879 15.4834 23.8428 13.9285 25.7608 13.9285C27.6789 13.9285 29.2338 15.4834 29.2338 17.4014C29.2338 19.3194 27.6789 20.8744 25.7608 20.8744Z" fill="white"/>
<path d="M28.5642 32.2419C31.9324 31.5558 33.9507 29.9607 34.0575 29.8751C35.0431 29.0847 35.2014 27.645 34.411 26.6593C33.6207 25.6737 32.1811 25.5154 31.1953 26.3057C31.1745 26.3225 29.0217 27.9739 25.4797 27.9763C21.9378 27.9739 19.7396 26.3225 19.7188 26.3057C18.7329 25.5154 17.2933 25.6737 16.503 26.6593C15.7126 27.645 15.8709 29.0847 16.8565 29.8751C16.9648 29.9619 19.0664 31.5985 22.529 32.2685L17.7033 37.3118C16.8263 38.2213 16.8527 39.6695 17.7622 40.5464C18.2061 40.9745 18.7782 41.1872 19.3499 41.1872C19.9492 41.1872 20.548 40.953 20.9968 40.4874L25.4798 35.7118L30.4157 40.5184C31.31 41.4113 32.7582 41.4098 33.6508 40.5159C34.5435 39.6218 34.5424 38.1734 33.6483 37.2807L28.5642 32.2419Z" fill="white"/>
<path d="M25.4823 27.9766C25.476 27.9766 25.4885 27.9767 25.4823 27.9768C25.4761 27.9767 25.4887 27.9766 25.4823 27.9766Z" fill="white"/>
</svg>
