<svg width="60" height="60" viewBox="0 0 60 60" fill="none" xmlns="http://www.w3.org/2000/svg">
<path d="M4.65422 28.5352C4.65423 28.5352 4.65425 28.5352 4.65426 28.5352H31.6513C33.9408 28.5352 35.8055 30.4014 35.8055 32.6955V34.3933H0.5V32.6955C0.5 30.4014 2.36463 28.5354 4.65422 28.5352Z" stroke="#10E048"/>
<path d="M11.0974 45.9358H11.5974V45.4358V41.5177V41.0177H11.0974H5.49879H4.99879V41.5177V45.4358V45.9358H5.49879H11.0974ZM0.5 47.3397V39.3106H35.8057V47.3397C35.8057 49.6339 33.9411 51.5 31.6515 51.5H4.65422C2.36469 51.5 0.5 49.6338 0.5 47.3397Z" stroke="#10E048"/>
<path d="M59.5002 22.9175V33.8437H48.5889H40.7187V32.6949C40.7187 31.1243 40.3165 29.6462 39.6123 28.3567C43.4121 27.1339 46.2036 24.2085 46.2036 20.672C46.2036 18.3277 44.967 16.239 43.0342 14.7522C41.1018 13.2658 38.4537 12.3606 35.5489 12.3606C32.6441 12.3606 29.996 13.2658 28.0637 14.7522C26.1308 16.2391 24.8943 18.3278 24.8943 20.672C24.8943 21.7123 25.1395 22.7047 25.5816 23.6166H11.5977V18.4266V7.50037H22.509H48.5889L59.5002 7.50013L59.5 18.4984L59.5 18.5H59.5002V22.9175Z" stroke="#10E048"/>
</svg>
