<svg width="60" height="60" viewBox="0 0 60 60" fill="none" xmlns="http://www.w3.org/2000/svg">
<path d="M53.231 34.1212L52.74 34.4232L53.1083 34.8666C53.4831 35.3178 53.7589 35.8509 53.9148 36.4283C54.0706 37.0058 54.1024 37.6123 54.0077 38.2044C53.913 38.7965 53.6943 39.3584 53.3683 39.8501C53.0423 40.3418 52.6174 40.7509 52.125 41.0495L51.6291 41.3502L51.9995 41.7964C52.3742 42.2477 52.6498 42.7808 52.8056 43.3583C52.9613 43.9357 52.9931 44.5422 52.8984 45.1343C52.8036 45.7263 52.585 46.2882 52.2591 46.7799C51.9332 47.2717 51.5084 47.6808 51.0161 47.9796L50.5218 48.2795L50.89 48.7254C51.3814 49.3205 51.6999 50.0525 51.8048 50.8347C51.9098 51.6169 51.7963 52.4136 51.4791 53.1289C51.1619 53.8442 50.6553 54.4462 50.0224 54.8655C49.3898 55.2845 48.6569 55.504 47.911 55.4999H47.9083H22.4641V55.4936L21.9859 55.4727C21.2112 55.4388 20.4512 55.2357 19.7551 54.8755C19.059 54.5154 18.4416 54.006 17.9441 53.3791L17.794 53.1899H17.5525H10.2116C9.62781 53.1899 9.02114 52.8962 8.41679 52.2572C7.81144 51.617 7.24329 50.6639 6.75567 49.4446C5.78154 47.0089 5.16797 43.6098 5.16797 39.83C5.16797 36.0503 5.78154 32.6512 6.75567 30.2155C7.24329 28.9962 7.81144 28.0431 8.41679 27.4029C9.02114 26.7638 9.62781 26.4701 10.2116 26.4701H19.5105H19.7786L19.927 26.2468L28.3677 13.5419L28.4512 13.4162V13.2652V7.53046C28.7344 5.80959 29.4767 5.09851 30.0708 4.78808C30.383 4.62494 30.6805 4.55876 30.8992 4.53359C31.0081 4.52105 31.0957 4.51891 31.153 4.5196C31.1817 4.51995 31.2025 4.521 31.2145 4.52177L31.2253 4.52257L31.2255 4.52259L31.2257 4.52261L31.226 4.52263L31.2777 4.52839L31.3332 4.52216C31.8603 4.46297 32.3936 4.52265 32.8973 4.69756C33.3984 4.87158 33.8595 5.15596 34.2489 5.53286C35.8171 7.16995 36.6196 9.37405 37.0258 11.2078C37.228 12.1205 37.3292 12.9284 37.3797 13.5072C37.4049 13.7963 37.4174 14.0275 37.4237 14.185C37.4268 14.2638 37.4283 14.3241 37.429 14.3639L37.4297 14.4081L37.4298 14.4183L37.4298 14.4202C37.4298 14.4202 37.4298 14.4203 37.4298 14.4203C37.4298 18.1617 36.6148 20.9822 35.8074 22.8597C35.4034 23.799 35.0009 24.5032 34.7023 24.9689C34.5531 25.2018 34.4299 25.375 34.3456 25.4881C34.3035 25.5446 34.271 25.5862 34.25 25.6126C34.2394 25.6258 34.2317 25.6352 34.2271 25.6409L34.2224 25.6465L34.2224 25.6466L34.2222 25.6468L34.222 25.6471L34.2218 25.6473L33.5232 26.4701H34.6036L51.2345 26.4701L51.2356 26.4701C52.0916 26.4682 52.9268 26.7595 53.6124 27.3029C54.2983 27.8466 54.7968 28.6132 55.0269 29.4868C55.2569 30.3605 55.2045 31.2889 54.8783 32.1277C54.5522 32.9662 53.9719 33.6656 53.231 34.1212ZM12.7092 45.2778L12.5182 45.7204L12.7092 45.2778C12.3115 45.1062 11.8725 45.0609 11.4488 45.1487C11.0252 45.2365 10.6391 45.4525 10.338 45.7662L10.6987 46.1124L10.338 45.7662C10.0371 46.0796 9.83438 46.4765 9.75243 46.9057C9.67049 47.3348 9.71238 47.7798 9.87358 48.1852C10.0348 48.5908 10.3092 48.9407 10.6651 49.1884C11.0212 49.4363 11.4422 49.57 11.8747 49.57C12.4551 49.57 13.0074 49.3296 13.4114 48.9088C13.8146 48.4887 14.0378 47.9231 14.0378 47.3375C14.0378 46.9004 13.9135 46.4715 13.6784 46.105C13.4432 45.7383 13.1067 45.4493 12.7092 45.2778Z" stroke="#10E048"/>
</svg>
