<svg width="60" height="60" viewBox="0 0 60 60" fill="none" xmlns="http://www.w3.org/2000/svg">
<path d="M49.4739 14.7503V14.7273C49.4739 13.9649 49.3285 13.5837 49.0458 13.2637C48.7199 12.8949 48.1871 12.5713 47.2534 12.0158L47.2514 12.0147C46.7034 11.6886 46.0416 11.2948 45.2584 10.7819C42.0023 8.64924 36.534 6.5 29.987 6.5C26.2532 6.5 22.5191 7.51154 19.6594 8.56286C18.2326 9.08738 17.0308 9.61909 16.1646 10.0336C15.7316 10.2408 15.3833 10.4183 15.1335 10.5505C15.0086 10.6166 14.9089 10.6711 14.8362 10.7119C14.7997 10.7323 14.7708 10.7489 14.7492 10.7616L14.7239 10.7767C14.7206 10.7787 14.7184 10.7801 14.717 10.7809C14.7159 10.7817 14.7154 10.782 14.7154 10.782M49.4739 14.7503L14.7154 10.782M49.4739 14.7503L49.476 14.7728M49.4739 14.7503L49.476 14.7728M14.7154 10.782C13.9322 11.2949 13.2704 11.6887 12.7223 12.0148L12.7205 12.0158C11.7869 12.5713 11.254 12.8949 10.9282 13.2637C10.6454 13.5837 10.5 13.9649 10.5 14.7273V36.5455C10.5 39.2417 12.046 42.0218 15.3256 44.8859C18.5687 47.718 23.4464 50.5769 29.9872 53.4541M14.7154 10.782L29.9872 53.4541M49.476 14.7728C49.476 14.7728 49.4762 14.776 49.4766 14.7835L49.4782 14.8182C49.4793 14.8478 49.4804 14.8871 49.4815 14.9365C49.4837 15.0352 49.4857 15.1688 49.4874 15.3348C49.491 15.6666 49.4937 16.123 49.4956 16.6788C49.4996 17.7903 49.5005 19.2955 49.4997 20.9882C49.4981 24.3734 49.4893 28.5058 49.4824 31.7323V31.7328L49.4824 31.7491C49.4777 33.9418 49.4739 35.7146 49.4739 36.5455C49.4739 39.2489 47.9275 42.0324 44.6483 44.8961C41.4054 47.7281 36.5279 50.5836 29.9872 53.4541M49.476 14.7728L29.9872 53.4541M34.5251 23.7334L27.4669 30.8171L24.5605 27.9002C23.5423 26.8784 21.872 26.8784 20.8538 27.9002C19.8611 28.8965 19.8611 30.4933 20.8538 31.4896L26.7311 37.3881C27.136 37.7944 27.7979 37.7944 28.2027 37.3881L38.2318 27.3229C39.2245 26.3265 39.2245 24.7298 38.2318 23.7334C37.2136 22.7116 35.5433 22.7116 34.5251 23.7334Z" stroke="#10E048"/>
</svg>
