<svg width="60" height="60" viewBox="0 0 60 60" fill="none" xmlns="http://www.w3.org/2000/svg">
<g clip-path="url(#clip0_2226_126792)">
<g filter="url(#filter0_d_2226_126792)">
<path d="M49.5 14.5625V36.9228C49.5 37.5586 49.3596 38.1865 49.0889 38.7618C46.836 43.5492 43.0932 47.4781 38.4206 49.9604L30 54.4338L21.5794 49.9604C16.9068 47.4781 13.164 43.5492 10.9111 38.7618C10.6404 38.1865 10.5 37.5586 10.5 36.9228V14.5625C10.5 13.7363 10.889 12.9582 11.55 12.4625C22.4833 4.2625 37.5167 4.2625 48.45 12.4625C49.111 12.9582 49.5 13.7363 49.5 14.5625Z" stroke="#10E048" shape-rendering="crispEdges"/>
</g>
<g filter="url(#filter1_d_2226_126792)">
<path fill-rule="evenodd" clip-rule="evenodd" d="M38.3713 23.8787C39.5429 25.0503 39.5429 26.9497 38.3713 28.1213L30.1213 36.3713C28.9497 37.5429 27.0503 37.5429 25.8787 36.3713L20.8787 31.3713C19.7071 30.1997 19.7071 28.3003 20.8787 27.1287C22.0503 25.9571 23.9497 25.9571 25.1213 27.1287L28 30.0074L34.1287 23.8787C35.3003 22.7071 37.1997 22.7071 38.3713 23.8787Z" stroke="#10E048" stroke-linecap="round" stroke-linejoin="round" shape-rendering="crispEdges"/>
</g>
</g>
<defs>
<filter id="filter0_d_2226_126792" x="0" y="-2.1875" width="60" height="69.1875" filterUnits="userSpaceOnUse" color-interpolation-filters="sRGB">
<feFlood flood-opacity="0" result="BackgroundImageFix"/>
<feColorMatrix in="SourceAlpha" type="matrix" values="0 0 0 0 0 0 0 0 0 0 0 0 0 0 0 0 0 0 127 0" result="hardAlpha"/>
<feOffset dy="2"/>
<feGaussianBlur stdDeviation="5"/>
<feComposite in2="hardAlpha" operator="out"/>
<feColorMatrix type="matrix" values="0 0 0 0 0 0 0 0 0 1 0 0 0 0 0.268041 0 0 0 0.6 0"/>
<feBlend mode="normal" in2="BackgroundImageFix" result="effect1_dropShadow_2226_126792"/>
<feBlend mode="normal" in="SourceGraphic" in2="effect1_dropShadow_2226_126792" result="shape"/>
</filter>
<filter id="filter1_d_2226_126792" x="9.5" y="14.5" width="40.25" height="35.25" filterUnits="userSpaceOnUse" color-interpolation-filters="sRGB">
<feFlood flood-opacity="0" result="BackgroundImageFix"/>
<feColorMatrix in="SourceAlpha" type="matrix" values="0 0 0 0 0 0 0 0 0 0 0 0 0 0 0 0 0 0 127 0" result="hardAlpha"/>
<feOffset dy="2"/>
<feGaussianBlur stdDeviation="5"/>
<feComposite in2="hardAlpha" operator="out"/>
<feColorMatrix type="matrix" values="0 0 0 0 0 0 0 0 0 1 0 0 0 0 0.268041 0 0 0 0.6 0"/>
<feBlend mode="normal" in2="BackgroundImageFix" result="effect1_dropShadow_2226_126792"/>
<feBlend mode="normal" in="SourceGraphic" in2="effect1_dropShadow_2226_126792" result="shape"/>
</filter>
<clipPath id="clip0_2226_126792">
<rect width="60" height="60" fill="white"/>
</clipPath>
</defs>
</svg>
