<svg width="60" height="60" viewBox="0 0 60 60" fill="none" xmlns="http://www.w3.org/2000/svg">
<path d="M2.5 3C2.5 2.72386 2.72386 2.5 3 2.5H13.5V40.5H3C2.72386 40.5 2.5 40.2761 2.5 40V3Z" stroke="#10E048"/>
<rect x="35.5" y="2.5" width="11" height="38" stroke="#10E048"/>
<path d="M46.5 2.5H57C57.2761 2.5 57.5 2.72386 57.5 3V52C57.5 52.2761 57.2761 52.5 57 52.5H47C46.7239 52.5 46.5 52.2761 46.5 52V2.5Z" stroke="#10E048"/>
<path d="M13.5 2.5H24.5V51.5H14C13.7239 51.5 13.5 51.2761 13.5 51V2.5Z" stroke="#10E048"/>
<path d="M24.5 2.5H35.5V58C35.5 58.2761 35.2761 58.5 35 58.5H25C24.7239 58.5 24.5 58.2761 24.5 58V2.5Z" stroke="#10E048"/>
</svg>
