<svg width="50" height="50" viewBox="0 0 50 50" fill="none" xmlns="http://www.w3.org/2000/svg">
<rect width="50" height="50" rx="5" fill="white"/>
<rect width="50" height="50" rx="5" fill="url(#paint0_linear_1824_144835)"/>
<path d="M10.832 38.3339L12.9331 30.8798C11.582 28.587 10.8706 25.9783 10.8706 23.2985C10.8706 15.047 17.5909 8.33398 25.8513 8.33398C34.1117 8.33398 40.832 15.047 40.832 23.2985C40.832 31.5499 34.1117 38.2629 25.8513 38.2629C23.2774 38.2629 20.7571 37.6048 18.5275 36.3551L10.832 38.3339ZM18.9209 33.6327L19.3795 33.9124C21.3234 35.0978 23.5614 35.7245 25.8513 35.7245C32.7105 35.7245 38.2907 30.1502 38.2907 23.2985C38.2907 16.4467 32.7105 10.8725 25.8513 10.8725C18.9922 10.8725 13.4118 16.4467 13.4118 23.2985C13.4118 25.6858 14.0911 28.0042 15.376 30.0029L15.6848 30.4833L14.4749 34.7759L18.9209 33.6327Z" fill="white"/>
<path d="M22.1506 16.3841L21.1922 16.3356C20.8912 16.3203 20.5959 16.4138 20.3683 16.5973C19.9037 16.9719 19.1607 17.6963 18.9325 18.6401C18.5922 20.0475 19.1181 21.7709 20.4792 23.4942C21.8403 25.2176 24.3768 27.9749 28.8621 29.1526C30.3074 29.532 31.4444 29.2762 32.3216 28.7552C33.0164 28.3425 33.4953 27.6801 33.668 26.9313L33.821 26.2677C33.8696 26.0567 33.7543 25.8427 33.5432 25.7524L30.3041 24.366C30.0938 24.2761 29.8444 24.333 29.703 24.5031L28.4314 26.0338C28.3353 26.1495 28.1709 26.1953 28.0224 26.1469C27.1516 25.8627 24.2345 24.7283 22.6339 21.8655C22.5645 21.7413 22.5818 21.5906 22.6802 21.4847L23.8955 20.1793C24.0197 20.046 24.0511 19.8585 23.9765 19.6966L22.5802 16.6634C22.5059 16.5019 22.3393 16.3937 22.1506 16.3841Z" fill="white"/>
<defs>
<linearGradient id="paint0_linear_1824_144835" x1="25" y1="0" x2="25" y2="50" gradientUnits="userSpaceOnUse">
<stop stop-color="#57D163"/>
<stop offset="1" stop-color="#23B33A"/>
</linearGradient>
</defs>
</svg>
