<svg width="61" height="60" viewBox="0 0 61 60" fill="none" xmlns="http://www.w3.org/2000/svg">
<path d="M33.2795 52.8546L26.4815 49.3499C19.6995 45.0354 13.9496 39.279 9.64001 32.4894C4.89626 25.1584 1.94413 16.8119 1.02278 8.12591C0.95264 7.34882 1.04489 6.56563 1.29365 5.8262C1.54242 5.08677 1.94225 4.40729 2.46769 3.83103C2.99313 3.25477 3.63267 2.79436 4.34558 2.4791C5.0585 2.16384 5.82918 2.00065 6.60854 1.99992H15.0293C16.3915 1.9865 17.7121 2.46942 18.745 3.35869C19.7778 4.24795 20.4525 5.48287 20.6431 6.83327C20.9985 9.53114 21.6577 12.1801 22.608 14.7296C22.9856 15.7354 22.8318 16.6776 22.608 17.7285C22.3841 18.7794 21.3978 19.5012 20.6431 20.2652L16.438 23.0753C20.4338 30.1105 30.4626 39.019 37.4899 43.0193L38.4515 41.0939C39.6721 38.6499 41.5521 35.2927 44.1089 36.2549V36.2549C46.6556 37.2062 49.3015 37.8661 51.9963 38.2219C53.3599 38.4145 54.6051 39.1021 55.4953 40.1538C56.3854 41.2056 56.8584 42.5483 56.8242 43.9264V52.3567C56.8274 53.1393 56.6673 53.9139 56.3541 54.631C56.0409 55.3481 55.5816 55.9918 55.0056 56.5208C54.4295 57.0499 53.7495 57.4527 53.0089 57.7034C52.2684 57.9542 51.4837 58.0473 50.7052 57.9768L43.1037 56.5208" stroke="#10E048" stroke-linecap="round" stroke-linejoin="round"/>
<path fill-rule="evenodd" clip-rule="evenodd" d="M34.1907 2.21821C34.2212 1.94376 34.4684 1.74602 34.7429 1.77655C40.5517 2.42259 45.9685 5.02683 50.1037 9.16152C54.2389 13.2962 56.8469 18.7156 57.4994 24.5298C57.5302 24.8042 57.3328 25.0516 57.0583 25.0824C56.7839 25.1132 56.5365 24.9158 56.5057 24.6413C55.8784 19.0523 53.3714 13.843 49.3966 9.86867C45.4219 5.89439 40.2154 3.39136 34.6323 2.77042C34.3579 2.73989 34.1601 2.49266 34.1907 2.21821ZM34.1969 13.418C34.2498 13.147 34.5124 12.9702 34.7834 13.0231C37.6228 13.5777 40.2323 14.9679 42.2778 17.0157C44.3232 19.0635 45.7118 21.6758 46.2657 24.518C46.3185 24.7891 46.1416 25.0516 45.8705 25.1044C45.5995 25.1573 45.337 24.9804 45.2841 24.7093C44.7683 22.0622 43.4751 19.6294 41.5702 17.7224C39.6654 15.8155 37.2356 14.521 34.5917 14.0046C34.3207 13.9516 34.1439 13.689 34.1969 13.418Z" fill="#10E048"/>
</svg>
