<svg width="41" height="41" viewBox="0 0 41 41" fill="none" xmlns="http://www.w3.org/2000/svg">
<rect x="1.5" y="1.5" width="38" height="38" rx="19" fill="white"/>
<rect x="1.5" y="1.5" width="38" height="38" rx="19" fill="url(#paint0_linear_2302_32629)"/>
<path d="M27.785 13.1052L11.8405 19.6219C10.7523 20.0851 10.7586 20.7285 11.6408 21.0154L15.7344 22.3689L25.2058 16.0352C25.6537 15.7464 26.0629 15.9017 25.7265 16.2182L18.0528 23.5584H18.051L18.0528 23.5594L17.7705 28.0315C18.1841 28.0315 18.3667 27.8304 18.5987 27.5931L20.5871 25.5438L24.7229 28.7817C25.4855 29.2268 26.0332 28.998 26.2229 28.0334L28.9379 14.472C29.2158 13.2911 28.5126 12.7564 27.785 13.1052Z" fill="white"/>
<rect x="1.5" y="1.5" width="38" height="38" rx="19" stroke="white" stroke-width="3"/>
<defs>
<linearGradient id="paint0_linear_2302_32629" x1="20.5" y1="3" x2="20.5" y2="38" gradientUnits="userSpaceOnUse">
<stop stop-color="#37AFE3"/>
<stop offset="1" stop-color="#1E94D3"/>
</linearGradient>
</defs>
</svg>
