<svg width="30" height="30" viewBox="0 0 30 30" fill="none" xmlns="http://www.w3.org/2000/svg">
<rect x="1.25" y="1.25" width="27.5" height="27.5" rx="13.75" stroke="url(#paint0_linear_2296_130836)" stroke-width="2.5"/>
<path d="M20.8525 8.09863L5.7938 14.208C4.7661 14.6423 4.77204 15.2455 5.60524 15.5144L9.47142 16.7833L18.4166 10.8455C18.8396 10.5747 19.226 10.7204 18.9084 11.0171L11.661 17.8985L11.3943 22.0921C11.785 22.0921 11.9574 21.9035 12.1766 21.681L14.0544 19.7598L17.9605 22.7953C18.6808 23.2126 19.198 22.9982 19.3772 22.0939L21.9414 9.38002C22.2038 8.27288 21.5396 7.77158 20.8525 8.09863Z" fill="url(#paint1_linear_2296_130836)"/>
<defs>
<linearGradient id="paint0_linear_2296_130836" x1="15" y1="0" x2="15" y2="30" gradientUnits="userSpaceOnUse">
<stop stop-color="#37AFE3"/>
<stop offset="1" stop-color="#1E94D3"/>
</linearGradient>
<linearGradient id="paint1_linear_2296_130836" x1="13.5" y1="8" x2="13.5" y2="23" gradientUnits="userSpaceOnUse">
<stop stop-color="#37AFE3"/>
<stop offset="1" stop-color="#1E94D3"/>
</linearGradient>
</defs>
</svg>
