<svg width="60" height="60" viewBox="0 0 60 60" fill="none" xmlns="http://www.w3.org/2000/svg">
<path d="M1.33281 35.7461L58.5953 35.568V38.8305C58.5953 39.6923 58.4256 40.5456 58.0958 41.3418C57.766 42.138 57.2826 42.8615 56.6732 43.4709C56.0638 44.0802 55.3404 44.5636 54.5442 44.8934C53.748 45.2232 52.8946 45.393 52.0328 45.393H7.86719C6.1267 45.393 4.45751 44.7016 3.2268 43.4709C1.99609 42.2401 1.30469 40.5709 1.30469 38.8305V13.9023C1.30469 12.1619 1.99609 10.4927 3.2268 9.26196C4.45751 8.03125 6.1267 7.33984 7.86719 7.33984H52.0516C53.792 7.33984 55.4612 8.03125 56.6919 9.26196C57.9227 10.4927 58.6141 12.1619 58.6141 13.9023V30.6836" stroke="#10E048" stroke-linecap="round" stroke-linejoin="round"/>
<path d="M26.4844 45.375C26.4844 45.375 26.25 51.1781 20.625 52.7156" stroke="#10E048" stroke-linecap="round" stroke-linejoin="round"/>
<path d="M33.6875 45.375C33.6875 45.375 33.9312 51.1781 39.5937 52.7156" stroke="#10E048" stroke-linecap="round" stroke-linejoin="round"/>
<path d="M16.9141 52.7148H43.0141" stroke="#10E048" stroke-linecap="round" stroke-linejoin="round"/>
<path d="M29.082 40.3125H30.8445" stroke="#10E048" stroke-linecap="round" stroke-linejoin="round"/>
</svg>
