<svg width="71" height="63" viewBox="0 0 71 63" fill="none" xmlns="http://www.w3.org/2000/svg">
<g filter="url(#filter0_d_2235_126861)">
<path d="M62.5703 45.5V9.95833C62.5703 9.43895 62.3634 8.94084 61.995 8.57358C61.6266 8.20632 61.127 8 60.606 8H9.5346C9.01364 8 8.51401 8.20632 8.14564 8.57358C7.77726 8.94084 7.57031 9.43895 7.57031 9.95833V53.0417C7.57031 53.5611 7.77726 54.0592 8.14564 54.4264C8.51401 54.7937 9.01364 55 9.5346 55H42.0703" stroke="#10E048"/>
</g>
<g filter="url(#filter1_d_2235_126861)">
<path d="M26.2601 35.1976L26.2309 35.1669C26.0141 34.9384 25.7259 34.8154 25.4314 34.8154C25.137 34.8154 24.8489 34.9384 24.6321 35.1667L26.2601 35.1976ZM26.2601 35.1976L26.294 35.2231L29.8028 37.8484C30.0055 38.0539 30.2465 38.2166 30.5124 38.3257C30.7925 38.4405 31.0931 38.4928 31.3949 38.4786C31.6966 38.4644 31.9912 38.384 32.2597 38.2437C32.5238 38.1057 32.7562 37.913 32.9436 37.6793L40.9797 28.5969L40.9891 28.5862L40.9979 28.5751C41.1072 28.4365 41.2425 28.327 41.3928 28.2526C41.5431 28.1783 41.7057 28.1404 41.8693 28.1404C42.033 28.1404 42.1955 28.1783 42.3458 28.2526C42.4962 28.327 42.6315 28.4365 42.7408 28.5751L42.7411 28.5756L53.8975 42.6899C54.1566 43.0178 53.9231 43.5 53.5052 43.5H17.896C17.457 43.5 17.2311 42.9747 17.5332 42.656L24.632 35.1669L26.2601 35.1976ZM31.1712 25.0061L31.6366 25.1888L31.1712 25.0061C30.9466 25.5784 30.6178 26.0968 30.205 26.5323C29.7922 26.9678 29.3035 27.3118 28.7675 27.546C28.2317 27.7802 27.6583 27.9005 27.08 27.9007C26.5016 27.9009 25.9281 27.781 25.3922 27.5472C24.8561 27.3134 24.3672 26.9697 23.9541 26.5345C23.541 26.0993 23.2119 25.5812 22.9869 25.009C22.7619 24.4369 22.6457 23.8227 22.6455 23.2019C22.6451 21.947 23.1178 20.7484 23.952 19.8684C24.7854 18.9892 25.9101 18.5004 27.077 18.5C28.244 18.4996 29.369 18.9876 30.2029 19.8661C31.0376 20.7456 31.5111 21.9439 31.5115 23.1988C31.5117 23.8196 31.3959 24.4338 31.1712 25.0061Z" stroke="#10E048" shape-rendering="crispEdges"/>
</g>
<path d="M54.6406 57.8V48H57.9446C58.794 48 59.5173 48.14 60.1146 48.42C60.712 48.6953 61.195 49.0687 61.5636 49.54C61.937 50.0067 62.2076 50.5317 62.3756 51.115C62.5483 51.6937 62.6346 52.2887 62.6346 52.9C62.6346 53.46 62.553 54.027 62.3896 54.601C62.231 55.175 61.9696 55.7047 61.6056 56.19C61.2416 56.6707 60.754 57.0603 60.1426 57.359C59.536 57.653 58.7846 57.8 57.8886 57.8H54.6406ZM56.4536 56.078H58.0776C58.577 56.078 58.997 55.9847 59.3376 55.798C59.6783 55.6067 59.9513 55.357 60.1566 55.049C60.3666 54.7363 60.5183 54.3933 60.6116 54.02C60.7096 53.642 60.7586 53.2687 60.7586 52.9C60.7586 52.508 60.7096 52.123 60.6116 51.745C60.5136 51.367 60.362 51.024 60.1566 50.716C59.9513 50.408 59.69 50.163 59.3726 49.981C59.0553 49.799 58.675 49.708 58.2316 49.708H56.4536V56.078Z" fill="#10E048"/>
<path d="M45 57.8V48H46.813V51.885H50.957V48H52.77V57.8H50.957V53.614H46.813V57.8H45Z" fill="#10E048"/>
<defs>
<filter id="filter0_d_2235_126861" x="0.0703125" y="0.5" width="70" height="62" filterUnits="userSpaceOnUse" color-interpolation-filters="sRGB">
<feFlood flood-opacity="0" result="BackgroundImageFix"/>
<feColorMatrix in="SourceAlpha" type="matrix" values="0 0 0 0 0 0 0 0 0 0 0 0 0 0 0 0 0 0 127 0" result="hardAlpha"/>
<feOffset/>
<feGaussianBlur stdDeviation="3.5"/>
<feComposite in2="hardAlpha" operator="out"/>
<feColorMatrix type="matrix" values="0 0 0 0 0 0 0 0 0 1 0 0 0 0 0.268041 0 0 0 1 0"/>
<feBlend mode="normal" in2="BackgroundImageFix" result="effect1_dropShadow_2235_126861"/>
<feBlend mode="normal" in="SourceGraphic" in2="effect1_dropShadow_2235_126861" result="shape"/>
</filter>
<filter id="filter1_d_2235_126861" x="9.89453" y="11" width="51.6133" height="40" filterUnits="userSpaceOnUse" color-interpolation-filters="sRGB">
<feFlood flood-opacity="0" result="BackgroundImageFix"/>
<feColorMatrix in="SourceAlpha" type="matrix" values="0 0 0 0 0 0 0 0 0 0 0 0 0 0 0 0 0 0 127 0" result="hardAlpha"/>
<feOffset/>
<feGaussianBlur stdDeviation="3.5"/>
<feComposite in2="hardAlpha" operator="out"/>
<feColorMatrix type="matrix" values="0 0 0 0 0 0 0 0 0 1 0 0 0 0 0.268041 0 0 0 1 0"/>
<feBlend mode="normal" in2="BackgroundImageFix" result="effect1_dropShadow_2235_126861"/>
<feBlend mode="normal" in="SourceGraphic" in2="effect1_dropShadow_2235_126861" result="shape"/>
</filter>
</defs>
</svg>
