<svg width="60" height="60" viewBox="0 0 60 60" fill="none" xmlns="http://www.w3.org/2000/svg">
<path d="M42.3917 34.4358L40.2193 38.7795H19.5793L17.4069 34.4336H6.54376C6.11542 34.4337 5.69131 34.5183 5.29567 34.6824C4.90003 34.8466 4.54062 35.0871 4.23799 35.3902C3.93535 35.6934 3.69543 36.0532 3.53194 36.4491C3.36845 36.845 3.28459 37.2693 3.28516 37.6976V50.7309C3.28545 51.5951 3.62885 52.4238 4.2399 53.0348C4.85094 53.6459 5.67962 53.9893 6.54376 53.9895H53.2548C54.1189 53.9893 54.9476 53.6459 55.5586 53.0348C56.1697 52.4238 56.5131 51.5951 56.5134 50.7309V37.6976C56.5134 36.8333 56.1701 36.0043 55.559 35.393C54.9479 34.7818 54.1191 34.4382 53.2548 34.4379L42.3917 34.4358Z" stroke="#10E048" stroke-linecap="round" stroke-linejoin="round"/>
<path d="M41.3051 44.2148H18.4927C17.2929 44.2148 16.3203 45.1875 16.3203 46.3872C16.3203 47.587 17.2929 48.5597 18.4927 48.5597H41.3051C42.5049 48.5597 43.4775 47.587 43.4775 46.3872C43.4775 45.1875 42.5049 44.2148 41.3051 44.2148Z" stroke="#10E048" stroke-linecap="round" stroke-linejoin="round"/>
<path d="M43.4766 8.36719H48.3883C49.1458 8.36738 49.8797 8.63143 50.4637 9.11396C51.0477 9.59649 51.4454 10.2674 51.5885 11.0113L56.5121 36.6106" stroke="#10E048" stroke-linecap="round" stroke-linejoin="round"/>
<path d="M3.28516 36.6098L8.20768 11.0105C8.33469 10.3503 8.6628 9.74554 9.14702 9.27914C9.63124 8.81274 10.2479 8.50753 10.9124 8.40535L16.3217 8.39453" stroke="#10E048" stroke-linecap="round" stroke-linejoin="round"/>
<path d="M9.80078 34.4392V29.8953C9.80078 29.4673 9.8851 29.0435 10.0489 28.6481C10.2128 28.2526 10.4529 27.8934 10.7556 27.5908C11.0583 27.2882 11.4176 27.0482 11.8131 26.8845C12.2086 26.7208 12.6325 26.6366 13.0605 26.6367H46.7349C47.1629 26.6366 47.5867 26.7208 47.9822 26.8845C48.3777 27.0482 48.7371 27.2882 49.0398 27.5908C49.3425 27.8934 49.5826 28.2526 49.7464 28.6481C49.9102 29.0435 49.9946 29.4673 49.9946 29.8953V34.4392" stroke="#10E048" stroke-linecap="round" stroke-linejoin="round"/>
<path d="M11.9766 26.6385V23.0175C11.9764 22.5895 12.0606 22.1656 12.2243 21.7702C12.388 21.3747 12.628 21.0153 12.9306 20.7126C13.2332 20.4099 13.5925 20.1698 13.9879 20.006C14.3833 19.8421 14.8071 19.7578 15.2352 19.7578H44.5648C44.9928 19.7578 45.4166 19.8421 45.812 20.006C46.2075 20.1698 46.5667 20.4099 46.8693 20.7126C47.1719 21.0153 47.4119 21.3747 47.5756 21.7702C47.7393 22.1656 47.8235 22.5895 47.8234 23.0175V26.6385" stroke="#10E048" stroke-linecap="round" stroke-linejoin="round"/>
<path d="M14.1484 19.7585V16.1375C14.1484 15.7096 14.2327 15.2858 14.3965 14.8905C14.5602 14.4951 14.8003 14.1359 15.1029 13.8333C15.714 13.2222 16.5428 12.8789 17.407 12.8789H42.3918C42.8198 12.8789 43.2435 12.9632 43.6389 13.127C44.0342 13.2907 44.3934 13.5307 44.696 13.8333C44.9986 14.1359 45.2386 14.4951 45.4024 14.8905C45.5662 15.2858 45.6504 15.7096 45.6504 16.1375V19.7585" stroke="#10E048" stroke-linecap="round" stroke-linejoin="round"/>
<path d="M16.3203 12.8796V9.2586C16.3206 8.39446 16.664 7.56578 17.2751 6.95474C17.8861 6.3437 18.7148 6.00029 19.5789 6H40.2189C41.0831 6.00029 41.9117 6.3437 42.5228 6.95474C43.1338 7.56578 43.4772 8.39446 43.4775 9.2586V12.8796" stroke="#10E048" stroke-linecap="round" stroke-linejoin="round"/>
</svg>
