<svg width="42" height="42" viewBox="0 0 42 42" fill="none" xmlns="http://www.w3.org/2000/svg">
<g filter="url(#filter0_d_479_9582)">
<path fill-rule="evenodd" clip-rule="evenodd" d="M8.10103 28.5458L6 35.9999L13.6955 34.0211C15.9251 35.2708 18.4454 35.9289 21.0193 35.9289C29.2797 35.9289 35.9999 29.2159 35.9999 20.9645C35.9999 12.713 29.2797 6 21.0193 6C12.7589 6 6.03859 12.713 6.03859 20.9645C6.03859 23.6443 6.74994 26.253 8.10103 28.5458ZM14.5475 31.5784L14.0889 31.2987L9.64289 32.4419L10.8528 28.1493L10.544 27.6689C9.25907 25.6702 8.57981 23.3519 8.57981 20.9645C8.57981 14.1128 14.1602 8.53847 21.0193 8.53847C27.8784 8.53847 33.4587 14.1128 33.4587 20.9645C33.4587 27.8162 27.8784 33.3905 21.0193 33.3905C18.7294 33.3905 16.4914 32.7638 14.5475 31.5784ZM16.3602 14.0016L17.3186 14.0501C17.5073 14.0597 17.6738 14.1679 17.7482 14.3294L19.1444 17.3626C19.219 17.5246 19.1877 17.712 19.0635 17.8453L17.8482 19.1507C17.7497 19.2566 17.7325 19.4073 17.8019 19.5315C19.4025 22.3943 22.3196 23.5287 23.1904 23.8129C23.3389 23.8613 23.5033 23.8155 23.5993 23.6998L24.871 22.1692C25.0124 21.999 25.2618 21.9421 25.472 22.0321L28.7112 23.4184C28.9222 23.5087 29.0376 23.7228 28.989 23.9337L28.8359 24.5973C28.6633 25.3461 28.1844 26.0085 27.4896 26.4212C26.6124 26.9422 25.4754 27.1981 24.03 26.8186C19.5448 25.6409 17.0083 22.8836 15.6472 21.1602C14.2861 19.4369 13.7602 17.7135 14.1005 16.3062C14.3287 15.3623 15.0716 14.638 15.5363 14.2633C15.7638 14.0798 16.0591 13.9864 16.3602 14.0016Z" fill="url(#paint0_linear_479_9582)"/>
</g>
<defs>
<filter id="filter0_d_479_9582" x="-1" y="-1" width="44" height="44" filterUnits="userSpaceOnUse" color-interpolation-filters="sRGB">
<feFlood flood-opacity="0" result="BackgroundImageFix"/>
<feColorMatrix in="SourceAlpha" type="matrix" values="0 0 0 0 0 0 0 0 0 0 0 0 0 0 0 0 0 0 127 0" result="hardAlpha"/>
<feOffset/>
<feGaussianBlur stdDeviation="3.5"/>
<feComposite in2="hardAlpha" operator="out"/>
<feColorMatrix type="matrix" values="0 0 0 0 0 0 0 0 0 0 0 0 0 0 0 0 0 0 0.3 0"/>
<feBlend mode="normal" in2="BackgroundImageFix" result="effect1_dropShadow_479_9582"/>
<feBlend mode="normal" in="SourceGraphic" in2="effect1_dropShadow_479_9582" result="shape"/>
</filter>
<linearGradient id="paint0_linear_479_9582" x1="21" y1="6" x2="21" y2="35.9999" gradientUnits="userSpaceOnUse">
<stop stop-color="#57D163"/>
<stop offset="1" stop-color="#23B33A"/>
</linearGradient>
</defs>
</svg>
