<svg width="63" height="69" viewBox="0 0 63 69" fill="none" xmlns="http://www.w3.org/2000/svg">
<g filter="url(#filter0_d_2235_126818)">
<path d="M51.2353 8L44.1992 13.2396C43.1855 13.9945 42.5882 15.184 42.5882 16.4478V25.8318M42.5882 25.8318V59.1912C42.5882 59.9776 41.7224 60.4563 41.0564 60.0381L35.0048 56.238C34.3545 55.8296 33.5279 55.8296 32.8776 56.238L25.8259 60.6661C25.5008 60.8702 25.0875 60.8702 24.7623 60.6661L17.7106 56.238C17.0604 55.8296 16.2337 55.8296 15.5835 56.238L9.53179 60.0381C8.86582 60.4563 8 59.9776 8 59.1912V12C8 9.79086 9.79086 8 12 8H51C53.2091 8 55 9.79086 55 12V21.8318C55 24.0409 53.2091 25.8318 51 25.8318H42.5882Z" stroke="#10E048" shape-rendering="crispEdges"/>
</g>
<g filter="url(#filter1_d_2235_126818)">
<path d="M15 27H35.5" stroke="#10E048" stroke-linecap="round"/>
</g>
<g filter="url(#filter2_d_2235_126818)">
<path d="M15 45H33" stroke="#10E048" stroke-linecap="round"/>
</g>
<g filter="url(#filter3_d_2235_126818)">
<path d="M15 36H28" stroke="#10E048" stroke-linecap="round"/>
</g>
<defs>
<filter id="filter0_d_2235_126818" x="0.5" y="0.5" width="62" height="67.8203" filterUnits="userSpaceOnUse" color-interpolation-filters="sRGB">
<feFlood flood-opacity="0" result="BackgroundImageFix"/>
<feColorMatrix in="SourceAlpha" type="matrix" values="0 0 0 0 0 0 0 0 0 0 0 0 0 0 0 0 0 0 127 0" result="hardAlpha"/>
<feOffset/>
<feGaussianBlur stdDeviation="3.5"/>
<feComposite in2="hardAlpha" operator="out"/>
<feColorMatrix type="matrix" values="0 0 0 0 0 0 0 0 0 1 0 0 0 0 0.268041 0 0 0 1 0"/>
<feBlend mode="normal" in2="BackgroundImageFix" result="effect1_dropShadow_2235_126818"/>
<feBlend mode="normal" in="SourceGraphic" in2="effect1_dropShadow_2235_126818" result="shape"/>
</filter>
<filter id="filter1_d_2235_126818" x="7.5" y="19.5" width="35.5" height="15" filterUnits="userSpaceOnUse" color-interpolation-filters="sRGB">
<feFlood flood-opacity="0" result="BackgroundImageFix"/>
<feColorMatrix in="SourceAlpha" type="matrix" values="0 0 0 0 0 0 0 0 0 0 0 0 0 0 0 0 0 0 127 0" result="hardAlpha"/>
<feOffset/>
<feGaussianBlur stdDeviation="3.5"/>
<feComposite in2="hardAlpha" operator="out"/>
<feColorMatrix type="matrix" values="0 0 0 0 0 0 0 0 0 1 0 0 0 0 0.268041 0 0 0 1 0"/>
<feBlend mode="normal" in2="BackgroundImageFix" result="effect1_dropShadow_2235_126818"/>
<feBlend mode="normal" in="SourceGraphic" in2="effect1_dropShadow_2235_126818" result="shape"/>
</filter>
<filter id="filter2_d_2235_126818" x="7.5" y="37.5" width="33" height="15" filterUnits="userSpaceOnUse" color-interpolation-filters="sRGB">
<feFlood flood-opacity="0" result="BackgroundImageFix"/>
<feColorMatrix in="SourceAlpha" type="matrix" values="0 0 0 0 0 0 0 0 0 0 0 0 0 0 0 0 0 0 127 0" result="hardAlpha"/>
<feOffset/>
<feGaussianBlur stdDeviation="3.5"/>
<feComposite in2="hardAlpha" operator="out"/>
<feColorMatrix type="matrix" values="0 0 0 0 0 0 0 0 0 1 0 0 0 0 0.268041 0 0 0 1 0"/>
<feBlend mode="normal" in2="BackgroundImageFix" result="effect1_dropShadow_2235_126818"/>
<feBlend mode="normal" in="SourceGraphic" in2="effect1_dropShadow_2235_126818" result="shape"/>
</filter>
<filter id="filter3_d_2235_126818" x="7.5" y="28.5" width="28" height="15" filterUnits="userSpaceOnUse" color-interpolation-filters="sRGB">
<feFlood flood-opacity="0" result="BackgroundImageFix"/>
<feColorMatrix in="SourceAlpha" type="matrix" values="0 0 0 0 0 0 0 0 0 0 0 0 0 0 0 0 0 0 127 0" result="hardAlpha"/>
<feOffset/>
<feGaussianBlur stdDeviation="3.5"/>
<feComposite in2="hardAlpha" operator="out"/>
<feColorMatrix type="matrix" values="0 0 0 0 0 0 0 0 0 1 0 0 0 0 0.268041 0 0 0 1 0"/>
<feBlend mode="normal" in2="BackgroundImageFix" result="effect1_dropShadow_2235_126818"/>
<feBlend mode="normal" in="SourceGraphic" in2="effect1_dropShadow_2235_126818" result="shape"/>
</filter>
</defs>
</svg>
