<svg width="60" height="60" viewBox="0 0 60 60" fill="none" xmlns="http://www.w3.org/2000/svg">
<path d="M27.151 19.9383C27.3471 19.9513 28.7521 19.9566 30.7019 19.9587C32.6835 19.9608 35.2661 19.9594 37.8286 19.9565C40.3912 19.9537 42.9341 19.9494 44.8362 19.9458C45.7873 19.944 46.5782 19.9424 47.1314 19.9412L47.4988 19.9404L47.4988 57.5L22.2247 57.5C21.9941 57.5 19.7283 57.4699 17.4409 56.2754L17.4405 56.2752C14.3474 54.6635 12.5922 51.7078 12.5035 47.8432L12.5035 47.5338L12.5035 13.8246C13.3929 15.2611 14.827 16.5224 16.6084 17.5402L16.6086 17.5403C19.4056 19.1372 23.1069 19.6907 27.151 19.9383ZM27.151 19.9383C27.1516 19.9383 27.1523 19.9384 27.153 19.9384L27.1835 19.4393L27.1473 19.938C27.1485 19.9381 27.1497 19.9382 27.151 19.9383ZM47.9988 19.4393C47.9988 19.4393 47.8212 19.4397 47.4988 19.4404L47.9988 19.9393L47.9988 19.4393Z" stroke="#10E048"/>
<path d="M27.4705 17C33.9588 16.5982 39 13.6345 39 10.0251C39 6.1466 33.1825 3.00001 26 3.00001L16.6909 14.919C18.7296 16.0456 21.4655 16.8063 24.5295 17L27.4705 17ZM27.4705 17L27.4705 16.5L27.4549 16.5M27.4705 17L27.4396 16.501C27.4447 16.5006 27.4498 16.5003 27.4549 16.5M27.4549 16.5C30.6316 16.3012 33.4263 15.4771 35.4112 14.2866C37.4126 13.0862 38.5 11.577 38.5 10.0251C38.5 8.35694 37.2415 6.73355 34.9557 5.49797C32.6898 4.27317 29.5248 3.50001 26 3.50001L25.9996 3.50001C21.3706 3.49648 17.3963 4.83092 15.2361 6.75002M27.4549 16.5L24.5454 16.5C21.5465 16.3084 18.8916 15.5637 16.9332 14.4817C14.7201 13.2516 13.5 11.6589 13.5 10.0251C13.5 8.87217 14.1047 7.75638 15.2361 6.75002M15.2361 6.75002C15.2362 6.74996 15.2362 6.74989 15.2363 6.74982L14.9041 6.37628L15.2361 6.75002ZM26.826 14.1955L26.84 14.1955L26.8539 14.1948C28.7739 14.0876 30.5088 13.6308 31.7811 12.9318C33.0306 12.2453 33.9579 11.2474 33.9579 10.0215C33.9579 8.71113 32.8925 7.65972 31.4893 6.96543C30.0537 6.25513 28.1052 5.82784 25.9799 5.82599L25.9795 5.82599C23.2129 5.82599 20.7116 6.54868 19.2826 7.71652C18.513 8.33006 17.9923 9.11185 17.9923 10.0179C17.9923 11.3171 19.0235 12.3502 20.4016 13.0471C21.6395 13.6772 23.2859 14.0876 25.0976 14.1947L25.1123 14.1955L25.1271 14.1955L26.826 14.1955Z" stroke="#10E048"/>
</svg>
