<svg width="60" height="60" viewBox="0 0 60 60" fill="none" xmlns="http://www.w3.org/2000/svg">
<path d="M32.6495 3.17786L32.6516 3.17903L49.7431 12.4338C49.7433 12.434 49.7436 12.4341 49.7439 12.4343C50.8286 13.0268 51.5 14.1676 51.5 15.5C51.5 16.8324 50.8287 17.9731 49.7441 18.5657C49.7437 18.5659 49.7434 18.5661 49.7431 18.5663L32.6516 27.821L32.6495 27.8221C31.8253 28.2737 30.8995 28.5 30 28.5C29.1005 28.5 28.1748 28.2737 27.3506 27.8221L27.3484 27.821L10.2569 18.5663C10.2567 18.5661 10.2565 18.566 10.2562 18.5659C9.17302 17.9742 8.5 16.8071 8.5 15.5C8.5 14.1676 9.1714 13.0268 10.2562 12.4342C10.2565 12.4341 10.2567 12.434 10.2569 12.4338L27.3484 3.17904L27.3506 3.17785C29.0001 2.27405 30.9999 2.27405 32.6495 3.17786Z" stroke="#10E048"/>
<path d="M23.9394 31.9715L23.9415 31.9725C26.1508 33.0539 27.5256 35.2645 27.4996 37.7347H27.4996V37.7399V53.0314C27.4996 54.2479 26.8876 55.3593 25.8376 55.9883L25.8363 55.989C25.2718 56.3294 24.6329 56.5 23.9932 56.5C23.4514 56.5 22.9112 56.378 22.422 56.1357L6.09032 48.033C6.09007 48.0329 6.08982 48.0328 6.08957 48.0327C3.87543 46.9228 2.5 44.7079 2.5 42.2635V26.972C2.5 25.7615 3.10747 24.6718 4.16787 24.0117C5.19329 23.3835 6.46763 23.3311 7.57963 23.8688C7.58027 23.8691 7.58091 23.8695 7.58156 23.8698L23.9394 31.9715Z" stroke="#10E048"/>
<path d="M52.4226 23.8788L52.4226 23.8788L52.4303 23.8749C53.4975 23.3225 54.7686 23.3876 55.8344 24.0241C56.8934 24.6842 57.5 25.7728 57.5 26.982V42.2684C57.5 44.7384 56.1257 46.9254 53.9105 48.0354C53.9103 48.0355 53.91 48.0357 53.9097 48.0358L37.5777 56.1358C37.5777 56.1358 37.5776 56.1358 37.5775 56.1359C37.0883 56.378 36.5482 56.5 36.0065 56.5C35.3667 56.5 34.7278 56.3294 34.1633 55.9892L34.162 55.9884C33.112 55.3597 32.5 54.2486 32.5 53.0327V37.7463C32.5 35.2764 33.8742 33.0895 36.0893 31.9794C36.0896 31.9792 36.09 31.979 36.0903 31.9789L52.4226 23.8788Z" stroke="#10E048"/>
</svg>
