<svg width="60" height="60" viewBox="0 0 60 60" fill="none" xmlns="http://www.w3.org/2000/svg">
<path d="M53.2271 34.1212L52.7361 34.4232L53.1044 34.8666C53.4792 35.3178 53.755 35.8509 53.9109 36.4283C54.0667 37.0058 54.0985 37.6123 54.0038 38.2044C53.9091 38.7965 53.6904 39.3584 53.3644 39.8501C53.0384 40.3418 52.6135 40.7509 52.1211 41.0495L51.6252 41.3502L51.9956 41.7964C52.3703 42.2477 52.6459 42.7808 52.8017 43.3583C52.9574 43.9357 52.9892 44.5422 52.8945 45.1343C52.7997 45.7263 52.5811 46.2882 52.2552 46.7799C51.9293 47.2717 51.5045 47.6808 51.0122 47.9796L50.5179 48.2795L50.8861 48.7254C51.3775 49.3205 51.696 50.0525 51.8009 50.8347C51.9059 51.6169 51.7924 52.4136 51.4752 53.1289C51.158 53.8442 50.6514 54.4462 50.0185 54.8655C49.3859 55.2845 48.653 55.504 47.9071 55.4999H47.9044H22.4602V55.4936L21.982 55.4727C21.2073 55.4388 20.4473 55.2357 19.7512 54.8755C19.055 54.5154 18.4377 54.006 17.9402 53.3791L17.7901 53.1899H17.5486H10.2077C9.6239 53.1899 9.01723 52.8962 8.41288 52.2572C7.80753 51.617 7.23938 50.6639 6.75176 49.4446C5.77764 47.0089 5.16406 43.6098 5.16406 39.83C5.16406 36.0503 5.77764 32.6512 6.75176 30.2155C7.23938 28.9962 7.80753 28.0431 8.41288 27.4029C9.01723 26.7638 9.6239 26.4701 10.2077 26.4701H19.5066H19.7747L19.9231 26.2468L28.3638 13.5419L28.4473 13.4162V13.2652V7.53046C28.7305 5.80959 29.4728 5.09851 30.0669 4.78808C30.3791 4.62494 30.6766 4.55876 30.8953 4.53359C31.0042 4.52105 31.0918 4.51891 31.1491 4.5196C31.1777 4.51995 31.1986 4.521 31.2106 4.52177L31.2214 4.52257L31.2216 4.52259L31.2218 4.52261L31.2221 4.52263L31.2738 4.52839L31.3293 4.52216C31.8563 4.46297 32.3897 4.52265 32.8934 4.69756C33.3945 4.87158 33.8556 5.15596 34.245 5.53286C35.8132 7.16995 36.6157 9.37405 37.0219 11.2078C37.2241 12.1205 37.3253 12.9284 37.3758 13.5072C37.401 13.7963 37.4135 14.0275 37.4198 14.185C37.4229 14.2638 37.4244 14.3241 37.4251 14.3639L37.4258 14.4081L37.4259 14.4183L37.4259 14.4202C37.4259 14.4202 37.4259 14.4203 37.4259 14.4203C37.4258 18.1617 36.6109 20.9822 35.8034 22.8597C35.3995 23.799 34.9969 24.5032 34.6984 24.9689C34.5492 25.2018 34.426 25.375 34.3417 25.4881C34.2996 25.5446 34.2671 25.5862 34.2461 25.6126C34.2355 25.6258 34.2278 25.6352 34.2232 25.6409L34.2185 25.6465L34.2185 25.6466L34.2183 25.6468L34.2181 25.6471L34.2179 25.6473L33.5193 26.4701H34.5997L51.2306 26.4701L51.2317 26.4701C52.0877 26.4682 52.9229 26.7595 53.6085 27.3029C54.2944 27.8466 54.7929 28.6132 55.0229 29.4868C55.253 30.3605 55.2006 31.2889 54.8744 32.1277C54.5483 32.9662 53.968 33.6656 53.2271 34.1212ZM12.7053 45.2778L12.5143 45.7204L12.7053 45.2778C12.3076 45.1062 11.8686 45.0609 11.4449 45.1487C11.0213 45.2365 10.6352 45.4525 10.3341 45.7662L10.6948 46.1124L10.3341 45.7662C10.0332 46.0796 9.83047 46.4765 9.74852 46.9057C9.66659 47.3348 9.70848 47.7798 9.86967 48.1852C10.0309 48.5908 10.3053 48.9407 10.6612 49.1884C11.0173 49.4363 11.4383 49.57 11.8708 49.57C12.4512 49.57 13.0035 49.3296 13.4075 48.9088C13.8107 48.4887 14.0339 47.9231 14.0339 47.3375C14.0339 46.9004 13.9095 46.4715 13.6745 46.105C13.4392 45.7383 13.1028 45.4493 12.7053 45.2778Z" stroke="#10E048"/>
</svg>
