<svg width="60" height="60" viewBox="0 0 60 60" fill="none" xmlns="http://www.w3.org/2000/svg">
<path d="M38 2.5H41.5V5.5H18.5V2.5H22H22.5V2C22.5 1.60217 22.658 1.22064 22.9393 0.939338C23.2206 0.658035 23.6022 0.5 24 0.5H36C36.3978 0.5 36.7794 0.658035 37.0607 0.939338C37.342 1.22064 37.5 1.60217 37.5 2V2.5H38Z" stroke="#10E048"/>
<mask id="path-2-inside-1_1870_110379" fill="white">
<path fill-rule="evenodd" clip-rule="evenodd" d="M41.172 49.172C40.7997 49.5428 40.5045 49.9835 40.3034 50.4689C40.1022 50.9542 39.9991 51.4746 40 52V60H12C10.9391 60 9.92172 59.5786 9.17157 58.8284C8.42142 58.0783 8 57.0609 8 56V6C8 4.93913 8.42142 3.92172 9.17157 3.17157C9.92172 2.42142 10.9391 2 12 2H14V8C14 8.53043 14.2107 9.03914 14.5858 9.41422C14.9609 9.78929 15.4696 10 16 10H44C44.5304 10 45.0391 9.78929 45.4142 9.41422C45.7893 9.03914 46 8.53043 46 8V2H48C49.0609 2 50.0783 2.42142 50.8284 3.17157C51.5786 3.92172 52 4.93913 52 6V48M44 60V52H52L44 60ZM20 18H40C40.5304 18 41.0391 18.2107 41.4142 18.5858C41.7893 18.9609 42 19.4696 42 20C42 20.5304 41.7893 21.0391 41.4142 21.4142C41.0391 21.7893 40.5304 22 40 22H20C19.4696 22 18.9609 21.7893 18.5858 21.4142C18.2107 21.0391 18 20.5304 18 20C18 19.4696 18.2107 18.9609 18.5858 18.5858C18.9609 18.2107 19.4696 18 20 18ZM20 28H40C40.5304 28 41.0391 28.2107 41.4142 28.5858C41.7893 28.9609 42 29.4696 42 30C42 30.5304 41.7893 31.0391 41.4142 31.4142C41.0391 31.7893 40.5304 32 40 32H20C19.4696 32 18.9609 31.7893 18.5858 31.4142C18.2107 31.0391 18 30.5304 18 30C18 29.4696 18.2107 28.9609 18.5858 28.5858C18.9609 28.2107 19.4696 28 20 28ZM20 38H40C40.5304 38 41.0391 38.2107 41.4142 38.5858C41.7893 38.9609 42 39.4696 42 40C42 40.5304 41.7893 41.0391 41.4142 41.4142C41.0391 41.7893 40.5304 42 40 42H20C19.4696 42 18.9609 41.7893 18.5858 41.4142C18.2107 41.0391 18 40.5304 18 40C18 39.4696 18.2107 38.9609 18.5858 38.5858C18.9609 38.2107 19.4696 38 20 38Z"/>
</mask>
<path d="M40 52H41L41 51.9983L40 52ZM40 60V61H41V60H40ZM14 2H15V1H14V2ZM46 2V1H45V2H46ZM44 60H43V62.4142L44.7071 60.7071L44 60ZM44 52V51H43V52H44ZM52 52L52.7071 52.7071L54.4142 51H52V52ZM40.4663 48.4635C40.0006 48.9273 39.6312 49.4788 39.3796 50.086L41.2272 50.8517C41.3778 50.4883 41.5989 50.1582 41.8777 49.8805L40.4663 48.4635ZM39.3796 50.086C39.1279 50.6933 38.9989 51.3443 39 52.0017L41 51.9983C40.9993 51.6049 41.0766 51.2152 41.2272 50.8517L39.3796 50.086ZM39 52V60H41V52H39ZM40 59H12V61H40V59ZM12 59C11.2043 59 10.4413 58.6839 9.87868 58.1213L8.46446 59.5355C9.40215 60.4732 10.6739 61 12 61V59ZM9.87868 58.1213C9.31607 57.5587 9 56.7957 9 56H7C7 57.3261 7.52678 58.5979 8.46446 59.5355L9.87868 58.1213ZM9 56V6H7V56H9ZM9 6C9 5.20435 9.31607 4.44128 9.87868 3.87868L8.46446 2.46446C7.52678 3.40215 7 4.67392 7 6H9ZM9.87868 3.87868C10.4413 3.31607 11.2043 3 12 3V1C10.6739 1 9.40215 1.52678 8.46446 2.46446L9.87868 3.87868ZM12 3H14V1H12V3ZM13 2V8H15V2H13ZM13 8C13 8.79565 13.3161 9.55871 13.8787 10.1213L15.2929 8.70711C15.1054 8.51957 15 8.26522 15 8H13ZM13.8787 10.1213C14.4413 10.6839 15.2044 11 16 11V9C15.7348 9 15.4804 8.89464 15.2929 8.70711L13.8787 10.1213ZM16 11H44V9H16V11ZM44 11C44.7956 11 45.5587 10.6839 46.1213 10.1213L44.7071 8.70711C44.5196 8.89464 44.2652 9 44 9V11ZM46.1213 10.1213C46.6839 9.55871 47 8.79565 47 8H45C45 8.26522 44.8946 8.51957 44.7071 8.70711L46.1213 10.1213ZM47 8V2H45V8H47ZM46 3H48V1H46V3ZM48 3C48.7957 3 49.5587 3.31607 50.1213 3.87868L51.5355 2.46446C50.5979 1.52678 49.3261 1 48 1V3ZM50.1213 3.87868C50.6839 4.44128 51 5.20435 51 6H53C53 4.67392 52.4732 3.40215 51.5355 2.46446L50.1213 3.87868ZM51 6V48H53V6H51ZM45 60V52H43V60H45ZM44 53H52V51H44V53ZM51.2929 51.2929L43.2929 59.2929L44.7071 60.7071L52.7071 52.7071L51.2929 51.2929ZM20 19H40V17H20V19ZM40 19C40.2652 19 40.5196 19.1054 40.7071 19.2929L42.1213 17.8787C41.5587 17.3161 40.7956 17 40 17V19ZM40.7071 19.2929C40.8946 19.4804 41 19.7348 41 20H43C43 19.2044 42.6839 18.4413 42.1213 17.8787L40.7071 19.2929ZM41 20C41 20.2652 40.8946 20.5196 40.7071 20.7071L42.1213 22.1213C42.6839 21.5587 43 20.7956 43 20H41ZM40.7071 20.7071C40.5196 20.8946 40.2652 21 40 21V23C40.7956 23 41.5587 22.6839 42.1213 22.1213L40.7071 20.7071ZM40 21H20V23H40V21ZM20 21C19.7348 21 19.4804 20.8946 19.2929 20.7071L17.8787 22.1213C18.4413 22.6839 19.2044 23 20 23V21ZM19.2929 20.7071C19.1054 20.5196 19 20.2652 19 20H17C17 20.7956 17.3161 21.5587 17.8787 22.1213L19.2929 20.7071ZM19 20C19 19.7348 19.1054 19.4804 19.2929 19.2929L17.8787 17.8787C17.3161 18.4413 17 19.2044 17 20H19ZM19.2929 19.2929C19.4804 19.1054 19.7348 19 20 19V17C19.2044 17 18.4413 17.3161 17.8787 17.8787L19.2929 19.2929ZM20 29H40V27H20V29ZM40 29C40.2652 29 40.5196 29.1054 40.7071 29.2929L42.1213 27.8787C41.5587 27.3161 40.7956 27 40 27V29ZM40.7071 29.2929C40.8946 29.4804 41 29.7348 41 30H43C43 29.2044 42.6839 28.4413 42.1213 27.8787L40.7071 29.2929ZM41 30C41 30.2652 40.8946 30.5196 40.7071 30.7071L42.1213 32.1213C42.6839 31.5587 43 30.7956 43 30H41ZM40.7071 30.7071C40.5196 30.8946 40.2652 31 40 31V33C40.7956 33 41.5587 32.6839 42.1213 32.1213L40.7071 30.7071ZM40 31H20V33H40V31ZM20 31C19.7348 31 19.4804 30.8946 19.2929 30.7071L17.8787 32.1213C18.4413 32.6839 19.2044 33 20 33V31ZM19.2929 30.7071C19.1054 30.5196 19 30.2652 19 30H17C17 30.7956 17.3161 31.5587 17.8787 32.1213L19.2929 30.7071ZM19 30C19 29.7348 19.1054 29.4804 19.2929 29.2929L17.8787 27.8787C17.3161 28.4413 17 29.2044 17 30H19ZM19.2929 29.2929C19.4804 29.1054 19.7348 29 20 29V27C19.2044 27 18.4413 27.3161 17.8787 27.8787L19.2929 29.2929ZM20 39H40V37H20V39ZM40 39C40.2652 39 40.5196 39.1054 40.7071 39.2929L42.1213 37.8787C41.5587 37.3161 40.7956 37 40 37V39ZM40.7071 39.2929C40.8946 39.4804 41 39.7348 41 40H43C43 39.2044 42.6839 38.4413 42.1213 37.8787L40.7071 39.2929ZM41 40C41 40.2652 40.8946 40.5196 40.7071 40.7071L42.1213 42.1213C42.6839 41.5587 43 40.7956 43 40H41ZM40.7071 40.7071C40.5196 40.8946 40.2652 41 40 41V43C40.7956 43 41.5587 42.6839 42.1213 42.1213L40.7071 40.7071ZM40 41H20V43H40V41ZM20 41C19.7348 41 19.4804 40.8946 19.2929 40.7071L17.8787 42.1213C18.4413 42.6839 19.2044 43 20 43V41ZM19.2929 40.7071C19.1054 40.5196 19 40.2652 19 40H17C17 40.7956 17.3161 41.5587 17.8787 42.1213L19.2929 40.7071ZM19 40C19 39.7348 19.1054 39.4804 19.2929 39.2929L17.8787 37.8787C17.3161 38.4413 17 39.2044 17 40H19ZM19.2929 39.2929C19.4804 39.1054 19.7348 39 20 39V37C19.2044 37 18.4413 37.3161 17.8787 37.8787L19.2929 39.2929Z" fill="#10E048" mask="url(#path-2-inside-1_1870_110379)"/>
</svg>
