<svg width="60" height="67" viewBox="0 0 60 67" fill="none" xmlns="http://www.w3.org/2000/svg">
<g filter="url(#filter0_d_1870_107771)">
<path d="M38 9.5H41.5V12.5H18.5V9.5H22H22.5V9C22.5 8.60217 22.658 8.22064 22.9393 7.93934C23.2206 7.65803 23.6022 7.5 24 7.5H36C36.3978 7.5 36.7794 7.65803 37.0607 7.93934C37.342 8.22064 37.5 8.60217 37.5 9V9.5H38Z" stroke="#10E048" shape-rendering="crispEdges"/>
</g>
<mask id="path-2-inside-1_1870_107771" fill="white">
<path fill-rule="evenodd" clip-rule="evenodd" d="M41.172 56.172C40.7997 56.5428 40.5045 56.9835 40.3034 57.4689C40.1022 57.9542 39.9991 58.4746 40 59V67H12C10.9391 67 9.92172 66.5786 9.17157 65.8284C8.42142 65.0783 8 64.0609 8 63V13C8 11.9391 8.42142 10.9217 9.17157 10.1716C9.92172 9.42142 10.9391 9 12 9H14V15C14 15.5304 14.2107 16.0391 14.5858 16.4142C14.9609 16.7893 15.4696 17 16 17H44C44.5304 17 45.0391 16.7893 45.4142 16.4142C45.7893 16.0391 46 15.5304 46 15V9H48C49.0609 9 50.0783 9.42142 50.8284 10.1716C51.5786 10.9217 52 11.9391 52 13V55M44 67V59H52L44 67ZM20 25H40C40.5304 25 41.0391 25.2107 41.4142 25.5858C41.7893 25.9609 42 26.4696 42 27C42 27.5304 41.7893 28.0391 41.4142 28.4142C41.0391 28.7893 40.5304 29 40 29H20C19.4696 29 18.9609 28.7893 18.5858 28.4142C18.2107 28.0391 18 27.5304 18 27C18 26.4696 18.2107 25.9609 18.5858 25.5858C18.9609 25.2107 19.4696 25 20 25ZM20 35H40C40.5304 35 41.0391 35.2107 41.4142 35.5858C41.7893 35.9609 42 36.4696 42 37C42 37.5304 41.7893 38.0391 41.4142 38.4142C41.0391 38.7893 40.5304 39 40 39H20C19.4696 39 18.9609 38.7893 18.5858 38.4142C18.2107 38.0391 18 37.5304 18 37C18 36.4696 18.2107 35.9609 18.5858 35.5858C18.9609 35.2107 19.4696 35 20 35ZM20 45H40C40.5304 45 41.0391 45.2107 41.4142 45.5858C41.7893 45.9609 42 46.4696 42 47C42 47.5304 41.7893 48.0391 41.4142 48.4142C41.0391 48.7893 40.5304 49 40 49H20C19.4696 49 18.9609 48.7893 18.5858 48.4142C18.2107 48.0391 18 47.5304 18 47C18 46.4696 18.2107 45.9609 18.5858 45.5858C18.9609 45.2107 19.4696 45 20 45Z"/>
</mask>
<path d="M40 59H41L41 58.9983L40 59ZM40 67V68H41V67H40ZM14 9H15V8H14V9ZM46 9V8H45V9H46ZM44 67H43V69.4142L44.7071 67.7071L44 67ZM44 59V58H43V59H44ZM52 59L52.7071 59.7071L54.4142 58H52V59ZM40.4663 55.4635C40.0006 55.9273 39.6312 56.4788 39.3796 57.086L41.2272 57.8517C41.3778 57.4883 41.5989 57.1582 41.8777 56.8805L40.4663 55.4635ZM39.3796 57.086C39.1279 57.6933 38.9989 58.3443 39 59.0017L41 58.9983C40.9993 58.6049 41.0766 58.2152 41.2272 57.8517L39.3796 57.086ZM39 59V67H41V59H39ZM40 66H12V68H40V66ZM12 66C11.2043 66 10.4413 65.6839 9.87868 65.1213L8.46446 66.5355C9.40215 67.4732 10.6739 68 12 68V66ZM9.87868 65.1213C9.31607 64.5587 9 63.7957 9 63H7C7 64.3261 7.52678 65.5979 8.46446 66.5355L9.87868 65.1213ZM9 63V13H7V63H9ZM9 13C9 12.2043 9.31607 11.4413 9.87868 10.8787L8.46446 9.46446C7.52678 10.4021 7 11.6739 7 13H9ZM9.87868 10.8787C10.4413 10.3161 11.2043 10 12 10V8C10.6739 8 9.40215 8.52678 8.46446 9.46446L9.87868 10.8787ZM12 10H14V8H12V10ZM13 9V15H15V9H13ZM13 15C13 15.7956 13.3161 16.5587 13.8787 17.1213L15.2929 15.7071C15.1054 15.5196 15 15.2652 15 15H13ZM13.8787 17.1213C14.4413 17.6839 15.2044 18 16 18V16C15.7348 16 15.4804 15.8946 15.2929 15.7071L13.8787 17.1213ZM16 18H44V16H16V18ZM44 18C44.7956 18 45.5587 17.6839 46.1213 17.1213L44.7071 15.7071C44.5196 15.8946 44.2652 16 44 16V18ZM46.1213 17.1213C46.6839 16.5587 47 15.7956 47 15H45C45 15.2652 44.8946 15.5196 44.7071 15.7071L46.1213 17.1213ZM47 15V9H45V15H47ZM46 10H48V8H46V10ZM48 10C48.7957 10 49.5587 10.3161 50.1213 10.8787L51.5355 9.46446C50.5979 8.52678 49.3261 8 48 8V10ZM50.1213 10.8787C50.6839 11.4413 51 12.2043 51 13H53C53 11.6739 52.4732 10.4021 51.5355 9.46446L50.1213 10.8787ZM51 13V55H53V13H51ZM45 67V59H43V67H45ZM44 60H52V58H44V60ZM51.2929 58.2929L43.2929 66.2929L44.7071 67.7071L52.7071 59.7071L51.2929 58.2929ZM20 26H40V24H20V26ZM40 26C40.2652 26 40.5196 26.1054 40.7071 26.2929L42.1213 24.8787C41.5587 24.3161 40.7956 24 40 24V26ZM40.7071 26.2929C40.8946 26.4804 41 26.7348 41 27H43C43 26.2044 42.6839 25.4413 42.1213 24.8787L40.7071 26.2929ZM41 27C41 27.2652 40.8946 27.5196 40.7071 27.7071L42.1213 29.1213C42.6839 28.5587 43 27.7956 43 27H41ZM40.7071 27.7071C40.5196 27.8946 40.2652 28 40 28V30C40.7956 30 41.5587 29.6839 42.1213 29.1213L40.7071 27.7071ZM40 28H20V30H40V28ZM20 28C19.7348 28 19.4804 27.8946 19.2929 27.7071L17.8787 29.1213C18.4413 29.6839 19.2044 30 20 30V28ZM19.2929 27.7071C19.1054 27.5196 19 27.2652 19 27H17C17 27.7956 17.3161 28.5587 17.8787 29.1213L19.2929 27.7071ZM19 27C19 26.7348 19.1054 26.4804 19.2929 26.2929L17.8787 24.8787C17.3161 25.4413 17 26.2044 17 27H19ZM19.2929 26.2929C19.4804 26.1054 19.7348 26 20 26V24C19.2044 24 18.4413 24.3161 17.8787 24.8787L19.2929 26.2929ZM20 36H40V34H20V36ZM40 36C40.2652 36 40.5196 36.1054 40.7071 36.2929L42.1213 34.8787C41.5587 34.3161 40.7956 34 40 34V36ZM40.7071 36.2929C40.8946 36.4804 41 36.7348 41 37H43C43 36.2044 42.6839 35.4413 42.1213 34.8787L40.7071 36.2929ZM41 37C41 37.2652 40.8946 37.5196 40.7071 37.7071L42.1213 39.1213C42.6839 38.5587 43 37.7956 43 37H41ZM40.7071 37.7071C40.5196 37.8946 40.2652 38 40 38V40C40.7956 40 41.5587 39.6839 42.1213 39.1213L40.7071 37.7071ZM40 38H20V40H40V38ZM20 38C19.7348 38 19.4804 37.8946 19.2929 37.7071L17.8787 39.1213C18.4413 39.6839 19.2044 40 20 40V38ZM19.2929 37.7071C19.1054 37.5196 19 37.2652 19 37H17C17 37.7956 17.3161 38.5587 17.8787 39.1213L19.2929 37.7071ZM19 37C19 36.7348 19.1054 36.4804 19.2929 36.2929L17.8787 34.8787C17.3161 35.4413 17 36.2044 17 37H19ZM19.2929 36.2929C19.4804 36.1054 19.7348 36 20 36V34C19.2044 34 18.4413 34.3161 17.8787 34.8787L19.2929 36.2929ZM20 46H40V44H20V46ZM40 46C40.2652 46 40.5196 46.1054 40.7071 46.2929L42.1213 44.8787C41.5587 44.3161 40.7956 44 40 44V46ZM40.7071 46.2929C40.8946 46.4804 41 46.7348 41 47H43C43 46.2044 42.6839 45.4413 42.1213 44.8787L40.7071 46.2929ZM41 47C41 47.2652 40.8946 47.5196 40.7071 47.7071L42.1213 49.1213C42.6839 48.5587 43 47.7956 43 47H41ZM40.7071 47.7071C40.5196 47.8946 40.2652 48 40 48V50C40.7956 50 41.5587 49.6839 42.1213 49.1213L40.7071 47.7071ZM40 48H20V50H40V48ZM20 48C19.7348 48 19.4804 47.8946 19.2929 47.7071L17.8787 49.1213C18.4413 49.6839 19.2044 50 20 50V48ZM19.2929 47.7071C19.1054 47.5196 19 47.2652 19 47H17C17 47.7956 17.3161 48.5587 17.8787 49.1213L19.2929 47.7071ZM19 47C19 46.7348 19.1054 46.4804 19.2929 46.2929L17.8787 44.8787C17.3161 45.4413 17 46.2044 17 47H19ZM19.2929 46.2929C19.4804 46.1054 19.7348 46 20 46V44C19.2044 44 18.4413 44.3161 17.8787 44.8787L19.2929 46.2929Z" fill="#10E048" mask="url(#path-2-inside-1_1870_107771)"/>
<defs>
<filter id="filter0_d_1870_107771" x="11" y="0" width="38" height="20" filterUnits="userSpaceOnUse" color-interpolation-filters="sRGB">
<feFlood flood-opacity="0" result="BackgroundImageFix"/>
<feColorMatrix in="SourceAlpha" type="matrix" values="0 0 0 0 0 0 0 0 0 0 0 0 0 0 0 0 0 0 127 0" result="hardAlpha"/>
<feOffset/>
<feGaussianBlur stdDeviation="3.5"/>
<feComposite in2="hardAlpha" operator="out"/>
<feColorMatrix type="matrix" values="0 0 0 0 0 0 0 0 0 1 0 0 0 0 0.268041 0 0 0 1 0"/>
<feBlend mode="normal" in2="BackgroundImageFix" result="effect1_dropShadow_1870_107771"/>
<feBlend mode="normal" in="SourceGraphic" in2="effect1_dropShadow_1870_107771" result="shape"/>
</filter>
</defs>
</svg>
