<svg width="35" height="35" viewBox="0 0 35 35" fill="none" xmlns="http://www.w3.org/2000/svg">
<rect x="1.5" y="1.5" width="32" height="32" rx="16" fill="white"/>
<rect x="1.5" y="1.5" width="32" height="32" rx="16" fill="url(#paint0_linear_2302_32625)"/>
<path d="M9 25L10.1906 20.776C9.42497 19.4767 9.02187 17.9985 9.02187 16.4799C9.02187 11.8041 12.83 8 17.5109 8C22.1918 8 26 11.8041 26 16.4799C26 21.1557 22.1918 24.9597 17.5109 24.9597C16.0524 24.9597 14.6242 24.5868 13.3608 23.8786L9 25ZM13.5837 22.3359L13.8436 22.4944C14.9451 23.1662 16.2133 23.5213 17.5109 23.5213C21.3978 23.5213 24.5599 20.3625 24.5599 16.4799C24.5599 12.5972 21.3978 9.43847 17.5109 9.43847C13.6241 9.43847 10.4619 12.5972 10.4619 16.4799C10.4619 17.8327 10.8468 19.1465 11.5749 20.2791L11.7499 20.5513L11.0643 22.9838L13.5837 22.3359Z" fill="white"/>
<path d="M15.9912 13.027L15.4161 13.0009C15.2355 12.9927 15.0583 13.043 14.9218 13.1418C14.643 13.3435 14.1972 13.7335 14.0603 14.2418C13.8561 14.9996 14.1717 15.9275 14.9883 16.8555C15.805 17.7835 17.3269 19.2682 20.018 19.9023C20.8852 20.1066 21.5674 19.9689 22.0938 19.6883C22.5106 19.4661 22.798 19.1095 22.9016 18.7063L22.9934 18.3489C23.0225 18.2353 22.9533 18.1201 22.8267 18.0715L20.8832 17.325C20.7571 17.2765 20.6074 17.3071 20.5226 17.3988L19.7596 18.223C19.702 18.2853 19.6033 18.3099 19.5142 18.2839C18.9917 18.1308 17.2415 17.52 16.2811 15.9785C16.2395 15.9116 16.2498 15.8305 16.3089 15.7735L17.0381 15.0705C17.1126 14.9988 17.1314 14.8978 17.0867 14.8106L16.2489 13.1774C16.2043 13.0904 16.1044 13.0321 15.9912 13.027Z" fill="white"/>
<rect x="1.5" y="1.5" width="32" height="32" rx="16" stroke="white" stroke-width="3"/>
<defs>
<linearGradient id="paint0_linear_2302_32625" x1="17.5" y1="3" x2="17.5" y2="32" gradientUnits="userSpaceOnUse">
<stop stop-color="#57D163"/>
<stop offset="1" stop-color="#23B33A"/>
</linearGradient>
</defs>
</svg>
