<svg width="60" height="60" viewBox="0 0 60 60" fill="none" xmlns="http://www.w3.org/2000/svg">
<g clip-path="url(#clip0_1870_107779)">
<path d="M12.1875 34.25H18.25V38.3921L0.5 56.141V3.75C0.5 1.95544 1.95544 0.5 3.75 0.5H15C16.7946 0.5 18.25 1.95544 18.25 3.75V7H12.1875C11.3934 7 10.75 7.64339 10.75 8.4375V10.3125C10.75 11.1066 11.3934 11.75 12.1875 11.75H18.25V18.25H12.1875C11.3934 18.25 10.75 18.8934 10.75 19.6875V21.5625C10.75 22.3566 11.3934 23 12.1875 23H18.25V29.5H12.1875C11.3934 29.5 10.75 30.1434 10.75 30.9375V32.8125C10.75 33.6066 11.3934 34.25 12.1875 34.25ZM53 47.8125V41.75H56.25C58.0446 41.75 59.5 43.2054 59.5 45V56.25C59.5 58.0446 58.0446 59.5 56.25 59.5H3.85906L21.6091 41.75H25.75V47.8125C25.75 48.6066 26.3934 49.25 27.1875 49.25H29.0625C29.8566 49.25 30.5 48.6066 30.5 47.8125V41.75H37V47.8125C37 48.6066 37.6434 49.25 38.4375 49.25H40.3125C41.1066 49.25 41.75 48.6066 41.75 47.8125V41.75H48.25V47.8125C48.25 48.6066 48.8934 49.25 49.6875 49.25H51.5625C52.3566 49.25 53 48.6066 53 47.8125Z" stroke="#10E048"/>
</g>
<defs>
<clipPath id="clip0_1870_107779">
<rect width="60" height="60" fill="white"/>
</clipPath>
</defs>
</svg>
