<svg width="60" height="60" viewBox="0 0 60 60" fill="none" xmlns="http://www.w3.org/2000/svg">
<path d="M21.7737 21.6269L21.7793 21.6215L21.7848 21.616C21.8003 21.6006 21.8125 21.5864 21.8213 21.5757C21.8258 21.5702 21.8299 21.5651 21.8334 21.5604L31.0126 13.1563C31.4738 12.7342 32.0753 12.5 32.7 12.5H40.7531C41.4181 12.5 42.0578 12.7665 42.5153 13.2318L42.5183 13.2348L47.4906 18.2071V34.9701L34.3652 24.3147L36.3845 22.4656L36.386 22.4643C37.1937 21.7187 37.2615 20.4569 36.5094 19.6405C35.7669 18.8242 34.4952 18.7795 33.6858 19.5141L33.6841 19.5157L26.245 26.331C26.2394 26.3343 26.2337 26.3378 26.2278 26.3416C26.2064 26.3553 26.1823 26.373 26.1576 26.3955C25.493 26.9866 24.6186 27.2193 23.762 27.153C22.8983 27.0863 22.1005 26.7192 21.6035 26.1752L21.6031 26.1747C20.447 24.9129 20.4271 22.8923 21.7737 21.6269ZM25.8167 12.5L19.0967 18.6531L19.0963 18.6535C16.1559 21.3522 15.9446 25.9336 18.653 28.8938L18.6533 28.8942C21.3221 31.8046 25.9032 32.0664 28.8933 29.3381L28.8941 29.3373L31.3886 27.0507L45.0492 38.1402C45.0493 38.1404 45.0495 38.1405 45.0497 38.1407C46.1207 39.0168 46.2846 40.5869 45.4086 41.6662L44.5181 42.763L44.5166 42.7647C43.652 43.8398 42.075 43.9988 41.0029 43.1308C41.0027 43.1306 41.0025 43.1304 41.0023 43.1303L40.4971 42.7186L40.1092 42.4025L39.7934 42.7907L36.8496 46.4095L36.8492 46.41C35.8145 47.6853 33.9309 47.8859 32.6561 46.8484L30.9836 45.4001L30.6317 45.0955L30.3027 45.4246L30.2839 45.4433L30.2658 45.4614L30.2497 45.4813C28.3355 47.8332 24.8792 48.1957 22.5255 46.289L14.0511 38.6199L13.9083 38.4906H13.7156H12.5V18.2074L17.4814 13.2351L17.4817 13.2348C17.9516 12.7649 18.5843 12.5 19.2469 12.5H25.8167ZM51.5 39.0094V18.5187H59.5V41.5094H54C52.6168 41.5094 51.5 40.3926 51.5 39.0094ZM53.5 37.5094C53.5 38.6105 54.3989 39.5094 55.5 39.5094C56.6011 39.5094 57.5 38.6105 57.5 37.5094C57.5 36.4082 56.6011 35.5094 55.5 35.5094C54.3989 35.5094 53.5 36.4082 53.5 37.5094ZM6 41.5H0.5V18.5187H8.5V39C8.5 40.3832 7.38323 41.5 6 41.5ZM6.5 37.5094C6.5 36.4082 5.60114 35.5094 4.5 35.5094C3.4009 35.5094 2.5 36.3968 2.5 37.5094C2.5 38.6105 3.39886 39.5094 4.5 39.5094C5.60114 39.5094 6.5 38.6105 6.5 37.5094Z" stroke="#10E048"/>
</svg>
