<svg width="58" height="58" viewBox="0 0 58 58" fill="none" xmlns="http://www.w3.org/2000/svg">
<path d="M33.2795 51.8546L26.4815 48.3499C19.6995 44.0354 13.9496 38.279 9.64001 31.4894C4.89626 24.1584 1.94413 15.8119 1.02278 7.12591C0.95264 6.34882 1.04489 5.56563 1.29365 4.8262C1.54242 4.08677 1.94225 3.40729 2.46769 2.83103C2.99313 2.25477 3.63267 1.79436 4.34558 1.4791C5.0585 1.16384 5.82918 1.00065 6.60854 0.999919H15.0293C16.3915 0.986496 17.7121 1.46942 18.745 2.35869C19.7778 3.24795 20.4525 4.48287 20.6431 5.83327C20.9985 8.53114 21.6577 11.1801 22.608 13.7296C22.9856 14.7354 22.8318 15.6776 22.608 16.7285C22.3841 17.7794 21.3978 18.5012 20.6431 19.2652L16.438 22.0753C20.4338 29.1105 30.4626 38.019 37.4899 42.0193L38.4515 40.0939C39.6721 37.6499 41.5521 34.2927 44.1089 35.2549V35.2549C46.6556 36.2062 49.3015 36.8661 51.9963 37.2219C53.3599 37.4145 54.6051 38.1021 55.4953 39.1538C56.3854 40.2056 56.8584 41.5483 56.8242 42.9264V51.3567C56.8274 52.1393 56.6673 52.9139 56.3541 53.631C56.0409 54.3481 55.5816 54.9918 55.0056 55.5208C54.4295 56.0499 53.7495 56.4527 53.0089 56.7034C52.2684 56.9542 51.4837 57.0473 50.7052 56.9768L43.1037 55.5208" stroke="#10E048" stroke-linecap="round" stroke-linejoin="round"/>
<path fill-rule="evenodd" clip-rule="evenodd" d="M34.1907 1.21821C34.2212 0.943763 34.4684 0.746022 34.7429 0.776546C40.5517 1.42259 45.9685 4.02683 50.1037 8.16152C54.2389 12.2962 56.8469 17.7156 57.4994 23.5298C57.5302 23.8042 57.3328 24.0516 57.0583 24.0824C56.7839 24.1132 56.5365 23.9158 56.5057 23.6413C55.8784 18.0523 53.3714 12.843 49.3966 8.86867C45.4219 4.89439 40.2154 2.39136 34.6323 1.77042C34.3579 1.73989 34.1601 1.49266 34.1907 1.21821ZM34.1969 12.418C34.2498 12.147 34.5124 11.9702 34.7834 12.0231C37.6228 12.5777 40.2323 13.9679 42.2778 16.0157C44.3232 18.0635 45.7118 20.6758 46.2657 23.518C46.3185 23.7891 46.1416 24.0516 45.8705 24.1044C45.5995 24.1573 45.337 23.9804 45.2841 23.7093C44.7683 21.0622 43.4751 18.6294 41.5702 16.7224C39.6654 14.8155 37.2356 13.521 34.5917 13.0046C34.3207 12.9516 34.1439 12.689 34.1969 12.418Z" fill="#10E048"/>
</svg>
