<svg width="86" height="64" viewBox="0 0 86 64" fill="none" xmlns="http://www.w3.org/2000/svg">
<g filter="url(#filter0_d_1870_110395)">
<path d="M8.875 56.5C8.51032 56.5 8.16059 56.3551 7.90273 56.0973C7.64487 55.8394 7.5 55.4897 7.5 55.125V13.875C7.5 13.5103 7.64487 13.1606 7.90273 12.9027C8.16059 12.6449 8.51033 12.5 8.875 12.5H57.625C57.9897 12.5 58.3394 12.6449 58.5973 12.9027C58.8551 13.1606 59 13.5103 59 13.875V55.125C59 55.4897 58.8551 55.8394 58.5973 56.0973C58.3394 56.3551 57.9897 56.5 57.625 56.5H8.875Z" stroke="#10E048" shape-rendering="crispEdges"/>
</g>
<g filter="url(#filter1_d_1870_110395)">
<path d="M24.3945 37.8826L24.4243 37.9123L24.4587 37.9367L27.8786 40.3593C28.0784 40.5508 28.3143 40.701 28.5726 40.8012C28.845 40.907 29.1364 40.9548 29.4283 40.9418C29.7202 40.9288 30.0062 40.8551 30.2681 40.7256C30.5255 40.5982 30.7541 40.4195 30.9396 40.2005L38.7744 31.8173L38.7841 31.8068L38.7932 31.7959C38.8967 31.6717 39.0262 31.5717 39.1729 31.5031C39.3195 31.4344 39.4795 31.3988 39.6415 31.3988C39.8036 31.3988 39.9636 31.4344 40.1102 31.5031C40.2568 31.5717 40.3864 31.6717 40.4898 31.7959L40.4902 31.7963L51.2462 44.6796C51.5181 45.0051 51.2865 45.5 50.8624 45.5H16.4163C15.9707 45.5 15.7476 44.9611 16.0629 44.6462L22.8346 37.8826C23.0413 37.6764 23.3219 37.5603 23.6146 37.5603C23.9073 37.5603 24.1878 37.6764 24.3945 37.8826ZM21.2393 28.447C21.0226 27.9254 20.911 27.3663 20.9108 26.8018C20.9104 25.6616 21.3639 24.5677 22.1717 23.7609C22.9796 22.954 24.0757 22.5004 25.219 22.5C26.3624 22.4996 27.4588 22.9526 28.2672 23.7589C29.0756 24.5651 29.5298 25.6587 29.5302 26.7989C29.5304 27.3635 29.4191 27.9226 29.2028 28.4443C28.9865 28.9661 28.6693 29.4402 28.2692 29.8397C27.8692 30.2392 27.3942 30.5563 26.8714 30.7726C26.3485 30.989 25.788 31.1005 25.2219 31.1006C24.6558 31.1008 24.0953 30.9897 23.5722 30.7737C23.0492 30.5577 22.574 30.241 22.1737 29.8418C21.7735 29.4425 21.4559 28.9686 21.2393 28.447Z" stroke="#10E048" shape-rendering="crispEdges"/>
</g>
<path fill-rule="evenodd" clip-rule="evenodd" d="M58.8845 39.5091V40.6638L68.0776 45.9714C68.3889 46.1511 68.7588 46.1998 69.106 46.1068C69.4532 46.0138 69.7493 45.7866 69.929 45.4753L84.8378 19.6525C85.0175 19.3412 85.0662 18.9713 84.9732 18.6241C84.8802 18.2768 84.653 17.9808 84.3417 17.8011L53.8238 0.181585C53.5125 0.00185517 53.1426 -0.0468493 52.7954 0.0461858C52.4482 0.139221 52.1521 0.366375 51.9724 0.677676L45.1445 12.5039H46.2992L52.8384 1.17768C52.8856 1.09606 52.9632 1.0365 53.0542 1.01211C53.1452 0.987719 53.2422 1.00049 53.3238 1.04761L83.8417 18.6671C83.9233 18.7142 83.9829 18.7918 84.0073 18.8829C84.0317 18.9739 84.0189 19.0709 83.9718 19.1525L69.063 44.9753C69.0158 45.0569 68.9382 45.1165 68.8472 45.1409C68.7562 45.1653 68.6592 45.1525 68.5776 45.1054L58.8845 39.5091ZM58.8845 18.8208C59.1298 18.8088 59.3737 18.7709 59.6121 18.7072C60.0528 18.5894 60.4657 18.386 60.8274 18.1087C61.1892 17.8313 61.4925 17.4854 61.7202 17.0907C62.1801 16.2936 62.3039 15.346 62.0643 14.4566C61.8247 13.5671 61.2414 12.8085 60.4427 12.3478C59.644 11.887 58.6954 11.7618 57.8054 11.9996C57.4129 12.1045 57.0459 12.2763 56.7189 12.5039H57.0095C57.4468 12.5039 57.8684 12.6567 58.2029 12.9327C58.7954 12.8106 59.415 12.9094 59.943 13.214C60.5125 13.5425 60.9281 14.0832 61.0987 14.7167C61.2693 15.35 61.1811 16.0241 60.854 16.591C60.6921 16.8717 60.4763 17.1178 60.219 17.3151C59.9616 17.5124 59.6677 17.6572 59.3539 17.7411C59.2 17.7822 59.0428 17.8083 58.8845 17.8192V18.8208ZM58.8845 31.4803L67.3085 36.3439C68.0431 36.7681 68.9389 36.1425 68.7937 35.3067L66.8181 23.9379C66.7892 23.7705 66.7238 23.6114 66.6265 23.472C66.5292 23.3326 66.4024 23.2162 66.2551 23.1312C66.1079 23.0462 65.9437 22.9945 65.7743 22.98C65.6049 22.9654 65.4345 22.9883 65.275 23.047L58.8845 24.9931V26.0384L65.5664 24.0036L65.5937 23.9953L65.6205 23.9854C65.6421 23.9775 65.6654 23.9743 65.6887 23.9763C65.712 23.9783 65.7347 23.9854 65.7551 23.9972C65.7756 24.009 65.7931 24.0251 65.8065 24.0443C65.8199 24.0635 65.8288 24.0853 65.8327 24.1079L65.8329 24.1091L67.8085 35.4779L58.8845 30.3256V31.4803Z" fill="#10E048"/>
<defs>
<filter id="filter0_d_1870_110395" x="0" y="5" width="66.5" height="59" filterUnits="userSpaceOnUse" color-interpolation-filters="sRGB">
<feFlood flood-opacity="0" result="BackgroundImageFix"/>
<feColorMatrix in="SourceAlpha" type="matrix" values="0 0 0 0 0 0 0 0 0 0 0 0 0 0 0 0 0 0 127 0" result="hardAlpha"/>
<feOffset/>
<feGaussianBlur stdDeviation="3.5"/>
<feComposite in2="hardAlpha" operator="out"/>
<feColorMatrix type="matrix" values="0 0 0 0 0 0 0 0 0 1 0 0 0 0 0.268041 0 0 0 1 0"/>
<feBlend mode="normal" in2="BackgroundImageFix" result="effect1_dropShadow_1870_110395"/>
<feBlend mode="normal" in="SourceGraphic" in2="effect1_dropShadow_1870_110395" result="shape"/>
</filter>
<filter id="filter1_d_1870_110395" x="8.41406" y="15" width="50.4492" height="38" filterUnits="userSpaceOnUse" color-interpolation-filters="sRGB">
<feFlood flood-opacity="0" result="BackgroundImageFix"/>
<feColorMatrix in="SourceAlpha" type="matrix" values="0 0 0 0 0 0 0 0 0 0 0 0 0 0 0 0 0 0 127 0" result="hardAlpha"/>
<feOffset/>
<feGaussianBlur stdDeviation="3.5"/>
<feComposite in2="hardAlpha" operator="out"/>
<feColorMatrix type="matrix" values="0 0 0 0 0 0 0 0 0 1 0 0 0 0 0.268041 0 0 0 1 0"/>
<feBlend mode="normal" in2="BackgroundImageFix" result="effect1_dropShadow_1870_110395"/>
<feBlend mode="normal" in="SourceGraphic" in2="effect1_dropShadow_1870_110395" result="shape"/>
</filter>
</defs>
</svg>
