<svg width="60" height="60" viewBox="0 0 60 60" fill="none" xmlns="http://www.w3.org/2000/svg">
<path d="M35.5 41H37.552L38.8975 39.4508C39.9745 38.2107 41.5149 36.2082 43.0652 33.7295C44.6367 31.217 45.8654 28.736 46.6343 26.3064C47.1967 24.5291 47.5 22.8144 47.5 21.1528C47.5 11.9343 39.8685 4.5 30.5 4.5C21.1315 4.5 13.5 11.9343 13.5 21.1528C13.5 23.578 14.4592 26.3352 16.2183 29.8074C16.7098 30.7774 17.2566 31.7816 17.8502 32.8125C18.7162 34.3166 19.6383 35.8041 20.561 37.2162C21.1176 38.0681 21.5546 38.711 21.8145 39.0821L23.1582 41H25.5H35.5ZM35.5 48.5C36.6046 48.5 37.5 47.6046 37.5 46.5C37.5 45.3954 36.6046 44.5 35.5 44.5H25.5C24.3954 44.5 23.5 45.3954 23.5 46.5C23.5 47.6046 24.3954 48.5 25.5 48.5H35.5ZM33 56C34.1046 56 35 55.1046 35 54C35 52.8954 34.1046 52 33 52H28C26.8954 52 26 52.8954 26 54C26 55.1046 26.8954 56 28 56H33Z" stroke="#10E048"/>
<path d="M38.3649 14.1139C37.4304 13.6467 36.5387 13.5 35.875 13.5C35.1156 13.5 34.5 14.1156 34.5 14.875C34.5 15.6344 35.1156 16.25 35.875 16.25C36.1544 16.25 36.668 16.3401 37.1351 16.5736C37.4781 16.7451 37.7761 16.9822 37.9775 17.3466C38.1734 17.7011 38.25 18.1263 38.25 18.625C38.25 19.3844 38.8656 20 39.625 20C40.3844 20 41 19.3844 41 18.625C41 16.4311 39.9762 14.9196 38.3649 14.1139Z" stroke="#10E048"/>
</svg>
