<svg width="60" height="60" viewBox="0 0 60 60" fill="none" xmlns="http://www.w3.org/2000/svg">
<path d="M32.3415 52.1825L32.3416 52.1824L32.3613 52.1687C32.5422 52.043 32.7098 51.9265 32.8608 51.8446C33.028 51.7539 33.217 51.6812 33.4419 51.6812C33.6668 51.6812 33.8558 51.7539 34.023 51.8446C34.1742 51.9267 34.342 52.0433 34.5229 52.1692L34.542 52.1825L40.2573 56.1564C40.2573 56.1564 40.2573 56.1564 40.2573 56.1564C40.7744 56.5158 41.1145 56.7507 41.3724 56.8777C41.4969 56.939 41.5687 56.9575 41.6054 56.9617C41.6148 56.9627 41.6205 56.9627 41.6233 56.9625C41.6235 56.9625 41.6238 56.9625 41.624 56.9624C41.624 56.9624 41.6241 56.9624 41.6242 56.9623C41.6243 56.9623 41.6243 56.9622 41.6244 56.9622L32.3415 52.1825ZM32.3415 52.1825L25.1574 57.1776C24.9508 57.3213 24.8288 57.4052 24.7322 57.4575C24.6883 57.4814 24.6618 57.4917 24.6469 57.4962C24.6346 57.5 24.6299 57.5 24.628 57.5H24.6279H24.6278C24.6259 57.5 24.6212 57.5 24.6089 57.4962C24.594 57.4917 24.5676 57.4814 24.5236 57.4575C24.4271 57.4052 24.3051 57.3213 24.0985 57.1777C24.0985 57.1776 24.0985 57.1776 24.0985 57.1776L16.9143 52.1825L16.9142 52.1824M32.3415 52.1825L16.9142 52.1824M16.9142 52.1824L16.8951 52.1691C16.7141 52.0433 16.5463 51.9266 16.3951 51.8446C16.2278 51.7539 16.0389 51.6812 15.814 51.6812C15.5891 51.6812 15.4001 51.7539 15.2329 51.8446C15.0817 51.9266 14.9139 52.0433 14.7329 52.1691L14.7137 52.1824L14.7137 52.1825M16.9142 52.1824L14.7137 52.1825M14.7137 52.1825L8.99843 56.1564C8.99843 56.1564 8.99842 56.1564 8.99841 56.1564C8.48137 56.5158 8.14121 56.7507 7.8834 56.8777C7.75887 56.939 7.68711 56.9575 7.65042 56.9617C7.64036 56.9628 7.63455 56.9626 7.63205 56.9625C7.63195 56.9624 7.63184 56.9623 7.63173 56.9623C7.63036 56.9615 7.62969 56.9611 7.62915 56.9606C7.6288 56.9603 7.62851 56.96 7.62812 56.9595C7.62663 56.9579 7.62023 56.9506 7.61096 56.932C7.59025 56.8905 7.56407 56.8114 7.54354 56.6666C7.50122 56.368 7.5 55.9384 7.5 55.2919V15.2566C7.5 12.3541 7.50098 10.2255 7.71103 8.59611C7.91949 6.97901 8.32601 5.92937 9.08195 5.14096C9.83504 4.35553 10.8331 3.93556 12.3738 3.71952C13.9312 3.50115 15.9673 3.5 18.752 3.5H49.4748L14.7137 52.1825Z" stroke="#10E048"/>
<path d="M47.5368 3.61328H51.0002C52.657 3.61328 54.0002 4.95643 54.0002 6.61328V8.51581V18.3212C54.0002 20.0135 52.6849 21.3854 51.0623 21.3854H41.3672" stroke="#10E048"/>
<path d="M14.3438 22.918H34.9091" stroke="#10E048" stroke-linecap="round"/>
<path d="M14.3438 32.1094H26.0954" stroke="#10E048" stroke-linecap="round"/>
<path d="M14.3438 41.3008H31.9712" stroke="#10E048" stroke-linecap="round"/>
</svg>
