<svg width="70" height="61" viewBox="0 0 70 61" fill="none" xmlns="http://www.w3.org/2000/svg">
<g filter="url(#filter0_d_1870_110413)">
<path d="M9.5346 53.5C9.14575 53.5 8.77314 53.346 8.49865 53.0723C8.22422 52.7987 8.07031 52.428 8.07031 52.0417V8.95833C8.07031 8.57205 8.22422 8.20128 8.49865 7.92767C8.77315 7.65401 9.14576 7.5 9.5346 7.5H60.606C60.9949 7.5 61.3675 7.65401 61.642 7.92767C61.9164 8.20128 62.0703 8.57205 62.0703 8.95833V52.0417C62.0703 52.428 61.9164 52.7987 61.642 53.0723C61.3675 53.346 60.9949 53.5 60.606 53.5H9.5346Z" stroke="#10E048" shape-rendering="crispEdges"/>
</g>
<g filter="url(#filter1_d_1870_110413)">
<path d="M26.2601 34.1976L26.2309 34.1669C26.0141 33.9384 25.7259 33.8154 25.4314 33.8154C25.137 33.8154 24.8489 33.9384 24.6321 34.1667L26.2601 34.1976ZM26.2601 34.1976L26.294 34.2231L29.8028 36.8484C30.0055 37.0539 30.2465 37.2166 30.5124 37.3257C30.7925 37.4405 31.0931 37.4928 31.3949 37.4786C31.6966 37.4644 31.9912 37.384 32.2597 37.2437C32.5238 37.1057 32.7562 36.913 32.9436 36.6793L40.9797 27.5969L40.9891 27.5862L40.9979 27.5751C41.1072 27.4365 41.2425 27.327 41.3928 27.2526C41.5431 27.1783 41.7057 27.1404 41.8693 27.1404C42.033 27.1404 42.1955 27.1783 42.3458 27.2526C42.4962 27.327 42.6315 27.4365 42.7408 27.5751L42.7411 27.5756L53.8975 41.6899C54.1566 42.0178 53.9231 42.5 53.5052 42.5H17.896C17.457 42.5 17.2311 41.9747 17.5332 41.656L24.632 34.1669L26.2601 34.1976ZM31.1712 24.0061L31.6366 24.1888L31.1712 24.0061C30.9466 24.5784 30.6178 25.0968 30.205 25.5323C29.7922 25.9678 29.3035 26.3118 28.7675 26.546C28.2317 26.7802 27.6583 26.9005 27.08 26.9007C26.5016 26.9009 25.9281 26.781 25.3922 26.5472C24.8561 26.3134 24.3672 25.9697 23.9541 25.5345C23.541 25.0993 23.2119 24.5812 22.9869 24.009C22.7619 23.4369 22.6457 22.8227 22.6455 22.2019C22.6451 20.947 23.1178 19.7484 23.952 18.8684C24.7854 17.9892 25.9101 17.5004 27.077 17.5C28.244 17.4996 29.369 17.9876 30.2029 18.8661C31.0376 19.7456 31.5111 20.9439 31.5115 22.1988C31.5117 22.8196 31.3959 23.4338 31.1712 24.0061Z" stroke="#10E048" shape-rendering="crispEdges"/>
</g>
<path d="M45.162 57V47.2H46.975V51.085H51.119V47.2H52.932V57H51.119V52.814H46.975V57H45.162ZM54.8045 57V47.2H58.1085C58.9578 47.2 59.6812 47.34 60.2785 47.62C60.8758 47.8953 61.3588 48.2687 61.7275 48.74C62.1008 49.2067 62.3715 49.7317 62.5395 50.315C62.7122 50.8937 62.7985 51.4887 62.7985 52.1C62.7985 52.66 62.7168 53.227 62.5535 53.801C62.3948 54.375 62.1335 54.9047 61.7695 55.39C61.4055 55.8707 60.9178 56.2603 60.3065 56.559C59.6998 56.853 58.9485 57 58.0525 57H54.8045ZM56.6175 55.278H58.2415C58.7408 55.278 59.1608 55.1847 59.5015 54.998C59.8422 54.8067 60.1152 54.557 60.3205 54.249C60.5305 53.9363 60.6822 53.5933 60.7755 53.22C60.8735 52.842 60.9225 52.4687 60.9225 52.1C60.9225 51.708 60.8735 51.323 60.7755 50.945C60.6775 50.567 60.5258 50.224 60.3205 49.916C60.1152 49.608 59.8538 49.363 59.5365 49.181C59.2192 48.999 58.8388 48.908 58.3955 48.908H56.6175V55.278Z" fill="#10E048"/>
<path d="M45.162 57H42.162V60H45.162V57ZM45.162 47.2V44.2H42.162V47.2H45.162ZM46.975 47.2H49.975V44.2H46.975V47.2ZM46.975 51.085H43.975V54.085H46.975V51.085ZM51.119 51.085V54.085H54.119V51.085H51.119ZM51.119 47.2V44.2H48.119V47.2H51.119ZM52.932 47.2H55.932V44.2H52.932V47.2ZM52.932 57V60H55.932V57H52.932ZM51.119 57H48.119V60H51.119V57ZM51.119 52.814H54.119V49.814H51.119V52.814ZM46.975 52.814V49.814H43.975V52.814H46.975ZM46.975 57V60H49.975V57H46.975ZM48.162 57V47.2H42.162V57H48.162ZM45.162 50.2H46.975V44.2H45.162V50.2ZM43.975 47.2V51.085H49.975V47.2H43.975ZM46.975 54.085H51.119V48.085H46.975V54.085ZM54.119 51.085V47.2H48.119V51.085H54.119ZM51.119 50.2H52.932V44.2H51.119V50.2ZM49.932 47.2V57H55.932V47.2H49.932ZM52.932 54H51.119V60H52.932V54ZM54.119 57V52.814H48.119V57H54.119ZM51.119 49.814H46.975V55.814H51.119V49.814ZM43.975 52.814V57H49.975V52.814H43.975ZM46.975 54H45.162V60H46.975V54ZM54.8045 57H51.8045V60H54.8045V57ZM54.8045 47.2V44.2H51.8045V47.2H54.8045ZM60.2785 47.62L59.0052 50.3364L59.0139 50.3405L59.0227 50.3445L60.2785 47.62ZM61.7275 48.74L59.3645 50.5883L59.3746 50.6012L59.3849 50.6141L61.7275 48.74ZM62.5395 50.315L59.6567 51.1453L59.6606 51.159L59.6647 51.1728L62.5395 50.315ZM62.5535 53.801L59.668 52.9799L59.665 52.9908L59.6619 53.0017L62.5535 53.801ZM61.7695 55.39L64.1611 57.2011L64.1695 57.19L61.7695 55.39ZM60.3065 56.559L61.6148 59.2587L61.6234 59.2545L60.3065 56.559ZM56.6175 55.278H53.6175V58.278H56.6175V55.278ZM59.5015 54.998L60.9431 57.6289L60.9569 57.6214L60.9706 57.6137L59.5015 54.998ZM60.3205 54.249L57.8301 52.5763L57.8244 52.5849L60.3205 54.249ZM60.7755 53.22L57.8715 52.4671L57.8682 52.4797L57.8651 52.4924L60.7755 53.22ZM60.7755 50.945L63.6795 50.1921V50.1921L60.7755 50.945ZM60.3205 49.916L62.8167 48.2519L62.8167 48.2519L60.3205 49.916ZM59.5365 49.181L61.029 46.5786L61.029 46.5786L59.5365 49.181ZM56.6175 48.908V45.908H53.6175V48.908H56.6175ZM57.8045 57V47.2H51.8045V57H57.8045ZM54.8045 50.2H58.1085V44.2H54.8045V50.2ZM58.1085 50.2C58.6396 50.2 58.9037 50.2888 59.0052 50.3364L61.5518 44.9036C60.4587 44.3912 59.2761 44.2 58.1085 44.2V50.2ZM59.0227 50.3445C59.2303 50.4402 59.3182 50.5292 59.3645 50.5883L64.0905 46.8917C63.3994 46.0082 62.5214 45.3505 61.5343 44.8955L59.0227 50.3445ZM59.3849 50.6141C59.5071 50.7669 59.5964 50.9359 59.6567 51.1453L65.4223 49.4847C65.1466 48.5274 64.6945 47.6465 64.0701 46.8659L59.3849 50.6141ZM59.6647 51.1728C59.7533 51.4696 59.7985 51.7755 59.7985 52.1H65.7985C65.7985 51.2018 65.671 50.3177 65.4143 49.4572L59.6647 51.1728ZM59.7985 52.1C59.7985 52.3647 59.7604 52.6555 59.668 52.9799L65.439 54.6221C65.6733 53.7985 65.7985 52.9553 65.7985 52.1H59.7985ZM59.6619 53.0017C59.6051 53.2075 59.5129 53.3989 59.3695 53.59L64.1695 57.19C64.7541 56.4105 65.1846 55.5425 65.4451 54.6003L59.6619 53.0017ZM59.3779 53.5789C59.3325 53.6388 59.2331 53.7445 58.9896 53.8635L61.6234 59.2545C62.6026 58.7761 63.4785 58.1025 64.1611 57.2011L59.3779 53.5789ZM58.9982 53.8593C58.9106 53.9018 58.6377 54 58.0525 54V60C59.2593 60 60.4891 59.8042 61.6148 59.2587L58.9982 53.8593ZM58.0525 54H54.8045V60H58.0525V54ZM56.6175 58.278H58.2415V52.278H56.6175V58.278ZM58.2415 58.278C59.1045 58.278 60.052 58.1172 60.9431 57.6289L58.0599 52.3671C58.2696 52.2521 58.3771 52.278 58.2415 52.278V58.278ZM60.9706 57.6137C61.7003 57.2038 62.3342 56.6367 62.8167 55.9131L57.8244 52.5849C57.856 52.5374 57.8947 52.4922 57.9371 52.4534C57.9791 52.4151 58.014 52.3927 58.0324 52.3823L60.9706 57.6137ZM62.8109 55.9217C63.2188 55.3144 63.5102 54.6505 63.6859 53.9476L57.8651 52.4924C57.8541 52.5362 57.8422 52.5583 57.8301 52.5763L62.8109 55.9217ZM63.6795 53.9729C63.8375 53.3635 63.9225 52.7373 63.9225 52.1H57.9225C57.9225 52.2001 57.9095 52.3205 57.8715 52.4671L63.6795 53.9729ZM63.9225 52.1C63.9225 51.455 63.8415 50.817 63.6795 50.1921L57.8715 51.6979C57.9055 51.829 57.9225 51.961 57.9225 52.1H63.9225ZM63.6795 50.1921C63.502 49.5077 63.2179 48.8537 62.8167 48.2519L57.8243 51.5801C57.8338 51.5943 57.853 51.6263 57.8715 51.6979L63.6795 50.1921ZM62.8167 48.2519C62.357 47.5625 61.7539 46.9944 61.029 46.5786L58.044 51.7834C58.0051 51.7611 57.9613 51.7299 57.9187 51.6899C57.8761 51.65 57.8449 51.611 57.8244 51.5801L62.8167 48.2519ZM61.029 46.5786C60.1702 46.0861 59.2519 45.908 58.3955 45.908V51.908C58.4258 51.908 58.2681 51.9119 58.044 51.7834L61.029 46.5786ZM58.3955 45.908H56.6175V51.908H58.3955V45.908ZM53.6175 48.908V55.278H59.6175V48.908H53.6175Z" fill="#5D5D5D"/>
<defs>
<filter id="filter0_d_1870_110413" x="0.570312" y="0" width="69" height="61" filterUnits="userSpaceOnUse" color-interpolation-filters="sRGB">
<feFlood flood-opacity="0" result="BackgroundImageFix"/>
<feColorMatrix in="SourceAlpha" type="matrix" values="0 0 0 0 0 0 0 0 0 0 0 0 0 0 0 0 0 0 127 0" result="hardAlpha"/>
<feOffset/>
<feGaussianBlur stdDeviation="3.5"/>
<feComposite in2="hardAlpha" operator="out"/>
<feColorMatrix type="matrix" values="0 0 0 0 0 0 0 0 0 1 0 0 0 0 0.268041 0 0 0 1 0"/>
<feBlend mode="normal" in2="BackgroundImageFix" result="effect1_dropShadow_1870_110413"/>
<feBlend mode="normal" in="SourceGraphic" in2="effect1_dropShadow_1870_110413" result="shape"/>
</filter>
<filter id="filter1_d_1870_110413" x="9.89453" y="10" width="51.6133" height="40" filterUnits="userSpaceOnUse" color-interpolation-filters="sRGB">
<feFlood flood-opacity="0" result="BackgroundImageFix"/>
<feColorMatrix in="SourceAlpha" type="matrix" values="0 0 0 0 0 0 0 0 0 0 0 0 0 0 0 0 0 0 127 0" result="hardAlpha"/>
<feOffset/>
<feGaussianBlur stdDeviation="3.5"/>
<feComposite in2="hardAlpha" operator="out"/>
<feColorMatrix type="matrix" values="0 0 0 0 0 0 0 0 0 1 0 0 0 0 0.268041 0 0 0 1 0"/>
<feBlend mode="normal" in2="BackgroundImageFix" result="effect1_dropShadow_1870_110413"/>
<feBlend mode="normal" in="SourceGraphic" in2="effect1_dropShadow_1870_110413" result="shape"/>
</filter>
</defs>
</svg>
