<svg width="60" height="74" viewBox="0 0 60 74" fill="none" xmlns="http://www.w3.org/2000/svg">
<g filter="url(#filter0_d_2235_126815)">
<path d="M8.5 64V14C8.5 11.5147 10.5147 9.5 13 9.5C13.2761 9.5 13.5 9.72386 13.5 10V14.5C13.5 15.8807 14.6193 17 16 17H44C45.3807 17 46.5 15.8807 46.5 14.5V10C46.5 9.72386 46.7239 9.5 47 9.5C49.4853 9.5 51.5 11.5147 51.5 14V54.5C51.5 54.7761 51.2761 55 51 55H43C41.067 55 39.5 56.567 39.5 58.5V66C39.5 66.2761 39.2761 66.5 39 66.5H11C9.61929 66.5 8.5 65.3807 8.5 64Z" stroke="#10E048" shape-rendering="crispEdges"/>
</g>
<g filter="url(#filter1_d_2235_126815)">
<rect x="17.5" y="24.5" width="25" height="5" rx="2.5" stroke="#10E048" shape-rendering="crispEdges"/>
</g>
<g filter="url(#filter2_d_2235_126815)">
<rect x="17.5" y="34.5" width="25" height="5" rx="2.5" stroke="#10E048" shape-rendering="crispEdges"/>
</g>
<g filter="url(#filter3_d_2235_126815)">
<rect x="17.5" y="44.5" width="25" height="5" rx="2.5" stroke="#10E048" shape-rendering="crispEdges"/>
</g>
<g filter="url(#filter4_d_2235_126815)">
<path d="M44.5 59.5H50.7929L44.5 65.7929V59.5Z" stroke="#10E048" shape-rendering="crispEdges"/>
</g>
<g filter="url(#filter5_d_2235_126815)">
<path d="M38 9.5H41.5V12.5H18.5V9.5H22H22.5V9V8C22.5 7.72386 22.7239 7.5 23 7.5H37C37.2761 7.5 37.5 7.72386 37.5 8V9V9.5H38Z" stroke="#10E048" shape-rendering="crispEdges"/>
</g>
<defs>
<filter id="filter0_d_2235_126815" x="1" y="2" width="58" height="72" filterUnits="userSpaceOnUse" color-interpolation-filters="sRGB">
<feFlood flood-opacity="0" result="BackgroundImageFix"/>
<feColorMatrix in="SourceAlpha" type="matrix" values="0 0 0 0 0 0 0 0 0 0 0 0 0 0 0 0 0 0 127 0" result="hardAlpha"/>
<feOffset/>
<feGaussianBlur stdDeviation="3.5"/>
<feComposite in2="hardAlpha" operator="out"/>
<feColorMatrix type="matrix" values="0 0 0 0 0 0 0 0 0 1 0 0 0 0 0.268041 0 0 0 1 0"/>
<feBlend mode="normal" in2="BackgroundImageFix" result="effect1_dropShadow_2235_126815"/>
<feBlend mode="normal" in="SourceGraphic" in2="effect1_dropShadow_2235_126815" result="shape"/>
</filter>
<filter id="filter1_d_2235_126815" x="10" y="17" width="40" height="20" filterUnits="userSpaceOnUse" color-interpolation-filters="sRGB">
<feFlood flood-opacity="0" result="BackgroundImageFix"/>
<feColorMatrix in="SourceAlpha" type="matrix" values="0 0 0 0 0 0 0 0 0 0 0 0 0 0 0 0 0 0 127 0" result="hardAlpha"/>
<feOffset/>
<feGaussianBlur stdDeviation="3.5"/>
<feComposite in2="hardAlpha" operator="out"/>
<feColorMatrix type="matrix" values="0 0 0 0 0 0 0 0 0 1 0 0 0 0 0.268041 0 0 0 1 0"/>
<feBlend mode="normal" in2="BackgroundImageFix" result="effect1_dropShadow_2235_126815"/>
<feBlend mode="normal" in="SourceGraphic" in2="effect1_dropShadow_2235_126815" result="shape"/>
</filter>
<filter id="filter2_d_2235_126815" x="10" y="27" width="40" height="20" filterUnits="userSpaceOnUse" color-interpolation-filters="sRGB">
<feFlood flood-opacity="0" result="BackgroundImageFix"/>
<feColorMatrix in="SourceAlpha" type="matrix" values="0 0 0 0 0 0 0 0 0 0 0 0 0 0 0 0 0 0 127 0" result="hardAlpha"/>
<feOffset/>
<feGaussianBlur stdDeviation="3.5"/>
<feComposite in2="hardAlpha" operator="out"/>
<feColorMatrix type="matrix" values="0 0 0 0 0 0 0 0 0 1 0 0 0 0 0.268041 0 0 0 1 0"/>
<feBlend mode="normal" in2="BackgroundImageFix" result="effect1_dropShadow_2235_126815"/>
<feBlend mode="normal" in="SourceGraphic" in2="effect1_dropShadow_2235_126815" result="shape"/>
</filter>
<filter id="filter3_d_2235_126815" x="10" y="37" width="40" height="20" filterUnits="userSpaceOnUse" color-interpolation-filters="sRGB">
<feFlood flood-opacity="0" result="BackgroundImageFix"/>
<feColorMatrix in="SourceAlpha" type="matrix" values="0 0 0 0 0 0 0 0 0 0 0 0 0 0 0 0 0 0 127 0" result="hardAlpha"/>
<feOffset/>
<feGaussianBlur stdDeviation="3.5"/>
<feComposite in2="hardAlpha" operator="out"/>
<feColorMatrix type="matrix" values="0 0 0 0 0 0 0 0 0 1 0 0 0 0 0.268041 0 0 0 1 0"/>
<feBlend mode="normal" in2="BackgroundImageFix" result="effect1_dropShadow_2235_126815"/>
<feBlend mode="normal" in="SourceGraphic" in2="effect1_dropShadow_2235_126815" result="shape"/>
</filter>
<filter id="filter4_d_2235_126815" x="37" y="52" width="22" height="22" filterUnits="userSpaceOnUse" color-interpolation-filters="sRGB">
<feFlood flood-opacity="0" result="BackgroundImageFix"/>
<feColorMatrix in="SourceAlpha" type="matrix" values="0 0 0 0 0 0 0 0 0 0 0 0 0 0 0 0 0 0 127 0" result="hardAlpha"/>
<feOffset/>
<feGaussianBlur stdDeviation="3.5"/>
<feComposite in2="hardAlpha" operator="out"/>
<feColorMatrix type="matrix" values="0 0 0 0 0 0 0 0 0 1 0 0 0 0 0.268041 0 0 0 1 0"/>
<feBlend mode="normal" in2="BackgroundImageFix" result="effect1_dropShadow_2235_126815"/>
<feBlend mode="normal" in="SourceGraphic" in2="effect1_dropShadow_2235_126815" result="shape"/>
</filter>
<filter id="filter5_d_2235_126815" x="11" y="0" width="38" height="20" filterUnits="userSpaceOnUse" color-interpolation-filters="sRGB">
<feFlood flood-opacity="0" result="BackgroundImageFix"/>
<feColorMatrix in="SourceAlpha" type="matrix" values="0 0 0 0 0 0 0 0 0 0 0 0 0 0 0 0 0 0 127 0" result="hardAlpha"/>
<feOffset/>
<feGaussianBlur stdDeviation="3.5"/>
<feComposite in2="hardAlpha" operator="out"/>
<feColorMatrix type="matrix" values="0 0 0 0 0 0 0 0 0 1 0 0 0 0 0.268041 0 0 0 1 0"/>
<feBlend mode="normal" in2="BackgroundImageFix" result="effect1_dropShadow_2235_126815"/>
<feBlend mode="normal" in="SourceGraphic" in2="effect1_dropShadow_2235_126815" result="shape"/>
</filter>
</defs>
</svg>
