<svg width="60" height="71" viewBox="0 0 60 71" fill="none" xmlns="http://www.w3.org/2000/svg">
<g filter="url(#filter0_d_2235_126825)">
<path d="M47.5 26.414V63.5H21C15.7533 63.5 11.5 59.2467 11.5 54V19.2177L12.5887 20.3199C16.4402 24.2193 21.6928 26.414 27.1736 26.414H47.5Z" stroke="#10E048" shape-rendering="crispEdges"/>
</g>
<g filter="url(#filter1_d_2235_126825)">
<path d="M37.7059 14.5C37.7059 16.3051 36.3726 18.0464 33.9803 19.3654C31.6057 20.6747 28.2913 21.5 24.6029 21.5C20.9146 21.5 17.6002 20.6747 15.2256 19.3654C12.8333 18.0464 11.5 16.3051 11.5 14.5C11.5 12.6949 12.8333 10.9536 15.2256 9.63456C17.6002 8.32534 20.9146 7.5 24.6029 7.5C28.2913 7.5 31.6057 8.32534 33.9803 9.63456C36.3726 10.9536 37.7059 12.6949 37.7059 14.5Z" stroke="#10E048" shape-rendering="crispEdges"/>
</g>
<g filter="url(#filter2_d_2235_126825)">
<path d="M32.2633 14.5C32.2633 15.4599 31.5002 16.454 29.9838 17.2378C28.4929 18.0085 26.3984 18.5 24.0574 18.5C21.7165 18.5 19.622 18.0085 18.131 17.2378C16.6147 16.454 15.8516 15.4599 15.8516 14.5C15.8516 13.5401 16.6147 12.546 18.131 11.7622C19.622 10.9915 21.7165 10.5 24.0574 10.5C26.3984 10.5 28.4929 10.9915 29.9838 11.7622C31.5002 12.546 32.2633 13.5401 32.2633 14.5Z" stroke="#10E048" shape-rendering="crispEdges"/>
</g>
<defs>
<filter id="filter0_d_2235_126825" x="4" y="11" width="51" height="60" filterUnits="userSpaceOnUse" color-interpolation-filters="sRGB">
<feFlood flood-opacity="0" result="BackgroundImageFix"/>
<feColorMatrix in="SourceAlpha" type="matrix" values="0 0 0 0 0 0 0 0 0 0 0 0 0 0 0 0 0 0 127 0" result="hardAlpha"/>
<feOffset/>
<feGaussianBlur stdDeviation="3.5"/>
<feComposite in2="hardAlpha" operator="out"/>
<feColorMatrix type="matrix" values="0 0 0 0 0 0 0 0 0 1 0 0 0 0 0.268041 0 0 0 1 0"/>
<feBlend mode="normal" in2="BackgroundImageFix" result="effect1_dropShadow_2235_126825"/>
<feBlend mode="normal" in="SourceGraphic" in2="effect1_dropShadow_2235_126825" result="shape"/>
</filter>
<filter id="filter1_d_2235_126825" x="4" y="0" width="41.2031" height="29" filterUnits="userSpaceOnUse" color-interpolation-filters="sRGB">
<feFlood flood-opacity="0" result="BackgroundImageFix"/>
<feColorMatrix in="SourceAlpha" type="matrix" values="0 0 0 0 0 0 0 0 0 0 0 0 0 0 0 0 0 0 127 0" result="hardAlpha"/>
<feOffset/>
<feGaussianBlur stdDeviation="3.5"/>
<feComposite in2="hardAlpha" operator="out"/>
<feColorMatrix type="matrix" values="0 0 0 0 0 0 0 0 0 1 0 0 0 0 0.268041 0 0 0 1 0"/>
<feBlend mode="normal" in2="BackgroundImageFix" result="effect1_dropShadow_2235_126825"/>
<feBlend mode="normal" in="SourceGraphic" in2="effect1_dropShadow_2235_126825" result="shape"/>
</filter>
<filter id="filter2_d_2235_126825" x="8.35156" y="3" width="31.4141" height="23" filterUnits="userSpaceOnUse" color-interpolation-filters="sRGB">
<feFlood flood-opacity="0" result="BackgroundImageFix"/>
<feColorMatrix in="SourceAlpha" type="matrix" values="0 0 0 0 0 0 0 0 0 0 0 0 0 0 0 0 0 0 127 0" result="hardAlpha"/>
<feOffset/>
<feGaussianBlur stdDeviation="3.5"/>
<feComposite in2="hardAlpha" operator="out"/>
<feColorMatrix type="matrix" values="0 0 0 0 0 0 0 0 0 1 0 0 0 0 0.268041 0 0 0 1 0"/>
<feBlend mode="normal" in2="BackgroundImageFix" result="effect1_dropShadow_2235_126825"/>
<feBlend mode="normal" in="SourceGraphic" in2="effect1_dropShadow_2235_126825" result="shape"/>
</filter>
</defs>
</svg>
