<svg width="32" height="33" viewBox="0 0 32 33" fill="none" xmlns="http://www.w3.org/2000/svg">
<path fill-rule="evenodd" clip-rule="evenodd" d="M27.5994 24.9797C27.5106 24.9447 27.4163 24.9255 27.3209 24.9232C27.1359 24.9232 10.7032 25.1507 4.80362 25.5418C3.11276 23.4546 2.04054 20.9358 1.70842 18.2708C1.3763 15.6058 1.79755 12.9012 2.92445 10.4632C4.05136 8.0252 5.83887 5.95135 8.08449 4.47656C10.3301 3.00178 12.9441 2.18502 15.6303 2.11879C18.3166 2.05256 20.9677 2.73952 23.2833 4.10184C25.599 5.46417 27.4866 7.44741 28.7324 9.82689C29.9782 12.2064 30.5324 14.887 30.3322 17.5651C30.1319 20.2432 29.1853 22.8117 27.5994 24.9797ZM18.2717 4.95052C11.2326 6.52532 6.95015 12.6744 5.88811 22.7318C5.84223 23.1651 5.7853 23.704 6.48598 23.8441C6.54567 23.8565 6.60645 23.8629 6.66743 23.8632C7.25316 23.8627 7.42222 23.2204 7.49842 22.9309L7.4986 22.9302C9.65944 14.7218 13.1162 9.81448 17.7772 8.33792L17.7743 9.06458C17.7639 11.6525 17.7375 18.2033 17.7258 20.6935C17.6609 21.1902 17.7294 21.6952 17.9243 22.1567C18.1191 22.6183 18.4334 23.0196 18.8347 23.3197C19.5439 23.6982 20.3429 23.8765 21.1459 23.8353C21.9204 23.8279 22.6921 23.741 23.4488 23.5761C25.2629 23.1524 26.0044 22.8426 26.1858 22.4325C26.2172 22.3623 26.2315 22.2856 26.2274 22.2088C26.2234 22.132 26.2012 22.0573 26.1626 21.9907C26.0657 21.8442 25.9336 21.7243 25.7783 21.6421C25.623 21.5598 25.4495 21.5179 25.2738 21.5201C25.2093 21.5202 25.145 21.5256 25.0814 21.5363C24.2277 21.6834 23.3643 21.7676 22.4983 21.7884C22.3734 21.7884 22.2575 21.785 22.1534 21.7776C20.6619 21.6723 20.5434 20.9232 20.5646 18.6335L20.5649 18.5949C20.5717 17.8456 20.6725 6.69398 20.6074 5.82255C20.6033 5.67324 20.5659 5.52673 20.4978 5.39373C20.4298 5.26073 20.3329 5.14458 20.2143 5.05379C19.9456 4.87988 19.6287 4.79566 19.3091 4.81324C18.9594 4.82171 18.6116 4.86773 18.2717 4.95052ZM24.6491 27.4523C24.6491 27.1446 24.5037 27.024 24.3323 27.024C22.7542 27.0763 18.321 27.1751 14.0336 27.2703C12.9909 27.2935 11.9672 27.3158 10.9934 27.3371C9.35708 27.3729 7.8614 27.4056 6.65263 27.4339C9.14061 29.5662 12.2845 30.7821 15.5605 30.879C18.8365 30.9759 22.0468 29.948 24.6566 27.9665L24.6491 27.4523ZM31.8846 18.3234C31.8996 18.2072 31.9146 18.0912 31.9254 17.9736C31.9704 17.4878 32 16.9976 32 16.5001C32.0014 14.0299 31.4302 11.593 30.3311 9.38046C29.2321 7.16792 27.6352 5.23992 25.6656 3.74768C23.696 2.25544 21.4073 1.23953 18.979 0.779612C16.5506 0.3197 14.0487 0.428294 11.6694 1.09688C9.29012 1.76546 7.09815 2.97586 5.26541 4.63314C3.43266 6.29042 2.00899 8.34952 1.10603 10.649C0.203065 12.9484 -0.154624 15.4256 0.0610192 17.8864C0.276652 20.3472 1.05975 22.7246 2.34889 24.8321L2.35021 24.8314C2.53782 25.1371 2.73048 25.4381 2.93759 25.7298C2.92501 25.7325 2.9117 25.7351 2.8984 25.7377C2.86663 25.7439 2.83491 25.7501 2.81346 25.7565C2.51417 25.8468 2.23123 25.9843 1.97529 26.1638C1.66514 26.3657 1.40335 26.6335 1.20853 26.948C1.01372 27.2626 0.890674 27.6162 0.848165 27.9837C0.839075 28.0955 0.853179 28.208 0.889613 28.3141C0.926038 28.4202 0.984002 28.5176 1.05987 28.6003C1.1342 28.6811 1.2246 28.7456 1.32528 28.7894C1.42597 28.8333 1.53472 28.8557 1.64457 28.8552H1.80121C1.96109 28.8409 2.11445 28.785 2.24603 28.6931C2.37761 28.6011 2.48283 28.4764 2.55123 28.3313C2.72119 28.0808 2.95178 27.8774 3.22155 27.7399C3.42982 27.6223 3.6582 27.5446 3.89498 27.5107C4.01072 27.5053 4.179 27.4992 4.38933 27.4925C5.87988 29.0731 7.67788 30.3326 9.67296 31.1937C11.6681 32.0547 13.8182 32.4993 15.9913 32.5C16.4815 32.5 16.9643 32.4703 17.4431 32.4265C17.5968 32.4126 17.7483 32.3934 17.9007 32.3752C18.2309 32.3351 18.5579 32.2851 18.8817 32.2251C18.9267 32.2169 18.9718 32.2089 19.0168 32.2009C19.138 32.1793 19.259 32.1578 19.3787 32.1319C19.7929 32.0414 20.2023 31.9383 20.6038 31.8162C20.7761 31.7643 20.9443 31.704 21.1126 31.6436C21.1712 31.6226 21.2298 31.6015 21.2885 31.5809L21.3515 31.5585C21.5124 31.5015 21.6732 31.4446 21.8315 31.3819C22.0998 31.2763 22.3633 31.1635 22.6243 31.0441C22.6917 31.0132 22.7581 30.9806 22.8246 30.9481C22.8529 30.9342 22.8812 30.9204 22.9096 30.9066C23.9187 30.4214 24.8741 29.8318 25.7601 29.1474H27.3174C27.328 29.1474 27.3378 29.1448 27.3475 29.1419C27.3574 29.139 27.3674 29.1359 27.378 29.1351C27.5634 29.1211 27.7384 29.0444 27.8744 28.9177C28.0103 28.7911 28.0991 28.6219 28.1261 28.4381C28.1377 28.3977 28.1461 28.3564 28.1511 28.3146L28.1512 26.8793C28.7006 26.2336 29.198 25.5454 29.6387 24.8212C29.685 24.7459 29.7315 24.6709 29.7766 24.5947C29.9429 24.313 30.1019 24.0277 30.251 23.7354C30.3097 23.621 30.3629 23.5037 30.4188 23.3877C30.6154 22.9789 30.7945 22.5606 30.9562 22.1329C30.9729 22.0893 30.9896 22.0457 31.0063 22.0021C31.0835 21.8006 31.1608 21.5992 31.2277 21.3929C31.2729 21.2527 31.3115 21.1099 31.3501 20.967C31.3662 20.9076 31.3823 20.8482 31.3988 20.789C31.4739 20.5219 31.5457 20.2538 31.607 19.9813C31.6495 19.7908 31.6868 19.599 31.7225 19.4061C31.7804 19.0949 31.8274 18.7804 31.8668 18.4632C31.8726 18.4165 31.8786 18.37 31.8846 18.3234Z" fill="#10E048"/>
</svg>
