<svg width="177" height="33" viewBox="0 0 177 33" fill="none" xmlns="http://www.w3.org/2000/svg">
<path d="M80 31V18H84.9057C86.3452 18 87.5542 18.4272 88.5325 19.2817C89.5108 20.1361 90 21.1798 90 22.4127C90 23.6455 89.5108 24.6892 88.5325 25.5437C87.5542 26.3981 86.3452 26.8254 84.9057 26.8254H83.3543V31H80ZM83.3543 24.0972H84.8637C85.3948 24.0972 85.8421 23.9324 86.2055 23.6028C86.5688 23.261 86.7505 22.8643 86.7505 22.4127C86.7505 21.961 86.5688 21.5704 86.2055 21.2408C85.8421 20.9113 85.3948 20.7465 84.8637 20.7465H83.3543V24.0972Z" fill="#10E048"/>
<path d="M76.084 29.1019C74.8186 30.3673 73.2906 31 71.5 31C69.7094 31 68.1754 30.3673 66.8981 29.1019C65.6327 27.8246 65 26.2906 65 24.5C65 22.7094 65.6327 21.1814 66.8981 19.916C68.1754 18.6387 69.7094 18 71.5 18C73.2906 18 74.8186 18.6387 76.084 19.916C77.3613 21.1814 78 22.7094 78 24.5C78 26.2906 77.3613 27.8246 76.084 29.1019ZM68.9215 27.1501C69.6139 27.8783 70.4734 28.2424 71.5 28.2424C72.5266 28.2424 73.3861 27.8783 74.0785 27.1501C74.7709 26.4219 75.1171 25.5386 75.1171 24.5C75.1171 23.4614 74.7709 22.5781 74.0785 21.8499C73.3861 21.1217 72.5266 20.7576 71.5 20.7576C70.4734 20.7576 69.6139 21.1217 68.9215 21.8499C68.2291 22.5781 67.8829 23.4614 67.8829 24.5C67.8829 25.5386 68.2291 26.4219 68.9215 27.1501Z" fill="#10E048"/>
<path d="M53 31V18H58.0568C59.1553 18 60.096 18.3784 60.8788 19.1352C61.6616 19.892 62.053 20.8014 62.053 21.8634C62.053 22.7423 61.7374 23.4869 61.1061 24.0972C61.6869 24.4023 62.1477 24.8174 62.4886 25.3423C62.8295 25.8671 63 26.4653 63 27.1366C63 28.2108 62.6023 29.1263 61.8068 29.8831C61.024 30.6277 60.0644 31 58.928 31H53ZM56.0303 23.2549H57.7159C58.12 23.2549 58.4545 23.1329 58.7197 22.8887C58.9848 22.6446 59.1174 22.3394 59.1174 21.9732C59.1174 21.607 58.9848 21.3019 58.7197 21.0577C58.4545 20.8014 58.12 20.6732 57.7159 20.6732H56.0303V23.2549ZM56.0303 28.3085H58.6439C59.048 28.3085 59.3826 28.1864 59.6477 27.9423C59.9129 27.6981 60.0455 27.393 60.0455 27.0268C60.0455 26.6606 59.9129 26.3554 59.6477 26.1113C59.3826 25.8549 59.048 25.7268 58.6439 25.7268H56.0303V28.3085Z" fill="#10E048"/>
<path d="M46.5313 28.1178L44.5 24.254L42.4688 28.1178H46.5313ZM38 33V28.1178H39.466L44.5 19L49.534 28.1178H51V33H48.2799V30.6074H40.7201V33H38Z" fill="#10E048"/>
<path d="M175.992 0H174.168C174.168 1.14 173.611 1.71 172.496 1.71C171.381 1.71 170.824 1.14 170.824 0H169C169 0.962666 169.317 1.76067 169.95 2.394C170.596 3.02733 171.445 3.344 172.496 3.344C173.547 3.344 174.39 3.02733 175.023 2.394C175.669 1.76067 175.992 0.962666 175.992 0Z" fill="#10E048"/>
<path d="M38 16L44.65 2L51.3 16H48.07L44.65 8.72702L41.211 16H38Z" fill="#10E048"/>
<path d="M52.2969 16L58.9469 2L65.5969 16H62.4049L61.4169 13.8552H56.4769L55.4889 16H52.2969ZM57.6359 11.3203H60.2579L58.9469 8.45404L57.6359 11.3203Z" fill="#10E048"/>
<path d="M66.6016 16V2L73.1016 8.92201L79.6016 2V16H76.6637V9.21448L73.1016 12.9972L69.5394 9.21448V16H66.6016Z" fill="#10E048"/>
<path d="M81.6016 16V3H84.4963L84.4963 9.7865L92.6016 3L92.6016 16H89.7068L89.7068 9.2135L81.6016 16Z" fill="#10E048"/>
<path d="M96 16V3H98.9139V8.09014H104.086V3H107V16H104.086V10.9099H98.9139V16H96Z" fill="#10E048"/>
<path d="M108.602 16L115.252 2L121.902 16H118.71L117.722 13.8552H112.782L111.794 16H108.602ZM113.941 11.3203H116.563L115.252 8.45404L113.941 11.3203Z" fill="#10E048"/>
<path d="M123.952 16V10.9465V5.89296H120.898V3H129.898V5.89296H126.827V10.9465V16H123.952Z" fill="#10E048"/>
<path d="M133 16V3H135.914V8.09014H141.086V3H144V16H141.086V10.9099H135.914V16H133Z" fill="#10E048"/>
<path d="M149.156 7.54084H151.207C152.575 7.54084 153.712 7.94366 154.619 8.7493C155.54 9.54272 156 10.5498 156 11.7704C156 12.9911 155.54 14.0042 154.619 14.8099C153.712 15.6033 152.575 16 151.207 16H146V3H149.156V7.54084ZM149.156 13.2535H151.168C151.694 13.2535 152.121 13.1254 152.45 12.869C152.778 12.6127 152.943 12.2465 152.943 11.7704C152.943 11.2944 152.778 10.9282 152.45 10.6718C152.121 10.4033 151.694 10.269 151.168 10.269H149.156V13.2535Z" fill="#10E048"/>
<path d="M158.312 3V16H161.283V3H158.312Z" fill="#10E048"/>
<path d="M166 16V3H168.895L168.895 9.7865L177 3L177 16H174.105L174.105 9.2135L166 16Z" fill="#10E048"/>
<path fill-rule="evenodd" clip-rule="evenodd" d="M27.5994 25.4797C27.5106 25.4447 27.4163 25.4255 27.3209 25.4232C27.1359 25.4232 10.7032 25.6507 4.80362 26.0418C3.11276 23.9546 2.04054 21.4358 1.70842 18.7708C1.3763 16.1058 1.79755 13.4012 2.92445 10.9632C4.05136 8.5252 5.83887 6.45135 8.08449 4.97656C10.3301 3.50178 12.9441 2.68502 15.6303 2.61879C18.3166 2.55256 20.9677 3.23952 23.2833 4.60184C25.599 5.96417 27.4866 7.94741 28.7324 10.3269C29.9782 12.7064 30.5324 15.387 30.3322 18.0651C30.1319 20.7432 29.1853 23.3117 27.5994 25.4797ZM18.2717 5.45052C11.2326 7.02532 6.95015 13.1744 5.88811 23.2318C5.84223 23.6651 5.7853 24.204 6.48598 24.3441C6.54567 24.3565 6.60645 24.3629 6.66743 24.3632C7.25316 24.3627 7.42222 23.7204 7.49842 23.4309L7.4986 23.4302C9.65944 15.2218 13.1162 10.3145 17.7772 8.83792L17.7743 9.56458C17.7639 12.1525 17.7375 18.7033 17.7258 21.1935C17.6609 21.6902 17.7294 22.1952 17.9243 22.6567C18.1191 23.1183 18.4334 23.5196 18.8347 23.8197C19.5439 24.1982 20.3429 24.3765 21.1459 24.3353C21.9204 24.3279 22.6921 24.241 23.4488 24.0761C25.2629 23.6524 26.0044 23.3426 26.1858 22.9325C26.2172 22.8623 26.2315 22.7856 26.2274 22.7088C26.2234 22.632 26.2012 22.5573 26.1626 22.4907C26.0657 22.3442 25.9336 22.2243 25.7783 22.1421C25.623 22.0598 25.4495 22.0179 25.2738 22.0201C25.2093 22.0202 25.145 22.0256 25.0814 22.0363C24.2277 22.1834 23.3643 22.2676 22.4983 22.2884C22.3734 22.2884 22.2575 22.285 22.1534 22.2776C20.6619 22.1723 20.5434 21.4232 20.5646 19.1335L20.5649 19.0949C20.5717 18.3456 20.6725 7.19398 20.6074 6.32255C20.6033 6.17324 20.5659 6.02673 20.4978 5.89373C20.4298 5.76073 20.3329 5.64458 20.2143 5.55379C19.9456 5.37988 19.6287 5.29566 19.3091 5.31324C18.9594 5.32171 18.6116 5.36773 18.2717 5.45052ZM24.6491 27.9523C24.6491 27.6446 24.5037 27.524 24.3323 27.524C22.7542 27.5763 18.321 27.6751 14.0336 27.7703C12.9909 27.7935 11.9672 27.8158 10.9934 27.8371C9.35708 27.8729 7.8614 27.9056 6.65263 27.9339C9.14061 30.0662 12.2845 31.2821 15.5605 31.379C18.8365 31.4759 22.0468 30.448 24.6566 28.4665L24.6491 27.9523ZM31.8846 18.8234C31.8996 18.7072 31.9146 18.5912 31.9254 18.4736C31.9704 17.9878 32 17.4976 32 17.0001C32.0014 14.5299 31.4302 12.093 30.3311 9.88046C29.2321 7.66792 27.6352 5.73992 25.6656 4.24768C23.696 2.75544 21.4073 1.73953 18.979 1.27961C16.5506 0.8197 14.0487 0.928294 11.6694 1.59688C9.29012 2.26546 7.09815 3.47586 5.26541 5.13314C3.43266 6.79042 2.00899 8.84952 1.10603 11.149C0.203065 13.4484 -0.154624 15.9256 0.0610192 18.3864C0.276652 20.8472 1.05975 23.2246 2.34889 25.3321L2.35021 25.3314C2.53782 25.6371 2.73048 25.9381 2.93759 26.2298C2.92501 26.2325 2.9117 26.2351 2.8984 26.2377C2.86663 26.2439 2.83491 26.2501 2.81346 26.2565C2.51417 26.3468 2.23123 26.4843 1.97529 26.6638C1.66514 26.8657 1.40335 27.1335 1.20853 27.448C1.01372 27.7626 0.890674 28.1162 0.848165 28.4837C0.839075 28.5955 0.853179 28.708 0.889613 28.8141C0.926038 28.9202 0.984002 29.0176 1.05987 29.1003C1.1342 29.1811 1.2246 29.2456 1.32528 29.2894C1.42597 29.3333 1.53472 29.3557 1.64457 29.3552H1.80121C1.96109 29.3409 2.11445 29.285 2.24603 29.1931C2.37761 29.1011 2.48283 28.9764 2.55123 28.8313C2.72119 28.5808 2.95178 28.3774 3.22155 28.2399C3.42982 28.1223 3.6582 28.0446 3.89498 28.0107C4.01072 28.0053 4.179 27.9992 4.38933 27.9925C5.87988 29.5731 7.67788 30.8326 9.67296 31.6937C11.6681 32.5547 13.8182 32.9993 15.9913 33C16.4815 33 16.9643 32.9703 17.4431 32.9265C17.5968 32.9126 17.7483 32.8934 17.9007 32.8752C18.2309 32.8351 18.5579 32.7851 18.8817 32.7251C18.9267 32.7169 18.9718 32.7089 19.0168 32.7009C19.138 32.6793 19.259 32.6578 19.3787 32.6319C19.7929 32.5414 20.2023 32.4383 20.6038 32.3162C20.7761 32.2643 20.9443 32.204 21.1126 32.1436C21.1712 32.1226 21.2298 32.1015 21.2885 32.0809L21.3515 32.0585C21.5124 32.0015 21.6732 31.9446 21.8315 31.8819C22.0998 31.7763 22.3633 31.6635 22.6243 31.5441C22.6917 31.5132 22.7581 31.4806 22.8246 31.4481C22.8529 31.4342 22.8812 31.4204 22.9096 31.4066C23.9187 30.9214 24.8741 30.3318 25.7601 29.6474H27.3174C27.328 29.6474 27.3378 29.6448 27.3475 29.6419C27.3574 29.639 27.3674 29.6359 27.378 29.6351C27.5634 29.6211 27.7384 29.5444 27.8744 29.4177C28.0103 29.2911 28.0991 29.1219 28.1261 28.9381C28.1377 28.8977 28.1461 28.8564 28.1511 28.8146L28.1512 27.3793C28.7006 26.7336 29.198 26.0454 29.6387 25.3212C29.685 25.2459 29.7315 25.1709 29.7766 25.0947C29.9429 24.813 30.1019 24.5277 30.251 24.2354C30.3097 24.121 30.3629 24.0037 30.4188 23.8877C30.6154 23.4789 30.7945 23.0606 30.9562 22.6329C30.9729 22.5893 30.9896 22.5457 31.0063 22.5021C31.0835 22.3006 31.1608 22.0992 31.2277 21.8929C31.2729 21.7527 31.3115 21.6099 31.3501 21.467C31.3662 21.4076 31.3823 21.3482 31.3988 21.289C31.4739 21.0219 31.5457 20.7538 31.607 20.4813C31.6495 20.2908 31.6868 20.099 31.7225 19.9061C31.7804 19.5949 31.8274 19.2804 31.8668 18.9632C31.8726 18.9165 31.8786 18.87 31.8846 18.8234Z" fill="#10E048"/>
</svg>
