<svg width="56" height="30" viewBox="0 0 56 30" fill="none" xmlns="http://www.w3.org/2000/svg">
<path d="M51.4759 17.148C51.5035 17.1841 51.5035 17.2924 51.531 17.2924C51.7241 17.2924 51.8897 17.2924 52.0828 17.2924C52.1104 17.2563 52.1379 17.2202 52.1931 17.148C52.3034 17.148 52.4414 17.148 52.5517 17.148C52.6069 17.0758 52.6345 17.0397 52.6897 16.9675C52.8552 16.9675 53.0207 16.9675 53.1862 16.9675C53.2414 16.8953 53.269 16.8592 53.3242 16.787C53.4621 16.787 53.5724 16.787 53.7103 16.787C53.7655 16.8592 53.8207 16.9314 53.9035 17.0397C53.9035 17.1119 53.9035 17.148 53.9035 17.2202C53.7931 17.4007 53.6276 17.2924 53.4897 17.3285C53.3793 17.4007 53.269 17.509 53.131 17.5812C53.2138 17.7256 53.3242 17.6173 53.4621 17.6895C53.5173 17.7617 53.6 17.87 53.7103 18.0144C53.7655 17.9783 53.8483 17.9422 54.0138 17.8339C54.0966 17.8339 54.2897 17.8339 54.3448 17.8339C54.5103 17.7256 54.5931 17.6895 54.6759 17.6534C54.7586 17.6173 54.8414 17.6534 54.8965 17.5451C54.9517 17.4368 55.0345 17.4368 55.1173 17.509C55.1724 17.6173 55.1448 17.6895 55.0897 17.7978C54.9793 18.0144 54.7862 17.9422 54.6759 18.1588C54.5655 18.1588 54.4276 18.1588 54.3172 18.1588C54.2345 18.3394 54.1241 18.3394 53.931 18.3033C53.8759 18.4477 53.7931 18.6282 53.6828 18.8087C53.6552 18.7726 53.6552 18.8087 53.6828 18.8087C53.8207 18.8087 53.931 18.8087 54.069 18.8087C54.1241 18.7365 54.1793 18.7004 54.2621 18.6282C54.3448 18.7004 54.4 18.7726 54.4552 18.8448C54.5379 18.8448 54.6207 18.8448 54.6759 18.8448C54.7586 18.7726 54.8138 18.7004 54.9517 18.5921C55.0345 18.7365 55.0897 18.8809 55.1173 18.9531C55.3379 18.9892 55.4759 19.0253 55.5862 18.8087C55.6965 18.8087 55.8345 18.8087 55.9448 18.8087C55.9724 18.8087 55.9724 18.8448 56 18.8448C55.9724 18.9892 55.8897 19.0253 55.8069 19.1336C55.7241 19.1336 55.6414 19.1336 55.5586 19.1336C55.5035 19.2058 55.4483 19.3141 55.3655 19.3863C55.5034 19.5668 55.6138 19.7112 55.7517 19.8917C55.6138 19.9639 55.5035 20 55.4207 20.1444C55.3103 20.1444 55.1724 20.1444 55.0345 20.1444C55.0069 20.2166 55.0069 20.2888 54.9793 20.3971C54.8138 20.5054 54.6207 20.6498 54.3724 20.7942C54.2621 20.7942 54.0965 20.7942 53.931 20.7942C53.8759 20.8664 53.8483 20.9025 53.7931 20.9747C53.7103 20.9747 53.6276 20.9747 53.5448 20.9747C53.4897 21.0469 53.4621 21.083 53.4069 21.1552C53.1862 21.1552 52.9931 21.1552 52.7724 21.1552C52.6897 21.3357 52.5793 21.2996 52.4414 21.3357C52.331 21.3357 52.2483 21.5523 52.1103 21.5162C52 21.4801 51.8897 21.5162 51.7793 21.6245C51.6966 21.6967 51.531 21.6606 51.3931 21.6606C51.3655 21.6967 51.3104 21.7328 51.2552 21.805C51.0621 21.805 50.8414 21.805 50.6483 21.805C50.5931 21.8773 50.5655 21.9134 50.5104 21.9856C50.4276 21.9856 50.3448 21.9856 50.2621 21.9856C50.2069 22.0578 50.1793 22.0939 50.1241 22.1661C50.0414 22.1661 49.9586 22.1661 49.8759 22.1661C49.8207 22.2383 49.7655 22.2744 49.7379 22.3466C49.5724 22.3466 49.4069 22.3466 49.2414 22.3466C49.2138 22.3827 49.1862 22.4188 49.131 22.491C49.0759 22.491 48.9931 22.491 48.9104 22.491C48.8 22.491 48.7172 22.491 48.6069 22.5271C48.5241 22.7798 48.2759 22.5632 48.1655 22.7798C48.0828 22.9242 47.9724 22.8159 47.8345 22.8881C47.8345 22.8881 47.7793 22.9603 47.7241 23.0325C47.6138 23.0325 47.4759 23.0325 47.3379 23.0325C47.2828 23.1047 47.2552 23.1408 47.2 23.213C47.1172 23.213 47.0345 23.213 46.9517 23.213C46.8966 23.2852 46.8414 23.3213 46.7862 23.3935C46.5104 23.2491 46.2897 23.6101 46.0414 23.574C45.9862 23.574 45.9586 23.6823 45.9035 23.6823C45.7931 23.7184 45.6828 23.6823 45.5724 23.6823C45.5448 23.7184 45.4897 23.7906 45.4345 23.8628C45.3241 23.8628 45.1862 23.8628 45.0759 23.8628C45.0207 23.935 44.9931 23.9711 44.9379 24.0433C44.8552 24.0433 44.7724 24.0433 44.6897 24.0433C44.6345 24.1155 44.6069 24.1516 44.5517 24.2238C44.4138 24.2238 44.3034 24.2238 44.1931 24.2238C44.1655 24.2599 44.1379 24.3321 44.1103 24.3321C43.8621 24.3321 43.669 24.6209 43.4207 24.5487C43.3931 24.5487 43.3103 24.5487 43.3103 24.5848C43.2276 24.8375 42.9793 24.6209 42.869 24.8375C42.869 24.8736 42.8414 24.8736 42.8138 24.9097C42.7034 24.9097 42.5655 24.9097 42.4552 24.9097C42.4 24.9819 42.3724 25.018 42.3172 25.0903C42.1793 25.0903 42.069 25.0903 41.931 25.0903C41.9034 25.1264 41.8759 25.1625 41.8207 25.2347C41.7379 25.2347 41.6552 25.2347 41.5448 25.2708C41.4897 25.343 41.4621 25.3791 41.4069 25.4152C41.3241 25.4152 41.2138 25.4152 41.1586 25.4152C41.0207 25.3791 40.9931 25.5596 40.8828 25.5957C40.8 25.6318 40.6897 25.5957 40.6345 25.6318C40.5517 25.7401 40.469 25.7401 40.3586 25.7762C40.2759 25.7762 40.2207 25.8484 40.1103 25.9206C40.0276 25.9206 39.9172 25.9206 39.7793 25.9206C39.7241 25.9928 39.6966 26.0289 39.6414 26.1011C39.5034 26.1011 39.3931 26.1011 39.2828 26.1011C39.2276 26.1733 39.2 26.2094 39.1448 26.2816C39.0345 26.2816 38.9241 26.2816 38.7862 26.2816C38.7586 26.3177 38.7034 26.3538 38.6207 26.426C38.5103 26.426 38.3724 26.426 38.2345 26.4621C38.2069 26.4982 38.1517 26.5704 38.1241 26.6065C37.931 26.6065 37.6828 26.6065 37.4897 26.6065C37.4345 26.6787 37.4069 26.7148 37.3793 26.7509C36.9655 26.7509 36.5517 26.7509 36.1103 26.7509C36.0276 26.6426 35.9448 26.5343 35.8621 26.426C35.8345 26.4621 35.8069 26.4982 35.7793 26.5343C35.7517 26.5343 35.6966 26.5704 35.669 26.5704C35.3104 26.5704 34.9517 26.5704 34.6207 26.5704C34.5379 26.3538 34.4 26.3899 34.2345 26.3899C34.1517 26.2455 34.0414 26.1011 33.931 25.9206C33.931 25.7762 33.931 25.5957 33.931 25.4152C33.8759 25.3791 33.8207 25.3791 33.7379 25.343C33.6 25.1625 33.4621 24.9819 33.3241 24.7653C33.3241 24.5848 33.3241 24.4404 33.3241 24.2238C33.6276 24.0072 33.6 23.5379 33.8483 23.213C33.7379 23.1769 33.6828 23.1769 33.6276 23.1408C33.6276 23.0686 33.6 22.9964 33.5724 22.8881C33.5448 22.8881 33.4621 22.8159 33.4345 22.852C33.3241 22.9242 33.2414 23.0325 33.1034 23.0325C33.0207 23.0325 32.9379 23.1408 32.8276 23.1769C32.7724 23.213 32.6897 23.1769 32.6345 23.1769C32.5793 23.213 32.5517 23.2852 32.4966 23.3574C32.4138 23.3574 32.331 23.3574 32.2483 23.3574C32.1931 23.574 31.9724 23.4657 31.8897 23.6462C31.8621 23.6823 31.7793 23.6823 31.7241 23.6823C31.5586 23.6823 31.4483 23.9711 31.2828 23.8628C31.1724 24.0794 30.9793 24.0072 30.8414 24.0794C30.8138 24.0794 30.7862 24.1516 30.7586 24.1877C30.6759 24.1877 30.5931 24.1877 30.5103 24.1877C30.4552 24.2599 30.4276 24.296 30.3724 24.3682C30.2897 24.3682 30.2069 24.3682 30.1241 24.3682C30.0965 24.4043 30.069 24.4404 30.0138 24.5126C29.931 24.5126 29.8483 24.5126 29.7379 24.5487C29.6828 24.6209 29.6552 24.657 29.6 24.6931C29.4621 24.6931 29.3241 24.7292 29.2138 24.7292C29.131 25.018 28.8276 24.7292 28.7448 25.0181C28.4414 25.0181 28.1655 25.0181 27.8621 25.0181C27.7241 24.9098 27.5862 24.8014 27.4483 24.6931C27.4207 24.7292 27.3931 24.7653 27.3655 24.8014C27.3379 24.8014 27.3379 24.8375 27.3103 24.8375C26.9241 24.8375 26.5655 24.8375 26.1793 24.8375C26.0966 24.657 25.9586 24.657 25.7931 24.657C25.7379 24.5126 25.6276 24.3321 25.4897 24.0433C25.4897 24.0433 25.4897 23.8989 25.4897 23.7184C25.4345 23.6823 25.3793 23.6823 25.269 23.6462C25.2138 23.574 25.1035 23.4657 25.0483 23.3213C24.9931 23.213 24.9379 23.0325 24.8552 22.852C24.8552 22.8159 24.8552 22.6715 24.8552 22.5271C24.9379 22.4549 25.0207 22.3466 25.1034 22.2744C25.1034 22.1661 25.0759 22.13 25.0759 22.0578C25.0483 22.0217 24.9931 21.9856 24.9655 21.9856C24.8552 21.9856 24.7724 21.9856 24.6896 22.0939C24.5241 22.2383 24.331 22.2744 24.1655 22.4549C23.9448 22.4188 23.8069 22.6354 23.5862 22.6715C23.4207 22.7076 23.2552 22.852 23.0621 22.9964C23.0345 22.9964 22.9517 22.9964 22.869 22.9964C22.8138 23.0686 22.7862 23.1047 22.731 23.1769C22.6483 23.1769 22.5655 23.1769 22.4828 23.1769C22.4552 23.213 22.4276 23.2491 22.3724 23.3213C22.2621 23.3213 22.1517 23.3213 22.0414 23.3213C21.8483 23.4657 21.6828 23.6462 21.4897 23.6823C21.2966 23.6823 21.1862 24.0433 20.9931 23.8267C20.9379 23.8989 20.8828 23.9711 20.8276 24.0072C20.7724 24.0072 20.7172 24.0072 20.6069 24.0072C20.469 24.1155 20.331 24.2238 20.1655 24.3321C20.0828 24.3321 19.9724 24.3321 19.8621 24.3321C19.7241 24.4404 19.6138 24.5487 19.4483 24.657C19.3103 24.7292 19.1448 24.6209 19.0621 24.8375C18.9793 24.8375 18.8965 24.8375 18.8138 24.8375C18.7586 24.9098 18.731 24.9459 18.6759 25.0181C18.5931 25.0181 18.5104 25.0181 18.4276 25.0181C18.4 25.0542 18.3724 25.0903 18.3172 25.1625C18.1517 25.1625 17.9862 25.1625 17.8207 25.1625C17.7655 25.2347 17.7379 25.2708 17.6828 25.343C17.5724 25.343 17.4069 25.343 17.2965 25.3791C17.269 25.4152 17.2414 25.4513 17.1862 25.5235C16.9655 25.5235 16.7448 25.5235 16.5241 25.5235C16.469 25.4513 16.4414 25.4152 16.4138 25.3791C16.2483 25.3791 16.0828 25.3791 15.9172 25.3791C15.8897 25.4152 15.8345 25.4874 15.7793 25.5235C15.7241 25.4874 15.6965 25.4152 15.6414 25.3791C15.6138 25.4152 15.5862 25.4513 15.5586 25.4874C15.531 25.4874 15.4759 25.5235 15.4483 25.5235C15.1724 25.5235 14.8966 25.5235 14.6483 25.5235C14.4828 25.3791 14.4828 25.3791 14.3172 25.343C14.0966 25.2708 14.069 24.982 14.0138 24.8014C13.931 24.5487 13.8207 24.4043 13.6828 24.2238C13.3793 24.1516 13.2966 23.7906 13.0759 23.6101C13.0759 23.3935 13.0483 23.213 13.1862 23.1047C13.1862 22.852 13.1862 22.6354 13.1862 22.4188C13.131 22.3105 13.131 22.3827 13.0759 22.3827C12.8 22.5271 12.6069 22.852 12.331 22.9964C12.0828 23.1408 11.8345 23.2852 11.6138 23.5018C11.3931 23.4657 11.3655 23.8989 11.1448 23.8267C10.869 24.1155 10.5103 24.2238 10.2069 24.5126C9.9862 24.4765 9.95863 24.9098 9.73794 24.8375C9.54483 25.0542 9.26896 25.1264 9.07586 25.343C8.85517 25.2708 8.82758 25.704 8.60689 25.6679C8.46896 25.8484 8.27586 25.8484 8.16552 26.065C8.11035 26.1733 8.02759 26.1372 7.94483 26.2094C7.75173 26.3538 7.58621 26.5343 7.39311 26.6787C7.22759 26.8231 6.97932 26.8953 6.84138 27.148C6.78621 27.2202 6.70344 27.2202 6.62068 27.2924C6.45516 27.4729 6.2069 27.4729 6.04138 27.6895C5.87586 27.9061 5.62758 27.9422 5.48965 28.1227C5.32414 28.3393 5.07585 28.3755 4.96551 28.6282C4.66206 28.8087 4.35863 29.0253 4.08276 29.2058C3.77932 29.4224 3.44827 29.639 3.08965 29.8556C2.97931 29.8556 2.81379 29.8556 2.62069 29.8556C2.5931 29.8195 2.53793 29.7473 2.48276 29.6751C2.4 29.6751 2.31724 29.6751 2.23448 29.6751C2.17931 29.7473 2.15173 29.7834 2.09655 29.8556C1.87586 29.8556 1.68276 29.8556 1.46207 29.8556C1.43448 29.8917 1.4069 29.9278 1.35172 30C1.18621 30 0.993104 30 0.827586 30C0.772414 29.8195 0.68965 29.639 0.606892 29.4224C0.524133 29.3863 0.441379 29.3141 0.275862 29.2058C0.22069 29.2058 0.110345 29.2058 0 29.1697C0 28.8087 0 28.4838 0 28.0866C0.0275862 28.0505 0.0551707 27.9783 0.110343 27.9061C0.110343 27.7617 0.110343 27.6173 0.110343 27.4007C0.0827569 27.3646 0.0551724 27.2924 0 27.2202C0 27.1119 0 27.0036 0 26.8953C0.0275862 26.8592 0.0827569 26.787 0.110343 26.7148C0.110343 26.6065 0.0827569 26.426 0.110343 26.3899C0.248274 26.2455 0.220686 25.9928 0.358617 25.8484C0.468962 25.7762 0.524133 25.6318 0.606892 25.4874C0.662064 25.343 0.71724 25.1986 0.799998 24.9097C0.882757 24.8014 1.04827 24.5848 1.21379 24.3682C1.21379 24.0433 1.54483 23.9711 1.51724 23.6101C1.6 23.574 1.65517 23.574 1.71034 23.5379C1.73793 23.3213 1.87586 23.1769 1.87586 22.9603C2.06896 22.7798 2.12413 22.4549 2.26206 22.2383C2.37241 22.0939 2.48276 22.0217 2.51035 21.769C2.53793 21.5885 2.73103 21.5523 2.75862 21.3357C2.78621 21.1552 2.95172 21.0469 3.0069 20.8664C3.08965 20.6137 3.22758 20.4693 3.36551 20.3249C3.47586 20.1805 3.50344 20 3.5862 19.8556C3.64137 19.8556 3.66896 19.8556 3.72413 19.8556C4.1931 19.2419 4.63447 18.6282 5.10344 18.0144C5.15861 18.0144 5.1862 18.0144 5.24137 18.0144C5.29654 17.7978 5.3793 17.6534 5.51723 17.509C5.93103 16.9675 6.31724 16.4621 6.67586 15.9567C6.70344 15.8123 6.73103 15.7401 6.75861 15.6679C6.81379 15.6679 6.86896 15.6679 6.89654 15.6679C7.03447 15.4874 7.17242 15.2708 7.33793 15.1625C7.53104 15.0541 7.6138 14.8736 7.75173 14.6931C7.75173 14.6209 7.75172 14.5848 7.72413 14.5126C7.61379 14.4043 7.58621 14.657 7.47586 14.657C7.33793 14.657 7.22758 14.8014 7.08965 14.8375C6.95172 14.8736 6.81379 14.9819 6.67586 15.1263C6.56551 15.2347 6.37242 15.0902 6.28966 15.3069C5.95863 15.2708 5.73794 15.5957 5.46207 15.7401C5.18621 15.8845 4.93792 16.1011 4.68965 16.2816C4.60689 16.3538 4.52414 16.3899 4.44138 16.4621C4.4138 16.4621 4.41379 16.4982 4.38621 16.5343C4.24827 16.5343 4.13792 16.5343 3.99999 16.5343C3.97241 16.5704 3.94482 16.6065 3.91724 16.6426C3.88965 16.6426 3.88965 16.6787 3.86206 16.6787C3.55861 16.6787 3.28276 16.6787 3.0069 16.6787C2.70345 17.0397 2.26206 16.9675 1.9862 17.3646C1.90344 17.3646 1.82069 17.3646 1.73793 17.3646C1.1862 16.5704 1.18621 16.5704 0.827586 16.4982C0.772414 16.426 0.744828 16.3899 0.689655 16.3177C0.689655 16.2816 0.662067 16.2816 0.662067 16.2455C0.662067 16.0289 0.662067 15.8123 0.662067 15.5957C0.71724 15.5235 0.744824 15.4874 0.772411 15.4513C0.772411 15.3069 0.772411 15.1264 0.772411 14.9819C0.937928 14.7653 0.910345 14.3321 1.24138 14.3321C1.4069 14.0072 1.73793 13.9711 1.90345 13.5379C1.90345 13.5379 1.93103 13.4657 1.93103 13.3574C1.98621 13.3574 2.04138 13.3213 2.09655 13.3213C2.2069 13.1769 2.34483 12.9964 2.45517 12.852C2.53793 12.8159 2.67586 12.852 2.64828 12.5632C2.62069 12.5271 2.53793 12.4549 2.45517 12.3827C2.37241 12.4549 2.26207 12.491 2.15172 12.5993C2.04138 12.7076 1.95862 12.8159 1.87586 12.9603C1.84827 12.9964 1.84828 13.0325 1.82069 13.0325C1.57242 13.0325 1.51724 13.3213 1.43448 13.5379C1.40689 13.5379 1.35172 13.5379 1.32413 13.5379C1.15862 13.7906 0.965514 14.0072 0.772411 14.2599C0.772411 14.3321 0.772409 14.4404 0.744823 14.657C0.717236 14.6931 0.634483 14.7653 0.551724 14.8375C0.468966 14.7292 0.524135 14.5848 0.496548 14.4404C0.524135 14.3682 0.579307 14.3321 0.634479 14.2599C0.634479 14.1516 0.634479 14.0433 0.634479 13.935C0.689652 13.8628 0.717238 13.8267 0.772411 13.7545C0.772411 13.6462 0.772411 13.5379 0.772411 13.4296C0.882755 13.1769 1.10345 13.1408 1.26897 12.9603C1.4069 12.8159 1.6 12.7437 1.71034 12.5271C1.84827 12.3105 2.04138 12.2022 2.17931 12.0578C2.31724 11.9134 2.45517 11.6967 2.5931 11.5162C2.70345 11.5162 2.84138 11.5162 2.92414 11.5162C3.08966 11.444 3.14483 11.1552 3.33793 11.1552C3.44828 11.1552 3.50345 10.8664 3.66897 10.8303C3.83449 10.8303 3.86207 10.4693 4.08276 10.4693C4.16552 10.4693 4.22069 10.2888 4.30345 10.2166C4.35862 10.1444 4.44138 10.1444 4.52414 10.1083C4.66207 10 4.66207 10 4.85517 10C4.96552 9.8917 5.0207 9.71119 5.18621 9.63899C5.29656 9.60289 5.37931 9.45849 5.48965 9.31409C5.54483 9.31409 5.62758 9.31409 5.71034 9.31409C5.76551 9.24188 5.7931 9.20578 5.84827 9.13358C5.93103 9.13358 6.04138 9.16968 6.09655 9.13358C6.31724 8.88087 6.67586 8.88087 6.81379 8.48375C6.84137 8.48375 6.86896 8.44765 6.89654 8.44765C6.9793 8.44765 7.08966 8.44766 7.11725 8.41156C7.22759 8.26715 7.39311 8.33935 7.47586 8.12274C7.55862 8.12274 7.64137 8.12274 7.72413 8.12274C7.7793 8.19495 7.80689 8.23104 7.86206 8.26715C7.91723 8.19494 7.97241 8.08665 8.05517 8.01444C8.02758 7.94224 7.97242 7.90614 7.94483 7.83394C8.27587 7.61733 8.6069 7.40072 8.93793 7.18411C9.02069 7.14801 9.04828 7.03971 9.13104 6.93141C9.2138 6.89531 9.35172 6.93141 9.43448 6.85921C9.6 6.7148 9.82069 6.6426 9.90345 6.3899C9.98621 6.3899 10.069 6.3899 10.1517 6.3899C10.2069 6.31769 10.2345 6.28159 10.3172 6.20939C10.4 6.28159 10.4828 6.31769 10.5655 6.3899C10.5655 6.31769 10.5931 6.24549 10.5931 6.13718C10.6483 6.02888 10.7586 6.10109 10.869 6.06499C11.0069 5.99279 11.0621 5.66787 11.2552 5.74007C11.3655 5.55956 11.4759 5.52347 11.6138 5.59567C11.6966 5.48736 11.7793 5.37906 11.8621 5.27076C12 5.27076 12.1655 5.30686 12.2759 5.19855C12.3862 5.09025 12.4965 5.09025 12.6069 5.09025C12.7448 5.01805 12.7724 4.80145 12.9379 4.76535C13.0207 4.72925 13.1034 4.65705 13.2138 4.62094C13.269 4.58484 13.3241 4.62094 13.4069 4.62094C13.4897 4.51264 13.5724 4.40433 13.6276 4.29603C13.7379 4.22382 13.931 4.36823 14.0138 4.11552C14.1241 4.11552 14.2621 4.11552 14.4 4.11552C14.4276 4.15162 14.4828 4.18772 14.5379 4.29603C14.6207 4.15162 14.6759 4.00722 14.7862 3.82672C15.0069 3.79062 15.2276 3.64621 15.4483 3.4296C15.6138 3.2491 15.8069 3.06859 16.0552 3.1047C16.1103 3.03249 16.1379 2.99639 16.1931 2.92419C16.2759 2.92419 16.3586 2.92419 16.4414 2.92419C16.4966 2.85199 16.5241 2.81589 16.5793 2.74368C16.9103 2.81589 17.1035 2.34657 17.4621 2.41878C17.5172 2.31047 17.6 2.16607 17.6552 2.09387C17.8483 2.09387 17.9862 2.12997 18.0966 1.91336C18.3172 1.87726 18.5103 1.69676 18.6759 1.55235C18.869 1.40795 19.1172 1.44404 19.2828 1.22743C19.3379 1.15523 19.4207 1.11913 19.531 1.04693C19.6414 1.04693 19.8069 1.04693 19.9724 1.04693C20.0276 0.974727 20.0552 0.938626 20.1103 0.866424C20.1655 0.938626 20.1931 0.974727 20.2483 1.04693C20.3034 1.04693 20.331 1.04693 20.3862 1.04693C20.4138 0.938626 20.4414 0.866428 20.469 0.758125C20.5793 0.758125 20.7172 0.758125 20.8276 0.758125C20.8828 0.685923 20.9379 0.649822 20.9931 0.577619C21.0207 0.613721 21.0759 0.649819 21.131 0.722022C21.1586 0.68592 21.2138 0.613721 21.269 0.577619C21.3241 0.722024 21.4069 0.902525 21.4621 1.04693C21.5172 1.22743 21.1862 1.29965 21.3793 1.55235C21.4069 1.51625 21.4621 1.48014 21.5172 1.40794C21.6276 1.40794 21.7379 1.40794 21.8483 1.40794C22.0138 1.29964 22.1517 1.19133 22.3172 1.04693C22.4828 1.04693 22.7034 1.04693 22.869 1.04693C23.0069 1.15523 23.1448 1.22744 23.3103 1.37185C23.6965 1.37185 24.1379 1.37185 24.5793 1.37185C24.6069 1.33575 24.6345 1.29964 24.6896 1.22743C24.8 1.22743 24.9103 1.22743 25.0759 1.22743C25.1034 1.26354 25.1586 1.33574 25.2138 1.40794C25.2966 1.55234 25.2414 1.69675 25.2414 1.80505C25.2138 1.87726 25.1586 1.91336 25.131 1.98556C25.1862 2.02166 25.2138 2.02166 25.269 2.05777C25.3517 1.94946 25.4621 1.84116 25.5724 1.73286C25.6276 1.80506 25.6828 1.84116 25.7379 1.91336C25.8207 1.84116 25.9034 1.76896 25.9862 1.73286C26.1241 1.69676 26.1517 1.87725 26.2621 1.94946C26.2621 2.05776 26.2621 2.16606 26.2897 2.31047C26.2069 2.41877 26.0966 2.49098 26.0414 2.63539C26.0138 2.74369 25.9862 2.88809 25.9035 2.96029C26.0414 3.1769 26.2345 2.96029 26.3724 3.06859C26.4 3.10469 26.4276 3.14079 26.4552 3.21299C26.5103 3.17689 26.5379 3.10469 26.5931 3.06859C26.7862 3.06859 27.0069 3.06859 27.2276 3.06859C27.2828 3.213 27.4207 3.213 27.531 3.2852C27.6138 3.50181 27.4207 3.53791 27.4207 3.71842C27.3931 3.86282 27.5035 3.89892 27.531 3.97112C27.5586 4.04332 27.5586 4.15163 27.5862 4.18773C27.6414 4.25993 27.6966 4.36823 27.669 4.47653C27.3931 4.65704 27.3931 4.65704 27.2276 5.05415C27.2 5.05415 27.1448 5.05415 27.0897 5.05415C27.0069 5.23466 26.8138 5.30686 26.7862 5.55956C26.7035 5.59566 26.6207 5.55957 26.7035 5.70398C26.731 5.66788 26.7586 5.59566 26.7862 5.55956C26.8414 5.55956 26.8966 5.55956 26.9793 5.55956C27.0621 5.27076 27.2828 5.27076 27.4483 5.09025C27.5034 5.01805 27.6138 5.05415 27.7517 5.01805C27.7793 4.94585 27.8345 4.76534 27.8621 4.69314C28.0552 4.69314 28.1379 4.69314 28.2207 4.69314C28.2759 4.62094 28.3035 4.58484 28.3586 4.51263C28.469 4.51263 28.6069 4.51263 28.7448 4.51263C28.8276 4.40433 28.8828 4.33213 28.9655 4.18773C29.0483 4.18773 29.1586 4.15162 29.2414 4.15162C29.269 4.11552 29.2966 4.07942 29.3517 4.00722C29.4621 4.00722 29.5724 4.00722 29.7655 4.00722C29.8207 3.89892 29.9034 3.75451 29.931 3.64621C30.069 3.64621 30.1517 3.64621 30.2345 3.64621C30.2897 3.57401 30.3172 3.53791 30.3724 3.46571C30.4552 3.46571 30.5379 3.46571 30.6207 3.46571C30.6483 3.4296 30.6759 3.39351 30.7035 3.35741C30.8414 3.2491 31.0069 3.3574 31.1724 3.2491C31.2552 3.17689 31.3104 2.96029 31.4759 2.92419C31.5862 2.88809 31.669 2.74369 31.7793 2.59928C31.8897 2.59928 32 2.59928 32.1379 2.59928C32.1931 2.52708 32.2207 2.49098 32.2759 2.41878C32.3862 2.41878 32.5241 2.41878 32.6897 2.41878C32.7448 2.31047 32.8276 2.20217 32.8828 2.05777C32.9931 2.05777 33.0759 2.05777 33.1586 2.05777C33.1862 2.02166 33.2138 1.98557 33.269 1.91336C33.3241 1.94946 33.3793 2.02166 33.4621 2.05777C33.6 1.94946 33.7655 1.84116 33.9586 1.69676C34.0414 1.69676 34.1793 1.69676 34.3172 1.69676C34.4276 1.40795 34.6483 1.37184 34.8414 1.22743C34.869 1.26354 34.8966 1.29964 34.9241 1.33574C35.0069 1.26354 35.0896 1.22744 35.1724 1.15524C35.2 1.19134 35.2 1.19133 35.2276 1.22743C35.3379 1.04693 35.4759 0.866424 35.5862 0.685918C35.669 0.685918 35.7517 0.685918 35.8345 0.685918C35.9724 0.577615 36.0828 0.361011 36.2483 0.180505C36.3862 0.180505 36.5517 0.180505 36.7172 0.180505C36.8 0.108303 36.8552 0.0361011 36.9104 0C37.0759 0.0361011 37.131 0.180503 37.2138 0.324908C37.1586 0.433211 37.131 0.541514 37.0759 0.685918C37.131 0.75812 37.1586 0.830327 37.2138 0.93863C37.1586 1.01083 37.1034 1.08304 37.0207 1.19134C36.9379 1.19134 36.8552 1.19134 36.7448 1.19134C36.7172 1.26354 36.6897 1.37184 36.6621 1.48015C36.6345 1.48015 36.5517 1.51625 36.469 1.55235C36.469 1.62456 36.4414 1.69675 36.4414 1.76895C36.6069 1.91335 36.7448 1.80506 36.8828 1.87726C36.9103 1.76896 36.9379 1.66065 36.9655 1.51625C37.0483 1.51625 37.1586 1.48015 37.2414 1.48015C37.3241 1.40794 37.3793 1.33574 37.4345 1.29964C37.5724 1.33574 37.6276 1.58845 37.7931 1.44404C37.8759 1.33574 37.7931 1.19134 37.8483 1.01084C38.0138 0.938635 38.2069 1.01083 38.3724 0.974734C38.4552 0.938632 38.5103 0.758127 38.6483 0.794228C38.6759 0.830329 38.731 0.902531 38.7862 0.974734C38.869 0.974734 38.9517 0.974734 39.0345 0.974734C39.0896 1.04694 39.1448 1.11913 39.2276 1.22743C39.1724 1.37184 39.1172 1.55235 39.0621 1.69676C39.1172 1.73286 39.1448 1.80505 39.1724 1.80505C39.3379 1.73285 39.5035 1.62455 39.669 1.58845C39.6966 1.58845 39.7241 1.51625 39.7517 1.48015C39.8345 1.48015 39.9172 1.48015 40 1.48015C40.0276 1.51625 40.0828 1.58845 40.1379 1.66065C40.2207 1.66065 40.3035 1.66065 40.3862 1.66065C40.4414 1.73285 40.469 1.76896 40.5517 1.84116C40.6069 1.80506 40.6897 1.76896 40.8276 1.66065C40.8828 1.66065 41.0207 1.66065 41.1586 1.66065C41.2138 1.73285 41.2966 1.80506 41.3517 1.87726C41.3517 1.98556 41.3517 2.12996 41.3517 2.16606C41.269 2.38267 41.1862 2.56318 41.131 2.74368C41.269 2.96029 41.3517 2.70759 41.4345 2.63539C41.5448 2.63539 41.6828 2.63539 41.7931 2.63539C41.8207 2.59928 41.8483 2.56317 41.9035 2.49097C41.9862 2.49097 42.0966 2.49097 42.1793 2.49097C42.2345 2.56317 42.2897 2.63538 42.3724 2.70758C42.3724 2.81588 42.3724 2.92419 42.3724 2.9964C42.2345 3.32131 42.1241 3.64621 42.0138 3.93502C42.069 3.97112 42.1241 3.97112 42.2069 3.97112C42.2621 4.07942 42.2896 4.18772 42.3448 4.29603C42.3448 4.29603 42.3724 4.29603 42.4 4.29603C42.5379 4.25992 42.5655 4.04332 42.7035 4.00722C42.731 4.04332 42.7586 4.07942 42.8138 4.15162C42.8966 4.15162 42.9793 4.15162 43.0621 4.15162C43.1172 4.22383 43.1448 4.25993 43.2 4.33213C43.2828 4.33213 43.3655 4.33213 43.4759 4.33213C43.4759 4.40433 43.5034 4.51264 43.5034 4.62094C43.3931 4.65705 43.3379 4.69314 43.2276 4.76535C43.3379 4.83755 43.4207 4.87365 43.5034 4.94585C43.4483 5.01805 43.4207 5.05416 43.3655 5.12636C43.3655 5.23466 43.3655 5.34296 43.3655 5.41516C43.4483 5.59567 43.5035 5.74008 43.5586 5.88448C43.6138 5.84838 43.6414 5.77618 43.6966 5.70398C43.7241 5.77618 43.7517 5.84837 43.7793 5.95668C43.6966 6.02888 43.6138 6.06498 43.531 6.10108C43.4483 6.17328 43.3655 6.20938 43.2828 6.28159C43.2828 6.35379 43.2828 6.38989 43.2828 6.49819C43.1448 6.6787 43.0069 6.85921 42.8414 7.03971C42.6207 7.03971 42.5655 7.32852 42.4 7.43682C42.2069 7.58123 41.9862 7.76174 41.7655 7.87004C41.6552 7.90614 41.6 8.12275 41.4345 8.05055C41.3517 8.15885 41.2414 8.26715 41.1586 8.37545C41.0759 8.37545 41.0207 8.37545 40.9655 8.37545C40.8552 8.41156 40.7724 8.55596 40.6621 8.59206C40.5793 8.62816 40.5241 8.77256 40.4414 8.88087C40.1931 8.91697 40.1931 8.91696 39.8897 9.16967C39.9172 9.20577 39.9173 9.20578 39.9448 9.20578C40.1655 9.20578 40.3586 9.20578 40.5241 9.20578C40.6621 9.09747 40.8 9.06138 40.8828 8.95307C40.9655 8.84477 41.1035 8.88087 41.1862 8.73647C41.269 8.62816 41.3793 8.55596 41.4897 8.55596C41.6 8.51986 41.7379 8.55596 41.8207 8.37545C41.9035 8.37545 41.9862 8.37545 42.069 8.37545C42.1241 8.51986 42.2621 8.51986 42.3724 8.59206C42.3724 8.77257 42.3724 8.95307 42.3724 9.13358C42.2897 9.16968 42.2069 9.20578 42.1241 9.24188C42.1517 9.27798 42.1793 9.35018 42.2069 9.35018C42.2896 9.35018 42.4 9.38629 42.4552 9.31409C42.5655 9.16968 42.6759 9.20577 42.7862 9.16967C42.869 9.13357 42.9517 9.02527 43.0345 8.98917C43.0897 9.06137 43.1448 9.13357 43.2 9.16967C43.3104 9.16967 43.4483 9.16967 43.5586 9.16967C43.6414 9.27798 43.7517 9.38628 43.8345 9.53068C44.0552 9.53068 44.2483 9.53068 44.469 9.53068C44.5241 9.60289 44.5793 9.71119 44.6621 9.78339C44.5793 9.8917 44.4965 10 44.4138 10.1444C44.5517 10.2888 44.6897 10.1805 44.8276 10.2166C44.9103 10.1805 44.9379 10.0361 45.0207 10.0361C45.0483 10.0722 45.0483 10.1444 45.0759 10.2166C45.2966 10.2166 45.5173 10.2166 45.7379 10.2166C45.8207 10.361 45.7655 10.5054 45.7931 10.722C45.7379 10.7942 45.6552 10.9025 45.5448 11.0469C45.5724 11.083 45.6 11.2274 45.6 11.1913C45.7104 11.1552 45.7931 11.2635 45.8483 11.3718C45.9034 11.2996 45.9586 11.2635 46.0138 11.1913C46.1793 11.3357 46.3448 11.444 46.5379 11.5884C46.4552 11.8051 46.3724 11.9856 46.3172 12.1661C46.4 12.2022 46.4828 12.2383 46.5655 12.2744C46.3724 12.5271 46.2069 12.7437 46.0414 12.9603C46.2069 13.1769 46.2621 12.9242 46.3724 12.8881C46.6759 12.8881 46.9793 12.8881 47.2552 12.8881C47.3379 12.9964 47.4207 13.1047 47.5034 13.213C47.6966 13.213 47.9448 13.213 48.1379 13.213C48.3586 13.5018 47.9448 13.574 48.1103 13.8267C48.1379 13.8267 48.1931 13.8628 48.2483 13.8628C48.3035 13.7906 48.3586 13.7545 48.3862 13.6823C48.4138 13.7184 48.4414 13.7545 48.4966 13.8267C48.6897 13.8267 48.9379 13.8267 49.131 13.8267C49.269 13.9711 49.1862 14.1155 49.2138 14.2599C49.131 14.3682 49.0483 14.4765 48.9655 14.6209C49.0207 14.6931 49.0759 14.7653 49.1586 14.8736C49.2138 14.8375 49.2414 14.7653 49.2966 14.7292C49.4345 14.657 49.4897 14.8736 49.5724 14.8736C49.7103 14.9097 49.7379 14.9458 49.7655 15.1263C49.7655 15.1986 49.8483 15.3069 49.931 15.3791C50.0414 15.4513 50.1793 15.5235 50.3172 15.5957C50.3724 15.5235 50.4 15.4874 50.4552 15.4152C50.5655 15.4152 50.7034 15.4152 50.8138 15.4152C50.869 15.343 50.8966 15.3069 50.9517 15.2347C51.0897 15.2347 51.2276 15.1625 51.3655 15.2708C51.3103 15.4152 51.2828 15.5235 51.2276 15.704C51.1724 15.704 51.1172 15.7401 51.0621 15.7401C51.0621 15.8123 51.0345 15.8845 51.0069 15.9928C50.869 16.1372 50.731 16.1011 50.5655 15.8845C50.5104 16.0289 50.4276 16.1733 50.4 16.2455C50.2897 16.2455 50.2621 16.2455 50.2069 16.2455C50.1517 16.3177 50.1241 16.3538 50.069 16.426C49.931 16.426 49.8207 16.426 49.7103 16.426C49.6552 16.3538 49.6276 16.3177 49.6 16.2816C49.4897 16.426 49.3793 16.5343 49.269 16.6787C49.2966 16.7509 49.2966 16.8231 49.3241 16.9314C49.4345 16.787 49.5173 16.6787 49.6 16.5704C49.6828 16.5704 49.7655 16.5704 49.8483 16.5704C49.9035 16.6426 49.931 16.6787 49.9862 16.7148C50.0138 16.6787 50.0414 16.6426 50.0966 16.5704C50.2069 16.5704 50.3724 16.5704 50.4828 16.5343C50.5103 16.4982 50.5655 16.426 50.5931 16.3899C50.7586 16.3899 50.9241 16.3899 51.0897 16.3899C51.1448 16.3177 51.1724 16.2816 51.2 16.2455C51.3104 16.2455 51.4483 16.2455 51.5586 16.2455C51.6138 16.1733 51.6414 16.1372 51.6966 16.065C51.7793 16.065 51.8621 16.065 51.9448 16.065C51.9724 16.1011 52.0276 16.1733 52.0828 16.2455C52.1104 16.1372 52.1379 16.0289 52.1655 15.9567C52.3035 15.8484 52.4414 15.9567 52.5793 15.8845C52.6621 15.9928 52.7173 16.065 52.7724 16.1372C52.6345 16.3538 52.4414 16.1372 52.331 16.2455C52.3034 16.2816 52.2483 16.3538 52.2207 16.3899C52.1104 16.3899 51.9724 16.3899 51.8621 16.3899C51.669 16.8592 51.6414 17.1119 51.4759 17.148C51.3931 16.9675 51.3931 16.9675 51.2276 17.0397C51.2828 17.2202 51.3931 17.1119 51.4759 17.148ZM6.81379 9.8556C6.84137 10 6.84137 10.1083 6.95172 10C6.92413 9.9639 6.89656 9.9278 6.84138 9.9639C6.8138 9.8195 6.8138 9.71119 6.70345 9.8195C6.73104 9.8556 6.75862 9.8917 6.81379 9.8556ZM38.731 2.02166C38.6483 2.05776 38.5379 1.94946 38.4828 2.12996C38.6483 2.20216 38.6483 2.20217 38.6759 2.05777C38.7862 2.02166 38.869 2.02166 38.7862 1.87726C38.7862 1.91336 38.7586 1.94946 38.731 2.02166ZM9.02069 8.23105C9.21379 8.19495 9.21379 8.33935 9.29655 8.37545C9.35172 8.30325 9.4069 8.23105 9.48965 8.12274C9.43448 8.05054 9.37932 7.94224 9.32414 7.87004C9.24139 7.97834 9.18621 8.05055 9.13104 8.23105C9.07586 8.23105 8.9931 8.23105 8.93793 8.23105C8.93793 8.33936 8.77241 8.33935 8.8 8.55596C8.85517 8.55596 8.91034 8.55596 8.96551 8.59206C8.96551 8.44766 9.10344 8.37546 9.02069 8.23105ZM32.3035 3.86282C32.3586 3.86282 32.4414 3.86282 32.4966 3.86282C32.5517 3.79062 32.5793 3.75452 32.6345 3.71842C32.7448 3.68232 32.8552 3.79062 32.9379 3.64621C32.9379 3.64621 32.9379 3.61011 32.9104 3.574C32.7724 3.574 32.6345 3.574 32.4966 3.574C32.4414 3.68231 32.331 3.71842 32.3586 3.86282C32.2483 3.89892 32.1655 3.89892 32.2483 4.04333C32.2483 3.97112 32.2759 3.89892 32.3035 3.86282ZM20.6896 11.083C20.8 11.083 20.9103 11.1191 20.9931 11.083C21.1035 10.9747 21.2414 10.9747 21.3241 10.8303C21.3793 10.7581 21.4621 10.722 21.4345 10.5776C21.5448 10.5776 21.6276 10.5776 21.7103 10.4693C21.7931 10.361 21.931 10.361 22.0138 10.2527C22.069 10.1805 22.2069 10.2888 22.3172 10.1805C22.2069 10.1083 22.0966 10 22.0138 9.9278C21.8207 10.1083 21.5448 10.2166 21.4345 10.5776C21.3793 10.5776 21.2966 10.5415 21.269 10.5776C21.1035 10.7581 20.8828 10.8303 20.6896 11.0108C20.6896 11.0108 20.6897 11.0469 20.7172 11.083C20.6069 11.1191 20.5241 11.1191 20.6069 11.2635C20.6621 11.1913 20.6896 11.1552 20.6896 11.083ZM18.1793 2.9964C18.2897 2.9964 18.4 2.9964 18.4828 2.9964C18.5379 2.92419 18.5655 2.88809 18.6207 2.81589C18.7586 2.81589 18.869 2.81589 18.9793 2.81589C19.0897 2.67149 19.2 2.52708 19.3103 2.38267C19.2552 2.34657 19.2 2.31048 19.1172 2.27437C19.0345 2.41878 18.9793 2.52707 18.8965 2.67148C18.8138 2.59928 18.7862 2.52707 18.731 2.49097C18.6759 2.56317 18.6483 2.59928 18.5931 2.67148C18.5103 2.67148 18.4276 2.67148 18.3448 2.67148C18.2896 2.81588 18.1793 2.85199 18.1793 2.9964C18.0966 3.0325 17.9862 2.92419 17.931 3.1047C18.0138 3.1769 18.0414 3.3213 18.1517 3.3213C18.1517 3.213 18.1793 3.1047 18.1793 2.9964ZM0.386205 27.0397C0.413791 27.0397 0.441381 27.0397 0.441381 27.0397C0.606898 26.8592 0.744823 26.6426 0.882754 26.4621C0.855167 26.3177 0.910345 26.2455 0.965517 26.1372C1.02069 26.065 1.02069 25.9567 1.04827 25.8845C1.13103 25.8484 1.18621 25.8484 1.21379 25.8484C1.29655 25.5957 1.37931 25.4152 1.43448 25.1986C1.48965 25.1986 1.54482 25.1986 1.6 25.1986C1.62758 25.0903 1.65517 25.018 1.68276 24.9097C1.76552 24.8736 1.82069 24.8375 1.90345 24.8014C1.90345 24.657 1.90345 24.5487 1.90345 24.4404C2.01379 24.2599 2.12414 24.1516 2.17931 23.935C2.23448 23.7545 2.4 23.6101 2.51035 23.4657C2.51035 23.3935 2.51035 23.3574 2.51035 23.2852C2.64828 23.1769 2.81379 23.1047 2.89655 22.9242C2.89655 22.8159 2.89655 22.7076 2.89655 22.5993C2.95172 22.5271 3.00689 22.3827 3.08965 22.3827C3.28275 22.3466 3.33793 22.2022 3.42069 21.9856C3.53103 21.7328 3.58621 21.4079 3.8069 21.2635C4.05518 21.1191 4.2207 20.9025 4.35863 20.6498C4.44138 20.5054 4.6069 20.5776 4.66207 20.4332C4.66207 20.361 4.66207 20.3249 4.66207 20.3249C4.88276 20.0361 5.07586 19.7834 5.26897 19.5307C5.32414 19.4946 5.37931 19.4946 5.43448 19.4585C5.43448 19.3863 5.43448 19.3141 5.43448 19.278C5.51724 19.2419 5.6 19.1697 5.68276 19.1336C5.68276 19.0614 5.68276 19.0253 5.68276 18.9892C5.84828 18.7726 5.9862 18.556 6.12413 18.3754C6.17931 18.3754 6.20689 18.3754 6.26206 18.3754C6.37241 18.1949 6.34483 17.87 6.5931 17.87C6.64827 17.87 6.70344 17.7978 6.67586 17.6895C6.67586 17.5451 6.75862 17.4729 6.81379 17.4368C7.03448 17.3285 7.17242 17.1119 7.33793 16.8953C7.39311 16.8231 7.44828 16.7148 7.53104 16.7148C7.77932 16.6787 7.75172 16.3899 7.86206 16.2094C7.88965 16.2094 7.94483 16.2094 7.97241 16.2094C8.02759 15.9928 8.11034 15.8123 8.24827 15.704C8.35862 15.6679 8.46896 15.7762 8.55172 15.6318C8.55172 15.5596 8.55172 15.5235 8.55172 15.4513C8.68965 15.343 8.82759 15.2708 8.93793 15.0903C9.04827 14.9098 9.2138 14.7292 9.32414 14.5487C9.4069 14.4043 9.57242 14.3682 9.68276 14.2599C9.68276 14.1877 9.68276 14.1516 9.68276 14.0794C9.76552 13.935 9.93103 14.0433 9.9862 13.8267C10.0414 13.6462 10.2069 13.6823 10.2897 13.5379C10.2345 13.4657 10.1517 13.3935 10.0966 13.3213C9.95862 13.4657 9.87586 13.6101 9.71034 13.7184C9.54482 13.7906 9.40689 13.9711 9.24137 14.0072C9.13103 14.2599 8.91034 14.296 8.74482 14.4765C8.52413 14.7292 8.33103 15.0542 8.05517 15.2708C7.83448 15.4513 7.64138 15.7401 7.47586 16.0289C7.31035 16.3177 7.03449 16.426 6.84138 16.6787C5.68276 18.231 4.52413 19.7834 3.36551 21.3357C3.28275 21.444 3.2 21.5162 3.14483 21.6245C3.08965 21.805 3.03448 21.9495 2.92414 22.0939C2.84138 22.2022 2.75862 22.3105 2.70345 22.491C2.67586 22.6715 2.51034 22.7798 2.42758 22.9242C2.4 22.9964 2.37241 23.0686 2.34483 23.1408C2.15172 23.4296 2.06896 23.7906 1.84827 24.0433C1.84827 24.1155 1.84827 24.1516 1.84827 24.2238C1.68275 24.4404 1.51724 24.657 1.35172 24.8736C1.35172 25.0902 1.24138 25.2347 1.13104 25.343C1.02069 25.4513 0.9931 25.704 0.910342 25.8123C0.662066 26.1011 0.551723 26.4982 0.386205 26.8592C0.331033 26.9675 0.358619 27.0758 0.386205 27.148C0.27586 27.1841 0.193103 27.1841 0.275862 27.3285C0.331035 27.148 0.358619 27.1119 0.386205 27.0397ZM28.5793 6.3899C28.6897 6.13719 28.8828 6.06498 29.0483 5.92057C29.131 5.84837 29.2414 5.88448 29.3517 5.84838C29.4897 5.77618 29.6276 5.63177 29.7655 5.52347C29.9035 5.41517 30.0414 5.34296 30.1793 5.23466C30.3172 5.09025 30.5379 5.30686 30.6207 5.01805C30.7862 4.98195 30.9241 4.80145 31.0897 4.72924C31.2828 4.65704 31.4483 4.54873 31.6414 4.47653C31.7517 4.33213 31.8897 4.15163 32 4.00722C32.0276 3.97112 32.0276 3.93502 32.0276 3.89892C31.9172 3.82672 31.7793 3.79061 31.669 3.93502C31.6138 3.97112 31.5586 4.00722 31.5034 4.04333C31.2276 4.07943 30.9793 4.29603 30.7586 4.51263C30.5103 4.76534 30.2345 4.83755 30.0138 5.09025C29.931 5.01805 29.8759 4.98195 29.7931 4.90975C29.7655 4.94585 29.7379 4.98195 29.6828 5.05415C29.5724 5.05415 29.4897 5.09025 29.3793 5.09025C29.3517 5.19856 29.3241 5.30686 29.2965 5.37906C29.2414 5.37906 29.2138 5.37906 29.1586 5.37906C29.1034 5.41516 29.0759 5.48736 29.0207 5.55956C28.9655 5.52346 28.9379 5.45126 28.9104 5.41516C28.7724 5.52347 28.6345 5.70398 28.4966 5.70398C28.2759 5.74008 28.2483 6.10109 28.0276 6.06499C27.9724 6.02889 27.9448 5.95668 27.8897 5.88448C27.7793 6.06499 27.5862 6.10108 27.4483 6.28159C27.3103 6.42599 27.1172 6.6065 26.869 6.5343C26.7586 6.7148 26.6483 6.89531 26.5379 7.07581C26.5103 7.03971 26.5103 7.03971 26.4828 7.00361C26.3172 7.11191 26.1517 7.22022 25.9862 7.32853C25.9586 7.29242 25.931 7.25631 25.9035 7.18411C25.7655 7.25631 25.7379 7.47293 25.5724 7.50903C25.4345 7.58123 25.2966 7.72564 25.0483 7.65343C24.9379 7.79784 24.8 7.97834 24.6621 8.15885C24.6345 8.15885 24.5793 8.15885 24.469 8.15885C24.4138 8.26715 24.331 8.37545 24.2759 8.48375C24.1379 8.48375 24.0552 8.48375 23.9724 8.48375C23.6966 8.91697 23.2828 9.02528 22.9517 9.31409C22.8965 9.24188 22.869 9.20577 22.8414 9.16967C22.8138 9.27798 22.7586 9.38629 22.731 9.49459C22.6759 9.49459 22.6483 9.49459 22.5931 9.49459C22.5379 9.60289 22.4276 9.63899 22.4276 9.8195C22.5379 9.8195 22.6483 9.8556 22.731 9.78339C22.9241 9.56679 23.2 9.53069 23.3655 9.31409C23.4483 9.31409 23.531 9.31409 23.5862 9.31409C23.7793 8.98917 24.0552 8.88087 24.3862 8.77257C24.5241 8.37546 24.8828 8.41155 25.1034 8.12274C25.1586 8.05054 25.2966 8.15885 25.4069 8.05055C25.4897 7.97834 25.5724 7.94224 25.6552 7.87004C25.7379 7.79784 25.8483 7.76174 25.9035 7.68954C26.0138 7.54513 26.1517 7.65343 26.2345 7.58123C26.3172 7.47292 26.3724 7.36462 26.4552 7.29242C26.5931 7.29242 26.7586 7.32852 26.8414 7.11192C26.9241 7.14802 27.0069 7.07581 27.0621 7.00361C27.1172 6.8953 27.2552 6.93141 27.3379 6.8231C27.3931 6.7509 27.531 6.78701 27.6414 6.75091C27.7793 6.4982 27.9724 6.38989 28.1655 6.28159C28.3586 6.38989 28.469 6.3899 28.5793 6.3899ZM41.131 2.34657C41.0207 2.34657 40.9104 2.31047 40.8552 2.34657C40.6897 2.49097 40.469 2.52708 40.3862 2.77979C40.4138 2.96029 40.331 3.1769 40.4414 3.3213C40.5241 3.2491 40.6069 3.213 40.7448 3.1047C40.7724 3.06859 40.8 2.9603 40.8552 2.81589C40.9104 2.63539 41.0759 2.70759 41.1586 2.59928C41.131 2.56318 41.131 2.49097 41.131 2.34657ZM4.57931 11.2635C4.71724 11.2635 4.71725 11.2635 4.77242 11.1552C4.68966 11.0469 4.57931 11.1191 4.46896 11.1191C4.35862 11.2996 4.11035 11.2996 4.02759 11.5162C4.08276 11.5884 4.13793 11.6606 4.1931 11.7329C4.30344 11.6606 4.38621 11.5884 4.49656 11.5162C4.52414 11.444 4.55173 11.3718 4.57931 11.2635ZM48 14.7653C47.9172 14.8736 47.9172 14.982 48 15.0903C48.0828 15.0903 48.1655 15.0903 48.2759 15.0903C48.3586 14.982 48.4138 14.8736 48.4966 14.7653C48.5793 14.7292 48.6897 14.8014 48.6897 14.5848C48.5517 14.5848 48.4138 14.5848 48.2759 14.5848C48.2483 14.6209 48.1931 14.6931 48.1655 14.7653C48.0828 14.7653 48.0552 14.7653 48 14.7653ZM40.4138 4.69314C40.469 4.62094 40.5241 4.58484 40.5517 4.51263C40.6345 4.51263 40.7172 4.51263 40.7448 4.51263C40.8828 4.40433 40.9931 4.33214 41.1034 4.25993C41.1034 4.18773 41.0759 4.11553 41.0759 4.00722C40.9379 4.11553 40.8276 4.15163 40.6897 4.18773C40.5793 4.22383 40.469 4.36824 40.331 4.44044C40.3862 4.54874 40.4138 4.62094 40.4138 4.69314ZM5.62758 10.2166C5.54483 10.3249 5.46207 10.5054 5.35172 10.5415C5.21379 10.5776 5.10345 10.6859 5.04828 10.8664C5.10345 10.8664 5.18621 10.9025 5.21379 10.9025C5.29655 10.8664 5.32414 10.722 5.4069 10.722C5.46207 10.722 5.48966 10.6498 5.54483 10.6137C5.62759 10.5776 5.68276 10.5415 5.76552 10.5054C5.76552 10.4332 5.76552 10.361 5.76552 10.2888C5.76552 10.2888 5.71034 10.2527 5.62758 10.2166ZM45.0483 11.1552C44.7724 10.9386 44.6069 11.2635 44.3862 11.3357C44.5517 11.4801 44.7172 11.4079 44.8552 11.4079C44.9104 11.3357 44.9931 11.2274 45.0483 11.1552ZM21.7103 2.09387C21.6 1.94946 21.4897 2.02166 21.4069 2.02166C21.3241 2.09386 21.269 2.16607 21.1862 2.27437C21.3793 2.38268 21.5448 2.38268 21.7103 2.27437C21.7103 2.20217 21.7103 2.12997 21.7103 2.09387ZM46.4 13.6101C46.2621 13.7184 46.1793 13.7906 46.0414 13.8628C46.1793 13.9711 46.2621 13.8989 46.3448 13.935C46.4828 13.8267 46.5655 13.7545 46.7035 13.6823C46.5655 13.574 46.4552 13.6101 46.4 13.6101ZM3.6138 11.7329C3.28276 12.13 3.28275 12.13 3.31034 12.2022C3.33792 12.2022 3.39311 12.2383 3.47586 12.2383C3.55862 12.0939 3.66896 11.9495 3.77931 11.769C3.72413 11.769 3.66897 11.769 3.6138 11.7329ZM48.5241 17.3646C48.6069 17.4007 48.6621 17.4729 48.6897 17.4368C48.7448 17.4007 48.8 17.3646 48.8276 17.3285C48.8552 17.2924 48.9103 17.2924 48.9379 17.2563C48.9655 17.2202 49.0207 17.2202 49.0759 17.148C48.9379 17.0397 48.8552 17.0758 48.8 17.0758C48.7172 17.2202 48.6345 17.2924 48.5241 17.3646ZM25.0207 1.76895C24.8552 1.62455 24.7448 1.66066 24.6069 1.73286C24.6069 1.80506 24.6345 1.91336 24.6345 1.98556C24.7172 1.98556 24.7448 1.98556 24.7448 1.98556C24.8552 1.91336 24.9103 1.84115 25.0207 1.76895ZM46.8138 13.5018C46.8966 13.574 46.9241 13.7184 47.0069 13.7184C47.0621 13.6462 47.1448 13.574 47.2 13.5018C47.0621 13.3935 46.9241 13.3935 46.8138 13.5018ZM3.17241 12.5993C3.14483 12.4549 3.14482 12.3827 3.11724 12.2744C3.03448 12.3105 2.95172 12.3105 2.86896 12.3466C2.89655 12.4549 2.89655 12.5271 2.89655 12.6354C3.0069 12.5993 3.06207 12.5993 3.17241 12.5993ZM43.0345 9.74729C43.0345 9.74729 42.9793 9.78339 42.9241 9.78339C42.9517 9.8195 42.9517 9.85559 42.9793 9.89169C43.0069 9.9639 43.0621 10 43.0897 10.0722C43.1448 10.0361 43.2 10.0361 43.3655 10C43.2 9.8917 43.1172 9.85559 43.0345 9.74729ZM9.65516 8.19495C9.68275 7.94224 9.82069 7.94224 9.82069 7.76173C9.73793 7.68953 9.68275 7.68953 9.57241 7.79784C9.6 7.87004 9.62758 7.97834 9.65516 8.19495ZM13.931 5.55956C14.0138 5.45126 14.0138 5.34296 13.931 5.19855C13.9034 5.34296 13.7655 5.34297 13.7655 5.52347C13.8207 5.52347 13.8759 5.52346 13.931 5.55956ZM37.8207 11.1552C37.931 11.2996 37.9862 11.2996 38.0966 11.1913C38.0966 11.1191 38.069 11.0108 38.069 10.9386C37.9862 11.0108 37.9035 11.083 37.8207 11.1552ZM22.2069 1.91336C22.0965 1.80506 22.0138 1.76895 21.9586 1.94946C22.0414 2.02166 22.1241 2.02167 22.2069 1.91336ZM25.1034 2.92419C25.0207 2.81589 24.9379 2.81589 24.8552 2.92419C24.9379 3.03249 25.0207 3.03249 25.1034 2.92419ZM17.6552 3.50181C17.6552 3.46571 17.6552 3.4296 17.6552 3.3935C17.6 3.3935 17.5448 3.35741 17.4897 3.35741C17.4897 3.35741 17.4345 3.3935 17.4621 3.3935C17.4621 3.4296 17.4896 3.50181 17.5172 3.50181C17.5448 3.50181 17.6 3.50181 17.6552 3.50181ZM12.9655 5.74007C12.9379 5.74007 12.9103 5.74007 12.8828 5.74007C12.8828 5.81227 12.8552 5.88448 12.8552 5.95668C12.8552 5.99278 12.8828 6.02888 12.8828 5.99278C12.9103 5.99278 12.9655 5.95668 12.9655 5.92057C12.9931 5.88447 12.9931 5.81227 12.9655 5.74007ZM11.7517 6.6426C11.669 6.53429 11.5862 6.53429 11.5034 6.6426C11.5586 6.7509 11.6414 6.7509 11.7517 6.6426ZM8.60689 8.62816C8.49655 8.51985 8.4138 8.48375 8.35863 8.66426C8.4138 8.77256 8.49655 8.77256 8.60689 8.62816ZM6.56552 10C6.48276 9.8917 6.4 9.8917 6.31724 10C6.4 10.1083 6.48276 10.1083 6.56552 10ZM42.5103 10C42.5931 10.1083 42.6759 10.1083 42.7586 10C42.6759 9.8556 42.5931 9.8556 42.5103 10ZM37.2138 11.5162C37.131 11.4079 37.0483 11.4079 36.9655 11.5162C37.0483 11.6245 37.131 11.6245 37.2138 11.5162ZM19.5862 1.94946C19.6138 1.98556 19.6138 1.98556 19.6414 2.02166C19.669 1.98556 19.669 1.94946 19.669 1.91336C19.669 1.91336 19.6414 1.87726 19.6414 1.84116C19.6138 1.87726 19.5862 1.91335 19.5862 1.94946ZM11.2552 6.8231C11.2828 6.8592 11.2828 6.85921 11.3103 6.89531C11.3379 6.85921 11.3379 6.82311 11.3379 6.78701C11.3379 6.78701 11.3103 6.7509 11.3103 6.7148C11.2828 6.7509 11.2552 6.787 11.2552 6.8231ZM39.1173 10.6859C39.1448 10.722 39.1448 10.722 39.1724 10.7581C39.2 10.722 39.2 10.6859 39.2 10.6498C39.2 10.6498 39.1724 10.6137 39.1724 10.5776C39.1724 10.6137 39.1448 10.6498 39.1173 10.6859ZM37.5172 11.4079C37.5448 11.3718 37.5724 11.3718 37.6 11.3357C37.5724 11.2996 37.5724 11.2635 37.5448 11.2996C37.5172 11.2996 37.4897 11.3357 37.4621 11.3357C37.4897 11.3718 37.4897 11.3718 37.5172 11.4079ZM20.0276 11.7329C20.0552 11.6967 20.0552 11.6968 20.0828 11.6607C20.0552 11.6246 20.0276 11.6246 20 11.6246C20 11.6246 19.9724 11.6607 19.9448 11.6607C19.9724 11.6968 20 11.6967 20.0276 11.7329ZM46.2897 12.2022C46.2621 12.1661 46.2621 12.13 46.2345 12.0939C46.2069 12.13 46.1793 12.13 46.2069 12.1661C46.2069 12.2022 46.2345 12.2383 46.2345 12.2744C46.2621 12.2383 46.2621 12.2383 46.2897 12.2022ZM52.8552 17.7617C52.8276 17.7256 52.8276 17.6895 52.8 17.6534C52.7724 17.6895 52.7448 17.6895 52.7724 17.7256C52.7724 17.7617 52.8 17.7978 52.8 17.8339C52.8 17.7978 52.8276 17.7617 52.8552 17.7617Z" fill="#10E048"/>
<g filter="url(#filter0_d_2090_128482)">
<path d="M15.88 15.095C16.08 13.785 16.325 12.495 16.615 11.225C16.915 9.955 17.21 8.785 17.5 7.715C17.58 7.425 17.7 7.245 17.86 7.175C18.03 7.105 18.275 7.11 18.595 7.19C18.745 7.23 18.88 7.265 19 7.295C19.12 7.325 19.235 7.365 19.345 7.415C19.465 7.465 19.59 7.525 19.72 7.595C19.85 7.665 20 7.755 20.17 7.865C20.46 8.045 20.62 8.23 20.65 8.42C20.69 8.6 20.67 8.82 20.59 9.08C20.36 9.82 20.12 10.66 19.87 11.6C19.62 12.54 19.37 13.495 19.12 14.465C18.88 15.435 18.645 16.385 18.415 17.315C18.195 18.235 18.005 19.045 17.845 19.745C17.785 20.125 17.485 20.255 16.945 20.135C16.485 20.045 16.015 19.915 15.535 19.745C15.095 19.575 14.785 19.275 14.605 18.845C14.465 18.535 14.32 18.175 14.17 17.765C14.03 17.355 13.885 16.915 13.735 16.445C13.585 15.965 13.435 15.47 13.285 14.96C13.135 14.44 12.995 13.92 12.865 13.4C12.755 14.02 12.64 14.64 12.52 15.26C12.41 15.88 12.3 16.475 12.19 17.045C12.09 17.605 11.995 18.13 11.905 18.62C11.825 19.1 11.76 19.52 11.71 19.88C11.67 20.05 11.605 20.155 11.515 20.195C11.425 20.245 11.25 20.235 10.99 20.165C10.75 20.105 10.505 20.045 10.255 19.985C10.015 19.915 9.78 19.81 9.55 19.67C9.33 19.56 9.185 19.435 9.115 19.295C9.035 19.145 9.005 18.94 9.025 18.68C9.045 18.41 9.08 18.025 9.13 17.525C9.17 17.025 9.23 16.46 9.31 15.83C9.38 15.19 9.465 14.51 9.565 13.79C9.655 13.06 9.755 12.335 9.865 11.615C9.975 10.895 10.085 10.2 10.195 9.53C10.315 8.86 10.43 8.265 10.54 7.745C10.61 7.445 10.735 7.26 10.915 7.19C11.095 7.11 11.34 7.11 11.65 7.19C12.02 7.3 12.38 7.41 12.73 7.52C13.08 7.63 13.445 7.775 13.825 7.955C14.135 8.085 14.355 8.25 14.485 8.45C14.615 8.64 14.71 8.925 14.77 9.305C14.82 9.595 14.885 9.965 14.965 10.415C15.045 10.865 15.135 11.355 15.235 11.885C15.335 12.405 15.44 12.945 15.55 13.505C15.66 14.055 15.77 14.585 15.88 15.095ZM22.3472 8.03C22.7772 7.92 23.2522 7.805 23.7722 7.685C24.3022 7.565 24.8522 7.455 25.4222 7.355C26.0022 7.255 26.5922 7.17 27.1922 7.1C27.8022 7.02 28.4072 6.97 29.0072 6.95C29.5772 6.94 29.9422 7.16 30.1022 7.61C30.2322 7.85 30.3222 8.07 30.3722 8.27C30.4222 8.46 30.4722 8.67 30.5222 8.9C30.5622 9.16 30.5422 9.335 30.4622 9.425C30.3822 9.515 30.1972 9.58 29.9072 9.62C29.3072 9.69 28.6872 9.76 28.0472 9.83C27.4072 9.9 26.7322 9.985 26.0222 10.085C25.8722 10.535 25.7322 11.005 25.6022 11.495C25.4722 11.975 25.3272 12.48 25.1672 13.01C25.4672 12.97 25.7672 12.94 26.0672 12.92C26.3672 12.9 26.6872 12.885 27.0272 12.875C27.3072 12.865 27.5272 12.89 27.6872 12.95C27.8472 13.01 27.9822 13.14 28.0922 13.34C28.2122 13.54 28.3022 13.74 28.3622 13.94C28.4322 14.13 28.4922 14.325 28.5422 14.525C28.6222 14.755 28.6272 14.91 28.5572 14.99C28.4972 15.07 28.3272 15.14 28.0472 15.2C27.4472 15.31 26.8322 15.415 26.2022 15.515C25.5822 15.615 24.9822 15.725 24.4022 15.845C24.3222 16.165 24.2472 16.47 24.1772 16.76C24.1072 17.04 24.0322 17.32 23.9522 17.6C24.4222 17.52 24.8672 17.455 25.2872 17.405C25.7172 17.355 26.1822 17.315 26.6822 17.285C26.9622 17.265 27.1772 17.285 27.3272 17.345C27.4872 17.405 27.6222 17.525 27.7322 17.705C27.8522 17.905 27.9422 18.095 28.0022 18.275C28.0722 18.445 28.1472 18.62 28.2272 18.8C28.2772 19 28.2772 19.14 28.2272 19.22C28.1772 19.29 28.0172 19.35 27.7472 19.4C27.1072 19.52 26.4572 19.645 25.7972 19.775C25.1372 19.905 24.5072 20.025 23.9072 20.135C23.5072 20.235 23.2022 20.255 22.9922 20.195C22.7922 20.145 22.6172 20.07 22.4672 19.97C22.2972 19.86 22.1322 19.75 21.9722 19.64C21.8222 19.52 21.6422 19.37 21.4322 19.19C21.2622 19.05 21.1322 18.885 21.0422 18.695C20.9422 18.505 20.9022 18.275 20.9222 18.005L22.3472 8.03ZM34.7995 16.07C35.0595 15.46 35.3395 14.795 35.6395 14.075C35.9495 13.355 36.2495 12.66 36.5395 11.99C36.8395 11.32 37.1145 10.71 37.3645 10.16C37.6245 9.61 37.8345 9.205 37.9945 8.945C38.1145 8.725 38.2445 8.585 38.3845 8.525C38.5345 8.465 38.7545 8.47 39.0445 8.54C39.3345 8.6 39.5745 8.665 39.7645 8.735C39.9645 8.805 40.1995 8.895 40.4695 9.005C40.6195 9.065 40.7295 9.125 40.7995 9.185C40.8795 9.245 40.9345 9.315 40.9645 9.395C41.0045 9.475 41.0245 9.57 41.0245 9.68C41.0345 9.79 41.0395 9.92 41.0395 10.07C41.0395 10.24 41.0245 10.53 40.9945 10.94C40.9645 11.35 40.9295 11.83 40.8895 12.38C40.8495 12.93 40.8045 13.515 40.7545 14.135C40.7145 14.755 40.6745 15.36 40.6345 15.95C40.8445 15.46 41.0695 14.945 41.3095 14.405C41.5595 13.855 41.8095 13.305 42.0595 12.755C42.3095 12.205 42.5545 11.67 42.7945 11.15C43.0445 10.62 43.2745 10.125 43.4845 9.665C43.7045 9.205 43.8995 8.795 44.0695 8.435C44.2495 8.065 44.3995 7.765 44.5195 7.535C44.6695 7.225 44.8195 7.055 44.9695 7.025C45.1195 6.985 45.3545 7.03 45.6745 7.16C45.9045 7.27 46.1295 7.395 46.3495 7.535C46.5795 7.665 46.7995 7.815 47.0095 7.985C47.2395 8.205 47.3495 8.44 47.3395 8.69C47.3295 8.94 47.2645 9.195 47.1445 9.455C46.8945 9.915 46.6195 10.44 46.3195 11.03C46.0195 11.62 45.7145 12.235 45.4045 12.875C45.0945 13.515 44.7795 14.17 44.4595 14.84C44.1495 15.5 43.8495 16.145 43.5595 16.775C43.2795 17.395 43.0145 17.98 42.7645 18.53C42.5145 19.08 42.2995 19.56 42.1195 19.97C42.0195 20.16 41.8845 20.28 41.7145 20.33C41.5445 20.38 41.2995 20.38 40.9795 20.33C40.7995 20.3 40.6445 20.265 40.5145 20.225C40.3845 20.195 40.2595 20.165 40.1395 20.135C40.0295 20.105 39.9145 20.07 39.7945 20.03C39.6845 20 39.5595 19.97 39.4195 19.94C39.1395 19.84 38.9395 19.705 38.8195 19.535C38.6995 19.355 38.6195 19.16 38.5795 18.95C38.5495 18.74 38.5095 18.485 38.4595 18.185C38.4195 17.885 38.3795 17.56 38.3395 17.21C38.2995 16.85 38.2595 16.485 38.2195 16.115C38.1895 15.745 38.1745 15.385 38.1745 15.035C37.9445 15.475 37.7095 15.935 37.4695 16.415C37.2295 16.885 36.9995 17.345 36.7795 17.795C36.5695 18.245 36.3745 18.665 36.1945 19.055C36.0145 19.435 35.8695 19.75 35.7595 20C35.6395 20.2 35.5095 20.315 35.3695 20.345C35.2395 20.385 35.0595 20.39 34.8295 20.36C34.5195 20.31 34.2195 20.245 33.9295 20.165C33.6495 20.095 33.3795 20.02 33.1195 19.94C32.8795 19.86 32.7045 19.755 32.5945 19.625C32.4945 19.485 32.4295 19.275 32.3995 18.995C32.3195 18.585 32.2495 18.115 32.1895 17.585C32.1195 17.045 32.0595 16.47 32.0095 15.86C31.9595 15.22 31.9145 14.55 31.8745 13.85C31.8345 13.15 31.7995 12.455 31.7695 11.765C31.7395 11.065 31.7195 10.385 31.7095 9.725C31.6995 9.055 31.6945 8.435 31.6945 7.865C31.7045 7.545 31.7645 7.34 31.8745 7.25C31.9845 7.16 32.1995 7.15 32.5195 7.22C32.8895 7.3 33.2245 7.385 33.5245 7.475C33.8245 7.555 34.1045 7.67 34.3645 7.82C34.5145 7.91 34.6345 8.02 34.7245 8.15C34.8145 8.28 34.8795 8.42 34.9195 8.57C34.9695 8.71 34.9995 8.86 35.0095 9.02C35.0195 9.17 35.0195 9.31 35.0095 9.44C34.9995 9.7 34.9795 10.08 34.9495 10.58C34.9295 11.08 34.9045 11.64 34.8745 12.26C34.8545 12.87 34.8345 13.51 34.8145 14.18C34.8045 14.84 34.7995 15.47 34.7995 16.07Z" fill="white"/>
</g>
<defs>
<filter id="filter0_d_2090_128482" x="5.99219" y="5.935" width="44.3594" height="19.47" filterUnits="userSpaceOnUse" color-interpolation-filters="sRGB">
<feFlood flood-opacity="0" result="BackgroundImageFix"/>
<feColorMatrix in="SourceAlpha" type="matrix" values="0 0 0 0 0 0 0 0 0 0 0 0 0 0 0 0 0 0 127 0" result="hardAlpha"/>
<feOffset dy="2"/>
<feGaussianBlur stdDeviation="1.5"/>
<feComposite in2="hardAlpha" operator="out"/>
<feColorMatrix type="matrix" values="0 0 0 0 0 0 0 0 0 0 0 0 0 0 0 0 0 0 0.8 0"/>
<feBlend mode="normal" in2="BackgroundImageFix" result="effect1_dropShadow_2090_128482"/>
<feBlend mode="normal" in="SourceGraphic" in2="effect1_dropShadow_2090_128482" result="shape"/>
</filter>
</defs>
</svg>
